<svg width="55" height="55" viewBox="0 0 55 55" fill="none" xmlns="http://www.w3.org/2000/svg">
<g id="Fevicon">
<circle id="Ellipse 241" cx="27.5" cy="27.5" r="27.5" fill="#171D2D"/>
<g id="Group">
<path id="Vector" d="M11.196 32.6387C11.7328 32.6387 12.2711 32.6387 12.8079 32.6387C13.022 32.6387 13.0235 32.6432 13.0944 32.8423C13.2617 33.3114 13.408 33.7895 13.6025 34.2466C13.8031 34.7187 14.0443 35.1742 14.281 35.6297C14.6595 36.3582 15.1149 37.0384 15.629 37.6794C16.5322 38.8031 17.5801 39.7699 18.7698 40.5784C19.6262 41.1606 20.5219 41.6779 21.4824 42.0791C22.3554 42.4441 23.2405 42.7699 24.1602 42.9902C24.694 43.1184 25.2323 43.2466 25.7751 43.319C26.7733 43.4517 27.7805 43.4788 28.7862 43.4125C29.326 43.3778 29.8628 43.2858 30.4011 43.2194C31.1052 43.1334 31.7868 42.9449 32.4638 42.7428C33.1694 42.5316 33.854 42.2556 34.5189 41.9389C35.2246 41.6025 35.9031 41.2179 36.5575 40.7895C37.2511 40.3355 37.8829 39.8031 38.4996 39.2511C39.5746 38.2888 40.4447 37.1576 41.1895 35.9283C41.4926 35.426 41.7791 34.9117 42.0324 34.3823C42.2661 33.8936 42.4817 33.3929 42.5918 32.8559C42.6355 32.6447 42.6596 32.6236 42.8737 32.6236C43.8433 32.6236 44.8143 32.6236 45.7838 32.6236C45.8803 32.6236 45.9753 32.6131 46.0718 32.6025C46.2497 32.5829 46.3402 32.6628 46.2995 32.8318C46.1789 33.322 46.0733 33.8167 45.8879 34.2888C45.823 34.4532 45.7778 34.6251 45.7205 34.7941C45.4868 35.4849 45.143 36.1229 44.8113 36.7684C44.5323 37.3114 44.2519 37.8544 43.896 38.3506C43.4392 38.9841 42.9853 39.6206 42.4983 40.233C42.0113 40.8454 41.4504 41.3929 40.8533 41.9027C40.4281 42.2647 40.021 42.6478 39.5746 42.9811C38.9911 43.417 38.3925 43.8408 37.7698 44.2164C37.1214 44.6086 36.4399 44.9449 35.7644 45.2888C35.4734 45.4366 35.1658 45.5527 34.8582 45.6644C34.341 45.8544 33.8223 46.0369 33.3006 46.2089C32.6281 46.4306 31.9376 46.5799 31.2425 46.7006C30.5398 46.8227 29.8326 46.9253 29.1194 46.963C28.5993 46.9901 28.0775 47.0128 27.5589 46.9992C26.9799 46.9841 26.4009 46.9419 25.8249 46.8816C24.982 46.7926 24.1437 46.6689 23.3204 46.4577C22.8379 46.334 22.3584 46.1923 21.8895 46.0279C21.3014 45.8212 20.7179 45.5995 20.1449 45.3536C19.6805 45.1546 19.2312 44.9208 18.7834 44.6855C17.9179 44.233 17.0916 43.7126 16.309 43.1304C15.8265 42.7714 15.3591 42.3838 14.9234 41.9705C14.2313 41.3144 13.5467 40.6478 12.9662 39.8846C12.5697 39.3627 12.1641 38.8469 11.8067 38.2978C11.4509 37.7503 11.1463 37.1681 10.8281 36.5965C10.4843 35.9781 10.1828 35.3386 9.92947 34.6794C9.72441 34.147 9.56006 33.598 9.37761 33.055C9.36857 33.0263 9.36706 32.9962 9.36103 32.9675C9.30222 32.69 9.34293 32.6402 9.63093 32.6402C10.1526 32.6402 10.6758 32.6402 11.1975 32.6402L11.196 32.6387Z" fill="white"/>
<path id="Vector_2" d="M21.5562 33.693C21.5562 33.693 21.5652 33.8046 21.5531 33.8528C21.5366 33.9207 21.52 33.9976 21.4778 34.0489C21.0209 34.6175 20.558 35.1801 20.0996 35.7473C19.9458 35.9388 19.8011 36.1379 19.6488 36.3295C19.5025 36.5135 19.4377 36.524 19.2718 36.3581C18.9386 36.0263 18.6084 35.693 18.2902 35.3476C17.9464 34.9765 17.6177 34.5919 17.2815 34.2118C17.179 34.0957 17.1684 34.0655 17.2664 33.9464C17.5182 33.6417 17.7776 33.3445 18.0339 33.0459C18.0671 33.0067 18.1033 32.969 18.1485 32.9177C18.1168 32.8679 18.0912 32.8166 18.055 32.7729C17.6735 32.3053 17.3011 31.8317 17.0101 31.3008C16.71 30.7518 16.4567 30.1847 16.3044 29.5723C16.1552 28.969 16.0783 28.3581 16.0964 27.7382C16.1114 27.2103 16.1748 26.6869 16.2803 26.1666C16.4869 25.15 16.8834 24.2103 17.384 23.3068C18.0324 22.1364 18.8979 21.156 19.9473 20.334C20.6364 19.794 21.3933 19.3657 22.194 19.0127C22.6358 18.8181 23.0851 18.6371 23.5389 18.4758C24.1556 18.2556 24.7844 18.0776 25.4433 18.0248C25.6951 18.0052 25.9424 17.9463 26.1942 17.9313C26.4551 17.9147 26.4701 17.9388 26.4686 18.2103C26.4596 20.7985 26.4475 23.3868 26.44 25.9765C26.437 27.2148 26.4354 28.4546 26.44 29.693C26.446 31.3114 26.4611 32.9298 26.4671 34.5482C26.4671 34.9645 26.44 35.3822 26.4415 35.7985C26.446 36.7759 26.4611 37.7518 26.4671 38.7276C26.4671 38.9282 26.4505 39.1289 26.437 39.3295C26.4279 39.4516 26.3872 39.4803 26.2605 39.4682C25.3363 39.3838 24.4451 39.162 23.5796 38.8317C23.3067 38.7276 23.2901 38.7005 23.2901 38.4049C23.2901 36.9192 23.2901 35.435 23.2901 33.9494C23.2901 33.889 23.3022 33.8257 23.2841 33.7714C23.2675 33.7246 23.2148 33.6583 23.1786 33.6583C22.6448 33.6583 22.1095 33.6703 21.5546 33.6869L21.5562 33.693ZM23.3052 22.7533C23.2555 22.7533 23.2313 22.7473 23.2117 22.7533C22.592 22.9554 22.0115 23.2344 21.4943 23.6371C20.855 24.1349 20.3454 24.7352 20.0167 25.4818C19.8116 25.9494 19.7136 26.4441 19.6322 26.9448C19.5704 27.3295 19.5462 27.7201 19.6005 28.1017C19.6955 28.7714 19.9473 29.3883 20.3409 29.9463C20.4494 30.1017 20.5776 30.1666 20.7721 30.1651C21.5335 30.156 22.2935 30.1605 23.0549 30.1605H23.3052V22.7533Z" fill="white"/>
<path id="Vector_3" d="M38.4226 33.88C38.4452 33.8981 38.5282 33.9629 38.5282 34.0504C38.5282 34.0957 38.495 34.1394 38.4287 34.2148C37.9914 34.7005 37.5511 35.1846 37.1108 35.6688C36.9103 35.889 36.7097 36.1092 36.5092 36.3294C36.3599 36.4938 36.2951 36.4984 36.1564 36.3249C35.7523 35.8181 35.3542 35.3083 34.9531 34.8C34.5159 34.245 34.0756 33.6914 33.6413 33.1334C33.4091 32.8332 33.183 32.5285 32.9643 32.2178C32.9176 32.15 32.892 32.0534 32.8904 31.9705C32.8799 31.2314 32.8769 30.4923 32.8724 29.7548C32.8724 29.7171 32.8708 29.6794 32.8724 29.6432C32.8859 29.4757 32.907 29.4607 33.0744 29.4441C33.5735 29.3988 34.0605 29.3053 34.5098 29.067C35.0753 28.7668 35.4522 28.3008 35.7025 27.7246C35.8955 27.2782 35.9875 26.8121 35.9136 26.3279C35.8548 25.9463 35.7613 25.5723 35.594 25.2178C35.3497 24.7005 35.0391 24.2299 34.632 23.8287C34.148 23.3506 33.581 22.9991 32.9387 22.7759C32.8407 22.7427 32.7366 22.7246 32.604 22.6929C32.5934 22.7744 32.5753 22.8498 32.5753 22.9252C32.5723 23.4395 32.5753 23.9554 32.5753 24.4712C32.5753 25.1062 32.5753 25.7397 32.5753 26.3747C32.5844 30.3747 32.5949 34.3747 32.6055 38.3762C32.6055 38.4214 32.6055 38.4652 32.6055 38.5104C32.6055 38.6748 32.5421 38.7789 32.3748 38.8453C31.7551 39.0911 31.1082 39.2254 30.4583 39.3445C30.202 39.3913 29.9457 39.426 29.6878 39.4667C29.4541 39.5029 29.4089 39.4622 29.4089 39.2329C29.4059 37.4199 29.4014 35.607 29.3968 33.794C29.3923 32.3234 29.3818 30.8528 29.3833 29.3837C29.3848 25.9433 29.3923 22.5014 29.3968 19.061C29.3968 18.7849 29.3878 18.5104 29.3833 18.2344C29.3772 17.9403 29.4044 17.9101 29.7029 17.9433C29.9532 17.9705 30.2035 18.0157 30.4523 18.0549C31.1972 18.1726 31.9149 18.3837 32.6175 18.6507C33.4393 18.9629 34.243 19.3098 34.9908 19.7774C35.6874 20.2133 36.3449 20.7005 36.9239 21.2857C37.3325 21.699 37.6898 22.1575 38.008 22.6462C38.3186 23.1228 38.584 23.6205 38.789 24.15C39.0016 24.699 39.1705 25.2601 39.2323 25.8483C39.2715 26.2178 39.3153 26.5889 39.3168 26.9599C39.3168 27.2631 39.261 27.5662 39.2263 27.8694C39.166 28.3913 39.0227 28.8951 38.8207 29.3732C38.6111 29.8724 38.3834 30.2148 38.2161 30.4637C37.9537 30.8528 37.5421 31.3837 36.9269 31.9267C36.9269 31.9267 38.0834 33.6085 38.4226 33.8845V33.88Z" fill="white"/>
<path id="Vector_4" d="M23.7395 11.5211C23.7395 12.0143 23.7395 12.506 23.7395 12.9992C23.7395 13.242 23.7245 13.2345 23.4802 13.2948C23.1274 13.3838 22.7776 13.4894 22.4353 13.61C21.8186 13.8272 21.2124 14.0776 20.638 14.3928C20.2791 14.5904 19.9263 14.7986 19.5825 15.0188C18.8738 15.4743 18.2134 15.9947 17.562 16.5301C17.0026 16.9901 16.5141 17.518 16.015 18.0399C15.5913 18.4818 15.2068 18.9585 14.8796 19.4728C14.5283 20.0248 14.1905 20.5874 13.8965 21.1711C13.5301 21.8951 13.2557 22.6598 13.0929 23.4592C13.0702 23.5678 13.0325 23.6749 12.9918 23.7775C12.9421 23.9011 12.8757 23.9343 12.7476 23.9238C12.6586 23.9162 12.5696 23.9072 12.4822 23.9057C11.5051 23.8996 10.5281 23.8951 9.55099 23.8906C9.52084 23.8906 9.49068 23.8921 9.46203 23.8906C9.30522 23.877 9.26752 23.8287 9.30371 23.6749C9.3595 23.4351 9.41378 23.1953 9.47711 22.9585C9.67011 22.2315 9.89176 21.515 10.1843 20.8212C10.6411 19.7352 11.2081 18.7081 11.8715 17.7322C12.2907 17.1153 12.7099 16.4984 13.2044 15.9434C13.6598 15.4321 14.1408 14.9434 14.6323 14.4652C15.0379 14.0716 15.4662 13.699 15.8989 13.3355C16.1839 13.0972 16.4885 12.8815 16.7945 12.6704C17.4866 12.1922 18.2074 11.7579 18.9507 11.3672C19.7212 10.963 20.5128 10.6025 21.3376 10.3189C21.9422 10.1108 22.5514 9.92226 23.1801 9.80311C23.3038 9.78048 23.4274 9.75484 23.5496 9.72317C23.6461 9.69752 23.6943 9.73825 23.7094 9.82422C23.7245 9.90416 23.7365 9.98561 23.738 10.0671C23.741 10.5527 23.738 11.0369 23.738 11.5226L23.7395 11.5211Z" fill="white"/>
<path id="Vector_5" d="M32.0853 9.72021C32.7849 9.90875 33.4378 10.0792 34.0891 10.2617C35.0119 10.5196 35.8623 10.951 36.7082 11.3914C37.4938 11.8002 38.2583 12.2466 38.9865 12.7519C40.0118 13.4623 40.9392 14.2888 41.8107 15.1772C42.4424 15.8213 42.9958 16.5332 43.516 17.2723C43.9623 17.9072 44.3619 18.5694 44.7328 19.2511C45.1369 19.9917 45.4762 20.7594 45.7747 21.5468C45.9089 21.8997 46.0039 22.2692 46.0989 22.6373C46.1864 22.9751 46.2542 23.3175 46.3266 23.6599C46.3673 23.8529 46.3281 23.9072 46.1321 23.9057C45.0434 23.9027 43.9533 23.8952 42.8646 23.8937C42.735 23.8937 42.6762 23.8318 42.6475 23.7157C42.5902 23.4849 42.5405 23.2511 42.4681 23.0249C42.3369 22.6222 42.2042 22.2195 42.0474 21.8258C41.7353 21.0415 41.3191 20.3085 40.8577 19.6041C40.3828 18.8801 39.8701 18.1848 39.2564 17.5724C38.8086 17.1259 38.3548 16.6825 37.8692 16.2798C37.3038 15.8092 36.7233 15.3492 36.087 14.9721C35.4085 14.5709 34.7149 14.1983 33.9881 13.8876C33.4257 13.6478 32.8497 13.4563 32.2617 13.2964C32.0355 13.2345 32.0234 13.2225 32.0234 12.9917C32.028 11.9917 32.0325 10.9917 32.04 9.99171C32.04 9.91478 32.0657 9.83937 32.0853 9.72323V9.72021Z" fill="white"/>
<path id="Vector_6" d="M29.516 11.2284C29.516 12.0188 29.513 12.8091 29.516 13.5994C29.519 14.2179 29.2597 14.699 28.7847 15.0806C28.0941 15.6356 27.0628 15.423 26.5999 14.7337C26.3104 14.3023 26.1521 13.8347 26.1551 13.3083C26.1611 11.8242 26.1566 10.34 26.1581 8.85435C26.1581 8.51649 26.2018 8.18768 26.3586 7.8815C26.6331 7.34455 27.0809 7.05345 27.6689 7.00669C28.2057 6.96446 28.6912 7.11981 29.0546 7.54063C29.323 7.85133 29.4979 8.21785 29.5115 8.63112C29.5326 9.25707 29.5265 9.88452 29.5296 10.5105C29.5311 10.7488 29.5296 10.9886 29.5296 11.2269C29.525 11.2269 29.519 11.2269 29.5145 11.2269L29.516 11.2284Z" fill="white"/>
<path id="Vector_7" d="M46.8995 29.9812C45.7898 29.9812 44.68 29.9842 43.5703 29.9812C42.6083 29.9781 41.8815 29.3643 41.7262 28.4035C41.6659 28.0264 41.7986 27.6644 42.0248 27.3552C42.3972 26.8439 42.9159 26.6056 43.5386 26.5935C44.1719 26.5815 44.8052 26.586 45.4385 26.5769C46.1381 26.5664 46.8377 26.5438 47.5373 26.5362C47.7062 26.5347 47.8796 26.5543 48.0455 26.586C48.7466 26.7202 49.3166 27.4321 49.4161 28.0958C49.5699 29.1139 48.7089 29.9389 47.7937 29.951C47.4951 29.9555 47.1966 29.951 46.8995 29.951C46.8995 29.9616 46.8995 29.9706 46.8995 29.9812Z" fill="white"/>
<path id="Vector_8" d="M10.7164 29.9525C10.4028 29.9525 10.0892 29.9494 9.77557 29.9525C9.05333 29.96 8.32958 29.9781 7.60733 29.9796C7.06904 29.9796 6.64685 29.7443 6.34378 29.3024C6.13872 29.0037 6 28.6885 6 28.3084C6 27.7639 6.24276 27.3537 6.62424 27.0022C6.94842 26.7036 7.34497 26.5965 7.77319 26.592C8.50448 26.5844 9.23427 26.5799 9.96556 26.5769C10.6079 26.5739 11.2487 26.5663 11.891 26.5784C12.5017 26.5905 13.0053 26.8258 13.34 27.3567C13.6341 27.8227 13.6597 28.328 13.4938 28.8363C13.2767 29.503 12.7987 29.8559 12.1021 29.9027C11.6422 29.9344 11.1809 29.9464 10.7195 29.9675C10.7195 29.9615 10.7195 29.9555 10.7195 29.9479L10.7164 29.9525Z" fill="white"/>
</g>
</g>
</svg>
