<svg width="82" height="109" viewBox="0 0 82 109" fill="none" xmlns="http://www.w3.org/2000/svg">
<g clip-path="url(#clip0_1_201)">
<path d="M53.4313 55.8122C69.2094 55.8122 82 43.3237 82 27.9183C82 12.5129 69.2094 0.0244141 53.4313 0.0244141C37.6532 0.0244141 24.8626 12.5129 24.8626 27.9183C24.8626 43.3237 37.6532 55.8122 53.4313 55.8122Z" fill="#E9A333"/>
<path d="M3.71422 79.5973V86.6694H0V67.9819H0.299957C2.60001 67.9819 4.90007 67.9836 7.20071 67.9819C8.73718 67.9808 10.1956 68.2737 11.477 69.1409C13.3 70.3755 14.1096 72.1077 13.9378 74.2517C13.7013 77.2065 11.3739 79.2055 8.46693 79.5034C7.05451 79.6485 5.61822 79.5734 4.19299 79.5973C4.04854 79.5996 3.90468 79.5973 3.71422 79.5973ZM3.72179 76.3575C3.79518 76.3655 3.84236 76.3751 3.88954 76.3751C4.8692 76.3751 5.84945 76.3797 6.82911 76.3734C7.45873 76.3694 8.06097 76.2443 8.6172 75.9429C9.64637 75.3856 10.1601 74.3626 9.95332 73.2775C9.76985 72.3119 8.89444 71.4247 7.72956 71.3036C6.42431 71.1683 5.09868 71.2194 3.78178 71.1904C3.76606 71.1904 3.74975 71.2092 3.72179 71.2268V76.3569V76.3575Z" fill="#18213A"/>
<path d="M45.347 80.5561C45.3453 76.904 47.7298 74.0515 51.0649 73.3981C53.8984 72.8431 56.3715 73.542 58.3832 75.6125C60.3967 77.6842 60.7246 81.1435 59.2144 83.5889C56.7413 87.5947 50.9431 88.2549 47.5359 85.0953C46.0937 83.7583 45.3622 82.1035 45.347 80.5561ZM56.506 80.1449C56.4816 79.9192 56.4641 79.6928 56.432 79.4682C56.0878 77.0371 53.3672 75.6256 51.1167 76.7078C49.6099 77.4323 48.8032 79.0081 49.038 80.7671C49.3292 82.9503 51.4947 84.3879 53.6789 83.8476C55.3499 83.4348 56.4955 81.9266 56.506 80.1444V80.1449Z" fill="#18213A"/>
<path d="M25.2773 73.6302C25.2773 73.7627 25.2773 73.8747 25.2773 73.9873C25.2773 76.2712 25.2645 78.5556 25.2878 80.8388C25.293 81.3336 25.3647 81.8454 25.5144 82.3168C25.8417 83.3473 26.6845 83.9433 27.7108 83.9626C28.8203 83.9831 29.6945 83.4116 30.1127 82.4027C30.3247 81.8915 30.3754 81.3575 30.376 80.8149C30.3772 78.5402 30.376 76.2661 30.376 73.9913V73.6319H33.8339C33.8339 73.7115 33.8339 73.8008 33.8339 73.8907C33.8275 76.3923 33.8252 78.8945 33.8141 81.3961C33.8072 82.943 33.3546 84.3277 32.202 85.4389C31.2782 86.3295 30.1465 86.814 28.8762 86.996C27.3397 87.2166 25.8516 87.0744 24.4759 86.3181C22.9662 85.4878 22.1508 84.1867 21.9015 82.5358C21.838 82.1161 21.8275 81.6867 21.8258 81.2614C21.8188 78.8354 21.8223 76.4094 21.8223 73.9834V73.6296H25.2767L25.2773 73.6302Z" fill="#18213A"/>
<path d="M35.5848 76.5686V73.6182H37.9873V69.9172H41.4453V73.604H44.4192V76.5469H41.4698V86.6706H37.9897V76.5691H35.5848V76.5686Z" fill="#18213A"/>
<path d="M19.3743 86.6826H15.9612V68.0002H19.3743V86.6826Z" fill="#18213A"/>
<path d="M3.70024 101.492V108.568H0V89.8882C0.0908607 89.8843 0.184634 89.8769 0.278406 89.8763C2.58836 89.8757 4.89832 89.8763 7.20828 89.8757C8.74476 89.8752 10.202 90.172 11.4822 91.0415C13.2936 92.2727 14.1003 93.9975 13.9343 96.1295C13.7031 99.0907 11.3861 101.091 8.478 101.394C7.03704 101.545 5.57162 101.466 4.11727 101.491C3.99321 101.493 3.86915 101.491 3.70141 101.491L3.70024 101.492ZM3.7148 98.2251C4.97695 98.2251 6.20939 98.2706 7.43543 98.2018C7.90255 98.1757 8.39646 97.9522 8.80591 97.7048C10.0092 96.9774 10.3564 95.4875 9.619 94.3854C9.10063 93.6097 8.3219 93.1906 7.40689 93.1337C6.19891 93.0592 4.98394 93.0956 3.77188 93.0859C3.75616 93.0859 3.74101 93.1064 3.7148 93.1246V98.2251Z" fill="#18213A"/>
<path d="M32.6446 96.6242V95.521H35.9045V108.581H32.672V107.462C32.5549 107.535 32.4838 107.573 32.4198 107.62C28.9187 110.196 23.9179 108.983 22.05 105.104C20.7512 102.407 21.2474 99.3465 23.3372 97.1662C25.6623 94.7402 29.6817 94.4194 32.3796 96.4428C32.4536 96.498 32.5322 96.5469 32.6446 96.6236V96.6242ZM32.4675 102.008C32.4571 101.874 32.4466 101.695 32.4273 101.515C32.1291 98.7949 29.0306 97.3254 26.7072 98.8341C25.3169 99.7366 24.8387 101.078 25.0379 102.663C25.3105 104.836 27.4737 106.278 29.6421 105.746C31.3143 105.336 32.4617 103.837 32.4681 102.008H32.4675Z" fill="#18213A"/>
<path d="M66.3836 103.298H56.2491C56.46 104.244 56.9545 104.951 57.7873 105.424C59.0291 106.129 61.2971 106.271 62.7457 104.821C62.907 104.66 63.0648 104.496 63.2367 104.32C64.1528 104.988 65.0597 105.649 65.9794 106.319C65.0253 107.501 63.8226 108.28 62.3677 108.663C60.1742 109.24 58.0296 109.107 56.0231 108.017C53.659 106.733 52.4633 104.725 52.4534 102.087C52.44 98.5527 54.9742 95.6854 58.5573 95.1878C60.763 94.8812 62.7433 95.4135 64.3707 96.9501C65.5763 98.0886 66.2228 99.5109 66.3731 101.13C66.4389 101.84 66.3842 102.561 66.3842 103.298H66.3836ZM62.6927 100.595C62.6956 99.363 61.413 98.2126 59.9494 98.1216C58.1485 98.0096 56.5881 99.0895 56.3918 100.595H62.6927Z" fill="#18213A"/>
<path d="M50.483 108.577H47.0431C47.0431 108.46 47.0431 108.35 47.0431 108.241C47.0431 105.834 47.0431 103.427 47.0431 101.02C47.0431 100.16 46.8131 99.3789 46.1135 98.8102C45.2766 98.1307 44.3249 98.0545 43.358 98.4861C42.3341 98.9427 41.8239 99.7719 41.818 100.864C41.8047 103.319 41.8134 105.773 41.8134 108.227C41.8134 108.338 41.8134 108.449 41.8134 108.573H38.3752V95.567H41.5717V96.4485C41.7482 96.3012 41.8716 96.1898 42.0038 96.0897C43.0918 95.2668 44.3517 95.0319 45.6831 95.132C47.3058 95.2537 48.6477 95.9128 49.5837 97.2509C50.2273 98.171 50.4947 99.2072 50.4958 100.312C50.4993 103.013 50.4982 105.713 50.4982 108.414C50.4982 108.46 50.49 108.506 50.4836 108.577L50.483 108.577Z" fill="#18213A"/>
<path d="M73.1428 108.572H69.6627V98.4571H67.2712V95.5153H69.6517V91.8188H73.1294V95.5028H76.1004V98.4463H73.1422V108.572L73.1428 108.572Z" fill="#18213A"/>
<path d="M15.9559 89.886H19.3667V108.568H15.9559V89.886Z" fill="#18213A"/>
<path d="M19.4488 27.6703C19.503 16.3877 27.4085 7.05159 37.9052 4.23376C40.5856 3.51438 43.3155 3.238 46.0867 3.40007C57.2876 4.05577 66.2648 11.7523 68.919 21.6673C69.4647 23.7072 69.7379 25.78 69.7373 27.8887C69.7355 41.0372 69.7367 78.071 69.7367 91.2195H73.1486C73.1486 78.0562 73.1463 41.0088 73.1498 27.8455C73.1516 21.5774 71.1922 15.9441 67.3021 10.9823C63.0602 5.57187 57.4845 2.1393 50.6746 0.637413C49.1416 0.299047 47.5853 0.097733 46.0116 0.0448455C45.9172 0.0414334 45.824 0.0158427 45.7303 0.000488281H43.418C43.3347 0.0158427 43.2514 0.0414334 43.1675 0.0448455C31.9422 0.533344 21.8508 7.60719 17.8075 18.1261C17.0055 20.2126 16.4726 22.3639 16.2011 24.5761C16.1225 25.2199 16.0812 25.8682 16.0188 26.5142C16.0089 26.6154 15.9775 26.7144 15.9559 26.8139V67.3348H19.4319C19.4296 54.1135 19.3848 40.8916 19.4482 27.6703H19.4488Z" fill="#18213A"/>
<path d="M44.202 23.2665C43.7524 23.1652 43.2876 23.1044 42.8554 22.9554C41.8408 22.6051 41.0469 21.9659 40.4395 21.0623H48.6717C48.5266 21.2499 48.4049 21.4296 48.261 21.5894C47.3891 22.5579 46.3017 23.1209 44.9796 23.2375C44.9522 23.2397 44.9266 23.2562 44.8998 23.2665H44.202Z" fill="#18213A"/>
<path d="M52.8279 20.0631H36.2767C36.2936 17.591 38.299 13.4544 43.1 12.5508C43.1 12.1806 43.0994 11.8058 43.1 11.4311C43.1012 11.1046 43.0924 10.7782 43.1082 10.4524C43.135 9.92064 43.4023 9.52313 43.8817 9.27802C44.0232 9.2058 44.0599 9.12846 44.0599 8.98572C44.0564 6.71554 44.057 4.44536 44.0575 2.17574C44.0575 2.07679 44.0575 1.97614 44.0715 1.87889C44.1059 1.64573 44.3226 1.47058 44.5584 1.4757C44.7897 1.48081 44.9935 1.64971 45.0279 1.87434C45.0425 1.97216 45.0425 2.07224 45.0425 2.17119C45.043 4.43398 45.0442 6.69734 45.0401 8.96013C45.0401 9.11652 45.0733 9.2058 45.2329 9.28769C45.7047 9.52881 45.9738 9.92462 45.9901 10.4484C46.0099 11.0722 45.9982 11.6966 46.0006 12.321C46.0006 12.3978 46.0006 12.4746 46.0006 12.5639C48.3577 13.0239 50.1988 14.2176 51.5291 16.1568C52.2682 17.2345 52.8617 19.0025 52.8279 20.0637V20.0631Z" fill="#18213A"/>
<path d="M61.6606 37.5911C61.4224 38.1615 60.9803 38.3583 60.3647 38.3378C59.5085 38.3088 58.65 38.3304 57.7926 38.3304H57.4181V62.0996C57.5282 62.1059 57.6348 62.1167 57.7414 62.1167C58.5096 62.1184 59.2778 62.1133 60.0461 62.119C60.6576 62.1235 61.1143 62.554 61.1067 63.1051C61.0991 63.6476 60.6536 64.0713 60.0595 64.0718C57.6208 64.0764 55.1821 64.0764 52.744 64.0718C52.1488 64.0707 51.7085 63.6493 51.7044 63.1028C51.6997 62.5427 52.1447 62.1218 52.7615 62.1184C53.627 62.1133 54.4931 62.1173 55.3749 62.1173V38.3298C55.1903 38.3298 55.026 38.3298 54.8618 38.3298C53.9712 38.3298 53.0801 38.3389 52.1895 38.3247C51.4679 38.3134 51.0264 37.7896 51.1825 37.1026C51.6112 35.2169 52.0655 33.3362 52.5047 31.4528C52.5984 31.0496 52.892 30.8403 53.2426 30.6765H59.59C60.0676 30.8835 60.2796 31.2606 60.3827 31.7485C60.614 32.8381 60.8755 33.922 61.1352 35.0059C61.3007 35.6957 61.4853 36.3815 61.6612 37.0691V37.5911H61.6606ZM59.3949 36.3542C59.1002 35.0992 58.8107 33.8691 58.5207 32.6334C57.1461 32.6334 55.8112 32.6294 54.4768 32.643C54.3947 32.6436 54.263 32.7721 54.2403 32.862C54.0283 33.7047 53.8349 34.5515 53.6369 35.3977C53.5641 35.7094 53.493 36.021 53.4162 36.3542H59.3949Z" fill="#18213A"/>
<path d="M48.0228 61.0226H31.4587C31.4587 61.7124 31.4686 62.3937 31.4564 63.0744C31.4424 63.8404 30.6724 64.3045 30.0003 63.9587C29.6316 63.7694 29.4569 63.4583 29.4557 63.0545C29.454 62.3835 29.4557 61.7124 29.4557 61.0061C29.1185 61.0061 28.8098 61.0107 28.5017 61.005C27.8761 60.9936 27.4539 60.5876 27.4533 59.9768C27.4504 56.4663 27.4364 52.9559 27.4614 49.4454C27.4696 48.2557 28.0911 47.3839 29.1837 46.8607C29.4056 46.7544 29.4627 46.6406 29.4604 46.4211C29.4505 45.5408 29.4522 44.6605 29.4569 43.7802C29.4697 41.3348 31.3836 39.3842 33.8823 39.2671C34.0046 39.2614 34.1269 39.2586 34.2492 39.2586C37.9122 39.2586 41.5746 39.254 45.2375 39.2597C47.6261 39.2631 49.4754 40.7047 49.9314 42.9169C49.9966 43.2342 50.017 43.5641 50.0217 43.8882C50.0339 44.7469 50.0293 45.6056 50.0228 46.4638C50.0217 46.6429 50.0584 46.7492 50.2477 46.8374C51.4032 47.3731 52.0154 48.2864 52.0229 49.5256C52.0433 52.9922 52.0323 56.4595 52.0288 59.9268C52.0282 60.6007 51.6112 60.9993 50.9251 61.0056C50.6379 61.0084 50.3513 61.0056 50.0263 61.0056C50.0263 61.6504 50.0298 62.2663 50.024 62.8822C50.0223 63.0437 50.0135 63.2103 49.9704 63.3645C49.8411 63.8279 49.3781 64.1254 48.904 64.0679C48.42 64.0093 48.0391 63.6272 48.0286 63.1467C48.0134 62.4523 48.0245 61.7574 48.0245 61.0221L48.0228 61.0226ZM46.0157 50.5765C46.0157 50.1875 46.0122 49.873 46.0157 49.5585C46.0308 48.2955 46.6272 47.3862 47.7869 46.8374C47.9674 46.7521 48.0257 46.6583 48.0233 46.4706C48.014 45.5903 48.0257 44.71 48.0146 43.8296C48.0117 43.5931 47.9808 43.3508 47.9197 43.1222C47.6028 41.9354 46.5929 41.2194 45.2282 41.2177C41.8996 41.2137 38.5709 41.216 35.2428 41.2165C34.7979 41.2165 34.3511 41.2063 33.9073 41.2313C32.5502 41.3092 31.4873 42.3801 31.4628 43.7017C31.4459 44.636 31.4523 45.5709 31.4669 46.5053C31.4686 46.6105 31.5682 46.7629 31.6655 46.8101C32.8438 47.3862 33.4478 48.3074 33.4617 49.5944C33.4652 49.9037 33.4617 50.2131 33.4617 50.5731C37.6576 48.6299 41.8139 48.6287 46.0139 50.5759L46.0157 50.5765ZM33.4641 55.1191H46.0157C46.0157 54.4322 46.0046 53.7611 46.0215 53.0912C46.0279 52.8518 45.9627 52.6988 45.7285 52.6152C45.6144 52.5743 45.5089 52.5111 45.4 52.4571C41.4819 50.5139 37.5947 50.6117 33.7401 52.6317C33.6248 52.692 33.4798 52.8324 33.4763 52.9394C33.453 53.6548 33.4641 54.3713 33.4641 55.1191ZM45.9999 57.1129H33.4885V59.0294H45.9999V57.1129ZM31.4593 59.0339V58.6694C31.4593 57.192 31.4593 55.7145 31.4593 54.2371C31.4593 52.6835 31.4622 51.1304 31.4581 49.5767C31.4564 48.9256 30.9905 48.49 30.3643 48.5383C29.8238 48.5804 29.4563 49.0012 29.4557 49.5949C29.454 52.6584 29.4546 55.7219 29.4557 58.7848C29.4557 58.8673 29.4709 58.9498 29.479 59.0334H31.4587L31.4593 59.0339ZM50.0246 59.0408C50.0246 58.8923 50.0246 58.7752 50.0246 58.6586C50.0246 56.8343 50.0246 55.0099 50.0246 53.1856C50.0246 51.9914 50.0275 50.7966 50.0228 49.6023C50.0205 49.0063 49.6542 48.5844 49.1172 48.5395C48.48 48.486 48.0216 48.9245 48.021 49.6029C48.0187 52.6545 48.0198 55.7054 48.021 58.757C48.021 58.8497 48.0356 58.9424 48.0437 59.0413H50.024L50.0246 59.0408Z" fill="#18213A"/>
<path d="M67.1518 66.2191H21.9545C21.5683 66.2191 21.2556 65.9137 21.2556 65.5367C21.2556 65.1596 21.5683 64.8542 21.9545 64.8542H67.1518C67.538 64.8542 67.8508 65.1596 67.8508 65.5367C67.8508 65.9137 67.538 66.2191 67.1518 66.2191Z" fill="#18213A"/>
</g>
<defs>
<clipPath id="clip0_1_201">
<rect width="82" height="109" fill="white"/>
</clipPath>
</defs>
</svg>
