<svg width="204" height="57" viewBox="0 0 204 57" fill="none" xmlns="http://www.w3.org/2000/svg">
<g clip-path="url(#clip0_143_68)">
<path d="M162.65 38.7668V18.8765H176.643L176.147 22.4462H167.053V26.7923H175.54V30.3584H167.053V35.2007H176.237L176.729 38.7668H162.65Z" fill="#F7BF0A"/>
<path d="M147.842 30.8798C147.842 32.3501 148.237 33.4897 149.03 34.3021C149.842 35.093 150.855 35.492 152.072 35.492C153.29 35.492 154.206 35.1361 154.881 34.4207C155.556 33.7054 155.894 32.6341 155.894 31.2033H151.404V27.9572H160.096V34.8306C160.096 35.7976 160.114 36.646 160.154 37.3829C160.211 38.1162 160.251 38.58 160.269 38.7741H157.805C157.553 38.0767 157.323 37.3326 157.108 36.5417C156.49 37.3326 155.678 37.9545 154.676 38.3966C153.692 38.8424 152.64 39.0653 151.519 39.0653H151.376C149.792 39.0653 148.373 38.7094 147.116 37.994C145.881 37.2786 144.904 36.2541 144.189 34.9204C143.492 33.5867 143.147 32.0302 143.147 30.2507V27.4108C143.147 25.6313 143.514 24.0747 144.246 22.7411C144.979 21.4074 146.003 20.3828 147.317 19.6675C148.65 18.9521 150.155 18.5962 151.835 18.5962H152.241C153.689 18.5962 155.014 18.9053 156.21 19.5237C157.406 20.124 158.354 20.9832 159.047 22.1048C159.744 23.2048 160.089 24.4918 160.089 25.962H155.858C155.858 24.7038 155.492 23.7584 154.759 23.1221C154.026 22.4858 153.1 22.1659 151.979 22.1659C150.762 22.1659 149.767 22.5721 148.994 23.3845C148.222 24.1754 147.834 25.3078 147.834 26.7781V30.8942L147.842 30.8798Z" fill="#F7BF0A"/>
<path d="M130.329 31.4621H135.831C135.099 29.2764 134.208 26.6774 133.166 23.6613H133.023L130.329 31.4621ZM137.02 34.8557H129.111L127.721 38.7705H123.404L130.616 18.8801H135.946L143.158 38.7705H138.464L137.016 34.8557H137.02Z" fill="#F7BF0A"/>
<path d="M119.008 24.5026C119.008 23.7693 118.717 23.1977 118.139 22.7915C117.561 22.3673 116.76 22.1552 115.736 22.1552C114.713 22.1552 113.843 22.3277 113.244 22.6764C112.665 23.0035 112.374 23.4493 112.374 24.0101C112.374 24.4918 112.558 24.898 112.924 25.2288C113.29 25.5379 113.754 25.7896 114.314 25.9837C114.892 26.1778 115.675 26.3899 116.659 26.62C118.107 26.9687 119.295 27.3246 120.222 27.6912C121.167 28.0579 121.971 28.6295 122.625 29.4024C123.3 30.1753 123.638 31.2106 123.638 32.5047C123.638 34.7659 122.905 36.4303 121.436 37.4908C119.989 38.5333 117.988 39.0582 115.438 39.0582C113.121 39.0582 111.2 38.5549 109.673 37.5519C108.169 36.5274 107.414 34.9816 107.414 32.9146L107.443 32.2783H111.674L111.645 32.742C111.645 33.594 111.965 34.2698 112.601 34.7731C113.236 35.2548 114.134 35.4993 115.294 35.4993C116.645 35.4993 117.611 35.2872 118.193 34.863C118.793 34.4388 119.091 33.896 119.091 33.2381C119.091 32.7348 118.908 32.3286 118.541 32.0194C118.193 31.6923 117.74 31.4407 117.18 31.2645C116.638 31.0704 115.876 30.8583 114.892 30.6282C113.423 30.2616 112.227 29.8949 111.3 29.5282C110.374 29.1615 109.573 28.572 108.898 27.7595C108.222 26.9471 107.885 25.8543 107.885 24.4846C107.885 23.2085 108.233 22.1264 108.926 21.2385C109.623 20.3505 110.55 19.6927 111.706 19.2685C112.884 18.8227 114.199 18.5999 115.646 18.5999C117.866 18.5999 119.683 19.0923 121.091 20.0773C122.503 21.0444 123.207 22.4931 123.207 24.4271V24.7758H119.008V24.5134V24.5026Z" fill="#F7BF0A"/>
<path d="M89.4491 27.9249C90.1459 27.9249 90.7924 27.7523 91.3886 27.4036C91.9848 27.0549 92.4589 26.5912 92.8073 26.0124C93.1557 25.4121 93.3281 24.765 93.3281 24.0712C93.3281 23.3774 93.1557 22.7375 92.8073 22.1587C92.4589 21.58 91.9848 21.1234 91.3886 20.7963C90.8103 20.4476 90.1638 20.275 89.4491 20.275H82.8441V27.9285H89.4491V27.9249ZM95.9679 38.7382C95.9284 38.7562 95.8422 38.7778 95.7057 38.7957C95.5692 38.8353 95.4148 38.8532 95.2424 38.8532C94.6426 38.8532 94.111 38.5908 93.6477 38.0696C93.2023 37.5267 92.9797 36.5346 92.9797 35.0822C92.9797 32.7636 92.5738 31.225 91.7621 30.4736C90.9504 29.7007 90.11 29.3125 89.2408 29.3125H82.8405V38.7634H81.2746V18.873H89.3557C90.3003 18.873 91.191 19.0851 92.0207 19.5093C92.8719 19.9156 93.5543 20.4943 94.0787 21.2492C94.5995 21.9826 94.8617 22.8346 94.8617 23.8016C94.8617 24.499 94.7072 25.182 94.3983 25.8614C94.0895 26.5409 93.6549 27.1196 93.0946 27.6014C92.5523 28.0831 91.9561 28.385 91.2988 28.5001V28.6439C91.2988 28.5468 91.5897 28.6618 92.168 28.9926C92.7678 29.3197 93.2993 29.9092 93.7626 30.7612C94.2439 31.5916 94.4881 32.7815 94.4881 34.3273C94.4881 35.4273 94.5564 36.2398 94.6893 36.761C94.8258 37.2643 94.9586 37.5843 95.0951 37.7173C95.2496 37.8323 95.5405 37.9869 95.9643 38.181V38.731L95.9679 38.7382Z" fill="black"/>
<path d="M65.511 32.4183H74.8384L70.234 21.0226H70.1191L65.5146 32.4183H65.511ZM75.4203 33.8382H64.9328L62.9035 38.7668H61.2801L69.5085 18.8765H70.9559L79.1843 38.7668H77.4747L75.4167 33.8382H75.4203Z" fill="black"/>
<path d="M57.1282 38.7668V20.6451H56.9809L49.0148 38.7668H47.5386L39.6299 20.6451H39.4862V38.7668H38.0963V18.8765H40.5852L48.3503 36.7681H48.379L56.2303 18.8765H58.6906V38.7668H57.1282Z" fill="black"/>
<path d="M32.4179 23.5462C32.4179 22.3851 31.9366 21.508 30.9705 20.9076C30.0259 20.2893 28.8083 19.9801 27.3214 19.9801C25.8345 19.9801 24.5702 20.2713 23.6436 20.8501C22.717 21.4109 22.2536 22.3096 22.2536 23.5462C22.2536 24.3587 22.4943 25.0165 22.9792 25.5162C23.4604 25.9979 24.0602 26.3862 24.775 26.6774C25.4897 26.947 26.4558 27.2382 27.6734 27.5473C29.1424 27.9356 30.3204 28.3094 31.2075 28.6797C32.1162 29.0284 32.8776 29.5784 33.4954 30.3333C34.1311 31.0667 34.4508 32.0624 34.4508 33.3206C34.4508 35.3122 33.7935 36.7717 32.4826 37.6992C31.1896 38.6087 29.4979 39.0616 27.4148 39.0616C25.3317 39.0616 23.5143 38.6159 22.1998 37.7279C20.8852 36.8184 20.2316 35.3589 20.2316 33.3494L20.2603 32.8281H21.7365L21.7077 33.6118C21.7077 35.0246 22.2177 36.0563 23.2413 36.7142C24.2649 37.3505 25.6154 37.6704 27.2963 37.6704C31.0423 37.6704 32.9171 36.2505 32.9171 33.4069C32.9171 32.4974 32.655 31.7641 32.1342 31.2033C31.6313 30.6425 31.0028 30.2183 30.2522 29.9271C29.5195 29.6359 28.5031 29.3196 27.2101 28.9709C25.7806 28.5826 24.6421 28.216 23.7909 27.8708C22.9396 27.5221 22.2177 27.0009 21.6179 26.3035C21.0181 25.5881 20.72 24.6427 20.72 23.4636C20.72 21.8387 21.3378 20.6236 22.5733 19.8112C23.8304 18.9987 25.4035 18.5925 27.2963 18.5925C29.189 18.5925 30.8304 19.0167 32.048 19.8687C33.2655 20.7207 33.8725 22.0328 33.8725 23.8123V24.1897H32.4251V23.5534L32.4179 23.5462Z" fill="black"/>
<path d="M104.34 14.8756V38.7669H102.397V14.8756H93.7159V13.0781H113.021V14.8756H104.34Z" fill="black"/>
<path fill-rule="evenodd" clip-rule="evenodd" d="M0 0V57H204V0H0ZM202.793 1.20787H1.20678V55.7885H202.793V1.20787Z" fill="black"/>
<path d="M190.111 13.0674H100.932V14.8972H190.111V13.0674Z" fill="black"/>
<path d="M190.108 41.97H19.7719V43.7674H190.108V41.97Z" fill="black"/>
<path d="M190.111 13.0674H188.315V43.7674H190.111V13.0674Z" fill="black"/>
</g>
<defs>
<clipPath id="clip0_143_68">
<rect width="204" height="57" fill="white"/>
</clipPath>
</defs>
</svg>
