<?xml version="1.0" encoding="utf-8"?>
<!-- Generator: Adobe Illustrator 24.1.2, SVG Export Plug-In . SVG Version: 6.00 Build 0)  -->
<svg version="1.1" id="Layer_1" xmlns="http://www.w3.org/2000/svg" xmlns:xlink="http://www.w3.org/1999/xlink" x="0px" y="0px"
	 viewBox="0 0 393.4 165.4" style="enable-background:new 0 0 393.4 165.4;" xml:space="preserve">
<style type="text/css">
	.st0{fill:#8BD1CB;}
	.st1{fill:#F6DC6A;}
	.st2{fill:#DD84B6;}
</style>
<path d="M4.5,154.2l-2.1,6.3H0l6.4-17.8h3l6.1,17.8h-2.4l-2.1-6.3L4.5,154.2z M10.5,152.4l-2.6-7.9l-2.8,7.9H10.5z"/>
<path d="M29.1,151.4h-2.3c-0.5-2.2-1.7-3.3-3.5-3.3c-2.1,0-4,1.7-4,5.4c0,4,1.8,5.6,3.8,5.6c1.8,0.1,3.3-1.2,3.5-3H29
	c-0.5,2.9-3.1,4.9-6,4.7c-3.5,0-6.1-2.2-6.1-7.2c0-4.6,3-7.2,6.4-7.2C26.3,146.3,28.9,148.5,29.1,151.4z"/>
<path d="M43.2,151.4h-2.3c-0.5-2.2-1.7-3.3-3.5-3.3c-2.1,0-4,1.7-4,5.4c0,4,1.8,5.6,3.8,5.6c1.8,0.1,3.3-1.2,3.5-3H43
	c-0.5,2.9-3.1,4.9-6,4.7c-3.5,0-6.1-2.2-6.1-7.2c0-4.6,3-7.2,6.4-7.2C40.3,146.3,42.9,148.5,43.2,151.4z"/>
<path d="M57.4,154.3h-9.9c0.2,3.6,1.9,4.8,3.9,4.8c1.8,0.1,3.3-1.3,3.5-3.1h2.4c-0.5,3.3-3.2,4.8-6,4.8c-3.5,0-6.2-2.3-6.2-7.1
	c0-4.4,2.8-7.2,6.5-7.2c3.7,0,5.8,2.8,5.8,6.8C57.4,153.6,57.4,154,57.4,154.3z M47.5,152.6h7.7c-0.2-2.8-1.4-4.5-3.7-4.5
	S47.8,149.7,47.5,152.6z"/>
<path d="M62.9,156.6c0,0.4,0,0.9,0,1.3c0,0.9,0.5,1.2,1.7,1v1.6c-0.5,0.1-1.1,0.1-1.6,0.1c-1.3,0-2.2-0.4-2.3-2.1c0-0.5,0-1.1,0-1.8
	v-15.1h2.2L62.9,156.6z"/>
<path d="M78.8,154.3h-9.9c0.2,3.6,1.9,4.8,3.9,4.8c1.8,0.1,3.3-1.3,3.5-3.1h2.3c-0.5,3.3-3.1,4.8-6,4.8c-3.6,0-6.2-2.3-6.2-7.1
	c0-4.4,2.8-7.2,6.5-7.2s5.8,2.8,5.8,6.8C78.8,153.6,78.8,154,78.8,154.3z M68.9,152.6h7.7c-0.2-2.8-1.4-4.5-3.7-4.5
	S69.2,149.7,68.9,152.6z"/>
<path d="M88.5,146.7v1.7c-2.3-0.2-4.1,1.2-4.1,4.3v7.8h-2.2v-13.7h2.2v2.1l1.2-1.8c0.6-0.4,1.2-0.6,1.9-0.6
	C87.9,146.5,88.2,146.6,88.5,146.7z"/>
<path d="M98.8,158.6L98,160c-1,0.6-2.2,0.9-3.4,0.9c-2.5,0-4.4-1.4-4.4-3.9c0-3.1,2.3-4.7,7.7-4.7h0.9v-0.4c0-0.6,0-1.1-0.1-1.6
	c-0.1-1.3-0.8-2.1-2.7-2.1s-2.8,1-2.9,2.9h-2.3c0.2-2.9,2.3-4.6,5.3-4.6c3.3,0,4.6,1.4,4.8,3.6c0,0.5,0.1,1.2,0.1,1.8v5.1
	c0,1.2,0.1,2.3,0.3,3.5H99L98.8,158.6z M98.8,155.3v-1.4c-3.8-0.3-6.1,0.5-6.1,2.9c0,1.6,1.1,2.4,2.7,2.4
	C97.5,159.2,98.8,157.8,98.8,155.3L98.8,155.3z"/>
<path d="M108,156.5c0,0.5,0,0.7,0,1c0.1,1.3,0.7,1.6,2.4,1.4v1.6c-0.6,0.1-1.3,0.1-1.9,0.1c-1.7,0-2.6-0.7-2.7-2.4
	c0-0.4,0-0.9,0-1.7v-8h-1.8v-1.7h1.8v-3.1h2.2v3.2h2.6v1.7H108V156.5z"/>
<path d="M124.6,154.3h-9.9c0.2,3.6,1.9,4.8,3.9,4.8c1.8,0.1,3.3-1.3,3.5-3.1h2.3c-0.5,3.3-3.1,4.8-6,4.8c-3.6,0-6.2-2.3-6.2-7.1
	c0-4.4,2.8-7.2,6.5-7.2s5.9,2.8,5.9,6.8C124.7,153.6,124.7,154,124.6,154.3z M114.8,152.6h7.7c-0.2-2.8-1.4-4.5-3.7-4.5
	S115,149.7,114.8,152.6z"/>
<path d="M140,160.5h-2.2v-2.2l-1,1.5c-1.1,0.7-2.3,1.1-3.6,1.1c-4,0-6.2-3-6.2-7c0-5.1,3.1-7.4,6.7-7.4c1.2,0,2.3,0.3,3.3,0.9
	l0.9,1.3v-7.2h2.2L140,160.5z M137.8,153.8v-0.8c0-3.5-2.2-4.9-4.2-4.9c-2.4,0-4.3,1.9-4.3,5.4c0,3.1,1.4,5.5,4.1,5.5
	C135.8,159.2,137.8,157.7,137.8,153.8z"/>
<path d="M162.5,147.6h-2.4c0-1.9-1.5-3.5-3.5-3.5c-0.1,0-0.2,0-0.3,0c-1.9,0-3.4,0.9-3.4,2.7s1.1,2.8,3.8,3.4
	c3.9,0.9,5.9,2.5,5.9,5.5s-2.7,5.1-6.1,5.1c-3.9,0-6.4-2-6.8-5.4h2.4c0.3,2.2,2.3,3.8,4.5,3.7c2,0,3.7-1.1,3.7-3
	c0-2.2-1.2-3.1-4.4-3.9s-5.3-2-5.3-4.9s2.6-5,5.9-5c3-0.2,5.7,2,5.9,5.1C162.5,147.5,162.5,147.6,162.5,147.6z"/>
<path d="M177,151.4h-2.3c-0.5-2.2-1.7-3.3-3.5-3.3c-2.1,0-3.9,1.7-3.9,5.4c0,4,1.8,5.6,3.8,5.6c1.8,0.1,3.3-1.2,3.5-3h2.3
	c-0.5,2.9-3.1,4.9-6,4.7c-3.4,0-6.1-2.2-6.1-7.2c0-4.6,3-7.2,6.4-7.2C174.1,146.3,176.7,148.5,177,151.4z"/>
<path d="M191.5,152.8v7.7h-2.2V153c0-0.7,0-1.3,0-2c0-1.5-1.2-2.8-2.7-2.8c-0.1,0-0.3,0-0.4,0c-2.1,0-3.9,1.6-3.9,6.3v6H180v-19h2.2
	v7.8l0.9-1.6c1-0.8,2.3-1.2,3.6-1.1c3,0,4.7,1.6,4.9,4C191.5,151.2,191.5,151.7,191.5,152.8z"/>
<path d="M208.1,153.7c0,3.8-2.1,7.2-6.8,7.2s-6.8-3.4-6.8-7.2s2.1-7.2,6.8-7.2S208.1,149.8,208.1,153.7z M205.7,153.7
	c0-3.2-1.6-5.5-4.4-5.5s-4.4,2.3-4.4,5.5s1.6,5.5,4.4,5.5S205.7,156.9,205.7,153.7z"/>
<path d="M223.7,153.7c0,3.8-2.1,7.2-6.8,7.2s-6.8-3.4-6.8-7.2s2.1-7.2,6.8-7.2S223.7,149.8,223.7,153.7z M221.3,153.7
	c0-3.2-1.6-5.5-4.4-5.5s-4.4,2.3-4.4,5.5s1.6,5.5,4.4,5.5S221.3,156.9,221.3,153.7z"/>
<path d="M228.9,156.6c0,0.4,0,0.9,0,1.3c0,0.9,0.5,1.2,1.7,1v1.6c-0.5,0.1-1.1,0.1-1.6,0.1c-1.3,0-2.2-0.4-2.3-2.1
	c0-0.5,0-1.1,0-1.8v-15.1h2.2L228.9,156.6z"/>
<path d="M252.1,153.7c0,3.8-2.1,7.2-6.8,7.2s-6.8-3.4-6.8-7.2s2.1-7.2,6.8-7.2C249.9,146.5,252.1,149.8,252.1,153.7z M249.6,153.7
	c0-3.2-1.6-5.5-4.4-5.5s-4.4,2.3-4.4,5.5s1.6,5.5,4.4,5.5S249.6,156.9,249.6,153.7L249.6,153.7z"/>
<path d="M257.5,145.6v1.3h2.8v1.7h-2.8v11.9h-2.2v-11.9h-1.5v-1.7h1.5v-1.1c0-0.6,0-1.1,0.1-1.6c0.1-1.8,1.7-3.2,3.5-3.1
	c0,0,0.1,0,0.1,0c0.5,0,1.1,0,1.6,0.1v1.8c-1.7-0.3-2.8,0.1-3,1.2C257.5,144.7,257.5,145.1,257.5,145.6z"/>
<path d="M269.8,160.5v-17.8h2.2v17.8H269.8z"/>
<path d="M287.9,152.8v7.7h-2.2V153c0-0.7,0-1.3,0-2c0-1.5-1.2-2.8-2.8-2.8c-0.1,0-0.2,0-0.3,0c-2.1,0-4,1.6-4,6.3v6h-2.2v-13.6h2.2
	v2.3l0.9-1.6c1-0.8,2.3-1.2,3.6-1.1c3,0,4.7,1.6,4.9,4C287.9,151.2,287.9,151.7,287.9,152.8z"/>
<path d="M303.6,152.8v7.7h-2.2V153c0-0.7,0-1.3,0-2c0-1.5-1.2-2.8-2.8-2.8c-0.1,0-0.2,0-0.3,0c-2.1,0-4,1.6-4,6.3v6h-2.2v-13.6h2.2
	v2.3l0.9-1.6c1-0.8,2.3-1.2,3.6-1.1c3,0,4.7,1.6,4.9,4C303.6,151.2,303.6,151.7,303.6,152.8z"/>
<path d="M320.2,153.7c0,3.8-2.1,7.2-6.8,7.2s-6.8-3.4-6.8-7.2s2.1-7.2,6.8-7.2S320.2,149.8,320.2,153.7z M317.8,153.7
	c0-3.2-1.6-5.5-4.4-5.5s-4.4,2.3-4.4,5.5s1.6,5.5,4.4,5.5S317.8,156.9,317.8,153.7L317.8,153.7z"/>
<path d="M329.4,160.5h-2.7l-5.2-13.7h2.5l4.2,12l4.1-12h2.4L329.4,160.5z"/>
<path d="M344.7,158.6l-0.7,1.5c-1,0.6-2.2,0.9-3.4,0.9c-2.5,0-4.4-1.4-4.4-3.9c0-3.1,2.3-4.7,7.7-4.7h0.9v-0.4c0-0.6,0-1.1,0-1.6
	c-0.1-1.3-0.8-2.1-2.7-2.1s-2.8,1-2.9,2.9h-2.3c0.2-2.9,2.2-4.6,5.3-4.6c3.3,0,4.6,1.4,4.9,3.6c0,0.5,0.1,1.2,0.1,1.8v5.1
	c0,1.2,0.1,2.3,0.3,3.5h-2.2L344.7,158.6z M344.7,155.3v-1.4c-3.8-0.3-6.1,0.5-6.1,2.9c0,1.6,1.1,2.4,2.7,2.4
	C343.3,159.2,344.6,157.8,344.7,155.3L344.7,155.3z"/>
<path d="M353.8,156.5c0,0.5,0,0.7,0,1c0.1,1.3,0.6,1.6,2.4,1.4v1.6c-0.6,0.1-1.3,0.1-1.9,0.1c-1.7,0-2.6-0.7-2.7-2.4
	c0-0.4,0-0.9,0-1.7v-8h-1.8v-1.7h1.8v-3.1h2.2v3.2h2.6v1.7h-2.6L353.8,156.5z"/>
<path d="M362.2,143.8c0,0.8-0.6,1.4-1.4,1.4c-0.8,0-1.4-0.6-1.4-1.4s0.6-1.4,1.4-1.4C361.6,142.4,362.2,143,362.2,143.8
	C362.2,143.8,362.2,143.8,362.2,143.8z M359.7,160.5v-13.7h2.2v13.7L359.7,160.5z"/>
<path d="M378.7,153.7c0,3.8-2.1,7.2-6.8,7.2s-6.8-3.4-6.8-7.2s2.1-7.2,6.8-7.2S378.7,149.8,378.7,153.7z M376.3,153.7
	c0-3.2-1.6-5.5-4.4-5.5s-4.4,2.3-4.4,5.5s1.6,5.5,4.4,5.5S376.3,156.9,376.3,153.7z"/>
<path d="M393.4,152.8v7.7h-2.2V153c0-0.7,0-1.3,0-2c0-1.5-1.2-2.8-2.8-2.8c-0.1,0-0.2,0-0.3,0c-2.1,0-4,1.6-4,6.3v6h-2.2v-13.6h2.2
	v2.3l0.9-1.6c1-0.8,2.3-1.2,3.6-1.1c3,0,4.7,1.6,4.9,4C393.4,151.2,393.4,151.7,393.4,152.8z"/>
<path d="M27.5,59.4L9.9,27.2c0.3,4.8,0.4,9.4,0.4,12.7v19.6H0V14.4h13.1l18.2,33.2C31,42.9,31,37.8,31,34.4v-20h10.2v45H27.5z"/>
<path d="M82.6,44.7H58.1c0.6,6.7,3.5,8.6,7.3,8.6c3.6,0,6-2,6.6-5.2h10.1c-1.9,8-8.4,12.3-16.9,12.3c-9.7,0-17.4-6-17.4-18.2
	c0-10.5,7-18.4,18-18.4s16.8,8.4,16.8,17.7C82.7,42.5,82.7,43.6,82.6,44.7z M58.4,38.2h13.7c-0.6-4.9-2.9-7.4-6.6-7.4
	S59.2,33.1,58.4,38.2z"/>
<path d="M130.3,59.4h-11.5l-5.2-25.3l-5.3,25.3H96.7l-11-34.8h11.4l5.4,26.3l5-26.1h12.2l5.3,26.1l5.3-26.3h11L130.3,59.4z"/>
<path d="M158.2,46c0,1.2,0,2.3,0.1,3.3c0.3,3.5,1.4,4.2,6.7,3.9v6.6c-2.1,0.3-4.2,0.5-6.3,0.5c-7.6,0-10.1-2.5-10.5-7.6
	c-0.1-1.8-0.1-3.3-0.1-5.3v-16h-5.3v-6.6h5.3v-8.8h10.3v8.8h7.4v6.5h-7.4L158.2,46z"/>
<path d="M205.8,42c0,10.8-6.9,18.4-18.4,18.4s-18.3-7.6-18.3-18.4s6.8-18.3,18.4-18.3S205.8,31.2,205.8,42z M195.2,42
	c0-7.2-2.9-11.2-7.7-11.2s-7.8,4-7.8,11.2s2.9,11.3,7.8,11.3S195.2,49.3,195.2,42z"/>
<path d="M246.3,39.8v19.6H236V41.4c0-1.3,0-3.1-0.1-4.8c-0.3-3.5-2.2-5.8-6.2-5.8s-7.1,3.7-7.1,12.5v16.1h-10.3V24.6h10.3v5.5
	l2.9-4.2c2.4-1.6,5.2-2.3,8.1-2.2c7.3,0,11.6,3.5,12.4,9.6C246.2,35.5,246.3,37.6,246.3,39.8z"/>
<path d="M49.9,113.5H39.6v-20c0-4.4,0-10.3,0.1-15c-0.9,4.6-2.4,10.6-3.7,14.9l-5.7,20H19.5l-5.8-20c-1.2-4.3-2.7-10.2-3.6-14.8
	c0.1,4.6,0.1,10.5,0.1,14.9v20H0v-45h16.1l9.1,35.3l9.1-35.3h15.7V113.5z"/>
<path d="M78.4,108.4l-1.6,3.7c-2.6,1.6-5.6,2.4-8.6,2.3c-5.9,0-11.2-3.6-11.2-10.2c0-7.6,6.7-12,19-12h2.2v-0.6c0-1,0-2-0.1-3
	c-0.2-2.1-1.8-3.8-4.8-3.8s-5,2-5.2,5.4h-9.8c0.2-8,6.9-12.5,15.4-12.5c10.3,0,14,4.5,14.6,10.7c0.1,1.6,0.2,3.6,0.2,5.6v10.6
	c0,3,0.2,5.9,0.7,8.8h-10L78.4,108.4z M78.2,100.8v-2.6c-6.3-0.5-10.7,1-10.7,5.1c0,2.6,1.9,4,4.7,4
	C75.3,107.3,78.2,105.1,78.2,100.8z"/>
<path d="M119.1,78v8.3c-8.1-0.5-11.6,2.7-11.6,12.6v14.6H97.3V78.7h10.3v6.7l2.6-4.8c1.7-1.7,3.9-2.7,6.3-2.8
	C117.4,77.8,118.2,77.8,119.1,78z"/>
<path d="M135,70.4c0,3.2-2.2,5.2-5.5,5.2s-5.4-2-5.4-5.2s2.1-5.2,5.4-5.2S135,67.2,135,70.4z M124.4,113.5V78.7h10.3v34.8H124.4z"/>
<path d="M176.1,98.7h-24.4c0.6,6.7,3.5,8.6,7.3,8.6c3.6,0,6-2,6.6-5.2h10.1c-1.9,8-8.4,12.3-16.9,12.3c-9.7,0-17.4-5.9-17.4-18.2
	c0-10.4,7-18.4,18-18.4s16.9,8.4,16.9,17.7C176.2,96.5,176.2,97.6,176.1,98.7z M151.9,92.3h13.7c-0.6-4.9-2.9-7.4-6.7-7.4
	S152.8,87.1,151.9,92.3z"/>
<path class="st0" d="M308.9,43.7l-41.4,41.4c-0.6,0.6-0.6,1.5,0,2c0.2,0.2,0.4,0.3,0.6,0.4l56.5,15.1c0.8,0.2,1.6-0.3,1.8-1
	c0.1-0.3,0.1-0.5,0-0.8l-15.2-56.5c-0.2-0.8-1-1.2-1.8-1C309.3,43.4,309.1,43.5,308.9,43.7z"/>
<path class="st1" d="M380.7,34L330,4.7c-0.7-0.4-1.6-0.2-2,0.5c-0.1,0.2-0.2,0.5-0.2,0.7v58.5c0,0.8,0.7,1.4,1.5,1.4
	c0.2,0,0.5-0.1,0.7-0.2l50.7-29.3c0.7-0.4,0.9-1.3,0.5-2C381.1,34.3,380.9,34.1,380.7,34z"/>
<path class="st2" d="M392.9,109.7l-41.7-41.1c-0.6-0.6-1.5-0.6-2,0c-0.2,0.2-0.3,0.4-0.4,0.7L334.1,126c-0.2,0.8,0.3,1.6,1,1.8
	c0.2,0.1,0.5,0.1,0.7,0l56.4-15.6c0.8-0.2,1.2-1,1-1.8C393.3,110.1,393.1,109.9,392.9,109.7z"/>
</svg>
