<?xml version="1.0" encoding="utf-8"?>
<!-- Generator: Adobe Illustrator 26.1.0, SVG Export Plug-In . SVG Version: 6.00 Build 0)  -->
<svg version="1.1" id="Layer_1" xmlns="http://www.w3.org/2000/svg" xmlns:xlink="http://www.w3.org/1999/xlink" x="0px" y="0px"
	 viewBox="0 0 500 80" style="enable-background:new 0 0 500 80;" xml:space="preserve">
<style type="text/css">
	.st0{fill:#DA0628;}
	.st1{fill:#FFFFFF;}
	.st2{fill:#11223A;}
</style>
<g>
	<g>
		<path class="st0" d="M63.8,6.7H40.5c-4.7,0-9,2.5-11.3,6.5L17.5,33.5c-2.3,4-2.3,9,0,13.1l11.7,20.2c2.3,4,6.7,6.5,11.3,6.5h23.3
			c4.7,0,9-2.5,11.3-6.5l11.7-20.2c2.3-4,2.3-9,0-13.1L75.1,13.3C72.8,9.2,68.5,6.7,63.8,6.7z"/>
		<g>
			<g>
				<g>
					<g>
						<path class="st1" d="M69.8,48.7c-0.2,0.2-0.4,0.5-0.7,0.7c-5,2.7-9.9,5.5-14.9,8.2c-0.5,0.3-0.8,0.2-1.3,0
							c-5-2.7-10-5.5-14.9-8.2c-0.5-0.3-0.7-0.6-0.7-1.1c0-0.5,0-1,0-1.6c-0.2,0-0.3,0-0.5,0c-2.2,0-4.5,0-6.7,0
							c-0.2,0-0.4,0-0.6-0.1c-0.4-0.1-0.6-0.5-0.6-0.9c0-0.4,0.4-0.8,0.8-0.8c0.2,0,0.3,0,0.5,0c2.4,0,4.7,0,7.1,0
							c0-1.5,0-3.1,0-4.6c-0.1,0-0.3,0-0.5,0c-1.5,0-3,0-4.6,0c-0.4,0-0.8-0.2-0.9-0.6c-0.1-0.3-0.1-0.7,0.2-0.9
							c0.2-0.1,0.5-0.2,0.8-0.2c1.6,0,3.2,0,4.9,0c0-1.1,0-2.1,0-3.2c-0.2,0-0.3,0-0.5,0c-3.1,0-6.3,0-9.4,0c-0.1,0-0.3,0-0.4,0
							c-0.5-0.1-0.8-0.5-0.8-0.9c0-0.5,0.4-0.8,0.8-0.8c0.3,0,0.7,0,1,0c2.9,0,5.9,0,8.8,0c0.2,0,0.3,0,0.5,0c0-0.6,0-1.1,0-1.7
							c0-0.5,0.2-0.8,0.6-1c5-2.8,10-5.5,15.1-8.3c0.4-0.2,0.8-0.2,1.2,0c5,2.8,10,5.5,15.1,8.3c0.2,0.1,0.4,0.4,0.6,0.5
							c0,2.1,0,4.2,0,6.3c-0.4,0.5-0.8,0.7-1.2,0.5C68.2,38,68,37.7,68,37c0-1.1,0-2.2,0-3.3c0-0.2,0-0.3,0-0.6
							c-1.4,0.8-2.7,1.5-4,2.2c-0.1,0.1-0.2,0.3-0.2,0.5c0,1.4,0,2.8,0,4.2c0,0.4-0.1,0.7-0.5,0.9c-1.1,0.6-2.2,1.2-3.3,1.8
							c-0.6,0.3-1.3,0-1.3-0.7c0-0.3,0-0.7,0-1c0-0.9,0-1.8,0-2.7c-0.2,0.1-0.4,0.2-0.5,0.2c-1.1,0.6-2.3,1.3-3.4,1.9
							c-0.3,0.2-0.4,0.3-0.4,0.7c0,4.6,0,9.3,0,13.9c0,0.1,0,0.3,0,0.5c0.1-0.1,0.2-0.1,0.3-0.1c4.3-2.4,8.7-4.8,13-7.2
							c0.1-0.1,0.3-0.3,0.3-0.5c0-1,0-2.1,0-3.1c0-0.5,0.3-0.8,0.6-0.9c0.4-0.1,0.8,0,1.1,0.5c0,0.1,0.1,0.1,0.1,0.2
							C69.8,45.7,69.8,47.2,69.8,48.7z M39.1,33.1c0,0.1,0,0.2,0,0.3c0,4.7,0,9.5,0,14.2c0,0.3,0.1,0.4,0.3,0.5
							c4.3,2.4,8.6,4.7,12.9,7.1c0.1,0.1,0.2,0.1,0.4,0.2c0-0.1,0-0.2,0-0.3c0-4.7,0-9.5,0-14.2c0-0.3-0.1-0.4-0.4-0.5
							c-4.3-2.4-8.6-4.7-12.9-7.1C39.4,33.2,39.2,33.2,39.1,33.1z M40.1,31.6C40.1,31.6,40.1,31.6,40.1,31.6
							c4.5,2.5,8.9,4.9,13.3,7.3c0.1,0.1,0.3,0.1,0.4,0c1.3-0.7,2.7-1.5,4-2.2c-0.2-0.1-0.3-0.2-0.5-0.3c-4.1-2.2-8.2-4.5-12.3-6.8
							c-0.6-0.3-1-0.3-1.6,0C42.4,30.3,41.2,30.9,40.1,31.6z M67,31.6c-0.1-0.1-0.1-0.1-0.1-0.1c-4.4-2.4-8.8-4.8-13.1-7.2
							c-0.1-0.1-0.4,0-0.5,0c-1.2,0.6-2.3,1.3-3.5,1.9c-0.1,0-0.2,0.1-0.3,0.2c1.5,0.8,3,1.7,4.5,2.5c2.9,1.6,5.7,3.2,8.6,4.7
							c0.2,0.1,0.4,0.1,0.6,0.1C64.5,33,65.7,32.3,67,31.6z M61.1,34.9C61,34.8,61,34.8,61.1,34.9c-4.5-2.5-8.9-4.9-13.3-7.3
							c-0.1,0-0.2-0.1-0.3,0c-0.4,0.2-0.8,0.5-1.3,0.7c0.9,0.5,1.7,0.9,2.5,1.4c3.5,1.9,7.1,3.9,10.6,5.8c0.2,0.1,0.4,0.2,0.5,0.1
							C60.2,35.4,60.6,35.1,61.1,34.9z M60.6,40.4c1.4-0.5,1.5-0.6,1.5-2c0-0.2,0-0.3,0-0.5c0-0.5,0-1,0-1.5
							c-0.5,0.3-0.9,0.5-1.3,0.7c-0.1,0.1-0.2,0.2-0.2,0.3C60.6,38.4,60.6,39.4,60.6,40.4z"/>
					</g>
				</g>
				<path class="st1" d="M69.8,41.2c-0.1,0.1-0.1,0.2-0.2,0.2c-0.3,0.4-1,0.5-1.3,0.1c-0.4-0.4-0.4-1,0-1.3c0.4-0.3,1-0.3,1.3,0.2
					c0.1,0.1,0.1,0.2,0.2,0.3C69.8,40.8,69.8,41,69.8,41.2z"/>
				<path class="st1" d="M25.6,44.9c0.2,0,0.4,0,0.7,0c0.5,0,0.8,0.4,0.9,0.8c0,0.5-0.3,0.9-0.8,0.9c-0.5,0-1,0-1.4,0
					c-0.5,0-0.8-0.5-0.8-0.9c0-0.5,0.4-0.8,0.9-0.9C25.1,44.8,25.4,44.9,25.6,44.9z"/>
				<path class="st1" d="M28.6,38.4c0.5,0,0.9,0.4,0.9,0.9c0,0.5-0.4,0.9-0.9,0.9c-0.5,0-0.9-0.4-0.9-0.9
					C27.7,38.8,28.1,38.4,28.6,38.4z"/>
			</g>
		</g>
	</g>
	<g>
		<path class="st2" d="M111.4,24.3h7.4l-11.5,31.5h-7.4L111.4,24.3z"/>
		<path class="st2" d="M153.6,24.3l-11.5,31.5h-7.4l-4.3-18.9l-6.9,18.9h-7.4l11.5-31.5h7.4l4.3,18.9l6.9-18.9H153.6z"/>
		<path class="st2" d="M152.6,50.3l6.9-5c0,0,1.7,3.9,5.3,3.9c2.2,0,3.9-0.9,4.4-2.3c1.2-3.4-12.6-5.2-9.5-13.8
			c2.1-5.6,8.9-9.3,14.3-9.3c6.4,0,9.6,5.9,9.6,5.9l-6.9,5c0,0-1.7-3.9-5.3-3.9c-2.2,0-3.9,0.9-4.4,2.3c-1.3,3.5,12.6,5.2,9.5,13.8
			c-2,5.6-8.9,9.3-14.3,9.3C155.8,56.2,152.6,50.3,152.6,50.3z"/>
		<path class="st2" d="M213.5,31.7h-8.2l-8.8,24.1h-7.4l8.8-24.1h-8.2l2.7-7.4h23.9L213.5,31.7z"/>
		<path class="st2" d="M230.3,49.2h-11.6l-4.8,6.5h-7.9l24.1-31.5h7l1.1,31.5h-7.9L230.3,49.2z M230.3,41.8l0-8.2l-6,8.2H230.3z"/>
		<path class="st2" d="M283.3,24.3l-11.5,31.5h-7.4l-4.3-18.9l-6.9,18.9h-7.4l11.5-31.5h7.4l4.3,18.9l6.9-18.9H283.3z"/>
		<path class="st2" d="M312.7,31.7h-8.2l-8.8,24.1h-7.4l8.8-24.1h-8.2l2.7-7.4h23.9L312.7,31.7z"/>
		<path class="st2" d="M331.9,40c3.2-8.9,11.8-16.2,21.7-16.2c5.8,0,9.3,2.5,10.6,6.4l-8.3,4.3c-0.7-2.3-2.6-3.8-4.8-3.8
			c-4.7,0-9.1,3.7-11.1,9.2c-2,5.5-0.2,9.2,4.4,9.2c2.8,0,6.3-2,8.7-4.9h-7.4l2.3-6.4h15.3l-6.5,17.9h-6.3l0.7-1.8
			c-2.8,1.4-6,2.2-9.2,2.2C331.9,56.2,328.6,48.9,331.9,40z"/>
		<path class="st2" d="M381.7,31.7l-1.7,4.7h8.8l-2.7,7.4h-8.8l-1.7,4.6h16.3l-2.7,7.4h-23.7L377,24.3h23.7l-2.7,7.4H381.7z"/>
		<path class="st2" d="M435.5,24.3L424,55.8h-7.4l-4.3-18.9l-6.9,18.9H398l11.5-31.5h7.4l4.3,18.9l6.9-18.9H435.5z"/>
		<path class="st2" d="M444.3,24.3h7.4l-11.5,31.5h-7.4L444.3,24.3z"/>
		<path class="st2" d="M465.3,31.7l-1.7,4.7h8.8l-2.7,7.4h-8.8l-1.7,4.6h16.3l-2.7,7.4h-23.7l11.5-31.5h23.7l-2.7,7.4H465.3z"/>
	</g>
</g>
</svg>
