<svg width="124" height="50" viewBox="0 0 124 50" fill="none" xmlns="http://www.w3.org/2000/svg">
<g clip-path="url(#clip0_319_434)">
<path d="M57.786 21.3841C57.6047 21.5267 57.4927 21.6204 57.3745 21.708C54.3351 23.9571 51.2977 26.2081 48.2501 28.4449C47.9445 28.669 47.8202 28.9012 47.8223 29.2863C47.8345 35.1696 47.8304 41.0529 47.8304 46.9382C47.8304 47.1114 47.8304 47.2846 47.8304 47.4577C47.7978 47.474 47.7632 47.4903 47.7306 47.5046C46.6692 46.4452 45.6059 45.3859 44.5017 44.2838C43.5402 46.2313 42.6092 48.1157 41.6782 50.0021C41.6456 49.994 41.6151 49.9838 41.5825 49.9756V33.5562C41.5254 33.5256 41.5112 33.5154 41.4969 33.5113C41.4826 33.5073 41.4643 33.5052 41.4521 33.5113C41.395 33.5419 41.336 33.5704 41.285 33.6071C37.17 36.6465 33.0549 39.688 28.9399 42.7274C28.9297 42.7356 28.9093 42.7335 28.8523 42.7417C19.2654 35.6442 9.65409 28.5325 0 21.3862C2.94777 19.2044 5.85275 17.0552 8.76793 14.8958C10.7256 16.3442 12.663 17.7763 14.6675 19.2594C13.704 19.9724 12.7811 20.6569 11.7972 21.3862C17.5134 25.6173 23.189 29.818 28.9012 34.0451C34.593 29.8343 40.2726 25.6316 46.0031 21.3923C44.9947 20.6406 44.023 19.9174 43.0146 19.1657C45.0028 17.6948 46.9402 16.2627 48.9101 14.8062C51.8599 16.992 54.8016 19.1697 57.7901 21.3841H57.786Z" fill="#151E3A"/>
<path d="M28.9012 0C34.6989 4.29229 40.4722 8.56421 46.3005 12.8769C40.4783 17.1834 34.6989 21.4594 28.8991 25.7476C26.9414 24.2972 25.0041 22.8651 23.0056 21.3861C26.8457 18.5442 30.647 15.7289 34.5013 12.8748C32.621 11.4814 30.7794 10.1186 28.9012 8.72922C25.0754 11.5588 21.2557 14.3844 17.3973 17.2384C15.4478 15.7961 13.5023 14.3559 11.4998 12.8748C17.322 8.56625 23.1054 4.28822 28.9012 0Z" fill="#FF7E1C"/>
<path d="M75.4237 11.1291H73.2052C73.1665 10.9335 73.1319 10.7604 73.0993 10.5872C72.8141 9.06748 71.9667 8.22205 70.4551 7.98371C69.8093 7.88185 69.1574 7.89611 68.5116 8.03464C67.4564 8.2628 66.7169 8.87802 66.3461 9.88234C66.1689 10.3651 66.0528 10.8846 65.9937 11.398C65.8593 12.5347 65.8715 13.6755 66.1261 14.8C66.2809 15.4784 66.5519 16.0997 67.0673 16.5907C67.6255 17.1244 68.3222 17.3322 69.0637 17.4096C69.6667 17.4707 70.2677 17.4402 70.8605 17.2976C72.1052 17.0002 72.8141 16.1935 73.0687 14.961C73.1176 14.7247 73.1523 14.4843 73.1971 14.2194H75.4115C75.4278 14.2704 75.4644 14.3295 75.4624 14.3885C75.4156 16.554 74.4174 18.2877 72.1357 18.964C70.6058 19.4183 69.0454 19.4366 67.4992 19.0557C65.7655 18.6279 64.5881 17.5502 64.0767 15.8329C63.4676 13.7876 63.4636 11.7137 64.0441 9.66233C64.5697 7.80647 65.8205 6.66974 67.7131 6.26842C69.188 5.95674 70.6629 5.97914 72.1113 6.41306C74.1953 7.03847 75.4563 8.75783 75.4665 10.9376C75.4665 10.9844 75.4482 11.0313 75.4278 11.1311L75.4237 11.1291Z" fill="#FF7E1C"/>
<path d="M86.8074 19.1208H85.6319C85.4893 18.6502 85.3467 18.1898 85.2021 17.711C83.5642 19.3163 81.633 19.5404 79.551 19.1004C79.2373 19.0352 78.9276 18.9048 78.6424 18.7541C77.3122 18.0472 76.7316 16.4134 77.2979 15.0159C77.5302 14.4455 77.9518 14.0543 78.4897 13.7752C79.1945 13.4106 79.9544 13.2293 80.7326 13.1356C81.9121 12.993 83.0957 12.8809 84.2772 12.7546C84.3893 12.7424 84.4993 12.7261 84.6052 12.7139C84.8211 11.6342 84.2589 10.7195 83.226 10.4832C82.4886 10.3141 81.7369 10.3039 80.9954 10.4588C80.0888 10.6502 79.7038 11.0923 79.5714 12.0213C79.5531 12.1476 79.5347 12.2718 79.5123 12.4185H77.5139C77.2633 10.9966 78.0374 9.57667 79.3799 9.05515C79.8444 8.87385 80.3475 8.7618 80.8446 8.69661C81.8836 8.56216 82.9245 8.58661 83.9553 8.80866C85.7073 9.18553 86.5649 10.1389 86.7503 11.9174C86.789 12.2902 86.8053 12.665 86.8053 13.0398C86.8114 14.8814 86.8074 16.721 86.8074 18.5626V19.1228V19.1208ZM84.6745 14.4088C84.5298 14.4088 84.4341 14.4007 84.3383 14.4088C83.3849 14.5127 82.4295 14.5942 81.4822 14.7347C80.973 14.8101 80.4596 14.9364 79.9829 15.1259C79.4166 15.354 79.2312 15.8654 79.3962 16.4582C79.5368 16.9654 79.9034 17.2506 80.372 17.3953C81.2989 17.6784 82.2319 17.6703 83.1466 17.3342C83.7211 17.1243 84.1448 16.7271 84.3954 16.1689C84.6398 15.627 84.7111 15.0525 84.6745 14.4088Z" fill="#FF7E1C"/>
<path d="M114.124 15.9835H116.358C116.346 16.1241 116.346 16.2463 116.322 16.3644C116.108 17.4625 115.495 18.257 114.496 18.754C113.965 19.0189 113.4 19.1615 112.814 19.2307C111.852 19.3448 110.897 19.3305 109.949 19.1105C108.187 18.7031 107.104 17.6132 106.7 15.8551C106.419 14.6329 106.415 13.3983 106.668 12.172C107.055 10.2998 108.198 9.16919 110.07 8.7801C111.019 8.58249 111.978 8.5499 112.932 8.73935C114.555 9.06123 115.582 10.0554 116.071 11.6158C116.367 12.559 116.426 13.5328 116.369 14.5147C116.364 14.5921 116.336 14.6695 116.307 14.8019H108.809C108.811 16.5111 109.819 17.5725 111.449 17.6173C111.803 17.6275 112.166 17.5928 112.514 17.5256C113.237 17.3871 113.751 16.9715 114.012 16.2707C114.044 16.1811 114.081 16.0915 114.124 15.9814V15.9835ZM114.085 13.0194C114.122 11.3306 113.18 10.3324 111.557 10.31C109.815 10.2876 108.817 11.2654 108.809 13.0011C109.165 13.0948 113.533 13.1131 114.085 13.0174V13.0194Z" fill="#FF7E1C"/>
<path d="M97.3374 14.7898C97.2926 16.3523 98.1747 17.4258 99.6374 17.5888C100.128 17.6438 100.65 17.597 101.137 17.4992C101.797 17.3668 102.269 16.9512 102.512 16.3034C102.551 16.1974 102.599 16.0956 102.644 15.9896H104.881C104.802 16.9206 104.439 17.6723 103.757 18.2651C103.306 18.6583 102.779 18.913 102.204 19.0576C100.868 19.3937 99.5253 19.4039 98.1951 19.0393C96.6692 18.6216 95.6934 17.6255 95.2779 16.1037C94.9071 14.7429 94.8969 13.3658 95.2229 11.9948C95.6364 10.2571 96.7304 9.19165 98.4762 8.80662C99.5722 8.5642 100.672 8.53161 101.766 8.81681C102.94 9.12238 103.793 9.83132 104.311 10.9253C104.887 12.1394 104.95 13.4249 104.848 14.7877H97.3354L97.3374 14.7898ZM102.624 13.0521C102.608 12.7974 102.614 12.6018 102.581 12.4124C102.42 11.4366 101.933 10.7195 100.941 10.4364C100.301 10.253 99.6537 10.2591 99.016 10.4404C97.9201 10.7501 97.203 11.8807 97.366 13.0541H102.622L102.624 13.0521Z" fill="#FF7E1C"/>
<path d="M104.891 28.8279C104.912 28.286 104.863 27.8032 104.698 27.3387C104.506 26.7968 104.137 26.4118 103.594 26.2427C102.414 25.8781 101.218 25.8475 100.035 26.2081C99.2157 26.4587 98.8001 27.0678 98.6901 27.901C98.6677 28.0762 98.6534 28.2534 98.631 28.4612H97.148C97.148 28.286 97.1317 28.0986 97.15 27.9132C97.3232 26.1979 98.1808 25.2445 99.9124 24.9023C101.122 24.6639 102.347 24.6721 103.557 24.9145C105.388 25.2812 106.23 26.2509 106.405 28.1291C106.431 28.4042 106.439 28.6832 106.439 28.9583C106.441 30.9139 106.441 32.8696 106.439 34.8232C106.439 34.9679 106.427 35.1105 106.419 35.2877H105.594C105.492 34.6766 105.388 34.0593 105.284 33.4441C105.217 33.4563 105.172 33.4502 105.162 33.4665C104.52 34.479 103.561 35.0208 102.428 35.2857C101.332 35.5403 100.228 35.5464 99.1424 35.2327C98.8022 35.1349 98.464 34.9903 98.1625 34.8069C96.9545 34.0756 96.4798 32.4418 97.0808 31.1584C97.3435 30.5982 97.7938 30.2356 98.3356 29.9768C99.0486 29.6387 99.8126 29.4655 100.589 29.3657C101.913 29.1946 103.239 29.0418 104.565 28.8788C104.659 28.8666 104.753 28.8503 104.895 28.8299L104.891 28.8279ZM104.855 30.0644C104.779 30.0644 104.7 30.0543 104.62 30.0644C103.412 30.2315 102.204 30.3904 100.998 30.5717C100.387 30.6634 99.778 30.7754 99.2238 31.0728C98.6208 31.3967 98.3764 31.8897 98.4619 32.5681C98.5638 33.3646 99.067 33.8087 99.782 34.0349C100.689 34.3201 101.613 34.3119 102.524 34.0491C104.243 33.5521 105.227 31.8714 104.855 30.0644Z" fill="#151E3A"/>
<path d="M81.2378 31.4456C81.2806 31.7328 81.3091 31.9895 81.36 32.2421C81.523 33.0386 81.9875 33.607 82.7473 33.88C83.1853 34.0368 83.6579 34.1285 84.1224 34.1815C84.8721 34.265 85.6197 34.2161 86.3449 33.9757C86.7381 33.8454 87.0926 33.6498 87.3594 33.3238C87.8565 32.7168 87.7669 31.9284 87.1129 31.4945C86.8074 31.2908 86.4549 31.1237 86.0984 31.03C85.2652 30.808 84.4178 30.6429 83.5785 30.4433C83.0875 30.3272 82.5966 30.205 82.1158 30.0542C81.8224 29.9625 81.5352 29.8383 81.2643 29.6896C79.7649 28.8665 79.5551 26.8783 80.8405 25.7415C81.2133 25.4115 81.6472 25.1895 82.1219 25.055C83.5316 24.6557 84.9576 24.6231 86.3714 24.9858C88.0541 25.4176 88.9831 26.7662 88.8751 28.5813C88.4351 28.6282 87.9869 28.5997 87.5061 28.5976C87.4817 28.453 87.4552 28.3308 87.4409 28.2065C87.2963 27.0005 86.679 26.3099 85.4934 26.0777C84.6195 25.9065 83.7394 25.9269 82.8757 26.153C82.5986 26.2264 82.3154 26.3506 82.0852 26.5197C81.2887 27.1085 81.3763 28.2248 82.2462 28.6934C82.9592 29.0784 83.7577 29.1864 84.5339 29.3656C85.3264 29.549 86.1208 29.7303 86.9052 29.9442C87.2311 30.0338 87.5448 30.1846 87.8463 30.3435C89.6105 31.2704 89.3396 33.2322 88.4901 34.1693C88.1336 34.5645 87.7078 34.868 87.2087 35.0412C86.7951 35.1838 86.3694 35.3182 85.9375 35.3753C84.6847 35.5403 83.4318 35.5219 82.2115 35.1369C80.4637 34.5848 79.7853 33.2872 79.7792 31.6554C79.7792 31.5943 79.8057 31.5332 79.824 31.4497H81.2337L81.2378 31.4456Z" fill="#151E3A"/>
<path d="M69.7014 35.3038H68.0879C66.2749 31.0115 64.4536 26.7009 62.6019 22.321C63.2028 22.2681 63.7468 22.2986 64.3416 22.3006C65.8491 25.9859 67.3566 29.6711 68.8641 33.3563C68.8967 33.3604 68.9293 33.3624 68.9598 33.3665C70.4775 29.6915 71.9952 26.0164 73.519 22.321H75.2587C73.4131 26.6703 71.5572 30.9647 69.6993 35.3038H69.7014Z" fill="#151E3A"/>
<path d="M120.023 10.1451C120.901 8.63963 122.238 8.54796 123.686 8.63963V10.471C123.474 10.471 123.283 10.4731 123.091 10.471C121.757 10.4547 120.968 11.0455 120.683 12.3493C120.573 12.8545 120.537 13.3821 120.53 13.8996C120.512 15.4478 120.524 16.9961 120.524 18.5443C120.524 18.7215 120.524 18.8988 120.524 19.1351C119.797 19.1697 119.109 19.1514 118.389 19.1493V8.81075H119.526C119.679 9.22022 119.836 9.64191 120.023 10.1451Z" fill="#FF7E1C"/>
<path d="M95.9155 34.1245V35.3284C95.8055 35.3549 95.7138 35.3916 95.6201 35.3977C94.8358 35.4466 94.0556 35.4242 93.2876 35.2449C91.9084 34.921 91.1995 34.0695 91.1567 32.6475C91.1343 31.8979 91.1486 31.1482 91.1486 30.3985C91.1486 29.1762 91.1486 27.9539 91.1486 26.7316C91.1486 26.5564 91.1486 26.3833 91.1486 26.1511H89.7266V25.1977C90.1809 25.0795 90.6352 24.9634 91.1363 24.8351V22.3293H92.5848V24.8615C93.1816 24.8901 93.7296 24.8738 94.2776 24.8758C94.8114 24.8778 95.3451 24.8758 95.9074 24.8758V26.1409H92.6703C92.6581 26.3588 92.6418 26.5177 92.6418 26.6746C92.6418 28.451 92.6398 30.2274 92.6418 32.0038C92.6418 32.2462 92.6622 32.4927 92.6927 32.7331C92.7742 33.3931 93.1613 33.8087 93.7928 33.9513C94.2328 34.0512 94.6932 34.0776 95.1455 34.1163C95.3858 34.1388 95.6283 34.1204 95.9135 34.1204L95.9155 34.1245Z" fill="#151E3A"/>
<path d="M91.0528 19.1167H88.9158V8.81068H90.0465C90.1972 9.22626 90.352 9.64795 90.5313 10.143C91.3869 8.65381 92.7274 8.53973 94.1941 8.64159V10.471C93.9578 10.471 93.75 10.471 93.5422 10.471C92.2649 10.471 91.4888 11.0699 91.1975 12.3125C91.1099 12.6894 91.065 13.0846 91.063 13.4717C91.0467 15.1646 91.0528 16.8574 91.0508 18.5524C91.0508 18.7296 91.0508 18.9048 91.0508 19.1167H91.0528Z" fill="#FF7E1C"/>
<path d="M76.5442 24.9146H78.0028V35.2939C77.5261 35.3366 77.0494 35.3346 76.5442 35.2918V24.9146Z" fill="#151E3A"/>
<path d="M77.1614 21.3289C77.3346 21.3289 77.3998 21.3289 77.465 21.3289C78.235 21.3554 78.5773 21.8321 78.3715 22.5736C78.2941 22.8507 78.1271 23.0626 77.8541 23.0972C77.4894 23.142 77.1085 23.1665 76.7479 23.1053C76.2916 23.03 76.0981 22.6755 76.1306 22.1438C76.1592 21.6528 76.3894 21.4043 76.8803 21.3432C77.0087 21.3269 77.139 21.3289 77.1635 21.3289H77.1614Z" fill="#151E3A"/>
</g>
<defs>
<clipPath id="clip0_319_434">
<rect width="123.686" height="50" fill="white"/>
</clipPath>
</defs>
</svg>
