<svg width="175" height="35" viewBox="0 0 175 35" fill="none" xmlns="http://www.w3.org/2000/svg">
<g clip-path="url(#clip0_221_30)">
<path d="M21.9342 14.5022V14.4984C21.9554 14.4984 21.9766 14.4984 21.9977 14.4984C22.945 14.4984 23.8943 14.5119 24.8416 14.4907C25.9371 14.4657 26.7939 13.8341 27.1713 12.806C27.3754 12.2495 27.4139 11.6796 27.3042 11.0943C27.0827 9.91592 26.2105 9.088 25.0206 8.94937C24.7203 8.91471 24.4161 8.90701 24.1118 8.90701C22.3559 8.90316 20.598 8.90508 18.842 8.90701C18.7188 8.90701 18.5956 8.91664 18.4511 8.92434V14.0324H18.4242V14.5061H21.9323L21.9342 14.5022Z" fill="#03004F"/>
<path d="M34.0739 0H5.87633C5.03686 0 4.35526 0.681593 4.35526 1.52107V14.5021H12.9637V14.0285H12.956C12.956 9.12257 12.9676 4.6306 13.0023 4.388C13.1062 4.3803 13.216 4.36874 13.3257 4.36682C17.1919 4.36682 21.0581 4.36104 24.9244 4.36874C25.8871 4.36874 26.8401 4.45346 27.7624 4.76345C29.9169 5.48355 31.386 6.91028 32.1639 9.02822C32.8821 10.9825 32.8243 12.9387 31.9848 14.8429C31.0163 17.0418 29.3124 18.3684 26.9634 18.8555C26.4358 18.9652 25.889 19.0191 25.3479 19.0249C23.2127 19.0442 21.0774 19.0326 18.9421 19.0326C18.7919 19.0326 18.6418 19.0326 18.4242 19.0326V19.0365H4.35719V29.7167C4.35719 30.5562 5.03878 31.2378 5.87826 31.2378H34.0739C34.9134 31.2378 35.5949 30.5562 35.5949 29.7167V1.52107C35.5949 0.681593 34.9134 0 34.0739 0ZM18.4261 26.8709H13.0234C12.9965 26.7708 12.9753 23.515 12.9637 19.5101H18.4242V26.8709H18.4261Z" fill="#F50258"/>
<path d="M0 14.5022C0 16.0252 0.00385081 17.5732 0.00770162 19.0384H4.35719V14.5022H0Z" fill="#03004F"/>
<path d="M48.0446 20.1665V27.0729C47.7423 27.1673 43.7548 27.1981 43.0309 27.121V4.18756C43.1541 4.17986 43.2792 4.1683 43.4025 4.1683C47.1455 4.16638 50.8884 4.15098 54.6333 4.1683C56.7705 4.17986 58.7191 4.78251 60.3557 6.20346C61.9075 7.55124 62.7797 9.26292 63.0146 11.2962C63.2187 13.054 62.9164 14.7195 62.0385 16.2637C61.0738 17.958 59.6124 19.0517 57.7756 19.6717C56.7051 20.0336 55.5999 20.1665 54.4735 20.1646C52.4788 20.1646 50.486 20.1646 48.4913 20.1646C48.3546 20.1646 48.216 20.1646 48.0446 20.1646V20.1665ZM48.0639 8.75847V15.7034C48.2121 15.7034 48.3373 15.7034 48.4624 15.7034C49.3616 15.7034 50.2608 15.7073 51.1618 15.7034C52.396 15.6976 53.6302 15.7034 54.8625 15.6726C55.6577 15.6514 56.3662 15.353 56.9612 14.8196C57.8026 14.0649 58.1318 13.106 58.0817 11.9951C58.0201 10.5992 57.1287 9.41503 55.7963 8.97026C55.288 8.80083 54.7662 8.76232 54.2386 8.76039C52.2978 8.75847 50.357 8.76039 48.4162 8.76039C48.3142 8.76039 48.2121 8.76039 48.0639 8.76039V8.75847Z" fill="#000143"/>
<path d="M121.628 24.031C121.102 25.1111 120.609 26.122 120.12 27.127H117.532V3.40796H122.24C122.257 4.45538 122.246 5.48932 122.248 6.52326C122.25 7.57453 122.248 8.6258 122.248 9.67707C122.248 10.7283 122.248 11.7488 122.248 12.8155C122.438 12.7808 122.51 12.6537 122.6 12.5633C123.613 11.5312 124.807 10.7919 126.216 10.4588C128.442 9.93508 130.483 10.3818 132.293 11.7738C133.833 12.958 134.715 14.5695 135.173 16.4256C135.47 17.6309 135.57 18.8516 135.419 20.0877C135.19 21.9727 134.582 23.7036 133.303 25.1516C132.139 26.4743 130.681 27.2964 128.929 27.5217C126.058 27.8914 123.769 26.8594 122.036 24.5701C121.913 24.4083 121.791 24.2466 121.63 24.0329L121.628 24.031ZM122.248 18.6937C122.263 20.3149 122.731 21.4914 123.844 22.3616C124.68 23.0144 125.642 23.2647 126.697 23.2184C127.612 23.178 128.438 22.8969 129.152 22.3231C130.914 20.908 131.203 18.0295 129.792 16.2119C128.586 14.66 126.341 14.2711 124.655 15.0451C123.003 15.8018 122.304 17.1765 122.25 18.6937H122.248Z" fill="#000143"/>
<path d="M98.1051 3.40207H102.759C102.77 3.55225 102.792 3.69858 102.793 3.84491C102.795 5.33133 102.795 6.81774 102.795 8.30608C102.795 11.2404 102.795 14.1766 102.795 17.111C102.795 17.2361 102.795 17.3613 102.795 17.573C102.934 17.4614 103.013 17.4132 103.075 17.3458C104.336 15.9769 105.595 14.606 106.856 13.237C107.568 12.463 108.287 11.6929 108.997 10.915C109.126 10.7744 109.255 10.6878 109.459 10.6897C111.053 10.6955 112.65 10.6936 114.244 10.6955C114.28 10.6955 114.315 10.709 114.419 10.7282C112.359 12.9713 110.301 15.1605 108.204 17.3728C110.47 20.6133 112.732 23.8441 115.026 27.1211C114.87 27.1327 114.762 27.15 114.654 27.15C113.239 27.15 111.824 27.1442 110.408 27.1577C110.143 27.1596 109.991 27.0653 109.842 26.8593C108.491 24.9705 107.13 23.0893 105.77 21.2063C105.614 20.9887 105.451 20.7769 105.262 20.5266C105.067 20.7326 104.892 20.9155 104.719 21.1004C104.151 21.7107 103.591 22.3307 103.011 22.9295C102.826 23.1221 102.765 23.3185 102.768 23.5803C102.784 24.6431 102.78 25.7079 102.782 26.7707C102.782 26.8824 102.768 26.9941 102.759 27.1269H98.1263C98.0377 26.8131 98.0166 3.84106 98.1071 3.40015L98.1051 3.40207Z" fill="#000143"/>
<path d="M156.949 34.6688V30.4136C157.51 30.5176 158.047 30.6389 158.594 30.7121C159.231 30.7987 159.876 30.8122 160.515 30.7063C161.384 30.5619 162.075 30.1229 162.587 29.4163C162.812 29.1063 162.987 28.7616 163.186 28.4324C163.27 28.2918 163.272 28.1628 163.207 28.0011C161.07 22.6735 158.94 17.344 156.813 12.0125C156.647 11.5986 156.499 11.1769 156.341 10.7572C156.655 10.6744 160.321 10.6436 161.289 10.7148C161.757 11.9047 162.235 13.1177 162.712 14.3307C163.195 15.5591 163.675 16.7875 164.158 18.0159C164.634 19.2251 165.08 20.4458 165.571 21.6492C165.606 21.6492 165.641 21.6492 165.675 21.6492C165.723 21.5548 165.781 21.4643 165.816 21.3642C166.95 18.2451 168.08 15.1259 169.212 12.0087C169.37 11.5755 169.541 11.148 169.709 10.7071H174.378C174.349 10.8169 174.334 10.9131 174.301 11.0036C173.123 14.2422 171.942 17.4788 170.766 20.7173C169.79 23.4013 168.825 26.0892 167.843 28.7732C167.499 29.7128 167.067 30.6139 166.546 31.4707C165.411 33.3325 163.773 34.4531 161.609 34.8132C160.082 35.0673 158.565 35.0808 157.051 34.7227C157.028 34.7169 157.007 34.6996 156.947 34.6668L156.949 34.6688Z" fill="#000143"/>
<path d="M76.2826 17.5537C76.2556 16.566 75.8513 15.8132 75.0311 15.2933C74.2359 14.7869 73.3367 14.6464 72.4145 14.6098C70.6489 14.5405 68.9699 14.9371 67.3352 15.5629C67.1928 15.6168 67.0522 15.6726 66.8635 15.7439C66.4207 14.4384 65.9875 13.158 65.5427 11.8468C65.6678 11.7852 65.7776 11.7255 65.8912 11.6755C67.522 10.9419 69.2395 10.5087 71.0108 10.32C72.8804 10.1198 74.7346 10.2507 76.5425 10.8091C78.8857 11.533 80.2586 13.1311 80.7649 15.5013C80.9556 16.3966 81.0229 17.3034 81.0268 18.2122C81.0364 21.0695 81.0249 23.9268 81.0191 26.7841C81.0191 26.8862 81.0114 26.9882 81.0037 27.1384C80.6167 27.1654 80.2355 27.148 79.8542 27.15C79.4691 27.1538 79.0841 27.15 78.6682 27.15C78.2427 26.374 77.821 25.6019 77.3839 24.801C77.3223 24.8491 77.2646 24.878 77.2318 24.9242C76.2441 26.324 74.852 27.0729 73.202 27.4041C71.4922 27.7468 69.8017 27.7045 68.1439 27.1269C67.1697 26.788 66.3109 26.2623 65.6293 25.4749C63.7405 23.2895 64.2373 19.8893 66.6055 18.322C67.6125 17.6558 68.735 17.3073 69.9153 17.1359C72.0043 16.8298 74.0684 16.9934 76.1074 17.5229C76.1536 17.5345 76.2037 17.5383 76.2826 17.5518V17.5537ZM72.5396 19.9124C72.2104 19.9643 71.6366 20.0317 71.0744 20.153C70.5545 20.2647 70.0847 20.5092 69.6996 20.8866C68.9564 21.6163 69.0026 22.762 69.8017 23.432C70.154 23.7266 70.5699 23.8922 71.0147 23.9865C71.6732 24.1271 72.3374 24.156 73.0056 24.0616C74.542 23.844 75.988 22.6464 76.0978 21.0098C76.1343 20.4823 76.1363 20.4573 75.6414 20.309C74.7115 20.0279 73.7526 19.9528 72.5415 19.9143L72.5396 19.9124Z" fill="#000143"/>
<path d="M140.348 15.7458C139.902 14.4231 139.471 13.1523 139.028 11.8449C139.161 11.7814 139.282 11.7198 139.405 11.664C141.026 10.9381 142.732 10.5106 144.49 10.322C146.36 10.1217 148.216 10.2526 150.024 10.811C152.369 11.535 153.742 13.1311 154.25 15.5032C154.442 16.3985 154.508 17.3054 154.512 18.2142C154.521 21.0715 154.508 23.9307 154.504 26.788C154.504 26.8901 154.494 26.9921 154.491 27.0884C154.208 27.1654 152.819 27.1885 152.14 27.125C151.73 26.3741 151.306 25.602 150.867 24.7991C150.796 24.8626 150.732 24.903 150.692 24.9589C149.783 26.2335 148.526 26.9748 147.022 27.3291C145.22 27.7546 143.427 27.7392 141.662 27.1384C140.749 26.8265 139.931 26.3509 139.266 25.6424C137.224 23.4667 137.62 19.9875 140.1 18.3201C141.09 17.6539 142.207 17.315 143.373 17.1417C145.462 16.8317 147.526 16.9916 149.567 17.5191C149.617 17.5326 149.667 17.5364 149.743 17.548C149.806 17.2823 149.727 17.0358 149.662 16.799C149.477 16.1251 149.061 15.6168 148.462 15.2587C147.679 14.7889 146.806 14.6483 145.911 14.6137C144.145 14.5424 142.466 14.9391 140.83 15.5629C140.687 15.6168 140.545 15.6727 140.35 15.7497L140.348 15.7458ZM149.587 20.4746C149.406 20.4091 149.252 20.3475 149.094 20.2994C148.164 20.0183 147.205 19.9143 146.24 19.9336C145.68 19.9451 145.118 20.0414 144.565 20.1511C144.057 20.2532 143.599 20.4939 143.215 20.8539C142.432 21.5933 142.474 22.7697 143.31 23.4494C143.656 23.7305 144.059 23.8941 144.492 23.9827C145.098 24.1059 145.709 24.1483 146.331 24.0751C147.347 23.9577 148.196 23.5302 148.863 22.7581C149.417 22.1151 149.629 21.3564 149.589 20.4746H149.587Z" fill="#000143"/>
<path d="M95.4596 10.2507V14.6156C95.2305 14.6329 95.0283 14.6464 94.8281 14.6637C93.6459 14.7581 92.5657 15.1278 91.6261 15.8594C90.5672 16.6854 89.9953 17.7829 89.8625 19.1095C89.8317 19.4272 89.8297 19.7487 89.8297 20.0683C89.824 22.298 89.8201 24.5276 89.8163 26.7553C89.8163 26.8689 89.8066 26.9825 89.7989 27.123H85.0913C85.0836 21.6549 85.0875 16.2041 85.0894 10.7282C85.2242 10.7128 85.3204 10.6935 85.4186 10.6935C86.0617 10.6916 86.7048 10.7032 87.3479 10.6858C87.5905 10.6801 87.7156 10.7686 87.8177 10.9824C88.2586 11.9066 88.7149 12.825 89.1674 13.7453C89.229 13.8705 89.2945 13.9918 89.385 14.1728C89.5082 13.9841 89.6064 13.8416 89.695 13.6933C90.211 12.8365 90.8579 12.0972 91.6685 11.508C92.6774 10.7725 93.7961 10.3277 95.0572 10.2815C95.1843 10.2777 95.3094 10.2623 95.4615 10.2488L95.4596 10.2507Z" fill="#000143"/>
</g>
<defs>
<clipPath id="clip0_221_30">
<rect width="174.38" height="35" fill="white"/>
</clipPath>
</defs>
</svg>
