<?xml version="1.0" encoding="utf-8"?>
<!-- Generator: Adobe Illustrator 26.2.1, SVG Export Plug-In . SVG Version: 6.00 Build 0)  -->
<svg version="1.1" id="Layer_1" xmlns="http://www.w3.org/2000/svg" xmlns:xlink="http://www.w3.org/1999/xlink" x="0px" y="0px"
	 viewBox="0 0 765.6 308.6" style="enable-background:new 0 0 765.6 308.6;" xml:space="preserve">
<style type="text/css">
	.st0{fill:#F0A530;}
</style>
<g>
	<path class="st0" d="M663.4,101.6c-0.4,0.3-0.8,0.7-1.3,1c-6.6,4.7-13.2,9.3-19.8,14c-1,0.7-2,1.1-3.3,1.1c-25.9,0-51.8,0-77.8,0
		c-0.6,0-1.1,0-1.9-0.1c-5.8-17.8-11.6-35.7-17.4-53.6c-0.2,0-0.3,0-0.5,0.1c-5.9,17.8-11.8,35.6-17.7,53.5c-0.9,0-1.7,0.1-2.5,0.1
		c-25.4,0-50.9,0-76.3,0c-1.2,0-2.3-0.1-3.4-0.8c-7.1-4.8-14.2-9.6-21.2-14.4c-0.4-0.2-0.7-0.5-1.5-1.2c31.7,0,62.7,0,94.1,0
		c9.5-29.6,19-59.1,28.5-88.5c0.2,0,0.3,0,0.5-0.1c3.3,9.7,6.5,19.5,9.7,29.3c3.2,9.8,6.4,19.6,9.6,29.4c3.2,9.9,6.5,19.7,9.8,29.8
		c30.8,0,61.6,0,92.4,0C663.4,101.2,663.4,101.4,663.4,101.6z"/>
	<path class="st0" d="M65.3,180.6c6.8,12.2,13.6,24.5,20.5,37.1c-0.8,0.1-1.3,0.2-1.8,0.2c-5.8,0-11.5,0-17.3,0
		c-1.5,0-2.3-0.5-3-1.8c-5.2-10.1-10.5-20.1-15.8-30.1c-0.4-0.8-0.9-1.7-1.4-2.6c-4.2,0-8.4,0-12.9,0c0,11.4,0,22.7,0,34.4
		c-6.2,0.2-12.1,0-18.2,0.1c-0.1-0.9-0.2-1.6-0.2-2.2c0-23.8,0-47.5,0-71.3c0-2.1,0.2-4.3,0.6-6.4c1.3-7.2,5.7-11.4,12.9-12.7
		c1.9-0.3,3.8-0.6,5.7-0.6c6.6-0.1,13.1-0.2,19.7,0c16,0.5,27.6,12.5,28,28.5c0.2,9.5-3,17.4-10.5,23.4
		C69.8,178.1,67.6,179.2,65.3,180.6z M33.6,167.7c0.4,0.2,0.5,0.3,0.7,0.3c6.1,0,12.1,0.1,18.2-0.1c3.1-0.1,5.6-1.6,7.7-3.9
		c3.1-3.4,4.2-7.5,3.5-12c-0.9-6.7-5.6-10.9-12.4-11c-3.6-0.1-7.2-0.1-10.8,0c-4.2,0.1-6.8,2.6-6.9,6.7
		C33.4,154.4,33.6,161,33.6,167.7z"/>
	<path class="st0" d="M643.9,180.5c6.9,12.5,13.7,24.8,20.6,37.3c-7.3,0-14.1,0-21.1,0c-6-11.4-12-22.8-18.1-34.3c-4.3,0-8.5,0-13,0
		c-0.2,2.9-0.1,5.7-0.1,8.6c0,2.9,0,5.8,0,8.6c0,2.8,0,5.6,0,8.4c0,2.9,0,5.7,0,8.7c-6.2,0-12,0-18.1,0c-0.1-0.8-0.2-1.6-0.2-2.4
		c0-23.6,0-47.2,0-70.8c0-3,0.3-6.1,1.2-9c1.5-4.7,4.4-8,9.1-9.4c2.3-0.7,4.8-1.3,7.3-1.4c7.5-0.2,15-0.3,22.6,0
		c13.4,0.5,24.6,11,26.4,24.3c0.5,4,0.6,8-0.3,11.9c-2,8.7-7,15.1-15.2,18.9C644.7,180,644.5,180.2,643.9,180.5z M612.4,168
		c6.5,0,12.7,0,18.9,0c0.5,0,0.9-0.1,1.4-0.3c6.6-1.7,10.8-8.6,9.6-15.8c-1-6.1-5.2-10.4-10.8-10.8c-4.3-0.3-8.6-0.2-12.9,0
		c-3.4,0.1-5.7,2.5-6.2,5.9c-0.1,0.6-0.1,1.3-0.1,1.9c0,5.9,0,11.8,0,17.7C612.3,167,612.4,167.4,612.4,168z"/>
	<path class="st0" d="M466.9,295.7c7.6-23,15.2-46,22.9-69.1c5.6,0,11.1,0,16.9,0c-2.9,9-5.7,17.8-8.5,26.5c0.1,0.1,0.2,0.1,0.3,0.2
		c0.6-0.4,1.3-0.9,1.9-1.3c11.1-8.1,22.2-16.2,33.3-24.3c1.2-0.9,2.4-1.3,4-1.3c2.9,0.1,5.8,0.1,8.6,0c1.5-0.1,2.6,0.4,3.7,1.3
		c10.9,8.1,21.9,16.1,32.9,24.1c0.8,0.6,1.5,1.1,2.5,1.5c-0.9-4.6-2.6-9-3.9-13.4c-1.4-4.4-2.8-8.8-4.3-13.3c5.8,0,11.3,0,17,0
		c7.3,23,14.6,45.9,21.8,68.9c-0.1,0.1-0.3,0.2-0.4,0.3c-24.5-18-49-36-73.6-54c-25,18.1-49.9,36.2-74.8,54.2
		C467.2,295.9,467,295.8,466.9,295.7z"/>
	<path class="st0" d="M253.8,171c0,7.9-0.2,15.8-2.4,23.5c-0.8,2.8-1.7,5.5-3,8.1c-3.8,7.8-10.2,12.6-18.6,14.6
		c-9.2,2.3-18.5,2.3-27.7-0.3c-8.9-2.5-15.1-8-18.5-16.7c-2-5.1-3.1-10.4-3.6-15.8c-0.8-8.9-0.8-17.9,0-26.8c0.4-5,1.5-9.9,3.4-14.7
		c3.7-9.3,10.4-15.2,20.1-17.6c8.1-2,16.3-2.1,24.5-0.3c12.6,2.7,20.1,10.7,23.5,22.9c1.7,6,2.2,12.1,2.3,18.3
		C253.8,167.8,253.8,169.4,253.8,171z M235.5,171.4c0-1.4,0-2.9,0-4.3c-0.2-6.1-0.7-12.1-3-17.9c-1.6-4.2-4.6-6.9-8.8-8.1
		c-4.5-1.3-9.1-1.4-13.7-0.1c-4.7,1.3-7.9,4.1-9.4,8.7c-0.8,2.3-1.4,4.7-1.8,7.2c-1.2,7.3-1.1,14.7-0.7,22c0.2,3.3,0.6,6.7,1.3,10
		c1.9,8.8,7.6,13.5,16.6,13.6c9,0.1,16.2-3.5,18.3-14.5C235.2,182.4,235.5,177,235.5,171.4z"/>
	<path class="st0" d="M95.1,170.6c-0.1-7.1,0.2-14.2,1.9-21.2c0.9-4,2.3-7.8,4.4-11.3c4-6.8,10.1-10.8,17.6-12.7
		c8.2-2.1,16.5-2.1,24.7-0.3c12.4,2.7,19.9,10.6,23.3,22.5c1.6,5.4,2.3,11,2.3,16.6c0,6.6-0.1,13.3-0.5,19.9
		c-0.3,5.4-1.5,10.6-3.5,15.6c-3.7,9.4-10.5,15.3-20.3,17.7c-8.1,2-16.3,2-24.5,0.4c-11.9-2.4-19.4-9.5-22.7-21.1
		c-2-7.1-2.6-14.3-2.8-21.6C95.1,173.5,95.1,172,95.1,170.6z M113.3,171.2c0.1,3.5,0.2,7,0.5,10.5c0.3,3.8,0.9,7.5,2.3,11
		c1.8,4.5,5.1,7.4,9.8,8.8c3.8,1.1,7.6,1.2,11.4,0.3c5.8-1.4,9.9-4.7,11.6-10.6c0.5-1.9,1.1-3.9,1.4-5.8c1.2-7.1,1.1-14.3,0.7-21.5
		c-0.2-4.9-0.9-9.7-2.7-14.3c-1.7-4.5-4.8-7.4-9.5-8.7c-4.3-1.2-8.7-1.1-13,0c-4.9,1.3-8.2,4.2-9.7,9c-0.5,1.6-1,3.2-1.4,4.8
		C113.5,160.2,113.3,165.7,113.3,171.2z"/>
	<path class="st0" d="M269.8,124.5c0.9,0,1.8,0,2.6,0c10.6,0,21.1,0,31.7,0c3.8,0,7.7,0.1,11.4,1.1c10.5,2.6,17.3,9.1,19.9,19.6
		c1.9,7.6,1.9,15.3-0.1,22.8c-3,11.4-10.8,17.8-22.3,19.6c-2.4,0.4-4.9,0.5-7.4,0.5c-5,0.1-10.1,0-15.1,0c-0.8,0-1.6,0.1-2.5,0.1
		c0,9.9,0,19.6,0,29.2c-1.8,0.6-14.4,0.7-18.2,0.3C269.8,186.8,269.8,155.8,269.8,124.5z M287.5,155.3c0,5.2,0,10.4,0,15.6
		c0,1.3,0.3,2.7,0.7,4c0.5,1.7,1.8,2.1,3.4,1.5c0.4-0.2,0.7-0.4,1-0.6c9.3-5.4,18.7-10.8,28-16.2c0.6-0.4,1.3-0.7,1.8-1.2
		c1.2-1.1,1.3-2.2,0.2-3.3c-0.6-0.6-1.4-1.1-2.1-1.5c-9.3-5.4-18.6-10.9-28-16.3c-0.6-0.3-1.1-0.7-1.7-0.9c-1.7-0.6-3,0.2-3.3,2
		c-0.1,0.5,0,1.1,0,1.7C287.5,145,287.5,150.1,287.5,155.3z"/>
	<path class="st0" d="M422.7,217.8c-6.5,0-12.6,0-18.9,0c-1.7-5.2-3.4-10.4-5.2-15.8c-10.4,0-20.8,0-31.3,0
		c-1.7,5.2-3.3,10.4-5,15.7c-6.2,0-12.5,0-18.9,0c0.2-0.7,0.3-1.4,0.6-2c9.6-27.4,19.2-54.9,28.8-82.3c0.6-1.7,1.6-3.3,2.5-4.9
		c2.9-5,13.7-5.9,16.6,1.1c0.7,1.8,1.5,3.5,2.1,5.3c9.4,26.8,18.7,53.5,28.1,80.3C422.1,216,422.3,216.8,422.7,217.8z M383.6,150.5
		c-0.2-0.1-0.3-0.1-0.5-0.2c-3.7,11.9-7.4,23.8-11.2,35.8c2.9,0.5,20.4,0.4,22.2-0.2C390.6,174.2,387.1,162.3,383.6,150.5z"/>
	<path class="st0" d="M750.4,217.8c-6.4,0-12.5,0-18.9,0c-1.7-5.2-3.4-10.5-5.2-15.8c-10.4,0-20.7,0-31.3,0
		c-1.7,5.2-3.4,10.5-5.1,15.8c-6.3,0-12.5,0-18.8,0c0.1-0.6,0.2-1.2,0.4-1.6c9.7-27.7,19.3-55.4,29-83c0.3-0.9,0.8-1.8,1.2-2.6
		c2.2-4.5,5.9-6.3,10.8-5.8c2.8,0.3,5.1,1.5,6.4,4c0.8,1.5,1.5,3.2,2.1,4.8c9.5,27.2,19.1,54.4,28.6,81.7
		C749.8,215.9,750.1,216.8,750.4,217.8z M699.7,186.1c2.6,0.6,20.3,0.5,22.2-0.1c-3.5-11.9-7.1-23.8-10.6-35.6c-0.1,0-0.3,0-0.4,0
		C707.1,162.3,703.4,174.2,699.7,186.1z"/>
	<path class="st0" d="M581.1,217.8c-6.4,0-12.6,0-18.9,0c-1.7-5.3-3.4-10.5-5.2-15.8c-10.5,0-20.8,0-31.3,0
		c-1.7,5.3-3.4,10.5-5.1,15.8c-6.3,0-12.5,0-19,0c0.3-0.9,0.5-1.6,0.8-2.4c9.5-27.2,19-54.4,28.6-81.6c0.7-2,1.8-3.9,3-5.7
		c2.9-4.5,13.3-5.4,16.1,1.4c0.6,1.4,1.2,2.8,1.7,4.2c9.5,27.1,19,54.3,28.5,81.4C580.5,216,580.8,216.8,581.1,217.8z M541.9,150.4
		c-0.1,0-0.3,0-0.4,0c-3.7,11.9-7.4,23.8-11.3,36.1c7.6,0,14.9,0,22.4,0C549,174.1,545.5,162.3,541.9,150.4z"/>
	<path class="st0" d="M471.3,217.8c-6.3,0-12.2,0-18.3,0c0-25.6,0-51.1,0-76.8c-8.4,0-16.5,0-24.7,0c0-5.5,0-10.7,0-16
		c1.7-0.5,64.8-0.6,67.8-0.1c0,5.2,0,10.5,0,16c-8.2,0.1-16.4,0-24.8,0.1C471.3,166.7,471.3,192.1,471.3,217.8z"/>
	<path class="st0" d="M713.1,259.4c0.6,1.4,1.2,2.7,1.8,4.2c-2.2,1.7-4.7,2.5-7.2,3.1c-2.9,0.6-5.9,0.5-8.8-0.1
		c-6.7-1.5-10.9-6.4-11.5-13.6c-0.3-3.5,0.1-7,1.7-10.3c2.3-4.7,6.1-7.2,11.3-7.6c1.5-0.1,3.1-0.1,4.5,0.2c4.6,0.8,7.4,3.9,9,8.1
		c1.1,2.8,1.4,5.7,1.1,9c-7.1,0-14.1,0-21.2,0c0.1,5.3,2.7,8.5,7.5,9.4c2.6,0.5,5.1,0.3,7.5-0.7C710.3,260.6,711.6,260,713.1,259.4z
		 M694.1,248.3c5.1,0,10.1,0.2,15.1-0.1c-0.8-5.7-3.4-8.2-8.2-7.9C697,240.6,694.2,243.6,694.1,248.3z"/>
	<path class="st0" d="M661.4,266.2c-2.1,0-3.9,0-5.7,0c-0.5-1.7-0.6-27.5-0.1-30c3.6-0.8,3.7-0.7,5.2,3.4c0.7-0.5,1.4-1,2.1-1.5
		c3.3-2.2,6.9-3.6,11-3.2c3.6,0.4,6,2.4,7.2,5.8c0.5,1.3,0.9,2.8,0.9,4.2c0.1,6.8,0,13.6,0,20.4c0,0.2-0.1,0.5-0.2,0.9
		c-1.9,0-3.7,0-5.9,0c0-0.9,0-1.7,0-2.6c0-5.4,0-10.9,0-16.3c0-1.1,0-2.3-0.2-3.3c-0.6-2.8-2.4-4.1-5.2-3.8
		c-3.4,0.4-6.1,2.3-8.6,4.4c-0.5,0.4-0.5,1.4-0.5,2.2c0,5.5,0,11,0,16.5C661.4,264.1,661.4,265,661.4,266.2z"/>
	<path class="st0" d="M636.3,238.2c-0.6,1.4-1.1,2.6-1.7,4c-1.1-0.3-2-0.7-3-0.9c-1.9-0.4-3.7-0.8-5.6-0.9c-3.6-0.2-6.2,1.6-7.7,4.7
		c-2,4-1.9,8.2,0,12.3c1.4,3,4,4.6,7.3,4.6c2.1,0,4.2-0.6,6.3-1c0.8-0.1,1.5-0.5,2.4-0.9c0.6,1.4,1.2,2.6,1.7,3.9
		c-4.4,3.7-15,4.8-20.5-0.4c-5.9-5.5-6.5-16.8-1.3-23.3C619.1,234.2,629,233.5,636.3,238.2z"/>
	<path class="st0" d="M736.8,251.4c0,5.1,0,9.7,0,14.4c-1.9,0-3.5,0-5.4,0c-0.2-4.8,0.1-9.5-0.2-14.3c-4,0-7.7,0-11.6,0
		c-0.2-1.6-0.4-2.9-0.7-4.7c4.1-0.3,8.1,0,12.4-0.2c0-4.6,0-9.1,0-13.6c2,0,3.6,0,5.5,0c0,4.6,0,9,0,13.7c3.9,0,7.6,0,11.4,0
		c0.2,1.6,0.4,3,0.7,4.7C744.9,251.4,741,251.4,736.8,251.4z"/>
	<path class="st0" d="M642,236c1.8,0,3.7,0,5.7,0c0,10.1,0,20,0,30.1c-1.9,0-3.8,0-5.6,0C641.6,264.5,641.5,238.8,642,236z"/>
	<path class="st0" d="M648.5,226.7c0,2.1-1.7,3.7-3.9,3.6c-2.1,0-3.6-1.6-3.7-3.7c0-2.1,1.7-3.8,3.8-3.8
		C646.9,222.9,648.5,224.6,648.5,226.7z"/>
</g>
</svg>
