<svg width="150" height="38" viewBox="0 0 150 38" fill="none" xmlns="http://www.w3.org/2000/svg">
<path d="M25.0228 20.5963V12.4709C25.0228 11.2663 25.0214 10.0604 25.0241 8.85575C25.0241 8.7163 25.0282 8.57021 25.0684 8.43873C25.1852 8.06154 25.4562 7.84904 25.8467 7.76936C26.1379 7.70959 26.413 7.73881 26.672 7.87561C26.9874 8.04295 27.1618 8.30724 27.1752 8.66716C27.1779 8.73755 27.1752 8.80794 27.1752 8.87833V20.9057C27.1752 20.9602 27.1752 21.016 27.1752 21.0704C27.1779 21.2776 27.1887 21.2882 27.3873 21.3427C28.1092 21.5419 28.8271 21.7531 29.5518 21.9417C30.1234 22.0904 30.365 22.4995 30.3408 23.0347C30.3261 23.3574 30.212 23.6416 29.9852 23.882C29.7128 24.1716 29.3746 24.2459 29.011 24.1384C28.3306 23.9365 27.6597 23.7067 26.9847 23.4889C25.8145 23.1131 24.643 22.7399 23.4729 22.3627C22.4892 22.0466 21.5083 21.7252 20.5247 21.4091C19.1747 20.9748 17.822 20.5445 16.4721 20.1115C15.4965 19.7981 14.5223 19.4846 13.548 19.1646C13.0394 18.9972 12.5268 18.8352 12.0303 18.6373C11.2171 18.3119 10.479 17.863 9.86579 17.2335C9.60143 16.9626 9.37599 16.6704 9.18946 16.3583C9.1653 16.3171 8.81372 15.7221 8.62988 14.9505C8.06627 12.5745 9.22167 10.6341 9.22167 10.6341C9.86579 9.55169 10.7192 8.98458 11.1312 8.7163C12.8167 7.62194 14.5276 7.62858 15.2912 7.64186C15.9058 7.65248 17.3389 7.71225 18.8593 8.54896C20.1208 9.24356 21.0373 10.2436 21.4909 11.6196C21.6653 12.1481 21.7633 12.694 21.7606 13.2531C21.7606 13.4099 21.7606 13.5666 21.7606 13.7233C21.7633 14.3741 21.3526 14.7685 20.7676 14.8336C20.4133 14.8734 20.1073 14.6928 19.8913 14.4073C19.7115 14.1709 19.6202 13.9013 19.6202 13.5998C19.6202 12.1574 18.9224 11.1428 17.6543 10.4827C16.9498 10.1161 16.1929 9.9541 15.4026 9.91293C15.059 9.89434 14.4095 9.8691 13.6097 10.0975C13.1038 10.2423 12.1189 10.5371 11.3996 11.4575C11.311 11.5717 11.1151 11.836 10.9501 12.2159C10.8776 12.3846 10.42 13.4802 10.8172 14.6702C10.9031 14.9292 11.0037 15.1138 11.0319 15.1643C11.2614 15.5747 11.5888 15.9094 11.9914 16.1856C12.5483 16.5694 13.1696 16.8178 13.8137 17.013C13.8956 17.0383 13.9774 17.0582 14.0942 17.0901C14.0995 16.9812 14.1089 16.8935 14.1089 16.8045C14.1089 15.4498 14.1089 14.0952 14.1089 12.7405C14.1089 12.4788 14.1532 12.2278 14.2888 11.9981C14.4699 11.6926 14.7276 11.5226 15.0953 11.5093C15.4844 11.496 15.7622 11.6674 15.9595 11.9808C16.1097 12.2199 16.1527 12.4881 16.1527 12.767C16.1527 14.317 16.1527 15.8682 16.1527 17.4181C16.1527 17.4726 16.1527 17.5283 16.1527 17.5828C16.1527 17.689 16.197 17.7501 16.307 17.7847C17.0357 18.0158 17.7617 18.2522 18.4876 18.4872C19.1318 18.6957 19.7759 18.9056 20.42 19.1154C21.1768 19.3625 21.9323 19.6108 22.6878 19.8579C23.3763 20.0823 24.066 20.3068 24.7544 20.5299C24.8269 20.5538 24.902 20.5671 25.0188 20.595L25.0228 20.5963Z" fill="#4B63DD"/>
<path d="M15.2778 30.3103C14.5652 30.317 13.0515 30.2811 11.3983 29.4364C10.3368 28.8945 9.45919 28.1495 8.85533 27.1162C8.34808 26.2476 8.09312 25.3073 8.05689 24.3046C8.04883 24.0854 8.0381 23.8716 8.09043 23.6578C8.2206 23.1319 8.66209 22.8291 9.22167 22.8888C9.68732 22.938 10.0563 23.3696 10.0725 23.8676C10.0953 24.5344 10.1811 25.1878 10.4844 25.7974C10.9179 26.6673 11.6116 27.2689 12.4799 27.6899C13.1106 27.9954 13.7842 28.1747 14.478 28.2318C15.7984 28.3407 17.0598 28.1269 18.2058 27.4257C19.0204 26.9276 19.6041 26.237 19.9101 25.3352C20.0201 25.0098 20.0912 24.6751 20.0979 24.3258C20.102 24.1014 20.1409 23.8769 20.1731 23.6538C20.2254 23.2846 20.6629 22.9366 21.0118 22.8955C21.4788 22.841 21.8787 22.9406 22.1565 23.3404C22.3242 23.5808 22.3738 23.8623 22.3551 24.1452C22.3524 24.1784 22.3658 24.7588 22.2316 25.213C21.2413 28.5692 18.1092 29.8163 18.1092 29.8163C16.9324 30.2851 15.9219 30.3037 15.2751 30.309L15.2778 30.3103Z" fill="#4B63DD"/>
<path d="M25.1073 23.4134C25.2469 23.452 25.3824 23.4825 25.5126 23.5263C25.9514 23.6764 26.3889 23.8318 26.8264 23.9859C26.8854 24.0071 26.9431 24.035 27.0021 24.0536C27.0921 24.0802 27.1269 24.1412 27.1269 24.2289C27.1269 24.2674 27.1269 24.3073 27.1269 24.3458C27.1269 26.0192 27.1256 27.6939 27.1283 29.3674C27.1283 29.7007 27.0357 29.9796 26.7472 30.1789C26.3231 30.471 25.5354 30.4139 25.2268 29.9664C25.1047 29.7884 25.0671 29.5971 25.0671 29.39C25.0671 28.3646 25.0711 27.3407 25.0671 26.3154C25.0644 25.8147 25.0403 25.314 25.0389 24.8133C25.0389 24.3843 25.0577 23.9553 25.0711 23.5263C25.0711 23.4971 25.0886 23.4692 25.106 23.4121L25.1073 23.4134Z" fill="#4B63DD"/>
<path d="M14.1116 22.8542C14.1116 21.9935 14.1116 21.1316 14.1116 20.271C14.1116 20.2245 14.1103 20.1767 14.1116 20.1302C14.1197 19.9376 14.1573 19.9097 14.3438 19.9708C14.8161 20.1249 15.2885 20.2776 15.7582 20.437C16.1862 20.5817 16.1849 20.5857 16.1849 21.0267C16.1849 22.5527 16.1768 24.0787 16.1889 25.6047C16.1943 26.201 15.7877 26.4839 15.3059 26.5423C15.0778 26.5702 14.8524 26.5423 14.635 26.444C14.2337 26.2608 14.1103 25.9327 14.1103 25.529C14.1103 24.6365 14.1103 23.744 14.1103 22.8528L14.1116 22.8542Z" fill="#4B63DD"/>
<path d="M19.1975 0C8.59501 0 0 8.50657 0 19C0 29.4934 8.59501 38 19.1975 38C29.8001 38 38.3951 29.4934 38.3951 19C38.3951 8.50657 29.8001 0 19.1975 0ZM19.1975 35.3106C10.0953 35.3106 2.71739 28.0086 2.71739 19C2.71739 9.9914 10.0953 2.68943 19.1975 2.68943C28.2998 2.68943 35.6777 9.9914 35.6777 19C35.6777 28.0086 28.2998 35.3106 19.1975 35.3106Z" fill="#4B63DD"/>
<path d="M74.7437 16.6201H71.9605V4.54091C72.0209 4.5356 72.0853 4.52365 72.1497 4.52365C73.7882 4.52365 75.4254 4.51169 77.0639 4.5263C79.0419 4.54357 80.6897 5.8252 81.1621 7.68722C81.66 9.6515 80.6522 11.6981 78.7802 12.5269C78.7185 12.5548 78.6567 12.5813 78.5534 12.6265C79.7007 13.9572 80.8347 15.2721 82.0062 16.6307H81.7016C80.7461 16.6307 79.7907 16.6268 78.8352 16.6347C78.6594 16.636 78.5413 16.5909 78.4232 16.4528C77.4946 15.3624 76.5392 14.2919 75.6307 13.1856C75.3717 12.8708 75.102 12.8589 74.7437 12.9014V16.6201ZM74.7611 6.96206V10.455C75.4173 10.455 76.0547 10.467 76.6922 10.4523C77.5953 10.4311 78.3454 9.68204 78.391 8.77892C78.434 7.9037 77.7536 7.04972 76.8693 6.97402C76.1782 6.91425 75.4764 6.96206 74.7625 6.96206H74.7611Z" fill="black"/>
<path d="M56.4882 6.71378C55.7247 7.23174 54.9745 7.74041 54.2593 8.22517C53.8916 7.89713 53.5655 7.53588 53.1737 7.27158C52.2974 6.6819 51.3433 6.51057 50.3396 6.95815C50.1718 7.03252 50.0068 7.13877 49.8752 7.26361C49.4338 7.68197 49.4767 8.28228 49.9987 8.59173C50.3221 8.78431 50.6911 8.91579 51.0535 9.02868C51.9794 9.31422 52.9227 9.54797 53.8433 9.85078C54.6002 10.0991 55.2993 10.475 55.8589 11.058C57.2491 12.5044 57.0156 14.7529 55.3664 15.9003C54.4847 16.5139 53.4864 16.8021 52.433 16.9256C50.6361 17.1355 48.9976 16.7171 47.5296 15.6692C47.0076 15.2974 46.5567 14.8538 46.1783 14.296C46.9834 13.8205 47.7765 13.3517 48.5682 12.8829C49.6082 14.2561 51.291 14.7701 52.959 14.2535C53.1361 14.199 53.3132 14.122 53.4662 14.0211C53.9319 13.7129 53.9802 13.1857 53.5481 12.8271C53.2985 12.6199 53.0006 12.4406 52.6933 12.337C52.0827 12.1312 51.452 11.9784 50.8267 11.819C49.8914 11.5787 48.9815 11.2905 48.1603 10.7619C46.0682 9.41516 46.3232 6.68588 47.9053 5.37105C48.9842 4.47458 50.251 4.12395 51.6345 4.17708C53.5857 4.25278 55.1825 5.04434 56.3903 6.57698C56.4211 6.6155 56.4466 6.65667 56.4869 6.71378H56.4882Z" fill="black"/>
<path d="M63.0918 9.3448H66.4707V11.7606H63.0904V14.2044H68.803V16.6149H60.2952V4.54102H68.3535V6.94357H63.0904V9.3448H63.0918Z" fill="black"/>
<path d="M83.4071 4.53297H86.413C87.3578 7.50927 88.3038 10.4896 89.27 13.5349C89.3277 13.3702 89.3666 13.268 89.4002 13.1644C90.2925 10.3674 91.1863 7.57169 92.0706 4.77203C92.1323 4.57812 92.2142 4.51305 92.4235 4.5157C93.2501 4.53031 94.0768 4.52102 94.941 4.52102C94.9141 4.61664 94.8967 4.69367 94.8725 4.76804C93.587 8.64348 92.2987 12.5176 91.0185 16.3957C90.9568 16.5816 90.879 16.6387 90.683 16.6361C89.7021 16.6254 88.7211 16.6268 87.7402 16.6347C87.5631 16.6361 87.4745 16.5936 87.4128 16.4129C86.1057 12.5362 84.7907 8.66075 83.4769 4.78531C83.4501 4.70695 83.4326 4.62594 83.4071 4.53164V4.53297Z" fill="black"/>
<path d="M123.352 21.3652C124.371 21.3652 125.368 21.3599 126.365 21.3745C126.452 21.3745 126.563 21.4834 126.618 21.5697C127.944 23.6243 129.263 25.6829 130.584 27.7401C130.632 27.8158 130.686 27.8889 130.78 28.0257V21.3798H133.574V33.4736H133.335C132.567 33.4736 131.8 33.4683 131.032 33.4776C130.856 33.4803 130.761 33.4205 130.67 33.2771C129.226 31.0179 127.775 28.7615 126.326 26.505C126.276 26.428 126.225 26.3523 126.131 26.2115V33.4603H123.353V21.3652H123.352Z" fill="black"/>
<path d="M66.1326 33.8284C62.6489 33.8204 59.6712 30.8548 59.6833 27.407C59.6967 23.9233 62.6677 20.9975 66.1769 21.0108C69.6645 21.0254 72.6288 23.9844 72.6154 27.4402C72.6006 30.8959 69.6175 33.8364 66.1312 33.8284H66.1326ZM69.7007 27.5278C69.6833 26.565 69.4364 25.7707 68.9345 25.0576C67.6073 23.1716 65.0161 23.0441 63.5668 24.7946C62.2101 26.4335 62.3242 28.8214 63.8339 30.3275C64.9651 31.4577 66.7485 31.6131 68.0408 30.6741C69.1412 29.8746 69.635 28.7563 69.7021 27.5265L69.7007 27.5278Z" fill="black"/>
<path d="M113.551 33.8284C110.067 33.8284 107.088 30.8747 107.087 27.4216C107.087 23.9446 110.058 21.0041 113.565 21.0108C117.054 21.0174 120.023 23.9685 120.019 27.4255C120.015 30.88 117.036 33.8284 113.549 33.8284H113.551ZM117.104 27.4973C117.084 26.5596 116.838 25.7747 116.343 25.0668C114.977 23.1118 112.326 23.0388 110.868 24.9274C109.571 26.6088 109.83 28.7298 111.074 30.1495C112.261 31.5042 114.173 31.6795 115.576 30.5758C116.593 29.775 117.052 28.6873 117.103 27.4973H117.104Z" fill="black"/>
<path d="M82.712 29.4736C83.8647 30.8097 84.9933 32.1179 86.1473 33.4566C86.0413 33.4646 85.9702 33.4739 85.9004 33.4739C84.9195 33.4739 83.9385 33.4713 82.9576 33.4779C82.7952 33.4779 82.6946 33.4274 82.5926 33.3066C81.6116 32.1591 80.6186 31.0222 79.6444 29.8707C79.4256 29.6118 79.172 29.7924 78.9063 29.6941V33.462H76.1245V21.3801C76.1956 21.3761 76.2694 21.3668 76.3432 21.3668C77.9562 21.3668 79.5679 21.3589 81.1809 21.3668C83.1763 21.3774 84.8403 22.6485 85.318 24.5131C85.8212 26.4774 84.8215 28.5293 82.9535 29.3634C82.8851 29.3939 82.8167 29.4258 82.7147 29.4723L82.712 29.4736ZM78.9103 27.2809C78.9774 27.2876 79.0418 27.3008 79.1076 27.3008C79.6618 27.3008 80.2147 27.3075 80.7689 27.3008C81.7566 27.2862 82.5483 26.5053 82.551 25.5517C82.5537 24.5981 81.7633 23.8106 80.777 23.7946C80.2147 23.7853 79.6524 23.792 79.0902 23.7933C79.0338 23.7933 78.9761 23.8066 78.9103 23.8145V27.2822V27.2809Z" fill="black"/>
<path d="M48.9493 21.384V26.1719H53.4004V21.3813H56.1769V33.4605H53.4165V28.6275H48.96V33.4605H46.1768V21.384H48.9479H48.9493Z" fill="black"/>
<path d="M100.95 23.7903H95.4925V21.3838H104.223C104.223 22.101 104.23 22.8075 104.215 23.5154C104.212 23.6177 104.12 23.7253 104.051 23.8182C102.37 26.1132 100.686 28.4082 99.0016 30.7018C98.9278 30.8014 98.8567 30.9037 98.76 31.0392H104.467V33.4603H95.2133C95.2133 32.8706 95.2066 32.2903 95.2201 31.7112C95.2214 31.6222 95.3006 31.5293 95.3596 31.4496C97.1632 28.9806 98.9694 26.513 100.774 24.0453C100.824 23.9776 100.871 23.9085 100.953 23.7903H100.95Z" fill="black"/>
<path d="M91.872 33.466H89.1559V21.3828H91.872V33.466Z" fill="black"/>
<path d="M143.676 33.6799C143.298 33.6799 142.928 33.6826 142.559 33.6759C142.525 33.6759 142.483 33.6334 142.46 33.5989C141.846 32.6466 141.235 31.6944 140.624 30.7408C140.604 30.7089 140.582 30.6797 140.541 30.6545C140.541 31.1565 140.541 31.6598 140.541 32.1619C140.541 32.6626 140.541 33.1633 140.541 33.6706H139.373V28.5813H139.475C139.848 28.5813 140.221 28.5839 140.596 28.5786C140.675 28.5786 140.717 28.6065 140.757 28.6703C141.308 29.5349 141.863 30.3968 142.417 31.2601C142.438 31.2933 142.46 31.3252 142.497 31.3823V28.5892H143.676V33.6772V33.6799Z" fill="black"/>
<path d="M149.961 29.5082C149.636 29.726 149.317 29.9412 149.011 30.147C148.871 30.0169 148.753 29.8748 148.606 29.7738C147.872 29.2665 146.92 29.5042 146.504 30.2905C146.149 30.9625 146.26 31.8218 146.771 32.3411C147.381 32.96 148.421 32.8856 148.932 32.1857C148.952 32.1578 148.975 32.1299 148.999 32.098C149.336 32.2973 149.667 32.4925 150 32.6891C149.537 33.3969 148.425 34.0384 147.195 33.7662C146.005 33.5032 145.136 32.4726 145.071 31.2348C145.011 30.0567 145.802 28.9345 146.955 28.5653C148.064 28.2093 149.365 28.6131 149.961 29.5096V29.5082Z" fill="black"/>
<path d="M136.596 28.5879H137.738V33.6732H136.596V28.5879Z" fill="black"/>
</svg>
