<?xml version="1.0" encoding="utf-8"?>
<!-- Generator: Adobe Illustrator 25.2.3, SVG Export Plug-In . SVG Version: 6.00 Build 0)  -->
<svg version="1.1" id="Layer_1" xmlns="http://www.w3.org/2000/svg" xmlns:xlink="http://www.w3.org/1999/xlink" x="0px" y="0px"
	 viewBox="0 0 484.1 266.1" style="enable-background:new 0 0 484.1 266.1;" xml:space="preserve">
<style type="text/css">
	.st0{clip-path:url(#SVGID_2_);fill:url(#SVGID_3_);}
	.st1{clip-path:url(#SVGID_5_);fill:url(#SVGID_6_);}
	.st2{clip-path:url(#SVGID_8_);fill:url(#SVGID_9_);}
	.st3{clip-path:url(#SVGID_11_);fill:url(#SVGID_12_);}
	.st4{clip-path:url(#SVGID_14_);fill:url(#SVGID_15_);}
	.st5{clip-path:url(#SVGID_17_);fill:url(#SVGID_18_);}
	.st6{clip-path:url(#SVGID_20_);fill:url(#SVGID_21_);}
	.st7{clip-path:url(#SVGID_23_);fill:url(#SVGID_24_);}
	.st8{clip-path:url(#SVGID_26_);fill:url(#SVGID_27_);}
	.st9{clip-path:url(#SVGID_29_);fill:url(#SVGID_30_);}
	.st10{clip-path:url(#SVGID_32_);fill:url(#SVGID_33_);}
	.st11{clip-path:url(#SVGID_35_);fill:url(#SVGID_36_);}
	.st12{clip-path:url(#SVGID_38_);fill:url(#SVGID_39_);}
	.st13{clip-path:url(#SVGID_41_);fill:url(#SVGID_42_);}
	.st14{clip-path:url(#SVGID_44_);fill:url(#SVGID_45_);}
	.st15{clip-path:url(#SVGID_47_);fill:url(#SVGID_48_);}
	.st16{clip-path:url(#SVGID_50_);fill:url(#SVGID_51_);}
	.st17{clip-path:url(#SVGID_53_);fill:url(#SVGID_54_);}
	.st18{fill:#1193D1;}
</style>
<g>
	<g>
		<defs>
			<path id="SVGID_1_" d="M5.3,46.6c0,4.7,1.3,8.7,2.5,12.4c0.7,2.3,3.3,9.7,4.6,10.6c0-7.9-0.5-14.3,1.3-20.3
				c0.9-2.8,2.8-4.8,2.9-7.7c0.2-3.4,1.4-6,2.5-8.5c3.5-7.6,16-16,27.3-16h5c2.1,0,10,3.6,11.8,4.5c3.1,1.7,6.3,5.1,8.5,7.8
				c3.8,4.8,8.8,15.4,8.8,23.8v4.3c0,5.2-2.3,14.2-4.2,17.5c-1.4,2.4-2.2,4.9-3.8,7.2c-1.8,2.4-3.1,4-4.8,6.2
				c-3.1,4-6.9,7.7-10.3,11.7c-2,2.4-2.9,3.7-4.6,6.4c-0.4,0.7-2.8,7.6-3,8.3c1.1,7.8,1.3,12.2,3.8,19.1c0-10.5,0.7-20.5,8.3-23.6
				c5.3-2.2,6.4-2.2,13.7-2.2c2.9,0,5-0.3,7.5-0.3c4.3,0,3.9-1.9,5.7-2.5l0.1-1.4L88,97c-0.5-3.7,4.2-2.8,4.3-6.4
				c-1.4-0.3-2.3-0.8-2.5-2.4l3.5-1.1c0-2.5-1.1-4-1.1-4.6V81c0-2.2,5.1-3.2,7.4-3.2c0.4-0.6,1.1-1.3,1.1-2.1
				c0-5.3-7.9-11.4-8.8-20.6c-0.8-7.9-3-17.7-5.8-23.6c-3.9-8.2-6.2-11.2-12.8-16.7c-4.7-4-13.4-7.9-21.9-7.9h-7.8
				c-9.2,0-22.5,7-27.2,11.8C9.3,25.8,5.3,32.6,5.3,46.6"/>
		</defs>
		<clipPath id="SVGID_2_">
			<use xlink:href="#SVGID_1_"  style="overflow:visible;"/>
		</clipPath>
		
			<linearGradient id="SVGID_3_" gradientUnits="userSpaceOnUse" x1="-71.3448" y1="503.4616" x2="-69.6171" y2="503.4616" gradientTransform="matrix(0 139.1233 -72.9706 0 36790.8906 9974.874)">
			<stop  offset="0" style="stop-color:#99D2E3"/>
			<stop  offset="0.59" style="stop-color:#45B795"/>
			<stop  offset="1" style="stop-color:#00A651"/>
		</linearGradient>
		<rect x="5.3" y="6.9" class="st0" width="95.4" height="126.9"/>
	</g>
	<g>
		<defs>
			<path id="SVGID_4_" d="M37.6,28.6c-2.1-0.2-2.4-1.4-4.3-1.4h-1.8c-4.1,0-7.5,3.4-7.5,7.4v1.1c0,1.1,0.2,1.3,0.4,2.1
				c-2,3-5.7,3.4-5.7,9.9v0.7c0,4.3,3.2,6.8,3.2,7.8v1.1c1.3,0.4,2.3,1.4,3.9,1.4h3.5c1.4,0,3.2-0.7,4.6-1.1c2.9,1.9,4.6,6,10.6,6
				c0,0,3.2-3.5,3.9-3.5c0.7,0,2.4,1.4,3.2,1.4h2.1c4,0,7.5-4,7.5-8.2c0-3-6-8.5-9.2-8.5l-3.6-0.1L45,45.2c-1.3-0.9-3.3-2.8-5.3-2.8
				c-2.8,0-3.7,3.5-4.6,3.5c-1,0-1-0.2-1.8-0.4v-1.4c0-1.1,2.4-3.5,3.3-3.8c2.8-1.1,3.1-0.4,6-0.4l3.2,2.2l5.3-0.4
				c1.4-0.1,1.2,0.3,2.8,0.4c1.3-4.7,4.6-5.2,6-7.1c-0.9-1.4-2.3-3.5-4.6-3.5c-1.8,0-3.3,1.8-4.3,1.8h-0.4c-1.1,0-2.9-2.8-5.3-2.8
				h-1.1c-3.7,0-4.5,6-6.4,6c-2.2,0-1.2-1.4-4.3-1.4H33c-1.5,0-3.7,1.4-3.6,2.8l0.4,3.5c-0.9,1.4-2.5,1.9-2.5,3.9v1.1
				c0,3,2.9,6.1,5.7,5.7l3.5-0.4c0.4-0.8,1.8-2.1,2.8-2.1h0.7c1.2,0,2.9,4.3,5.3,4.3h1.8c2.3,0,4.7-2.8,5.7-2.8h1.1
				c0.2,0.8,0.4,0.8,0.4,1.8c0,1.6-4.8,3.9-6.7,3.9H45c-2.6,0-5.6-3.5-5.7-3.5c-1.3,0-0.8,1.2-3.2,1.4c-1.7,0.1-2.7,0.4-4.6,0.4
				c-1,0-1-0.7-3.2-0.7c-1.3-2-4.3-3.8-4.3-7.4v-1.1c0-2.9,1.4-3.7,2.5-5.3c0-2.8-0.2-4.2,1.3-5.8c0.7-0.8,3.3-2.7,4.4-2.7H34
				c1.8,0,1.9,0.6,3.5,0.7c0.4-1.6,3.7-5,5.3-5h3.2c1.3,0,3.5,1.5,4.6,2.1c1.4-0.3,3.5-1.1,5-1.1c3.1,0,7,3.1,7.1,6h2.1
				c2,0,6,3.7,6,6.4v2.8c0,1.6-3,3.5-5,3.5h-3.2c-0.6-1.6-1.1-0.3-1.1-1.8c0-0.8,0.3-0.8,0.7-1.4c2.2,0,5.7,0.3,5.7-1.8
				c0-8.1-11.4-4.6-11.4,0.7c0,0.6,1.6,1.1,2.2,1.7c0.7,0.7,1.5,1.4,2.1,2.1c1.1,1.2,2.7,3.3,3.1,5.1l1.1,0.1l3.9-0.4
				c0.6-1.6,6-2.7,6-9.6v-1.4c0-1.9-0.7-1.9-0.8-3.9l-4.6-4.7C65.3,32,67.7,25,58.5,25c-2.1,0-4.2,1.1-4.6,1.1c-1,0-3.3-3.2-7.5-3.2
				h-0.4C42.6,22.9,38.3,25.8,37.6,28.6"/>
		</defs>
		<clipPath id="SVGID_5_">
			<use xlink:href="#SVGID_4_"  style="overflow:visible;"/>
		</clipPath>
		
			<linearGradient id="SVGID_6_" gradientUnits="userSpaceOnUse" x1="-71.405" y1="503.8412" x2="-69.4905" y2="503.8412" gradientTransform="matrix(0 125.4546 -61.4234 0 30994.6016 9007.3281)">
			<stop  offset="0" style="stop-color:#99D2E3"/>
			<stop  offset="0.59" style="stop-color:#45B795"/>
			<stop  offset="1" style="stop-color:#00A651"/>
		</linearGradient>
		<rect x="18.8" y="22.9" class="st1" width="56.4" height="40.8"/>
	</g>
	<g>
		<defs>
			<path id="SVGID_7_" d="M30.8,69.3h0.7c2.1,0,2.7-0.7,4.6-0.7c0.4,0.7,0.7,1,0.7,2.1l0.1,0.7l-0.4,3.9c2.6-1.4,5.3-4.8,5.3-8.9
				c-5.3-0.4-9.4-5.3-10.3-5.3c-1.6,0-1.3,0.7-2.8,0.7h-3.9c-2.4,0-2.1-0.9-3.9-1.1C21.2,64.8,26.4,69.3,30.8,69.3"/>
		</defs>
		<clipPath id="SVGID_8_">
			<use xlink:href="#SVGID_7_"  style="overflow:visible;"/>
		</clipPath>
		
			<linearGradient id="SVGID_9_" gradientUnits="userSpaceOnUse" x1="-71.5356" y1="504.1606" x2="-69.2009" y2="504.1606" gradientTransform="matrix(0 101.5557 -59.599 0 30078.8281 7315.6279)">
			<stop  offset="0" style="stop-color:#99D2E3"/>
			<stop  offset="0.59" style="stop-color:#45B795"/>
			<stop  offset="1" style="stop-color:#00A651"/>
		</linearGradient>
		<rect x="20.9" y="60.8" class="st2" width="20.9" height="14.5"/>
	</g>
	<g>
		<defs>
			<path id="SVGID_10_" d="M33.7,211.9h6.4v-6.7c0-0.8-0.2-1.1-1.1-1.1h-5.3V211.9z"/>
		</defs>
		<clipPath id="SVGID_11_">
			<use xlink:href="#SVGID_10_"  style="overflow:visible;"/>
		</clipPath>
		
			<linearGradient id="SVGID_12_" gradientUnits="userSpaceOnUse" x1="-71.5356" y1="504.5415" x2="-69.2009" y2="504.5415" gradientTransform="matrix(0 101.5557 -48.6584 0 24587.0371 7315.6279)">
			<stop  offset="0" style="stop-color:#99D2E3"/>
			<stop  offset="0.59" style="stop-color:#45B795"/>
			<stop  offset="1" style="stop-color:#00A651"/>
		</linearGradient>
		<rect x="33.7" y="204.1" class="st3" width="6.4" height="7.8"/>
	</g>
	<g>
		<defs>
			<path id="SVGID_13_" d="M33.7,199.5h6.4v-6.4c0-0.8-0.2-1.1-1.1-1.1h-5.3V199.5z"/>
		</defs>
		<clipPath id="SVGID_14_">
			<use xlink:href="#SVGID_13_"  style="overflow:visible;"/>
		</clipPath>
		
			<linearGradient id="SVGID_15_" gradientUnits="userSpaceOnUse" x1="-71.5356" y1="504.5415" x2="-69.2009" y2="504.5415" gradientTransform="matrix(0 101.5557 -48.6584 0 24587.0371 7315.6279)">
			<stop  offset="0" style="stop-color:#99D2E3"/>
			<stop  offset="0.59" style="stop-color:#45B795"/>
			<stop  offset="1" style="stop-color:#00A651"/>
		</linearGradient>
		<rect x="33.7" y="192" class="st4" width="6.4" height="7.4"/>
	</g>
	<g>
		<defs>
			<path id="SVGID_16_" d="M32.6,175l5.4,0l-0.8-7.4h-6C31.2,169.3,31,175,32.6,175"/>
		</defs>
		<clipPath id="SVGID_17_">
			<use xlink:href="#SVGID_16_"  style="overflow:visible;"/>
		</clipPath>
		
			<linearGradient id="SVGID_18_" gradientUnits="userSpaceOnUse" x1="-71.5356" y1="504.4798" x2="-69.2009" y2="504.4798" gradientTransform="matrix(0 101.5557 -50.7923 0 25658.1875 7315.6279)">
			<stop  offset="0" style="stop-color:#99D2E3"/>
			<stop  offset="0.59" style="stop-color:#45B795"/>
			<stop  offset="1" style="stop-color:#00A651"/>
		</linearGradient>
		<rect x="31" y="167.6" class="st5" width="7" height="7.4"/>
	</g>
	<g>
		<defs>
			<path id="SVGID_19_" d="M37.9,224.3c0.8,0,1.1-0.2,1.1-1.1v-6.7h-5.7l-0.4,6l0.1,1.8H37.9z"/>
		</defs>
		<clipPath id="SVGID_20_">
			<use xlink:href="#SVGID_19_"  style="overflow:visible;"/>
		</clipPath>
		
			<linearGradient id="SVGID_21_" gradientUnits="userSpaceOnUse" x1="-71.5356" y1="504.5249" x2="-69.2009" y2="504.5249" gradientTransform="matrix(0 101.5557 -49.3364 0 24927.3945 7315.6279)">
			<stop  offset="0" style="stop-color:#99D2E3"/>
			<stop  offset="0.59" style="stop-color:#45B795"/>
			<stop  offset="1" style="stop-color:#00A651"/>
		</linearGradient>
		<rect x="32.9" y="216.5" class="st6" width="6.1" height="7.8"/>
	</g>
	<g>
		<defs>
			<polygon id="SVGID_22_" points="29.8,162.2 36.2,162.2 35.8,155.1 29.3,155.1 			"/>
		</defs>
		<clipPath id="SVGID_23_">
			<use xlink:href="#SVGID_22_"  style="overflow:visible;"/>
		</clipPath>
		
			<linearGradient id="SVGID_24_" gradientUnits="userSpaceOnUse" x1="-71.5356" y1="504.4364" x2="-69.2009" y2="504.4364" gradientTransform="matrix(0 101.5557 -52.3831 0 26456.7188 7315.6279)">
			<stop  offset="0" style="stop-color:#99D2E3"/>
			<stop  offset="0.59" style="stop-color:#45B795"/>
			<stop  offset="1" style="stop-color:#00A651"/>
		</linearGradient>
		<rect x="29.3" y="155.1" class="st7" width="6.9" height="7.1"/>
	</g>
	<g>
		<defs>
			<polygon id="SVGID_25_" points="28.3,149.8 34.5,149.8 34,142.7 27.5,142.7 			"/>
		</defs>
		<clipPath id="SVGID_26_">
			<use xlink:href="#SVGID_25_"  style="overflow:visible;"/>
		</clipPath>
		
			<linearGradient id="SVGID_27_" gradientUnits="userSpaceOnUse" x1="-71.5356" y1="504.3983" x2="-69.2009" y2="504.3983" gradientTransform="matrix(0 101.5557 -53.9348 0 27235.6055 7315.6279)">
			<stop  offset="0" style="stop-color:#99D2E3"/>
			<stop  offset="0.59" style="stop-color:#45B795"/>
			<stop  offset="1" style="stop-color:#00A651"/>
		</linearGradient>
		<rect x="27.5" y="142.7" class="st8" width="6.9" height="7.1"/>
	</g>
	<g>
		<defs>
			<path id="SVGID_28_" d="M33,187l6,0v-6c0-0.8-0.2-1.1-1.1-1.1l-5.4,0L33,187z"/>
		</defs>
		<clipPath id="SVGID_29_">
			<use xlink:href="#SVGID_28_"  style="overflow:visible;"/>
		</clipPath>
		
			<linearGradient id="SVGID_30_" gradientUnits="userSpaceOnUse" x1="-71.5356" y1="504.5129" x2="-69.2009" y2="504.5129" gradientTransform="matrix(0 101.5557 -49.6352 0 25077.3652 7315.6279)">
			<stop  offset="0" style="stop-color:#99D2E3"/>
			<stop  offset="0.59" style="stop-color:#45B795"/>
			<stop  offset="1" style="stop-color:#00A651"/>
		</linearGradient>
		<rect x="32.5" y="180" class="st9" width="6.5" height="7.1"/>
	</g>
	<g>
		<defs>
			<path id="SVGID_31_" d="M24.8,124.6c0,0.8,0.2,1.1,1.1,1.1l5,0l-0.4-7.4h-5.7V124.6z"/>
		</defs>
		<clipPath id="SVGID_32_">
			<use xlink:href="#SVGID_31_"  style="overflow:visible;"/>
		</clipPath>
		
			<linearGradient id="SVGID_33_" gradientUnits="userSpaceOnUse" x1="-71.5356" y1="504.3538" x2="-69.2009" y2="504.3538" gradientTransform="matrix(0 101.5557 -56.2569 0 28401.2383 7315.6279)">
			<stop  offset="0" style="stop-color:#99D2E3"/>
			<stop  offset="0.59" style="stop-color:#45B795"/>
			<stop  offset="1" style="stop-color:#00A651"/>
		</linearGradient>
		<rect x="24.8" y="118.3" class="st10" width="6.1" height="7.4"/>
	</g>
	<g>
		<defs>
			<rect id="SVGID_34_" x="24.1" y="106.2" width="5.7" height="7.1"/>
		</defs>
		<clipPath id="SVGID_35_">
			<use xlink:href="#SVGID_34_"  style="overflow:visible;"/>
		</clipPath>
		
			<linearGradient id="SVGID_36_" gradientUnits="userSpaceOnUse" x1="-71.5356" y1="504.3443" x2="-69.2009" y2="504.3443" gradientTransform="matrix(0 101.5557 -56.8636 0 28705.7402 7315.6279)">
			<stop  offset="0" style="stop-color:#99D2E3"/>
			<stop  offset="0.59" style="stop-color:#45B795"/>
			<stop  offset="1" style="stop-color:#00A651"/>
		</linearGradient>
		<rect x="24.1" y="106.2" class="st11" width="5.7" height="7.1"/>
	</g>
	<g>
		<defs>
			<polygon id="SVGID_37_" points="24.4,101.2 29.8,101.2 29.7,99.8 30.1,93.8 24.9,93.8 			"/>
		</defs>
		<clipPath id="SVGID_38_">
			<use xlink:href="#SVGID_37_"  style="overflow:visible;"/>
		</clipPath>
		
			<linearGradient id="SVGID_39_" gradientUnits="userSpaceOnUse" x1="-71.5356" y1="504.349" x2="-69.2009" y2="504.349" gradientTransform="matrix(0 101.5557 -56.6175 0 28582.2324 7315.6279)">
			<stop  offset="0" style="stop-color:#99D2E3"/>
			<stop  offset="0.59" style="stop-color:#45B795"/>
			<stop  offset="1" style="stop-color:#00A651"/>
		</linearGradient>
		<rect x="24.4" y="93.8" class="st12" width="5.7" height="7.4"/>
	</g>
	<g>
		<defs>
			<polygon id="SVGID_40_" points="37.6,228.9 32.3,228.9 30.8,236.7 35.3,236.7 			"/>
		</defs>
		<clipPath id="SVGID_41_">
			<use xlink:href="#SVGID_40_"  style="overflow:visible;"/>
		</clipPath>
		
			<linearGradient id="SVGID_42_" gradientUnits="userSpaceOnUse" x1="-71.5356" y1="504.4695" x2="-69.2009" y2="504.4695" gradientTransform="matrix(0 101.5557 -51.1177 0 25821.5371 7315.6279)">
			<stop  offset="0" style="stop-color:#99D2E3"/>
			<stop  offset="0.59" style="stop-color:#45B795"/>
			<stop  offset="1" style="stop-color:#00A651"/>
		</linearGradient>
		<rect x="30.8" y="228.9" class="st13" width="6.8" height="7.8"/>
	</g>
	<g>
		<defs>
			<polygon id="SVGID_43_" points="26.6,136.3 26.6,137.8 32.3,137.8 32.3,134.9 31.8,131 26.2,131 			"/>
		</defs>
		<clipPath id="SVGID_44_">
			<use xlink:href="#SVGID_43_"  style="overflow:visible;"/>
		</clipPath>
		
			<linearGradient id="SVGID_45_" gradientUnits="userSpaceOnUse" x1="-71.5356" y1="504.3812" x2="-69.2009" y2="504.3812" gradientTransform="matrix(0 101.5557 -55.0403 0 27790.5332 7315.6279)">
			<stop  offset="0" style="stop-color:#99D2E3"/>
			<stop  offset="0.59" style="stop-color:#45B795"/>
			<stop  offset="1" style="stop-color:#00A651"/>
		</linearGradient>
		<rect x="26.2" y="131" class="st14" width="6" height="6.7"/>
	</g>
	<g>
		<defs>
			<path id="SVGID_46_" d="M26.9,89.5h4.3l-0.3-0.1l4.6-13C33.2,77.9,27,86.2,26.9,89.5"/>
		</defs>
		<clipPath id="SVGID_47_">
			<use xlink:href="#SVGID_46_"  style="overflow:visible;"/>
		</clipPath>
		
			<linearGradient id="SVGID_48_" gradientUnits="userSpaceOnUse" x1="-71.5356" y1="504.3724" x2="-69.2009" y2="504.3724" gradientTransform="matrix(0 101.5557 -54.432 0 27485.1836 7315.6279)">
			<stop  offset="0" style="stop-color:#99D2E3"/>
			<stop  offset="0.59" style="stop-color:#45B795"/>
			<stop  offset="1" style="stop-color:#00A651"/>
		</linearGradient>
		<rect x="26.9" y="76.4" class="st15" width="8.5" height="13.1"/>
	</g>
	<g>
		<defs>
			<path id="SVGID_49_" d="M33.7,241.5l-0.4-0.2h-1.1c-1.2,0-1.4-0.3-2.5-0.4l-4.6,18.3L33.7,241.5z"/>
		</defs>
		<clipPath id="SVGID_50_">
			<use xlink:href="#SVGID_49_"  style="overflow:visible;"/>
		</clipPath>
		
			<linearGradient id="SVGID_51_" gradientUnits="userSpaceOnUse" x1="-71.5356" y1="504.339" x2="-69.2009" y2="504.339" gradientTransform="matrix(0 101.5557 -55.931 0 28237.6094 7315.6279)">
			<stop  offset="0" style="stop-color:#99D2E3"/>
			<stop  offset="0.59" style="stop-color:#45B795"/>
			<stop  offset="1" style="stop-color:#00A651"/>
		</linearGradient>
		<rect x="25.2" y="241" class="st16" width="8.5" height="18.3"/>
	</g>
	<g>
		<defs>
			<path id="SVGID_52_" d="M26.6,136.3l-0.4-5.3l5.6,0l0.4,3.9v2.8h-5.7l6,0.4l0.1-3.6l-0.4-3.9h-6.4v3.2
				C25.9,135.2,26,135.6,26.6,136.3"/>
		</defs>
		<clipPath id="SVGID_53_">
			<use xlink:href="#SVGID_52_"  style="overflow:visible;"/>
		</clipPath>
		
			<linearGradient id="SVGID_54_" gradientUnits="userSpaceOnUse" x1="-71.5356" y1="504.3672" x2="-69.2009" y2="504.3672" gradientTransform="matrix(0 101.5557 -55.3453 0 27943.6387 7315.6279)">
			<stop  offset="0" style="stop-color:#99D2E3"/>
			<stop  offset="0.59" style="stop-color:#45B795"/>
			<stop  offset="1" style="stop-color:#00A651"/>
		</linearGradient>
		<rect x="25.9" y="130.7" class="st17" width="6.8" height="7.4"/>
	</g>
	<g>
		<path class="st18" d="M124,109.5c0-0.5,0.2-0.6,0.7-0.7c2-0.1,2.7-0.5,3.2-2.3c1-3.1,1.9-6.2,2.9-9.2c0.8-2.5,1.5-5,2.3-7.5
			c0-0.1,0.1-0.2,0.1-0.3c0.4-1.8-0.1-2.3-2.1-2.4c-0.2,0-0.3,0-0.5-0.1c0-0.5,0.2-0.6,0.7-0.6c3.2,0,6.4,0,9.6,0
			c2.8,0,5.5,0.4,7.9,1.8c2.5,1.5,3.8,3.6,4.3,6.1c0.9,5.8-3.3,12.6-12,14.5c-1.7,0.4-3.4,0.5-5.2,0.6c-3.7,0.1-7.5,0-11.2,0
			C124.4,109.5,124.2,109.5,124,109.5z M137.8,87.5c-0.1,0.3-0.2,0.5-0.2,0.6c-1.4,4.6-2.8,9.2-4.2,13.8c-0.4,1.5-0.9,2.9-1.3,4.4
			c-0.3,1.2,0.1,1.8,1.6,1.9c0.9,0.1,1.8,0.1,2.6,0.1c3.4-0.1,6.3-1.2,8.5-3.5c3.3-3.5,4.3-7.6,3.5-12c-0.5-2.6-2.3-4.4-5.3-4.9
			C141.3,87.6,139.5,87.6,137.8,87.5z"/>
		<path class="st18" d="M193.4,87c0.1-0.3,0.2-0.4,0.2-0.6c3.2,0,6.4,0,9.6,0c1.7,0,3.5,0.1,5.2,0.4c2.1,0.3,3.9,1.2,4.5,3.2
			c0.7,2.1,0.2,4-1.5,5.6c-1.7,1.6-3.9,2.3-6.3,2.6c-2.4,0.4-4.8,0.3-7.3-0.5c-0.3,1-0.6,2-0.9,2.9c-0.5,1.8-1.1,3.5-1.6,5.3
			c-0.6,1.9,0.1,2.7,2.4,2.9c0.4,0,0.7,0.1,1.2,0.1c-0.1,0.2-0.1,0.4-0.2,0.6c-3.8,0-7.6,0-11.4,0c0-0.4,0.2-0.6,0.7-0.6
			c2.1-0.1,2.7-0.6,3.2-2.3c0.9-2.6,1.7-5.3,2.5-8c0.9-3,1.9-6.1,2.7-9.1c0.4-1.5-0.2-2.2-2-2.3C194.1,87.1,193.8,87.1,193.4,87z
			 M198.2,96.7c1,0.2,2,0.4,2.9,0.5c3.6,0.4,7.5-1.4,7.7-5.6c0.1-1.8-0.8-3.2-2.6-3.6c-1.2-0.3-2.6-0.4-3.8-0.4
			c-1,0-1.6,0.5-1.8,1.3c-0.2,0.8-0.5,1.6-0.7,2.3C199.3,93.1,198.8,94.8,198.2,96.7z"/>
		<path class="st18" d="M282.2,105c0.2,0.1,0.3,0.3,0.5,0.4c-0.9,1.5-1.8,2.8-3.3,3.8c-0.8,0.5-1.6,0.7-2.6,0.7
			c-0.8-0.1-1.4-0.4-1.4-1.1c0-1,0.1-2,0.3-3c0.7-2.6,1.6-5.2,2.3-7.8c0.1-0.3,0.2-0.7,0.2-1c0.1-0.8-0.5-1.2-1.3-0.9
			c-0.7,0.3-1.3,0.6-1.8,1c-2.4,1.9-4.1,4.2-5.3,6.7c-0.8,1.7-1.4,3.4-2,5.2c-0.1,0.3-0.2,0.4-0.6,0.4c-0.9,0-1.9,0-2.8,0
			c0-0.2,0-0.3,0.1-0.5c2-6.5,4-13,6.1-19.5c0.1-0.5,0.3-0.9,0.3-1.4c0.1-0.7-0.3-1-1.1-1.1c-0.2,0-0.5,0-0.7-0.1
			c-0.2,0-0.4,0-0.7,0c0-0.4,0.1-0.6,0.5-0.6c1.8-0.3,3.7-0.6,5.5-0.8c0.2,0,0.4,0,0.7-0.1c-1.7,5.3-3.4,10.5-5.1,15.7
			c0,0,0,0,0.1,0c0.8-0.9,1.6-1.9,2.5-2.8c1.2-1.2,2.5-2.3,3.9-3.3c1.1-0.8,2.4-1.3,3.9-1c0.8,0.1,1.2,0.5,1.3,1.3
			c0.2,1.2-0.2,2.4-0.6,3.6c-0.8,2.5-1.6,4.9-2.3,7.4c-0.1,0.3-0.1,0.5-0.1,0.8c0,0.6,0.5,0.9,1.1,0.5c0.5-0.3,0.9-0.7,1.3-1.1
			C281.4,106,281.7,105.5,282.2,105z"/>
		<path class="st18" d="M466.2,101.2c1.2-1.3,2.2-2.5,3.3-3.7c1.1-1.1,2.3-2.2,3.8-2.9c1-0.5,2.1-0.9,3.3-0.6
			c0.8,0.2,1.4,0.6,1.3,1.3c-0.1,1.2-0.3,2.4-0.6,3.5c-0.7,2.5-1.6,5-2.3,7.5c-0.1,0.2-0.1,0.4-0.1,0.6c0,0.3,0.1,0.7,0.3,0.7
			c0.3,0.1,0.7,0,1-0.2c0.6-0.5,1.1-1.1,1.6-1.7c0.2-0.3,0.4-0.5,0.6-0.8c0.6,0.2,0.6,0.4,0.3,0.8c-0.8,1.2-1.7,2.4-3,3.3
			c-0.8,0.5-1.6,0.8-2.6,0.7c-0.9-0.1-1.4-0.4-1.4-1.2c0-1,0.1-2,0.3-2.9c0.7-2.6,1.6-5.2,2.3-7.8c0.1-0.3,0.2-0.6,0.2-0.9
			c0.1-0.9-0.5-1.4-1.5-0.9c-0.7,0.3-1.4,0.8-2,1.2c-2.2,1.8-3.8,4.1-5,6.5c-0.8,1.7-1.4,3.4-2,5.1c-0.1,0.3-0.3,0.5-0.7,0.5
			c-0.9,0-1.9,0-2.9,0c0.4-1.2,0.7-2.3,1-3.4c1.8-5.6,3.5-11.3,5.3-16.9c0.6-1.9,0.2-2.2-2-2.2c-0.1,0-0.1,0-0.2,0
			c0-0.3,0-0.5,0.5-0.6c1.9-0.3,3.7-0.6,5.6-0.9c0.2,0,0.4,0,0.7-0.1C469.6,90.7,467.9,95.9,466.2,101.2z"/>
		<path class="st18" d="M445,108.3c-0.2-0.1-0.4-0.2-0.5-0.2c-1.5-0.7-1.7-1.8-0.4-2.8c0.7-0.5,1.5-1,2.2-1.5
			c-0.2-0.1-0.3-0.2-0.4-0.3c-2.2-1.2-3-3-2-5.1c1-2.3,3.1-3.6,5.8-4.2c1.8-0.4,3.6-0.3,5.4,0.3c1.3,0.5,2.6,0.7,4,0.6
			c0.3,0,0.6,0,1,0c0,0.5,0,1,0,1.5c-0.9,0-1.7,0-2.7,0c0.4,1.2,0.3,2.3-0.2,3.3c-1.2,2.4-3.4,3.7-6.3,4.1c-0.9,0.1-1.9,0.1-2.8,0.1
			c-0.6,0-1.4,0.4-1.6,0.9c-0.2,0.4,0,0.8,0.5,1c0.7,0.3,1.5,0.5,2.2,0.7c1.3,0.4,2.6,0.7,3.8,1.2c3.6,1.4,4.2,4.7,1.4,7.1
			c-1.2,1-2.8,1.6-4.5,1.9c-2.2,0.4-4.4,0.4-6.5-0.1c-0.4-0.1-0.8-0.2-1.1-0.4c-2.8-1.2-3.3-3.9-1.1-5.8c0.9-0.7,1.9-1.3,2.9-1.9
			C444.4,108.5,444.7,108.4,445,108.3z M447.1,116.1c1.8-0.1,3.3-0.2,4.6-0.9c1.2-0.7,1.8-1.6,1.8-2.9c-0.1-1.2-1-1.8-2.1-2.2
			c-1.6-0.5-3.3-1-4.9-1.5c-0.2,0-0.4,0-0.6,0.1c-0.8,0.6-1.8,1-2.5,1.7c-1.7,1.7-1.3,4.8,2.1,5.4C446,116,446.7,116.1,447.1,116.1z
			 M454.3,97.6c0-0.2,0-0.3,0-0.5c-0.2-1.9-2.1-2.8-4.1-1.9c-0.3,0.2-0.6,0.3-0.9,0.6c-1.7,1.4-2.4,3.2-2.4,5.3c0,1.5,1,2.4,2.6,2.4
			c1,0,1.8-0.4,2.5-1C453.6,101.1,454.2,99.4,454.3,97.6z"/>
		<path class="st18" d="M409.2,86c-0.3,1.6-0.5,3.1-0.8,4.5c-0.1,0.6-0.3,1.2-0.3,1.8c0,0.4-0.2,0.5-0.6,0.4
			c-0.1-0.7-0.2-1.5-0.5-2.3c-0.8-2.7-3.4-4-6.5-3.2c-2.4,0.6-3.6,2.6-2.7,4.7c0.4,0.9,1.2,1.8,2,2.6c1.4,1.4,3,2.6,4.4,4.1
			c2,2,2.8,4.3,1.7,6.9c-1.2,2.9-3.8,4.2-7.1,4.5c-2.2,0.2-4.4-0.2-6.5-0.8c-0.5-0.2-1.1-0.3-1.6-0.2c-0.4,0-0.7,0.4-1.1,0.6
			c-0.2,0.1-0.4,0.3-0.7,0.5c-0.1,0-0.1-0.1-0.2-0.1c0.4-2.5,0.8-5,1.2-7.6c0.3,0,0.5,0,0.6,0c0.3,1.1,0.5,2.2,0.9,3.2
			c1.3,3.2,4.9,3.9,7.5,3.2c3.3-0.9,4.6-4.4,2.6-7c-1.1-1.3-2.5-2.3-3.8-3.5c-0.9-0.8-1.9-1.6-2.6-2.4c-3.4-3.9-0.9-9,4.7-9.7
			c2-0.2,3.9,0,5.8,0.5c1,0.3,1.9,0.5,2.7-0.4C408.5,86,408.9,86.1,409.2,86z"/>
		<path class="st18" d="M367,108.9c0,0.2-0.1,0.4-0.1,0.5c-3.4,0-6.7,0-10.1,0c0-0.4,0.2-0.6,0.7-0.6c0.4,0,0.7-0.1,1.1-0.2
			c1-0.2,1.5-0.8,1.5-1.7c-0.1-1.4-0.4-2.7-0.6-4.1c-0.1-0.4-0.2-0.8-0.2-1.3c-0.4,0-0.7,0-1.1,0c-2.4,0-4.9,0-7.3,0
			c-0.4,0-0.7,0.1-0.9,0.5c-0.7,1.2-1.5,2.5-2.3,3.7c-0.2,0.3-0.4,0.6-0.5,1c-0.4,1.1,0.2,1.9,1.5,2c0.3,0,0.6,0.1,0.9,0.1
			c0,0.2-0.1,0.4-0.1,0.6c-2.8,0-5.7,0-8.5,0c0-0.4,0.1-0.6,0.6-0.6c1.4,0,2.4-0.7,3.2-1.7c1.4-2,2.7-4,4.1-6
			c3.3-4.9,6.6-9.8,9.9-14.8c0.3-0.4,0.6-0.7,1.3-0.5c0.3,1.6,0.6,3.2,0.9,4.8c0.8,4,1.5,8,2.3,12c0.2,1.2,0.5,2.5,0.7,3.7
			c0.4,1.7,0.8,2,2.7,2.3C366.9,108.8,366.9,108.9,367,108.9z M357.3,91.6c0,0-0.1,0-0.1-0.1c-2,2.9-3.9,5.9-5.9,8.8
			c2.6,0,5.2,0,7.8,0C358.4,97.5,357.8,94.5,357.3,91.6z"/>
		<path class="st18" d="M307.6,109.5c-1,0-2.1,0-3.2,0c0.4-1.1,0.7-2.3,1.1-3.4c0.9-2.8,1.9-5.5,2.8-8.3c0.5-1.5,0.5-2.4-2.1-2.3
			c0-0.2,0.1-0.3,0.1-0.5c2.2-0.3,4.4-0.6,6.7-1c-0.8,2.2-1.6,4.3-2.4,6.4c0,0,0.1,0.1,0.1,0.1c0.3-0.3,0.5-0.6,0.8-0.9
			c1.5-1.6,3-3.2,4.9-4.4c0.8-0.5,1.7-0.9,2.6-1.1c1.9-0.4,3.1,0.6,2.8,2.3c-0.3,1.4-0.7,2.8-1.2,4.3c-0.6,1.9-1.2,3.8-1.8,5.7
			c-0.1,0.3-0.1,0.6-0.1,0.9c0,0.6,0.4,0.9,1,0.5c0.6-0.4,1.1-1,1.6-1.5c0.3-0.3,0.5-0.7,0.8-1.1c0.2,0.1,0.4,0.2,0.6,0.4
			c-0.9,1.5-1.9,2.9-3.4,3.8c-0.8,0.5-1.7,0.7-2.6,0.6c-0.7-0.1-1.2-0.4-1.3-1c-0.3-1.1,0-2.1,0.3-3.1c0.8-2.6,1.6-5.1,2.3-7.6
			c0.1-0.4,0.2-0.8,0.2-1.2c0-0.8-0.5-1.1-1.3-0.8c-0.8,0.3-1.5,0.8-2.1,1.3c-2.7,2.2-4.4,4.9-5.7,7.8
			C308.6,106.6,308.1,108,307.6,109.5z"/>
		<path class="st18" d="M424.2,109.5c-1.1,0-2.1,0-3.2,0c0.6-1.8,1.2-3.6,1.8-5.4c0.7-2.1,1.4-4.2,2.1-6.3c0.1-0.2,0.1-0.4,0.2-0.6
			c0.2-1.1-0.3-1.6-1.6-1.7c-0.2,0-0.5,0-0.8,0c0.1-0.2,0.1-0.4,0.1-0.5c2.2-0.3,4.4-0.7,6.7-1c-0.8,2.2-1.6,4.3-2.4,6.4
			c0,0,0.1,0,0.1,0.1c0.7-0.7,1.3-1.5,2-2.2c1.3-1.2,2.7-2.3,4.1-3.4c0.6-0.4,1.4-0.7,2.2-0.8c1.9-0.4,3.1,0.6,2.8,2.3
			c-0.3,1.3-0.6,2.6-1,3.8c-0.6,2-1.3,4.1-2,6.1c-0.1,0.2-0.1,0.5-0.1,0.7c0,0.2,0.1,0.6,0.3,0.6c0.2,0.1,0.7,0,0.8-0.1
			c0.6-0.5,1.1-1,1.5-1.5c0.3-0.3,0.5-0.7,0.8-1c0.2,0.1,0.4,0.2,0.6,0.4c-1,1.6-2,3-3.7,4c-0.7,0.4-1.5,0.5-2.3,0.4
			c-0.8-0.1-1.2-0.4-1.4-1c-0.3-1.1,0.1-2.1,0.4-3.1c0.8-2.5,1.6-5.1,2.3-7.6c0.1-0.4,0.2-0.8,0.2-1.2c0-0.8-0.5-1.1-1.3-0.8
			c-0.8,0.3-1.5,0.8-2.2,1.3c-2.7,2.2-4.5,5-5.8,8.1C425.1,106.8,424.7,108.1,424.2,109.5z"/>
		<path class="st18" d="M243.1,95.5c0.4-1.2,1.3-1.2,2.3-1.1c0.4,0,0.8,0,1.3,0c-0.1,0.2-0.1,0.4-0.1,0.5c-1.2,3.6-2.5,7.3-3.7,10.9
			c-0.1,0.4-0.2,0.8-0.2,1.2c0,0.6,0.4,0.9,1,0.5c0.6-0.4,1.1-0.9,1.6-1.3c0.3-0.2,0.5-0.5,0.7-0.8c0.2,0.2,0.4,0.3,0.6,0.4
			c-1.1,1.3-2.2,2.5-3.7,3.4c-0.2,0.1-0.4,0.2-0.6,0.3c-0.8,0.3-1.6,0.5-2.4,0c-0.7-0.5-0.7-1.2-0.5-1.9c0.3-1.1,0.6-2.1,0.9-3.1
			c0-0.1,0.1-0.2,0.1-0.4c-0.8,1-1.5,1.9-2.3,2.7c-0.9,0.8-1.8,1.6-2.9,2.3c-0.6,0.4-1.4,0.6-2.1,0.7c-2.3,0.2-3.7-0.9-3.9-3
			c-0.3-3.2,1-6,3.1-8.6c1.5-1.7,3.3-3.1,5.6-3.9c0.6-0.2,1.3-0.3,1.9-0.4C241.3,93.9,242.4,94.2,243.1,95.5z M232.7,105.5
			c0,0.2,0,0.5,0.1,0.7c0.3,1.5,1.4,2,3,1.2c0.3-0.1,0.6-0.3,0.8-0.5c0.9-1,2-1.9,2.8-2.9c1.5-2,2.7-4.3,2.9-6.7
			c0.1-0.8,0-1.6-0.8-2.1c-0.8-0.5-1.8-0.4-2.6,0c-0.8,0.4-1.5,0.9-2.1,1.4C234.2,99.1,233,102.2,232.7,105.5z"/>
		<path class="st18" d="M301.6,105.4c0.2,0.2,0.4,0.3,0.6,0.4c-1,1.3-2.1,2.5-3.6,3.3c-0.6,0.3-1.3,0.6-2,0.7
			c-1.1,0.1-1.8-0.4-1.7-1.4c0.1-1,0.4-2,0.7-3c0.1-0.4,0.2-0.7,0.3-1.2c-0.1,0.2-0.3,0.4-0.4,0.6c-1.1,1.4-2.2,2.8-3.7,3.9
			c-1.1,0.8-2.3,1.3-3.8,1.3c-1.3,0-2.2-0.6-2.7-1.6c-0.6-1.2-0.6-2.4-0.4-3.6c0.7-4,3-7.2,6.9-9.5c1.4-0.8,2.9-1.3,4.6-1.1
			c1,0.1,1.8,0.5,2.2,1.4c0.1,0,0.1,0,0.1,0c0.2-1,1-1.1,2-1c0.5,0.1,1,0,1.6,0c0,0.2-0.1,0.4-0.1,0.5c-1.2,3.6-2.5,7.3-3.7,10.9
			c-0.1,0.4-0.2,0.8-0.2,1.1c0,0.2,0.1,0.6,0.2,0.7c0.3,0.1,0.7,0,0.9-0.1c0.5-0.4,1-0.8,1.5-1.3
			C301.1,105.9,301.4,105.6,301.6,105.4z M295.5,94.9c-1.1,0-2.2,0.8-3.1,1.6c-1.9,1.9-3.1,4.1-3.7,6.6c-0.3,1.1-0.3,2.3-0.3,3.5
			c0.1,1,1.1,1.5,2.2,1.1c0.5-0.2,1-0.4,1.4-0.7c1.5-1,2.5-2.4,3.4-3.8c1.2-1.8,2.1-3.8,2.3-5.9C297.9,95.8,297.2,94.9,295.5,94.9z"
			/>
		<path class="st18" d="M263.2,94c-0.1,1-0.2,1.9-0.4,2.9c-0.1,0.6-0.1,1.1-0.2,1.7c0,0.2-0.2,0.3-0.3,0.5c-0.1-0.2-0.2-0.3-0.3-0.5
			c-0.3-0.8-0.5-1.6-1-2.3c-0.8-1.2-2.8-1.7-4.3-1.3c-1.4,0.4-2,1.6-1.2,2.7c0.6,0.8,1.4,1.6,2.1,2.3c0.8,0.8,1.7,1.6,2.4,2.5
			c2.5,3.2,0.2,6.5-3.5,7.2c-1.6,0.3-3.2,0.1-4.8-0.3c-0.4-0.1-0.8-0.2-1.2-0.2c-0.5-0.1-0.9,0-1.2,0.4c-0.1,0.1-0.3,0.2-0.5,0.3
			c0,0-0.1-0.1-0.1-0.1c0.1-0.9,0.2-1.8,0.3-2.6c0.1-0.8,0.2-1.7,0.4-2.5c0-0.1,0.2-0.2,0.3-0.4c0.1,0.1,0.2,0.2,0.3,0.4
			c0.2,1.3,0.6,2.5,1.8,3.5c1.5,1.2,4.1,1.2,5.4,0c1-0.9,1.1-2,0.5-3c-0.4-0.8-1.1-1.4-1.7-2.1c-0.8-0.9-1.8-1.7-2.6-2.6
			c-0.9-1-1.4-2.1-1.1-3.3c0.4-1.6,1.9-2.7,3.8-3c1.5-0.2,2.9,0.1,4.3,0.4c0.4,0.1,0.8,0.2,1.2,0.2c0.5,0,0.9,0,1.1-0.5
			c0.1-0.1,0.2-0.2,0.4-0.2C263,93.9,263.1,94,263.2,94z"/>
		<path class="st18" d="M333.4,106.1c-1.2,1.4-2.4,2.7-4.1,3.3c-0.6,0.2-1.4,0.3-2,0.4c-1,0-1.8-0.6-1.7-1.5
			c0.1-1.1,0.4-2.2,0.7-3.3c0.9-3.2,1.9-6.4,2.8-9.6c-0.9,0-1.8,0-2.7,0c0-0.1-0.1-0.1-0.1-0.2c0.2-0.2,0.4-0.5,0.6-0.6
			c2.1-0.5,3.7-1.7,5-3.1c0.3-0.4,0.7-0.7,0.9-1.1c0.3-0.4,0.7-0.6,1.3-0.5c-0.5,1.4-1,2.8-1.5,4.3c1.1,0,2.2,0,3.3,0
			c0,0.1,0,0.1,0,0.1c-0.2,0.9-0.2,0.9-1.2,0.9c-0.8,0-1.5,0-2.4,0c-0.5,1.5-0.9,3-1.3,4.5c-0.6,2.1-1.2,4.3-1.8,6.4
			c-0.1,0.3-0.1,0.7-0.1,1c0,0.5,0.4,0.8,0.9,0.5c0.5-0.2,1-0.6,1.5-1c0.5-0.4,0.9-0.9,1.3-1.3C333,105.8,333.1,105.9,333.4,106.1z"
			/>
		<path class="st18" d="M161.9,100.3c0.9-1.1,1.7-2.3,2.6-3.4c0.8-0.9,1.7-1.6,2.6-2.4c0.3-0.3,0.8-0.4,1.2-0.5
			c0.9-0.2,1.7,0.2,2,0.9c0.3,0.9,0.1,1.8-0.7,2.5c-0.4,0.4-1,0.5-1.6,0.4c-0.5-0.1-0.6-0.6-0.7-1c0-0.1,0-0.2-0.1-0.3
			c-0.1-0.5-0.3-0.6-0.7-0.2c-0.9,0.9-1.7,1.7-2.5,2.6c-2.4,3-3.7,6.3-4.8,9.8c-0.1,0.2-0.1,0.4-0.2,0.7c-1,0-2.1,0-3.1,0
			c0.5-1.7,1.1-3.3,1.6-4.9c0.7-2.2,1.4-4.5,2.1-6.7c0.1-0.3,0.1-0.6,0.2-1c0.1-0.8-0.4-1.3-1.4-1.3c-0.4,0-0.7,0-1.1,0
			c0-0.1-0.1-0.1-0.1-0.2c0.2-0.1,0.3-0.4,0.5-0.4c2-0.3,3.9-0.6,5.9-0.9c0.1,0,0.2,0,0.4,0C163.2,96.1,162.5,98.2,161.9,100.3
			C161.9,100.3,161.9,100.3,161.9,100.3z"/>
		<path class="st18" d="M217.1,109.5c-0.9,0-1.9,0-3,0c0.4-1.4,0.9-2.7,1.3-4.1c0.8-2.5,1.6-5.1,2.4-7.6c0.1-0.3,0.1-0.6,0.2-1
			c0-0.8-0.4-1.2-1.4-1.3c-0.4,0-0.7,0-1.1,0c0-0.1-0.1-0.1-0.1-0.2c0.2-0.1,0.3-0.4,0.5-0.4c2-0.3,4-0.6,6-0.9c0.1,0,0.2,0,0.3,0
			c-0.7,2.1-1.3,4.2-2,6.3c0,0,0.1,0,0.1,0c0.8-1,1.5-2.1,2.3-3.1c0.8-1,1.8-1.8,2.8-2.7c0.3-0.3,0.8-0.4,1.2-0.6
			c0.9-0.2,1.7,0.2,2,1c0.4,1.1-0.2,2.4-1.3,2.8c-0.9,0.3-1.5,0-1.7-0.8c-0.1-0.3-0.2-0.6-0.3-0.9c-0.3,0.2-0.6,0.3-0.9,0.6
			c-2.2,2.1-3.9,4.5-5,7.1C218.5,105.6,217.9,107.5,217.1,109.5z"/>
		<path class="st18" d="M418.7,105.3c0.2,0.2,0.4,0.3,0.7,0.5c-1.5,1.7-2.9,3.3-5.4,4c-0.5,0.1-1.1,0.1-1.6,0.1
			c-0.8-0.1-1.2-0.6-1.3-1.4c-0.1-1.2,0.2-2.3,0.6-3.5c0.8-2.5,1.7-5.1,2.4-7.6c0.4-1.3-0.1-1.8-1.7-1.9c-0.2,0-0.3,0-0.5,0
			c-0.1-0.4,0.1-0.6,0.5-0.6c1.9-0.3,3.8-0.6,5.7-0.9c0.1,0,0.3,0,0.5,0c-0.4,1.3-0.9,2.5-1.3,3.8c-0.9,2.7-1.8,5.3-2.7,8
			c-0.1,0.3-0.2,0.6-0.2,0.9c0,0.3,0.1,0.8,0.4,1c0.2,0.2,0.8,0.1,1.1-0.1c0.7-0.4,1.3-1,2-1.5C418.3,105.8,418.5,105.6,418.7,105.3
			z"/>
		<path class="st18" d="M169.5,107.7c0-1.1,1-2,2.3-2c1.3,0,2.3,0.9,2.3,2.1c0,1.1-1.1,2-2.3,1.9
			C170.5,109.7,169.5,108.8,169.5,107.7z"/>
		<path class="st18" d="M370.3,107.7c0-1.1,1-2,2.2-2c1.2,0,2.3,0.9,2.3,2c0,1.1-1.1,2-2.3,2C371.2,109.7,370.2,108.8,370.3,107.7z"
			/>
		<path class="st18" d="M418.4,85.9c1.1,0,2,0.8,2,1.8c0,1-1,1.8-2,1.8c-1.1,0-2-0.8-2-1.8C416.4,86.7,417.3,85.9,418.4,85.9z"/>
	</g>
</g>
</svg>
