<svg width="181" height="33" viewBox="0 0 181 33" fill="none" xmlns="http://www.w3.org/2000/svg">
<path d="M13.6453 6.07209C14.4153 6.83488 14.4153 8.06928 13.6453 8.83207L9.14103 13.294C8.371 14.0567 7.12489 14.0567 6.35486 13.294C5.58484 12.5312 5.58484 11.2968 6.35486 10.534L10.8591 6.07209C11.6291 5.3093 12.8752 5.3093 13.6453 6.07209Z" fill="#00244E"/>
<path fill-rule="evenodd" clip-rule="evenodd" d="M16.0898 9.51724C16.6286 9.4958 17.1742 9.68763 17.5859 10.0954L31.4092 23.7887C32.1958 24.5638 32.1965 25.8232 31.4141 26.5983C30.6317 27.3733 29.3645 27.3731 28.582 26.5983L16.1016 14.234L6.71875 23.5299H21.0801C22.1853 23.5299 23.0838 24.4205 23.084 25.5153C23.0838 26.6101 22.1853 27.4997 21.0801 27.4997H2.00391C0.898664 27.4997 0.000189389 26.6101 0 25.5153C7.85533e-05 25.0609 0.155965 24.6421 0.416016 24.3073C0.509866 24.1218 0.634738 23.9474 0.791016 23.7926L14.6143 10.0993C15.0202 9.69519 15.5576 9.50251 16.0898 9.51724Z" fill="#00244E"/>
<path d="M47.5217 26.312C46.4124 26.312 45.303 26.104 44.1937 25.688C43.1017 25.272 42.1224 24.6653 41.2557 23.868L43.4397 21.242C44.0464 21.762 44.7224 22.1867 45.4677 22.516C46.213 22.8453 46.9324 23.01 47.6257 23.01C48.423 23.01 49.0124 22.8627 49.3937 22.568C49.7924 22.2733 49.9917 21.8747 49.9917 21.372C49.9917 20.8347 49.7664 20.4447 49.3157 20.202C48.8824 19.942 48.293 19.656 47.5477 19.344L45.3377 18.408C44.7657 18.1653 44.2197 17.8447 43.6997 17.446C43.1797 17.03 42.755 16.5187 42.4257 15.912C42.0964 15.3053 41.9317 14.5947 41.9317 13.78C41.9317 12.844 42.183 11.9947 42.6857 11.232C43.2057 10.4693 43.9164 9.86267 44.8177 9.412C45.7364 8.96133 46.785 8.736 47.9637 8.736C48.9344 8.736 49.905 8.92667 50.8757 9.308C51.8464 9.68933 52.6957 10.244 53.4237 10.972L51.4737 13.39C50.919 12.9567 50.3644 12.6273 49.8097 12.402C49.255 12.1593 48.6397 12.038 47.9637 12.038C47.305 12.038 46.7764 12.1767 46.3777 12.454C45.9964 12.714 45.8057 13.0867 45.8057 13.572C45.8057 14.092 46.0484 14.482 46.5337 14.742C47.0364 15.002 47.6517 15.2793 48.3797 15.574L50.5637 16.458C51.5864 16.874 52.401 17.446 53.0077 18.174C53.6144 18.902 53.9177 19.864 53.9177 21.06C53.9177 21.996 53.6664 22.8627 53.1637 23.66C52.661 24.4573 51.933 25.0987 50.9797 25.584C50.0264 26.0693 48.8737 26.312 47.5217 26.312ZM63.477 26.312C61.2756 26.312 59.5943 25.662 58.433 24.362C57.2716 23.062 56.691 20.9907 56.691 18.148V9.048H60.539V18.538C60.539 20.202 60.7903 21.3633 61.293 22.022C61.7956 22.6807 62.5236 23.01 63.477 23.01C64.4303 23.01 65.167 22.6807 65.687 22.022C66.207 21.3633 66.467 20.202 66.467 18.538V9.048H70.159V18.148C70.159 20.9907 69.587 23.062 68.443 24.362C67.3163 25.662 65.661 26.312 63.477 26.312ZM74.086 26V9.048H80.196C81.392 9.048 82.484 9.21267 83.472 9.542C84.46 9.854 85.2487 10.3913 85.838 11.154C86.4273 11.9167 86.722 12.974 86.722 14.326C86.722 15.574 86.4447 16.6053 85.89 17.42C85.3527 18.2173 84.6247 18.8153 83.706 19.214L87.554 26H83.264L80.014 19.89H77.908V26H74.086ZM77.908 16.848H79.884C80.8893 16.848 81.652 16.64 82.172 16.224C82.7093 15.7907 82.978 15.158 82.978 14.326C82.978 13.494 82.7093 12.9133 82.172 12.584C81.652 12.2547 80.8893 12.09 79.884 12.09H77.908V16.848ZM90.0313 26V9.048H100.717V12.272H93.8533V16.198H99.7293V19.422H93.8533V26H90.0313ZM108.871 26V9.048H112.693V22.776H119.401V26H108.871ZM128.279 26.312C126.753 26.312 125.41 25.9567 124.249 25.246C123.105 24.5353 122.203 23.5213 121.545 22.204C120.903 20.8693 120.583 19.2833 120.583 17.446C120.583 15.5913 120.903 14.0227 121.545 12.74C122.203 11.44 123.105 10.452 124.249 9.776C125.41 9.08267 126.753 8.736 128.279 8.736C129.804 8.736 131.139 9.08267 132.283 9.776C133.444 10.452 134.345 11.44 134.987 12.74C135.645 14.04 135.975 15.6087 135.975 17.446C135.975 19.2833 135.645 20.8693 134.987 22.204C134.345 23.5213 133.444 24.5353 132.283 25.246C131.139 25.9567 129.804 26.312 128.279 26.312ZM128.279 23.01C129.44 23.01 130.359 22.5073 131.035 21.502C131.711 20.4967 132.049 19.1447 132.049 17.446C132.049 15.7473 131.711 14.4213 131.035 13.468C130.359 12.5147 129.44 12.038 128.279 12.038C127.117 12.038 126.199 12.5147 125.523 13.468C124.847 14.4213 124.509 15.7473 124.509 17.446C124.509 19.1447 124.847 20.4967 125.523 21.502C126.199 22.5073 127.117 23.01 128.279 23.01ZM146.234 26.312C144.813 26.312 143.504 25.9827 142.308 25.324C141.112 24.6653 140.15 23.6947 139.422 22.412C138.711 21.112 138.356 19.5173 138.356 17.628C138.356 15.756 138.72 14.1613 139.448 12.844C140.193 11.5093 141.173 10.4953 142.386 9.802C143.617 9.09133 144.943 8.736 146.364 8.736C147.456 8.736 148.435 8.96133 149.302 9.412C150.169 9.84533 150.888 10.3567 151.46 10.946L149.432 13.39C148.999 12.9913 148.539 12.6707 148.054 12.428C147.586 12.168 147.049 12.038 146.442 12.038C145.679 12.038 144.977 12.2547 144.336 12.688C143.712 13.1213 143.209 13.7453 142.828 14.56C142.464 15.3747 142.282 16.354 142.282 17.498C142.282 19.2313 142.655 20.5833 143.4 21.554C144.145 22.5247 145.142 23.01 146.39 23.01C147.083 23.01 147.699 22.854 148.236 22.542C148.791 22.23 149.276 21.8573 149.692 21.424L151.72 23.816C150.299 25.48 148.47 26.312 146.234 26.312ZM158.273 17.42L157.857 18.98H161.471L161.081 17.42C160.856 16.5707 160.622 15.6693 160.379 14.716C160.154 13.7627 159.928 12.844 159.703 11.96H159.599C159.391 12.8613 159.174 13.7887 158.949 14.742C158.741 15.678 158.516 16.5707 158.273 17.42ZM152.137 26L157.441 9.048H162.043L167.347 26H163.291L162.251 21.97H157.077L156.037 26H152.137ZM169.199 26V9.048H173.021V22.776H179.729V26H169.199Z" fill="#00244E"/>
</svg>
