<svg xmlns="http://www.w3.org/2000/svg" id="Layer_2" viewBox="0 0 6892.7 3044">
    <style>
        .st0{fill:#00d8ff}.st1{fill:none;stroke:#00d8ff;stroke-width:144.7456;stroke-miterlimit:10}
    </style>
    <circle cx="1718.2" cy="1526.1" r="302.6" class="st0"/>
    <path d="M1718.2 910.9c406.2 0 783.6 58.3 1068.1 156.2 342.8 118 553.6 296.9 553.6 458.9 0 168.8-223.4 358.9-591.5 480.8-278.3 92.2-644.6 140.4-1030.2 140.4-395.4 0-769.7-45.2-1051.2-141.4C310.9 1884.1 96.4 1691.6 96.4 1526c0-160.7 201.3-338.2 539.3-456 285.6-99.5 672.3-159.1 1082.5-159.1z" class="st1"/>
    <path d="M1182.7 1220.3c202.9-351.9 442-649.7 669-847.2 273.5-238 533.8-331.2 674.1-250.3 146.2 84.3 199.3 372.8 121 752.7-59.2 287.2-200.4 628.5-393.1 962.6-197.5 342.5-423.7 644.2-647.6 840-283.3 247.7-557.3 337.3-700.7 254.6-139.2-80.3-192.4-343.3-125.7-695 56.4-297.4 198-662.1 403-1017.4z" class="st1"/>
    <path d="M1183.2 1838.8c-203.5-351.6-342.1-707.4-399.9-1002.7-69.6-355.8-20.4-627.9 119.8-709 146.1-84.6 422.5 13.5 712.5 271 219.3 194.7 444.4 487.5 637.6 821.3 198.1 342.2 346.6 688.8 404.3 980.5 73.1 369.2 13.9 651.3-129.4 734.2-139.1 80.5-393.5-4.7-664.9-238.2-229.2-197.3-474.5-502.1-680-857.1z" class="st1"/>
    <path d="M3683.7 1053.9c122.2 0 244.4-9.2 364.5 2.7 111.6 11 172.7 83.9 185 184.6 15.7 128.3-22.1 202.8-133 258.2 130.6 104.4 167.8 263.6 250.8 400.4-119 16.9-118.9 16.8-166.5-78.3-27.3-54.6-55.6-108.7-82.6-163.5-40.9-83.2-105.2-124.4-199.5-117.1-33 2.6-66.3.4-104.9.4v361h-113.9c.1-283.3.1-567.6.1-848.4zm114 395.5c73.2-4.4 142.2-3 209.1-14 70.7-11.6 106.5-66.2 107.1-142.3.6-76.2-34.1-131.3-105.2-143.5-68.4-11.7-139.1-9.6-211-13.7v313.5zM4968.9 1796c12.2 78.3 12.6 85.1-72.6 100.9-76.6 14.3-157.5 27.6-233.6 17.9-192.1-24.5-297.3-197.8-258.2-406.8 35-186.7 177.4-289.2 364.8-261 83.1 12.5 146.2 56 187.3 129.9 38.8 69.8 44.3 145.1 39.3 231.2h-478.6c-3.7 124.9 64.7 213.9 180.5 217.4 88.3 2.5 177.2-18.4 271.1-29.5zm-447.3-274.5h361.7c9.2-109.4-59.5-185.7-165.3-188-116.8-2.6-200.1 75.9-196.4 188zM5677.1 1904.1h-101.3c-2.1-26.9-4-51.6-6.6-85.4-65.7 82.3-147.6 108.2-243.4 102.1-99.6-6.3-175.1-68.9-190.3-162.6-17.8-109.3 27.3-200.5 125.5-232.9 55.2-18.2 115.4-22.6 173.9-28.4 42.7-4.3 86.3-.8 128.8-.8 12.6-81.2-31.5-149.2-115-153.7-86.1-4.6-173.4 11.4-263.4 18.6-18.3-67.2-15.2-76.7 67.4-94.9 55.3-12.2 112.8-20.8 169.2-20.4 153.3 1.1 245.6 84.9 253.7 238.2 7.2 137.4 1.5 275.6 1.5 420.2zm-110.8-330.5c-80.7 7.6-162.8 10.1-242.8 24.6-61.7 11.1-85.7 53.8-83.6 117.4 1.9 58.9 34.7 98.1 93.7 112 140.6 32.9 251.6-81.4 232.7-254zM6659.6 1340.4c0 139.1-.5 269 .3 398.9.3 51.2 30.6 74.3 79.4 75.2 43 .8 85.9.2 132.1.2v96.8c-73.2-6.4-144-7.3-212.6-19.9-66.4-12.3-100.5-59.5-104.2-139.5-5.2-112.2-4.2-224.6-5.8-336.9-.3-22.9 0-45.9 0-71.6-28.9-1.8-49.8-3.2-73.9-4.7v-76.2c21-2.5 43.4-5.2 72.4-8.7v-173.6h109v176.7h214.6v83.4c-69.5-.1-137.8-.1-211.3-.1zM6361.3 1376c-125.3-43.3-248.9-85.2-349 38.3-63.2 78.1-68.2 240.5-8.2 325.1 98.2 138.5 228.8 94.4 356.3 50.9 10.9 94.9 8.7 98.1-77.5 118.5-194.7 45.9-353.1-25.3-407.9-185.9-31.4-92.1-31.4-186.5-1.1-278.7 49.7-151.3 201.2-227.9 378.4-194.8 9.7 1.8 19.2 4.5 28.8 6.7 88.2 20.4 88.2 20.4 80.2 119.9z"/>
</svg>
