<svg xmlns="http://www.w3.org/2000/svg" id="Layer_1" viewBox="0 0 1980.1 814.8">
    <style>
        .st0,.st1,.st2{opacity:.45;enable-background:new}.st1,.st2{opacity:.6}.st2{opacity:.8}
    </style>
    <path d="M1980.1 288.4c-2.8 6.2-4.6 10.6-6.7 14.9-19.6 39.5-39.4 78.9-58.6 118.7-3.2 6.7-5.1 14.7-5.3 22.1-.6 29-.2 58-.2 87.8H1875c0-26.2.9-52.5-.4-78.7-.6-12.5-3.4-25.6-8.6-36.9-15.8-34.4-33.3-68-50.1-102-2.2-4.5-4.7-8.8-8.8-16.4-.8 9.4-1.4 15.2-2.1 23.2h-64.1v210.3h-37.2V322h-64.5v-32.3c4.5-.4 8.5-1.2 12.4-1.2 59.2-.1 118.5.2 177.7-.3 9.7-.1 14.6 2.8 18.6 11.8 13.8 31.3 28.6 62.1 44.1 95.5 14.8-31.8 29-60.1 41-89.3l9-18 19.9.1M1364 289c32.2 0 63.3-1.6 94.3.4 36 2.3 68.7 36 70.4 71.9 1.6 33.1 1.5 66.4-.4 99.5-2.1 35.1-34.9 68.5-70 70.8-30.9 2.1-62.1.4-94.3.4V289zm36.3 207.4c18.5 0 36.6 1.8 54.3-.5 21.1-2.7 35.8-17.2 37.1-38.1 1.9-30.9 1.8-62.1 0-93-1.2-20.6-17.7-36.9-38.2-39.4-17.2-2.1-34.8-.4-53.2-.4v171.4zM1039.5 411.5c0 15 .5 30.1-.1 45.1-1.9 44-36.4 77.4-80.7 78.6-44.3 1.2-82-29.6-85.1-73.6-2.4-35-2.4-70.6.3-105.6 3.2-41.8 41.7-71.2 86.6-69.8 41.8 1.3 76.7 34.4 78.7 75.5.8 16.6.1 33.2.1 49.8.2.1.2 0 .2 0zm-132.5.3c1.2 15.7 1.3 31.9 3.9 47.6 3.8 22.9 23.9 38.8 45.9 38.4 23-.4 43.5-17.6 44.8-41.4 1.7-30.4 1.8-61 0-91.4-1.4-24.1-21.5-40.8-44.8-41.3-22.4-.5-42.1 14.9-45.9 38.2-2.7 16.3-2.7 33-3.9 49.9zM663.4 501.7c8.4-10 15.9-19 23.6-28.3 26.2 19.2 53.8 29 85.4 22 19.4-4.3 29.5-16.2 28.8-33.1-.6-16.1-10.9-26.6-30.1-30.3-11.2-2.1-22.5-3.6-33.8-5.6-39.3-7.1-62.5-33.8-61.4-70.2 1.2-39 24.2-63.7 64.4-69.4 29.3-4.1 65.8 6.1 90.2 25.7-6.3 9.6-12.8 19.4-18.1 27.4-18.1-5.5-34.6-11.5-51.5-15.2-7.7-1.7-16.6-.2-24.4 1.8-15.5 4-23.5 15.6-23.7 31-.1 14.5 8.5 24.6 22.5 28.3 13.5 3.6 27.4 5.4 41.1 8 39.9 7.6 61.2 32.3 61 70.4-.3 39.5-19.8 62.2-61.6 69.1-41.6 6.8-79-3.1-112.4-31.6zM1123.1 497.8h114.4v33.6h-150.1V289.3h35.7v208.5zM1277 289h34v242.4h-34V289zM1612.4 532h-34.2V289.6h34.2V532z"/>
    <g id="Page-1_1_">
        <g id="solidity_1_" transform="translate(402 118)">
            <g id="Group_1_">
                <path id="Shape_11_" d="M-8.4-118.2l-130.7 232.3h-261.2l130.6-232.3H-8.4" class="st0"/>
                <path id="Shape_10_" d="M-139.1 114.2h261.3L-8.4-118.2h-261.3l130.6 232.4z" class="st1"/>
                <path id="Shape_9_" d="M-269.7 346.4l130.6-232.2-130.6-232.3-130.6 232.3 130.6 232.2z" class="st2"/>
                <path id="Shape_8_" d="M-268.4 694.8l130.7-232.3h261.3L-7.1 694.8h-261.3" class="st0"/>
                <path id="Shape_7_" d="M-137.7 462.5H-399l130.6 232.3H-7.1l-130.6-232.3z" class="st1"/>
                <path id="Shape_6_" d="M-7.1 230.3l-130.6 232.2L-7.1 694.8l130.7-232.3L-7.1 230.3z" class="st2"/>
            </g>
        </g>
    </g>
</svg>
