<svg xmlns="http://www.w3.org/2000/svg" id="Layer_2" viewBox="0 0 10323 3044">
    <style>
        .st0{fill:#05a5cd}.st1{fill:none;stroke:#05a5cd;stroke-width:144.7456;stroke-miterlimit:10}
    </style>
    <circle cx="1718.2" cy="1526.1" r="302.6" class="st0"/>
    <path d="M1718.2 910.9c406.2 0 783.6 58.3 1068.1 156.2 342.8 118 553.6 296.9 553.6 458.9 0 168.8-223.4 358.9-591.5 480.8-278.3 92.2-644.6 140.4-1030.2 140.4-395.4 0-769.7-45.2-1051.2-141.4C310.9 1884.1 96.4 1691.6 96.4 1526c0-160.7 201.3-338.2 539.3-456 285.6-99.5 672.3-159.1 1082.5-159.1z" class="st1"/>
    <path d="M1182.7 1220.3c202.9-351.9 442-649.7 669-847.2 273.5-238 533.8-331.2 674.1-250.3 146.2 84.3 199.3 372.8 121 752.7-59.2 287.2-200.4 628.5-393.1 962.6-197.5 342.5-423.7 644.2-647.6 840-283.3 247.7-557.3 337.3-700.7 254.6-139.2-80.3-192.4-343.3-125.7-695 56.4-297.4 198-662.1 403-1017.4z" class="st1"/>
    <path d="M1183.2 1838.8c-203.5-351.6-342.1-707.4-399.9-1002.7-69.6-355.8-20.4-627.9 119.8-709 146.1-84.6 422.5 13.5 712.5 271 219.3 194.7 444.4 487.5 637.6 821.3 198.1 342.2 346.6 688.8 404.3 980.5 73.1 369.2 13.9 651.3-129.4 734.2-139.1 80.5-393.5-4.7-664.9-238.2-229.2-197.3-474.5-502.1-680-857.1z" class="st1"/>
    <path d="M10309 1623.8h-454.4c3.1 73.1 14.9 141.2 79.5 182.4 59.3 37.8 125.4 37.4 184.1 0 28.9-18.4 49.2-51.9 69.4-81.4 8.7-12.7 14.4-20.3 30.4-19.5 25 1.2 50 .3 80.3.3-4.7 17-7.3 31.8-12.9 45.5-51.2 124.8-156.3 182.8-303.9 168.3-110.9-10.9-207.6-102.3-230-221.6-17.9-95.4-14.6-189.8 31-278.4 86.8-168.4 315.2-205.8 447.1-73.7 48.5 48.5 66.1 109.9 73.5 175.7 1.5 13.3 4 26.4 6 39.6-.1 20.9-.1 41.9-.1 62.8zm-112.8-84.1c3.6-110.7-67-183.9-173.2-181.1-93.9 2.5-171.3 87.7-163.1 181.1h336.3zM7762.8 1900.1c-39.4 0-76.1 1.7-112.4-1-10.3-.8-22.8-12.2-29.1-22.1-132.5-208-264.3-416.5-396.3-624.9-6.1-9.7-12.5-19.2-23.8-36.3v682.9h-109.4v-847.4c41.9 0 84.3-1.2 126.5 1.1 8 .4 16.9 13.8 22.6 22.9 129.1 206.5 257.8 413.2 386.7 619.9 6.5 10.4 13.3 20.6 26.2 29.9v-672.5h109v847.5zM4388.3 1900.1h-105c-43 0-44.4.1-48.3-44.5-4.9-56.2-7.2-112.7-10.6-169-.3-5.2-.3-10.5-.6-15.7-4.2-90.1-44.1-131.4-134.9-134.2-75.2-2.3-150.6-.8-225.9-1h-65.8v362.5h-113.7v-844.3c5.8-1 11.6-2.9 17.5-2.9 137 .2 274.1-2.2 410.9 2.6 46.5 1.7 94.8 16.3 138 34.9 58.4 25.2 89.3 76.5 99.5 139.4 17.5 108.3-11.2 196.7-115.1 255.2 80.7 30 102.8 91.2 103.3 166.1.3 42.8 2.8 85.7 5.4 128.5 2.3 37.8 5.2 75.5 39 101.7 3.8 2.9 3.6 10.9 6.3 20.7zm-590.9-460c85.6 0 168 .5 250.5-.3 25-.2 50.4-1.7 75-6.2 82.2-15 117.3-63.2 113.6-152.9-3.2-77.6-45.3-124.9-125.3-128.3-102.3-4.4-204.9-2-307.4-2.4-1.8 0-3.5 2.1-6.3 3.8-.1 93.4-.1 187.4-.1 286.3zM5172.3 1469.4c-.1-96.6 39.8-154.7 124.3-184.2 84.2-29.5 168.9-26.4 251.9 3.7 74 26.8 106.1 74.8 106.6 155.9.8 106.7.2 213.4.2 320 0 63.1 3.5 66.5 68.9 63.4 0 19.5 1.6 39.1-.8 58.2-.9 7.5-9.6 17.7-16.9 20.1-75.8 24.5-124.6-1.7-151.7-82.7-7.3 6.4-13.8 12-20.2 17.7-70.3 63.5-152.8 90.6-246 74.5-87.6-15.2-144-81.1-149.1-165.6-5.6-93.2 37.2-162.5 127.2-187.9 61.9-17.4 127.2-22.4 191-32.9 9.3-1.5 18.7-2.1 28-3.6 46.9-7.5 60.6-18.5 66.7-53 7.5-42.3-8.4-82.2-43.8-98.9-57.4-27-117.3-29.1-176.6-6.3-33.5 12.9-53.9 39.6-59.6 75.1-3.3 20.4-11.9 28.5-32.9 26.8-21.6-1.6-43.4-.3-67.2-.3zm376.2 124.2c-45 8.9-87.6 17.5-130.3 25.8-33.7 6.6-68.4 9.9-101 19.9-50.7 15.5-75 56.5-69.5 108.4 4.4 41.3 39.2 76.6 86.1 82.3 64 7.7 124.3-7 170.7-52.2 20.9-20.4 36.2-51.7 42.4-80.5 7.1-33.9 1.6-70.4 1.6-103.7zM8485.1 1828.5c7.7 79.9-.7 88.6-77.6 84.3-54.5-3.1-77.9-37.6-87.8-90.4-9.2 8.1-15.7 13.7-22.1 19.4-72.4 64.4-156.4 92.6-252 72.5-86.6-18.2-138.9-82.1-143.2-167-4.6-89.6 37.9-158.8 124.7-183.7 62.7-18 129.2-23.1 194-33.8 8.2-1.4 16.6-1.8 24.9-3.1 50.7-8 64.8-19.4 70.1-56.9 6.5-45.2-12.5-83.5-52.9-99.9-52.1-21.1-106.1-23-159.5-5.6-37.7 12.3-61.6 39.4-68.2 78.8-3.4 20.5-12.2 28.3-33.1 26.7-21.5-1.7-43.3-.4-64.5-.4-8.5-80.2 29.3-145.6 104.5-177.2 92.1-38.7 185.8-35.4 278.1.3 68.7 26.6 98.1 80.4 98 152.5-.2 106.7 0 213.4 0 320 0 62.8 3.4 66.2 66.6 63.5zm-175.3-232.8c-55.1 9.5-111.3 18.6-167.3 29-23.5 4.3-47.3 9-69.5 17.4-43.6 16.5-64.3 50.8-62.6 97.8 1.5 40.9 26.2 73.2 70.2 85.2 20.6 5.6 43.4 6.8 64.8 5.3 82.5-5.7 152-55.7 163.2-122.5 6.4-38 1.2-78.1 1.2-112.2zM5040.6 1623.3h-454.1c-.7 58.6 10.7 111 46.2 154.8 70.4 86.9 229 67.5 278.3-36.4 14.7-31 30.5-39.3 60.4-36.4 17.5 1.7 35.4.3 58 .3-15.8 74.1-51 133-112.5 171.3-156.7 97.3-411.4 47.1-440.7-219.3-10.4-94.2.1-186 54.9-267.7 97.4-145.3 310.3-166 431.7-42 42.2 43.1 61.1 96.9 68.9 154.7 5.1 38 5.8 76.8 8.9 120.7zm-113.4-83.6c3.9-110.4-67-183.9-173.1-181.1-93.9 2.4-171.1 87.5-163.2 181.1h336.3zM6313.3 1680.6c-15.2 104.9-57.9 184.2-160 221-158.7 57.2-316.3-25.3-354.6-189.9-28.8-123.6-19.6-243.1 58.5-349.7 87.9-120 298.2-134.9 398.1-27.8 38.8 41.6 51 94.3 57.9 154.4-30.2 0-59 1-87.5-.8-6-.4-14.2-10.6-16.6-17.9-27-82.9-61.7-111.5-140.1-114.2-69.2-2.3-123.9 35-149.3 106.9-32.7 92.6-36.8 186.1 2.3 278.5 25.9 61 74.8 88.1 139.1 87.7 64.5-.4 114.3-32 131.9-92.1 15.2-52 42.6-63.8 89.2-56.1 9.2 1.3 18.7 0 31.1 0zM9117.7 1280c36.9 0 70.3-1.9 103.3 1.2 8.9.8 20.5 15.2 24 25.7 49.4 147.5 97.6 295.5 146.1 443.3 2.9 8.9 6.1 17.7 11.2 32.6 12.4-35.4 23.1-65.5 33.5-95.7 43.8-127.4 88-254.6 130.7-382.4 6.5-19.6 15.4-26.4 35.4-25.2 27.1 1.6 54.3.4 85.2.4-3.1 10.9-5 19.6-8.1 27.9-71 188.6-142.4 377.1-212.9 565.9-7.2 19.3-15.7 27.4-37.8 27.1-83.5-1-83.4-.1-112.9-79.8-61.8-167.5-123.8-335-185.6-502.5-4.3-11.4-7.3-23.3-12.1-38.5zM6639.7 1819c.8 6.6 1.6 10.6 1.6 14.6.1 20.8.1 41.7.1 65-47.7 13.4-94.9 17.1-141.3.6-40.4-14.3-55-49.9-59.3-88.8-3.6-32.1-3.4-64.7-3.5-97-.4-103.5-.1-207-.1-310.4v-36.7h-82.1v-86.1h81.6v-170h105.1v168.9h97.6v86h-97.3v374.8c0 71.1 8.4 79.5 79 79.1 5.1-.1 10.3 0 18.6 0zM8812.7 1819v85.6c-41.8 0-83.5 4.3-124-1.2-44.8-6.1-71.3-41.8-75.3-95.4-3.6-49.9-3.1-100.2-3.4-150.4-.4-96-.1-191.9-.1-291h-81.8v-86.1h80.8v-170.2h105v168h97.9v86.1h-96.9v377.7c0 68.1 8.9 76.8 78.1 76.8 6 .1 12.1.1 19.7.1zM8924 1285.5h102.3v613H8924v-613zM9026.2 1053.5v112.8h-102.5v-112.8h102.5z" class="st0"/>
</svg>
