<svg xmlns="http://www.w3.org/2000/svg" id="Layer_1" viewBox="0 0 2500 1309">
    <style>
        .st0{fill:#8993be}.st1{fill:#fff}
    </style>
    <ellipse cx="1250" cy="650.7" class="st0" rx="1250" ry="650.7"/>
    <path d="M804.8 342.5H488L351 1036h162.7l34.2-179.8H702c145.6 8.6 308.2-111.3 308.2-316.8.1-119.9-68.4-188.4-205.4-196.9zM684.9 727.7H582.2L625 470.9h111.3c59.9 0 102.7 25.7 102.7 77.1-8.5 145.5-77 171.2-154.1 179.7zM1338 856.2h171.2l59.9-351c17.1-85.6-34.2-154.1-171.2-162.7h-154.1l34.2-179.8h-162.7l-137 693.5H1141l77.1-385.3h128.4c59.9 0 59.9 25.7 51.4 68.5L1338 856.2zM1952.1 342.5h-316.8l-137 693.5H1661l34.2-179.8h154.1c145.5 8.6 308.2-111.3 308.2-316.8 0-119.9-68.5-188.4-205.4-196.9zm-119.9 385.2h-102.7l42.8-256.9h111.3c59.9 0 102.7 25.7 102.7 77.1-8.6 145.6-77.1 171.3-154.1 179.8z" class="st1"/>
</svg>
