<?xml version="1.0"?>
<svg xmlns="http://www.w3.org/2000/svg" xmlns:xlink="http://www.w3.org/1999/xlink" version="1.1" id="Capa_1" x="0px" y="0px" viewBox="0 0 496 496" style="enable-background:new 0 0 496 496;" xml:space="preserve" width="512px" height="512px"><g><g>
	<path style="fill:#333333;" d="M104,170.92v154.16l144,67.768l144-67.768V170.92l-144-67.768L104,170.92z M365.208,176L248,231.16   L130.792,176L248,120.84L365.208,176z M120,188.608l120,56.472v126.312L120,314.92V188.608z M256,371.392V245.08l120-56.472V314.92   L256,371.392z" data-original="#333333" class=""/>
	<polygon style="fill:#333333;" points="344,290.92 268.6,326.408 275.408,340.888 360,301.08 360,216 344,216  " data-original="#333333" class=""/>
	<path style="fill:#333333;" d="M371.816,33.072c-4.784-2.768-9.752-5.416-14.768-7.864L350,39.56   c4.688,2.304,9.336,4.784,13.816,7.368L371.816,33.072z" data-original="#333333" class=""/>
	<path style="fill:#333333;" d="M80,128c26.472,0,48-21.528,48-48c0-9.456-2.784-18.256-7.52-25.688   C158.368,29.312,202.32,16,248,16c30.52,0,60.192,5.832,88.192,17.344l6.088-14.8C312.336,6.24,280.616,0,248,0   c-49.656,0-97.432,14.664-138.408,42.288C101.432,35.864,91.168,32,80,32c-26.472,0-48,21.528-48,48S53.528,128,80,128z M80,48   c17.648,0,32,14.352,32,32s-14.352,32-32,32S48,97.648,48,80S62.352,48,80,48z" data-original="#333333" class=""/>
	<rect x="72" y="72" style="fill:#333333;" width="16" height="16" data-original="#333333" class=""/>
	<path style="fill:#333333;" d="M46.928,132.184l-13.856-8c-2.784,4.832-5.432,9.8-7.864,14.76l14.368,7.048   C41.848,141.352,44.328,136.704,46.928,132.184z" data-original="#333333" class=""/>
	<path style="fill:#333333;" d="M80,368c-9.456,0-18.248,2.784-25.688,7.52C29.304,337.624,16,293.68,16,248   c0-30.536,5.832-60.208,17.344-88.184l-14.8-6.096C6.24,183.64,0,215.368,0,248c0,49.656,14.664,97.432,42.288,138.408   C35.864,394.568,32,404.832,32,416c0,26.472,21.528,48,48,48s48-21.528,48-48S106.472,368,80,368z M80,448   c-17.648,0-32-14.352-32-32s14.352-32,32-32s32,14.352,32,32S97.648,448,80,448z" data-original="#333333" class=""/>
	<rect x="72" y="408" style="fill:#333333;" width="16" height="16" data-original="#333333" class=""/>
	<path style="fill:#333333;" d="M124.184,462.928c4.784,2.768,9.752,5.416,14.768,7.864l7.048-14.36   c-4.688-2.304-9.336-4.784-13.816-7.368L124.184,462.928z" data-original="#333333" class=""/>
	<path style="fill:#333333;" d="M416,368c-26.472,0-48,21.528-48,48c0,9.456,2.784,18.256,7.52,25.688   C337.632,466.688,293.68,480,248,480c-30.52,0-60.192-5.832-88.192-17.344l-6.088,14.8C183.664,489.76,215.384,496,248,496   c49.656,0,97.432-14.664,138.408-42.288C394.568,460.136,404.832,464,416,464c26.472,0,48-21.528,48-48S442.472,368,416,368z    M416,448c-17.648,0-32-14.352-32-32s14.352-32,32-32s32,14.352,32,32S433.648,448,416,448z" data-original="#333333" class=""/>
	<rect x="408" y="408" style="fill:#333333;" width="16" height="16" data-original="#333333" class=""/>
	<path style="fill:#333333;" d="M453.712,109.592C460.136,101.432,464,91.168,464,80c0-26.472-21.528-48-48-48s-48,21.528-48,48   s21.528,48,48,48c9.456,0,18.248-2.784,25.688-7.52C466.696,158.376,480,202.32,480,248c0,30.536-5.832,60.208-17.344,88.184   l14.8,6.096C489.76,312.36,496,280.632,496,248C496,198.344,481.336,150.568,453.712,109.592z M416,112c-17.648,0-32-14.352-32-32   s14.352-32,32-32s32,14.352,32,32S433.648,112,416,112z" data-original="#333333" class=""/>
	<path style="fill:#333333;" d="M449.072,363.816l13.856,8c2.784-4.832,5.432-9.8,7.864-14.76l-14.368-7.048   C454.152,354.648,451.672,359.296,449.072,363.816z" data-original="#333333" class=""/>
	<rect x="408" y="72" style="fill:#333333;" width="16" height="16" data-original="#333333" class=""/>
</g><g>
	<polygon style="fill:#529FF1" points="136,216 224,256 224,344 136,304  " data-original="#FFA64D" class="active-path" data-old_color="#FFA64D"/>
	<polygon style="fill:#529FF1" points="160,176 248,136 336,176 248,216  " data-original="#FFA64D" class="active-path" data-old_color="#FFA64D"/>
</g></g> </svg>
