<svg xmlns="http://www.w3.org/2000/svg" width="512" height="512" viewBox="-96 0 448 448">
    <path fill="#FFF" d="M72 248h32v32H72zm0 0M145.371 264L168 241.371 190.625 264 168 286.629zm0 0M152 168h32v32h-32zm0 0M256 24c0-13.254-10.746-24-24-24H24C10.746 0 0 10.746 0 24v8h256zm-152 0h-8a8 8 0 0 1 0-16h8a8 8 0 0 1 0 16zm56 0h-32a8 8 0 0 1 0-16h32a8 8 0 0 1 0 16zm0 0M72 168h32v32H72zm0 0" class="active-path" data-old_color="#000000" data-original="#000000"/>
    <path fill="#FFF" d="M256 48H0v352h256zM136 160a8 8 0 0 1 8-8h48a8 8 0 0 1 8 8v48a8 8 0 0 1-8 8h-48a8 8 0 0 1-8-8zm-16 128a8 8 0 0 1-8 8H64a8 8 0 0 1-8-8v-48a8 8 0 0 1 8-8h48a8 8 0 0 1 8 8zm0-80a8 8 0 0 1-8 8H64a8 8 0 0 1-8-8v-48a8 8 0 0 1 8-8h48a8 8 0 0 1 8 8zm87.602 61.656l-33.946 33.946a8.004 8.004 0 0 1-11.312 0l-33.946-33.946a8.004 8.004 0 0 1 0-11.312l33.946-33.946a8.004 8.004 0 0 1 11.312 0l33.946 33.946a8.004 8.004 0 0 1 0 11.312zm0 0M256 416H0v8c0 13.254 10.746 24 24 24h208c13.254 0 24-10.746 24-24zm-112 24h-32a8 8 0 0 1 0-16h32a8 8 0 0 1 0 16zm0 0" class="active-path" data-old_color="#000000" data-original="#000000"/>
</svg>
