<?xml version="1.0"?>
<svg xmlns="http://www.w3.org/2000/svg" id="Layer_5" enable-background="new 0 0 64 64" height="512px" viewBox="0 0 64 64" width="512px" class="hovered-paths"><g><path d="m60 10h-56c-1.105 0-2 .895-2 2v7h15l2-2h43v-5c0-1.105-.895-2-2-2z" fill="#f0bc5e" data-original="#F0BC5E" class="active-path" style="fill:#1A94D0" data-old_color="#f0bc5e"/><path d="m15 15h-2v-2h2zm-4 0h-2v-2h2zm-4 0h-2v-2h2z" data-original="#000000" class="" style="fill:#000000"/><path d="m60 9h-56c-1.654 0-3 1.346-3 3v40c0 1.654 1.346 3 3 3h56c1.654 0 3-1.346 3-3v-40c0-1.654-1.346-3-3-3zm1 43c0 .552-.449 1-1 1h-56c-.551 0-1-.448-1-1v-40c0-.552.449-1 1-1h56c.551 0 1 .448 1 1z" data-original="#000000" class="" style="fill:#000000"/><path d="m48 19v2h7.586l-16.586 16.586-11-11-22.707 22.707 1.414 1.414 6.293-6.293v6.586h6v-12.586l2-2v14.586h6v-20.586l1-1 1 1v20.586h6v-14.586l2 2v12.586h6v-14.586l2-2v16.586h6v-22.586l6-6v7.586h2v-11zm-31 30h-2v-6.586l2-2zm8 0h-2v-14.586l2-2zm8 0h-2v-16.586l2 2zm8 0h-2v-8.586l2-2zm8 0h-2v-16.586l2-2z" data-original="#000000" class="" style="fill:#000000"/><path d="m5 21h16v10h-16z" fill="#f0bc5e" data-original="#F0BC5E" class="active-path" style="fill:#1A94D0" data-old_color="#f0bc5e"/><path d="m5 21h2v2h-2z" data-original="#000000" class="" style="fill:#000000"/><path d="m9 21h12v2h-12z" data-original="#000000" class="" style="fill:#000000"/><path d="m5 25h2v2h-2z" data-original="#000000" class="" style="fill:#000000"/><path d="m9 25h12v2h-12z" data-original="#000000" class="" style="fill:#000000"/><path d="m5 29h2v2h-2z" data-original="#000000" class="" style="fill:#000000"/><path d="m9 29h12v2h-12z" data-original="#000000" class="" style="fill:#000000"/></g> </svg>
