<?xml version="1.0"?>
<svg xmlns="http://www.w3.org/2000/svg" xmlns:xlink="http://www.w3.org/1999/xlink" version="1.1" id="Layer_1_1_" x="0px" y="0px" viewBox="0 0 64 64" style="enable-background:new 0 0 64 64;" xml:space="preserve" width="512px" height="512px" class="hovered-paths"><g><g>
	<g>
		<rect x="7" y="57" width="2" height="2" data-original="#000000" class="hovered-path"/>
		<rect x="11" y="57" width="2" height="2" data-original="#000000" class="hovered-path"/>
		<rect x="15" y="57" width="2" height="2" data-original="#000000" class="hovered-path"/>
		<rect x="31" y="45" width="2" height="2" data-original="#000000" class="hovered-path"/>
		<rect x="31" y="41" width="2" height="2" data-original="#000000" class="hovered-path"/>
		<rect x="35" y="41" width="2" height="2" data-original="#000000" class="hovered-path"/>
		<rect x="35" y="45" width="2" height="2" data-original="#000000" class="hovered-path"/>
		<rect x="39" y="45" width="2" height="2" data-original="#000000" class="hovered-path"/>
		<rect x="39" y="41" width="2" height="2" data-original="#000000" class="hovered-path"/>
		<rect x="43" y="41" width="2" height="2" data-original="#000000" class="hovered-path"/>
		<rect x="43" y="45" width="2" height="2" data-original="#000000" class="hovered-path"/>
		<rect x="47" y="45" width="2" height="2" data-original="#000000" class="hovered-path"/>
		<rect x="47" y="41" width="2" height="2" data-original="#000000" class="hovered-path"/>
		<rect x="51" y="41" width="2" height="2" data-original="#000000" class="hovered-path"/>
		<rect x="51" y="45" width="2" height="2" data-original="#000000" class="hovered-path"/>
		<rect x="55" y="45" width="2" height="2" data-original="#000000" class="hovered-path"/>
		<rect x="55" y="49" width="2" height="2" data-original="#000000" class="hovered-path"/>
		<rect x="55" y="41" width="2" height="2" data-original="#000000" class="hovered-path"/>
		<rect x="7" y="41" width="2" height="2" data-original="#000000" class="hovered-path"/>
		<rect x="7" y="45" width="2" height="2" data-original="#000000" class="hovered-path"/>
		<rect x="7" y="49" width="2" height="2" data-original="#000000" class="hovered-path"/>
		<rect x="11" y="45" width="2" height="2" data-original="#000000" class="hovered-path"/>
		<rect x="11" y="41" width="2" height="2" data-original="#000000" class="hovered-path"/>
		<rect x="15" y="41" width="2" height="2" data-original="#000000" class="hovered-path"/>
		<rect x="15" y="45" width="2" height="2" data-original="#000000" class="hovered-path"/>
		<rect x="19" y="45" width="2" height="2" data-original="#000000" class="hovered-path"/>
		<rect x="19" y="41" width="2" height="2" data-original="#000000" class="hovered-path"/>
		<rect x="23" y="41" width="2" height="2" data-original="#000000" class="hovered-path"/>
		<rect x="23" y="45" width="2" height="2" data-original="#000000" class="hovered-path"/>
		<rect x="27" y="45" width="2" height="2" data-original="#000000" class="hovered-path"/>
		<rect x="27" y="41" width="2" height="2" data-original="#000000" class="hovered-path"/>
		<path d="M58,13H40.455v2H58c1.654,0,3,1.346,3,3v19H3V18c0-1.654,1.346-3,3-3h17.545v-2H6c-2.757,0-5,2.243-5,5v40    c0,2.757,2.243,5,5,5h52c2.757,0,5-2.243,5-5V18C63,15.243,60.757,13,58,13z M61,39v14h-8v-1c0-1.654-1.346-3-3-3H14    c-1.654,0-3,1.346-3,3v1H3V39H61z M51,53H13v-1c0-0.552,0.449-1,1-1h36c0.551,0,1,0.448,1,1V53z M58,61H6c-1.654,0-3-1.346-3-3v-3    h58v3C61,59.654,59.654,61,58,61z" data-original="#000000" class="hovered-path"/>
		<polygon points="9,33 9,19 21.727,19 21.727,17 7,17 7,35 57,35 57,17 42.273,17 42.273,19 55,19 55,33   " data-original="#000000" class="hovered-path"/>
	</g>
	<g>
		<g>
			<path style="fill:#1A94D0" d="M40.341,31H23.659C20.539,31,18,28.461,18,25.341v-0.332c0-0.813,0.171-1.602,0.508-2.342     l8.341-18.35C27.764,2.303,29.786,1,32,1s4.236,1.303,5.151,3.318l8.341,18.349C45.829,23.407,46,24.195,46,25.009v0.332     C46,28.461,43.461,31,40.341,31z" data-original="#F0BC5E" class="active-path" data-old_color="#F0BC5E"/>
		</g>
	</g>
	<g>
		<path d="M32,27c-1.654,0-3-1.346-3-3s1.346-3,3-3s3,1.346,3,3S33.654,27,32,27z M32,23c-0.551,0-1,0.449-1,1s0.449,1,1,1    s1-0.449,1-1S32.551,23,32,23z" data-original="#000000" class="hovered-path"/>
	</g>
	<g>
		<path d="M32,19c-1.086,0-1.986-0.815-2.095-1.896l-0.891-8.91C29.004,8.099,29,8.002,29,7.905C29,6.303,30.303,5,31.905,5h0.19    C33.697,5,35,6.303,35,7.905c0,0.097-0.004,0.194-0.014,0.29l-0.891,8.91C33.986,18.185,33.086,19,32,19z M31.905,7    C31.406,7,31,7.406,31,7.905l0.896,9c0.011,0.107,0.198,0.107,0.209,0l0.891-8.91C33,7.406,32.594,7,32.095,7H31.905z" data-original="#000000" class="hovered-path"/>
	</g>
</g></g> </svg>
