<?xml version="1.0"?>
<svg xmlns="http://www.w3.org/2000/svg" id="_x33_0" enable-background="new 0 0 64 64" height="512px" viewBox="0 0 64 64" width="512px" class=""><g><path d="m57 5h-26c-1.103 0-2 .897-2 2v13.38c.615.703 1 1.613 1 2.62v8c0 1.657 2.343 3 4 3h7c1.118 0 2.14.38 2.973 1h13.027c1.103 0 2-.897 2-2v-26c0-1.103-.897-2-2-2z" fill="#f0bc5e" data-original="#F0BC5E" class="active-path" style="fill:#1A94D0" data-old_color="#f0bc5e"/><path d="m49 49h10v6h-10z" fill="#f0bc5e" data-original="#F0BC5E" class="active-path" style="fill:#1A94D0" data-old_color="#f0bc5e"/><path d="m28.972 38.235-1.943-.473c-.084.337-2.142 8.238-11.029 8.238v2c10.483 0 12.948-9.667 12.972-9.765z" data-original="#000000" class=""/><path d="m15.999 54c.06 0 5.982.054 7.85 3.479l1.756-.958c-2.438-4.47-9.313-4.521-9.605-4.521z" data-original="#000000" class=""/><path d="m43 17h2v10h-2z" data-original="#000000" class=""/><path d="m44 13c-2.757 0-5 2.243-5 5v7h2v-7c0-1.654 1.346-3 3-3s3 1.346 3 3v3h2v-3c0-2.757-2.243-5-5-5z" data-original="#000000" class=""/><path d="m53 25v-7c0-4.962-4.038-9-9-9s-9 4.038-9 9v7c0 3.309 2.691 6 6 6h6c3.309 0 6-2.691 6-6zm-2 0c0 2.206-1.794 4-4 4h-6c-2.206 0-4-1.794-4-4v-7c0-3.86 3.14-7 7-7s7 3.14 7 7z" data-original="#000000" class=""/><path d="m57 1h-26c-3.309 0-6 2.691-6 6v11.184c-1.161.414-2 1.514-2 2.816v3.943c-.562 4.843-3.97 6.4-7.577 8.048-2.245 1.025-4.561 2.083-5.959 4.009h-8.464v2h9.566l.291-.485c1.024-1.707 3.148-2.677 5.396-3.705 3.784-1.729 8.072-3.688 8.74-9.7l.007-4.11c0-.551.449-1 1-1 1.654 0 3 1.346 3 3v8c0 2.405 3.009 4 5 4h7c2.206 0 4 1.794 4 4s-1.794 4-4 4h-6c-1.103 0-2-.897-2-2s.897-2 2-2h6v-2h-6c-2.206 0-4 1.794-4 4 0 1.2.542 2.266 1.382 3-.84.734-1.382 1.8-1.382 3s.542 2.266 1.382 3c-.84.734-1.382 1.8-1.382 3s.542 2.266 1.382 3c-.84.734-1.382 1.8-1.382 3 0 .732.212 1.409.556 2h-6.556c-3.58 0-6.031-1.1-8.402-2.164-2.105-.944-4.094-1.836-6.598-1.836h-9v2h9c2.076 0 3.792.77 5.779 1.661 2.444 1.096 5.213 2.339 9.221 2.339h10 8c2.206 0 4-1.794 4-4h13c1.654 0 3-1.346 3-3v-49c0-3.309-2.691-6-6-6zm-24 46c0-1.103.897-2 2-2h6 2c1.103 0 2 .897 2 2s-.897 2-2 2h-8c-1.103 0-2-.897-2-2zm0 6c0-1.103.897-2 2-2h8c1.103 0 2 .897 2 2s-.897 2-2 2h-8c-1.103 0-2-.897-2-2zm10 8h-8c-1.103 0-2-.897-2-2s.897-2 2-2h8c1.103 0 2 .897 2 2s-.897 2-2 2zm18-5c0 .551-.449 1-1 1h-13.556c-.221-.378-.498-.714-.826-1 .84-.734 1.382-1.8 1.382-3s-.542-2.266-1.382-3c.84-.734 1.382-1.8 1.382-3 0-1.501-.841-2.796-2.067-3.48 1.264-1.101 2.067-2.717 2.067-4.52 0-3.309-2.691-6-6-6h-7c-1.239 0-3-1.034-3-2v-8c0-2.414-1.721-4.434-4-4.899v-11.101c0-2.206 1.794-4 4-4h26c2.206 0 4 1.794 4 4z" data-original="#000000" class=""/><path d="m54 37c-2.757 0-5 2.243-5 5s2.243 5 5 5 5-2.243 5-5-2.243-5-5-5zm0 8c-1.654 0-3-1.346-3-3s1.346-3 3-3 3 1.346 3 3-1.346 3-3 3z" data-original="#000000" class=""/><path d="m49 49h2v2h-2z" data-original="#000000" class=""/><path d="m53 49h2v2h-2z" data-original="#000000" class=""/><path d="m57 49h2v2h-2z" data-original="#000000" class=""/><path d="m49 53h2v2h-2z" data-original="#000000" class=""/><path d="m53 53h2v2h-2z" data-original="#000000" class=""/><path d="m57 53h2v2h-2z" data-original="#000000" class=""/></g> </svg>
