<?xml version="1.0"?>
<svg xmlns="http://www.w3.org/2000/svg" xmlns:xlink="http://www.w3.org/1999/xlink" version="1.1" id="Capa_1" x="0px" y="0px" viewBox="0 0 496 496" style="enable-background:new 0 0 496 496;" xml:space="preserve" width="512px" height="512px"><g><path style="fill:#1A94D0" d="M352,112H144V32h208V112z" data-original="#F0BC5E" class="active-path" data-old_color="#F0BC5E"/><path d="M352,384h88V164.688l-40-40V0H96v124.688l-40,40V384h88v-16H81.52l88.056-101.6l33.304,27.752l10.24-12.296L112,197.584V16  h272v181.584l-101.12,84.264l10.24,12.296l33.304-27.752L414.48,368H352V384z M72,354.552V185.08l85.28,71.064L72,354.552z   M75.856,167.464L96,147.312v36.936L75.856,167.464z M400,147.312l20.144,20.144L400,184.248V147.312z M424,185.08v169.464  l-85.28-98.4L424,185.08z" data-original="#000000" class="" style="fill:#000000"/><rect x="144" y="128" width="208" height="16" data-original="#000000" class="" style="fill:#000000"/><rect x="144" y="192" width="176" height="16" data-original="#000000" class="" style="fill:#000000"/><rect x="144" y="160" width="96" height="16" data-original="#000000" class="" style="fill:#000000"/><rect x="256" y="160" width="96" height="16" data-original="#000000" class="" style="fill:#000000"/><rect x="480" y="432" width="16" height="16" data-original="#000000" class="" style="fill:#000000"/><rect x="432" y="432" width="16" height="16" data-original="#000000" class="" style="fill:#000000"/><rect x="384" y="432" width="16" height="16" data-original="#000000" class="" style="fill:#000000"/><rect x="96" y="432" width="16" height="16" data-original="#000000" class="" style="fill:#000000"/><path style="fill:#1A94D0" d="M248,496c-61.76,0-112-50.24-112-112s50.24-112,112-112s112,50.24,112,112S309.76,496,248,496z" data-original="#F0BC5E" class="active-path" data-old_color="#F0BC5E"/><path d="M296,336h-8.808c-3.72-18.232-19.872-32-39.192-32s-35.472,13.768-39.192,32H200v16h-32v16h32v16h-32v16h32v16h-32v16h34.8  c6.608,18.616,24.344,32,45.2,32s38.592-13.384,45.2-32H328v-16h-32v-16h32v-16h-32v-16h32v-16h-32V336z M248,320  c10.416,0,19.216,6.712,22.528,16H225.48C228.784,326.712,237.584,320,248,320z M216,416v-64h24v94.864  C226.24,443.288,216,430.872,216,416z M280,416c0,14.872-10.24,27.288-24,30.864V352h24V416z" data-original="#000000" class="" style="fill:#000000"/><rect x="48" y="432" width="16" height="16" data-original="#000000" class="" style="fill:#000000"/><rect y="432" width="16" height="16" data-original="#000000" class="" style="fill:#000000"/><rect x="336" y="192" width="16" height="16" data-original="#000000" class="" style="fill:#000000"/></g> </svg>
