<?xml version="1.0"?>
<svg xmlns="http://www.w3.org/2000/svg" id="Layer_35" enable-background="new 0 0 64 64" height="512px" viewBox="0 0 64 64" width="512px"><g><path d="m12 2h40v8h-40z" fill="#f0bc5e" data-original="#F0BC5E" class="active-path" style="fill:#529FF1" data-old_color="#f0bc5e"/><path d="m27 47h-16v-10h16z" fill="#f0bc5e" data-original="#F0BC5E" class="active-path" style="fill:#529FF1" data-old_color="#f0bc5e"/><path d="m61 53v-33c0-2.757-2.243-5-5-5h-3v-14h-42v14h-3c-2.757 0-5 2.243-5 5v33h-2v5c0 2.757 2.243 5 5 5h52c2.757 0 5-2.243 5-5v-5zm-15.443-18 2.806 7.484 1.873-.702-2.543-6.782h5.307v-14h2v28h-46v-28h2v14zm-32.557-32h38v30h-4.057l-1.306-3.484-1.873.702 1.043 2.782h-31.807zm-8 17c0-1.654 1.346-3 3-3h3v2h-2c-1.103 0-2 .897-2 2v28c0 1.103.897 2 2 2h46c1.103 0 2-.897 2-2v-28c0-1.103-.897-2-2-2h-2v-2h3c1.654 0 3 1.346 3 3v33h-54zm56 38c0 1.654-1.346 3-3 3h-52c-1.654 0-3-1.346-3-3v-3h58z" data-original="#000000" class="" style="fill:#000000"/><path d="m27 57h10v2h-10z" data-original="#000000" class="" style="fill:#000000"/><path d="m39 57h2v2h-2z" data-original="#000000" class="" style="fill:#000000"/><path d="m23 57h2v2h-2z" data-original="#000000" class="" style="fill:#000000"/><path d="m15 5h2v2h-2z" data-original="#000000" class="" style="fill:#000000"/><path d="m19 5h2v2h-2z" data-original="#000000" class="" style="fill:#000000"/><path d="m23 5h2v2h-2z" data-original="#000000" class="" style="fill:#000000"/><path d="m38 20.395h2v8.21h-2z" transform="matrix(.574 -.819 .819 .574 -3.437 42.397)" data-original="#000000" class="" style="fill:#000000"/><path d="m26.343 22.501h6.312v1.999h-6.312z" transform="matrix(.874 -.486 .486 .874 -7.699 17.276)" data-original="#000000" class="" style="fill:#000000"/><path d="m20.5 16.895h2v8.211h-2z" transform="matrix(.819 -.574 .574 .819 -8.156 16.126)" data-original="#000000" class="" style="fill:#000000"/><path d="m39 13h10v2h-10z" data-original="#000000" class="" style="fill:#000000"/><path d="m39 17h10v2h-10z" data-original="#000000" class="" style="fill:#000000"/><path d="m17 25h-2v4c0 1.103.897 2 2 2h2v-2h-2z" data-original="#000000" class="" style="fill:#000000"/><path d="m15 21h2v2h-2z" data-original="#000000" class="" style="fill:#000000"/><path d="m45 45h-2v-4h-2v4h-2v-6h-2v6h-2v-8h-2v8h-2v-8h-2v10h16z" data-original="#000000" class="" style="fill:#000000"/><g fill="#f0bc5e"><path d="m50 47c-1.654 0-3-1.346-3-3s1.346-3 3-3 3 1.346 3 3-1.346 3-3 3z" data-original="#F0BC5E" class="active-path" style="fill:#529FF1" data-old_color="#F0BC5E"/><path d="m44 31c-1.654 0-3-1.346-3-3s1.346-3 3-3 3 1.346 3 3-1.346 3-3 3z" data-original="#F0BC5E" class="active-path" style="fill:#529FF1" data-old_color="#F0BC5E"/><path d="m34 24c-1.654 0-3-1.346-3-3s1.346-3 3-3 3 1.346 3 3-1.346 3-3 3z" data-original="#F0BC5E" class="active-path" style="fill:#529FF1" data-old_color="#F0BC5E"/><path d="m25 29c-1.654 0-3-1.346-3-3s1.346-3 3-3 3 1.346 3 3-1.346 3-3 3z" data-original="#F0BC5E" class="active-path" style="fill:#529FF1" data-old_color="#F0BC5E"/><path d="m18 19c-1.654 0-3-1.346-3-3s1.346-3 3-3 3 1.346 3 3-1.346 3-3 3z" data-original="#F0BC5E" class="active-path" style="fill:#529FF1" data-old_color="#F0BC5E"/></g></g> </svg>
