<svg xmlns="http://www.w3.org/2000/svg" width="512" height="512" viewBox="0 0 64 64">
    <g data-name="Delivery all time">
        <circle cx="17" cy="56" r="4" fill="#FFF" class="active-path" data-old_color="#000000" data-original="#000000"/>
        <path fill="#FFF" d="M22.188 53H42v-4H4v4h7.812a5.986 5.986 0 0 1 10.376 0zM22.91 55a5.6 5.6 0 0 1 0 2h23.18a5.6 5.6 0 0 1 0-2zM57.188 53H60v-8H49a3 3 0 0 1-3-3v-7h-2v18h2.812a5.986 5.986 0 0 1 10.376 0z" class="active-path" data-old_color="#000000" data-original="#000000"/>
        <circle cx="52" cy="56" r="4" fill="#FFF" class="active-path" data-old_color="#000000" data-original="#000000"/>
        <path fill="#FFF" d="M59 57a1 1 0 0 0 1-1v-1h-2.09a5.6 5.6 0 0 1 0 2zM5 21a1 1 0 0 0-1 1v25h38V22a1 1 0 0 0-1-1h-8.051a10.994 10.994 0 0 1-21.9 0zM49 43h10.941A9.01 9.01 0 0 0 51 35h-3v7a1 1 0 0 0 1 1zM4 55v1a1 1 0 0 0 1 1h6.09a5.6 5.6 0 0 1 0-2z" class="active-path" data-old_color="#000000" data-original="#000000"/>
        <path fill="#FFF" d="M22 29a9 9 0 1 0-9-9 9.01 9.01 0 0 0 9 9zm-4-10h3v-5a1 1 0 0 1 2 0v6a1 1 0 0 1-1 1h-4a1 1 0 0 1 0-2z" class="active-path" data-old_color="#000000" data-original="#000000"/>
    </g>
</svg>
