<svg xmlns="http://www.w3.org/2000/svg" width="75" height="75" viewBox="0 0 75 75">
  <g id="Group_16" data-name="Group 16" transform="translate(-751 -1913)">
    <circle id="Ellipse_1" data-name="Ellipse 1" cx="37.5" cy="37.5" r="37.5" transform="translate(751 1913)" fill="#e1f2ff"/>
    <path id="Shape_7" data-name="Shape 7" d="M772.355,1967.558a1.415,1.415,0,0,1-1.254-1.646,5.673,5.673,0,0,1,5.348-5.31c.25-.011.5,0,.751,0a5.666,5.666,0,0,1,5.995,4.743,4.272,4.272,0,0,1,.064.677,1.371,1.371,0,1,1-2.732.137,2.9,2.9,0,0,0-2.992-2.822,6.356,6.356,0,0,0-1.488.109,2.813,2.813,0,0,0-2.211,2.617c-.076.93-.6,1.5-1.354,1.5Q772.42,1967.564,772.355,1967.558Zm22.867,0a1.405,1.405,0,0,1-1.294-1.608,5.659,5.659,0,0,1,5.108-5.332,6.241,6.241,0,0,1,5.649,1.9,5.471,5.471,0,0,1,1.4,3.307c.02,1.082-.514,1.715-1.324,1.739a1.383,1.383,0,0,1-1.409-1.433,2.912,2.912,0,0,0-2.952-2.8c-.273-.005-.546-.006-.819,0a2.915,2.915,0,0,0-2.92,2.759c-.072.907-.6,1.471-1.359,1.471Zm-10.676-5.342a1.354,1.354,0,0,1-1.089-1.741,1.368,1.368,0,0,1,1.867-.859,10.859,10.859,0,0,0,6.647.063,1.389,1.389,0,0,1,1.91.906,1.36,1.36,0,0,1-1.148,1.706c-1.3.3-2.623.515-4.01.779C787.34,1962.8,785.932,1962.553,784.546,1962.219Zm11.364-7.241a4.1,4.1,0,1,1,4.115,4.117h-.013A4.112,4.112,0,0,1,795.911,1954.977Zm4.065-1.344a1.353,1.353,0,1,0,.033,0Zm-22.809,5.46a4.106,4.106,0,1,1,.008,0Zm-1.339-4.156a1.353,1.353,0,1,0,1.374-1.305h-.023A1.358,1.358,0,0,0,775.828,1954.938Zm8.176-5.683c-.846-.05-1.339-.727-1.279-1.754a5.682,5.682,0,0,1,5.383-5.206c.228-.008.455,0,.683,0,3.216-.005,5.524,1.822,6.03,4.783a3.918,3.918,0,0,1,.053.882,1.358,1.358,0,0,1-1.329,1.3,1.317,1.317,0,0,1-1.38-1.238c-.093-2.984-3.143-3.493-5.047-2.688a2.7,2.7,0,0,0-1.66,2.4c-.087.96-.592,1.53-1.359,1.53Zm15.826-1.732a11.533,11.533,0,0,0-4.451-6.586,1.3,1.3,0,0,1-.467-1.583,1.421,1.421,0,0,1,1.4-.907,4.091,4.091,0,0,1,.795.383,13.9,13.9,0,0,1,5.361,7.986,1.367,1.367,0,0,1-.95,1.712,1.341,1.341,0,0,1-.366.051A1.365,1.365,0,0,1,799.83,1947.523Zm-23.641,1.04a1.415,1.415,0,0,1-1.167-1.559c.068-.247.167-.667.3-1.076a13.949,13.949,0,0,1,4.921-6.97,1.385,1.385,0,1,1,1.679,2.155,11.462,11.462,0,0,0-4.192,6.3,1.4,1.4,0,0,1-1.34,1.162A1.443,1.443,0,0,1,776.189,1948.563Zm12.605-7.775a4.1,4.1,0,1,1,4.1-4.128,4.111,4.111,0,0,1-4.1,4.128Zm-1.347-4.091a1.352,1.352,0,1,0,1.378-1.37H788.8A1.357,1.357,0,0,0,787.447,1936.7Z" fill="#1f5ce1"/>
  </g>
</svg>
