<svg xmlns="http://www.w3.org/2000/svg" width="75" height="75" viewBox="0 0 75 75">
  <g id="Group_14" data-name="Group 14" transform="translate(-151 -1913)">
    <circle id="Ellipse_1" data-name="Ellipse 1" cx="37.5" cy="37.5" r="37.5" transform="translate(151 1913)" fill="#e1f2ff"/>
    <path id="Shape_6" data-name="Shape 6" d="M181.085,1968.552a1.384,1.384,0,0,1-1.348-1.55c0-.136,0-.273,0-.409v-2.86h.114c0-1.359-.1-2.727.026-4.074a6.362,6.362,0,0,1,1.99-3.932q6.346-6.314,12.712-12.607a1.374,1.374,0,1,1,1.882,1.965q-6.16,6.115-12.333,12.216a5.191,5.191,0,0,0-1.674,4.005c.041,1.906.015,3.813.006,5.72a1.383,1.383,0,0,1-1.36,1.526Zm11.771-.959c-2.377-1.544-4.725-3.135-7.083-4.711a1.4,1.4,0,0,1-.55-2.032,1.375,1.375,0,0,1,2.038-.248c2.308,1.527,4.606,3.068,6.913,4.6a2.752,2.752,0,0,0,4.521-1.955q2.016-11.806,4.012-23.614a2.621,2.621,0,0,0-1.036-2.65,2.694,2.694,0,0,0-2.947-.29q-5.955,2.67-11.913,5.332-5.863,2.626-11.724,5.257a2.747,2.747,0,0,0-1.007,4.446,4.129,4.129,0,0,0,.689.551c.977.661,1.966,1.3,2.943,1.965a1.377,1.377,0,1,1-1.485,2.286c-1.081-.708-2.162-1.419-3.227-2.152a5.508,5.508,0,0,1,.842-9.533q11.911-5.338,23.834-10.647a16.815,16.815,0,0,1,2.263-.654,5.642,5.642,0,0,1,5.452,6.5q-2,11.911-4.022,23.819a5.468,5.468,0,0,1-5.384,4.684A5.725,5.725,0,0,1,192.856,1967.593Z" fill="#1f5ce1"/>
  </g>
</svg>
