<svg xmlns="http://www.w3.org/2000/svg" width="50" height="50" viewBox="0 0 50 50">
  <g id="Group_9" data-name="Group 9" transform="translate(-524 -4849)">
    <g id="Ellipse_5" data-name="Ellipse 5" transform="translate(524 4849)" fill="none" stroke="#232323" stroke-width="1" opacity="0.2">
      <circle cx="25" cy="25" r="25" stroke="none"/>
      <circle cx="25" cy="25" r="24.5" fill="none"/>
    </g>
    <path id="Shape_30" data-name="Shape 30" d="M540.641,4877.089c-.775-.114-1.79.293-1.757-1.074-.409,0-.794,0-1.18,0a1.653,1.653,0,0,1-1.741-1.771q-.005-2.348,0-4.7a1.606,1.606,0,0,1,1.673-1.717c.389-.01.778,0,1.175,0a1.1,1.1,0,0,0,.08-.212c.087-.673.308-.877.991-.877,2.159,0,4.318.009,6.477-.012a2.408,2.408,0,0,0,1.015-.234c3.1-1.539,6.185-3.106,9.284-4.646a2.487,2.487,0,0,1,1.016-.239c1.155-.029,2.312-.016,3.468-.009.662,0,.926.269.926.927q0,9.165,0,18.33c0,.652-.272.944-.919.951-1.207.013-2.414.018-3.62-.006a2.182,2.182,0,0,1-.822-.226c-3.085-1.407-6.171-2.812-9.241-4.252a3.573,3.573,0,0,0-1.808-.241v1.979c.333,0,.664-.009.995,0a.781.781,0,0,1,.823.728.8.8,0,0,1-.776.79c-.335.026-.673,0-1.044,0V4882c.335,0,.653-.013.97,0a.766.766,0,1,1-.005,1.522c-.3.014-.61,0-1,0,0,.654,0,1.276,0,1.9,0,.931-.21,1.14-1.135,1.141-.986,0-1.972.006-2.958,0-.636-.005-.885-.26-.886-.9q-.006-3.983,0-7.965Zm15.9,2.729v-16.161a1.569,1.569,0,0,0-.214.066c-2.741,1.374-5.484,2.745-8.216,4.138a.674.674,0,0,0-.281.508c-.019,2.347-.007,4.694-.019,7.041a.534.534,0,0,0,.368.576c.823.359,1.634.745,2.45,1.119Zm1.592-16.663v17.094h2.375v-17.094Zm-14.075,5.128v7.2h2.182v-7.2Zm-1.858,8.8V4885h1.841v-7.91Zm.269-8.787h-2.011v7.2h2.011Zm-3.6,1.1h-1.338v5.038h1.338Z" fill="#1a4ec0"/>
  </g>
</svg>
