<?xml version="1.0"?>
<svg xmlns="http://www.w3.org/2000/svg" xmlns:xlink="http://www.w3.org/1999/xlink" version="1.1" id="Capa_1" x="0px" y="0px" viewBox="0 0 496 496" style="enable-background:new 0 0 496 496;" xml:space="preserve" width="512px" height="512px"><g><path style="fill:#333333;" d="M208,304h-16v-32h-16v32h-64v-32H96v32H80v16h16v128c0,26.472,21.528,48,48,48s48-21.528,48-48V320  h16V304z M176,448c0,17.648-14.352,32-32,32s-32-14.352-32-32V320h64V448z" data-original="#333333" class=""/><path style="fill:#529FF1" d="M144,0C64.6,0,0,64.6,0,144s64.6,144,144,144s144-64.6,144-144S223.4,0,144,0z M144,232  c-48.6,0-88-39.4-88-88s39.4-88,88-88s88,39.4,88,88S192.6,232,144,232z" data-original="#FFA64D" class="active-path" data-old_color="#FFA64D"/><path style="fill:#333333;" d="M144,240c-52.936,0-96-43.064-96-96s43.064-96,96-96s96,43.064,96,96S196.936,240,144,240z M144,64  c-44.112,0-80,35.888-80,80s35.888,80,80,80s80-35.888,80-80S188.112,64,144,64z" data-original="#333333" class=""/><g>
	<path style="fill:#529FF1" d="M312,312h144c4.416,0,8-3.584,8-8v-32c0-4.416-3.584-8-8-8H312c-4.416,0-8,3.584-8,8v32   C304,308.416,307.584,312,312,312z" data-original="#FFA64D" class="active-path" data-old_color="#FFA64D"/>
	<path style="fill:#529FF1" d="M480,440h-40h-16H288c-4.416,0-8,3.584-8,8v32c0,4.416,3.584,8,8,8h192c4.416,0,8-3.584,8-8v-32   C488,443.584,484.416,440,480,440z" data-original="#FFA64D" class="active-path" data-old_color="#FFA64D"/>
</g><g>
	
		<rect x="119.993" y="103.422" transform="matrix(-0.7071 0.7071 -0.7071 -0.7071 331.6213 182.601)" style="fill:#333333;" width="16" height="113.119" data-original="#333333" class=""/>
	
		<rect x="187.998" y="158.341" transform="matrix(-0.7071 0.7071 -0.7071 -0.7071 450.552 141.3688)" style="fill:#333333;" width="16" height="11.312" data-original="#333333" class=""/>
	
		<rect x="143.141" y="75.094" transform="matrix(-0.7071 0.7071 -0.7071 -0.7071 342.2534 96.5015)" style="fill:#333333;" width="16" height="88.079" data-original="#333333" class=""/>
	<path style="fill:#333333;" d="M480,432h-4.56c-4.504-6.04-18.512-31.296-19.384-112.008C464.848,319.968,472,312.808,472,304v-32   c0-8.824-7.176-16-16-16H312c-8.824,0-16,7.176-16,16v32c0,8.808,7.152,15.968,15.952,15.992   C311.072,400.704,297.064,425.96,292.56,432H288c-8.824,0-16,7.176-16,16v32c0,8.824,7.176,16,16,16h192c8.824,0,16-7.176,16-16   v-32C496,439.176,488.824,432,480,432z M312,272h144l0.008,32H312V272z M480,480H288v-32h136v-16H311.12   c7.552-15.904,16.16-48.04,16.824-112h112.104c0.664,63.96,9.272,96.096,16.824,112H440v16h40V480z" data-original="#333333" class=""/>
</g></g> </svg>
