<?xml version="1.0"?>
<svg xmlns="http://www.w3.org/2000/svg" xmlns:xlink="http://www.w3.org/1999/xlink" version="1.1" id="Layer_1_1_" x="0px" y="0px" viewBox="0 0 64 64" style="enable-background:new 0 0 64 64;" xml:space="preserve" width="512px" height="512px" class=""><g><g>
	<path style="fill:#1A94D0" d="M46,53v-4.579c-2.204-3.5-3.917-7.303-5.036-11.321l-0.573-2.057   c-0.207-0.551-0.651-0.977-1.204-1.177C37.952,33.418,37.687,32,36.004,32c-1.998,0-1.998,2-3.997,2c-2.002,0-2.002-2-4.003-2   c-1.686,0-1.952,1.419-3.19,1.866c-0.554,0.2-0.998,0.626-1.205,1.178l-0.573,2.057c-1.105,3.966-2.786,7.724-4.943,11.191   l0.068,0.249l4.157,1.663l3.918-4.896l4.605,2.763L34,45v5.893c0,0.996,0.681,1.92,1.664,2.08C36.917,53.176,38,52.215,38,51   v-0.893c0-0.996,0.681-1.92,1.664-2.08C40.917,47.824,42,48.785,42,50v3c0,1.105,0.895,2,2,2h0C45.105,55,46,54.105,46,53z" data-original="#F0BC5E" class="active-path" data-old_color="#F0BC5E"/>
	<path style="fill:#1A94D0" d="M62.942,59.402C62.665,57.978,61.332,57,59.882,57H57c-0.552,0-1-0.448-1-1s0.448-1,1-1h0.882   c1.451,0,2.784-0.978,3.06-2.402C61.314,50.683,59.85,49,58,49H47.002h-0.65c1.632,2.512,3.513,4.865,5.648,7l0,0H42H32H12   c2.135-2.135,4.016-4.488,5.648-7H5.943c-0.805,0-1.555,0.316-2.112,0.891c-0.559,0.574-0.854,1.333-0.829,2.195   C3.048,53.692,4.393,55,6.062,55h0.001c0.25,0,0.484,0.098,0.66,0.274C6.901,55.454,7,55.697,7,55.959v0.101   c0,0.252-0.098,0.488-0.275,0.666s-0.413,0.275-0.665,0.275H6.059H4.001c-0.001,0-0.002,0-0.003,0   c-0.801,0-1.553,0.312-2.119,0.878S1,59.198,1,60c0,1.654,1.346,3,3,3h38h18C61.85,63,63.314,61.317,62.942,59.402z" data-original="#F0BC5E" class="active-path" data-old_color="#F0BC5E"/>
	<path d="M42,57h12.415l-1.708-1.707c-5.112-5.111-8.839-11.494-10.779-18.46l-0.6-2.142c-0.308-0.819-0.963-1.463-1.799-1.766   c-0.293-0.105-0.525-0.338-0.819-0.633C38.164,31.747,37.417,31,36.004,31c-0.001,0-0.003,0-0.004,0V29.46   c1.063,0.954,2.462,1.54,4,1.54c2.989,0,5.475-2.197,5.927-5.062C49.35,25.484,52,22.546,52,19c0-3.543-2.649-6.473-6.069-6.931   C45.473,8.649,42.544,6,39,6c-0.834,0-1.651,0.163-2.424,0.449C35.507,3.286,32.518,1,29,1c-3.754,0-6.987,2.637-7.798,6.24   C18.148,8.04,16,10.777,16,14c0,0.267,0.018,0.529,0.047,0.788C14.18,15.846,13,17.818,13,20c0,2.993,2.203,5.48,5.072,5.929   C18.519,28.798,21.007,31,24,31c1.538,0,2.937-0.586,4-1.54V31c-1.412,0.001-2.159,0.747-2.705,1.292   c-0.295,0.295-0.528,0.527-0.822,0.634c-0.837,0.303-1.494,0.946-1.829,1.85l-0.573,2.058c-1.94,6.965-5.667,13.348-10.779,18.46   L9.586,57H32v-2H14.325c4.526-5.04,7.853-11.091,9.674-17.63l0.545-1.975c0.102-0.271,0.324-0.485,0.609-0.589   c0.713-0.258,1.18-0.725,1.556-1.1C27.2,33.217,27.44,33,28.003,33c0.563,0,0.804,0.217,1.295,0.707   C29.845,34.253,30.592,35,32.007,35c1.414,0,2.161-0.747,2.706-1.293c0.49-0.49,0.73-0.707,1.291-0.707s0.801,0.217,1.291,0.707   c0.375,0.375,0.84,0.841,1.552,1.1c0.285,0.103,0.506,0.317,0.581,0.505l0.573,2.059c1.822,6.54,5.148,12.59,9.674,17.63H42V57z    M32.007,33c-0.563,0-0.804-0.217-1.294-0.707c-0.202-0.202-0.432-0.431-0.712-0.64v-8.411c0-3.003-1.169-5.826-3.293-7.949   l-1.414,1.414C27.039,18.453,28,20.773,28,23.242V25c0,2.206-1.794,4-4,4s-4-1.794-4-4v-1h-1c-2.206,0-4-1.794-4-4   c0-1.276,0.608-2.441,1.595-3.186C17.681,19.275,20.141,21,23,21v-2c-2.757,0-5-2.243-5-5c0-2.476,1.775-4.55,4.222-4.932   l0.739-0.116l0.098-0.741C23.45,5.24,26.004,3,29,3c3.309,0,6,2.691,6,6c0,0.923-0.204,1.808-0.605,2.63l1.797,0.877   C36.728,11.409,37,10.229,37,9c0-0.191-0.015-0.379-0.029-0.567C37.607,8.151,38.297,8,39,8c2.757,0,5,2.243,5,5s-2.243,5-5,5v2   c3.488,0,6.379-2.567,6.906-5.908C48.231,14.52,50,16.553,50,19c0,2.757-2.243,5-5,5h-1v1c0,2.206-1.794,4-4,4s-4-1.794-4-4v-1.758   c0-2.469,0.961-4.789,2.707-6.535l-1.414-1.414C35.169,17.416,34,20.239,34,23.242v8.419c-0.276,0.207-0.503,0.433-0.702,0.632   C32.808,32.783,32.568,33,32.007,33z" data-original="#000000" class="" style="fill:#000000"/>
</g></g> </svg>
