<?xml version="1.0"?>
<svg xmlns="http://www.w3.org/2000/svg" id="Layer_35" enable-background="new 0 0 64 64" height="512px" viewBox="0 0 64 64" width="512px"><g><path d="m13.45 28.486c-3.257-1.91-5.45-5.438-5.45-9.486 0-6.075 4.925-11 11-11s11 4.925 11 11c0 5.485-4.019 10.019-9.27 10.851 1.27 1.167 2.106 2.794 2.243 4.619l5.184-.662c.717-5.556 4.102-10.272 8.843-12.806v-5.794l-2.635-.62c-.332-1.159-.795-2.275-1.381-3.332l1.426-2.302-5.363-5.363-2.303 1.425c-1.056-.586-2.172-1.049-3.332-1.381l-.62-2.635h-7.584l-.62 2.634c-1.16.333-2.276.795-3.332 1.381l-2.303-1.424-5.363 5.363 1.426 2.302c-.586 1.057-1.049 2.173-1.381 3.332l-2.635.62v7.584l2.635.62c.332 1.159.795 2.275 1.381 3.332l-1.426 2.302 5.193 5.192.259.004c.284-2.633 2.029-4.824 4.408-5.756z" fill="#f0bc5e" data-original="#F0BC5E" class="active-path" style="fill:#1A94D0" data-old_color="#f0bc5e"/><path d="m20.415 41.665c2.158-1.434 3.585-3.885 3.585-6.665 0-1.695-.534-3.266-1.437-4.561 4.975-1.529 8.437-6.091 8.437-11.439 0-6.617-5.383-12-12-12s-12 5.383-12 12c0 3.656 1.705 7.107 4.532 9.367-2.129 1.439-3.532 3.875-3.532 6.633 0 2.78 1.427 5.231 3.585 6.665-6.123 1.89-10.585 7.6-10.585 14.335v3c0 2.206 1.794 4 4 4h8.5c.979 0 1.864-.403 2.5-1.053.636.65 1.521 1.053 2.5 1.053h8.5c2.206 0 4-1.794 4-4v-3c0-6.735-4.462-12.445-10.585-14.335zm-11.415-22.665c0-5.514 4.486-10 10-10s10 4.486 10 10c0 4.792-3.336 8.827-7.989 9.773-1.372-1.106-3.114-1.773-5.011-1.773-.841 0-1.65.132-2.412.373-2.833-1.837-4.588-4.995-4.588-8.373zm1 16c0-3.309 2.691-6 6-6s6 2.691 6 6-2.691 6-6 6-6-2.691-6-6zm9.492 8.49-3.492 3.991-3.492-3.991c1.113-.311 2.281-.49 3.492-.49s2.379.179 3.492.49zm9.508 15.51c0 1.103-.897 2-2 2h-8.5c-.827 0-1.5-.673-1.5-1.5s.673-1.5 1.5-1.5h7.5v-2h-2v-4h-2v4h-3.5c-.979 0-1.864.403-2.5 1.053-.636-.65-1.521-1.053-2.5-1.053h-3.5v-4h-2v4h-2v2h7.5c.827 0 1.5.673 1.5 1.5s-.673 1.5-1.5 1.5h-8.5c-1.103 0-2-.897-2-2v-3c0-5.202 3.078-9.687 7.502-11.763l5.498 6.282 5.498-6.282c4.424 2.076 7.502 6.561 7.502 11.763z" data-original="#000000" class="" style="fill:#000000"/><path d="m45 18c-9.925 0-18 8.075-18 18s8.075 18 18 18 18-8.075 18-18-8.075-18-18-18zm15.949 19c-.228 3.658-1.683 6.981-3.968 9.568l-2.789-2.789-1.414 1.414 2.789 2.789c-2.587 2.284-5.91 3.74-9.567 3.967v-3.949h-2v3.949c-3.658-.228-6.981-1.683-9.567-3.967l2.789-2.789-1.414-1.414-2.789 2.789c-2.285-2.587-3.74-5.91-3.968-9.568h3.949v-2h-3.949c.228-3.658 1.683-6.981 3.968-9.568l2.789 2.789 1.414-1.414-2.789-2.789c2.587-2.284 5.91-3.74 9.567-3.967v3.949h2v-3.949c3.658.228 6.981 1.683 9.567 3.967l-2.789 2.789 1.414 1.414 2.789-2.789c2.285 2.587 3.74 5.91 3.968 9.568h-3.949v2z" data-original="#000000" class="" style="fill:#000000"/><path d="m25 19c0-3.309-2.691-6-6-6s-6 2.691-6 6 2.691 6 6 6 6-2.691 6-6zm-10 0c0-2.206 1.794-4 4-4s4 1.794 4 4-1.794 4-4 4-4-1.794-4-4z" data-original="#000000" class="" style="fill:#000000"/><path d="m47.561 37.525h2v4.071h-2z" transform="matrix(.707 -.707 .707 .707 -13.751 45.925)" data-original="#000000" class="" style="fill:#000000"/><path d="m44 26h2v7h-2z" data-original="#000000" class="" style="fill:#000000"/><path d="m45 40c-2.206 0-4-1.794-4-4s1.794-4 4-4 4 1.794 4 4-1.794 4-4 4z" fill="#f0bc5e" data-original="#F0BC5E" class="active-path" style="fill:#1A94D0" data-old_color="#f0bc5e"/></g> </svg>
