<?xml version="1.0"?>
<svg xmlns="http://www.w3.org/2000/svg" xmlns:xlink="http://www.w3.org/1999/xlink" version="1.1" id="Layer_1_1_" x="0px" y="0px" viewBox="0 0 64 64" style="enable-background:new 0 0 64 64;" xml:space="preserve" width="512px" height="512px" class="hovered-paths"><g><g>
	<g>
		<g>
			<path style="fill:#1A94D0" d="M34.781,63h-5.562l-0.625-2.503c-0.802-0.237-1.576-0.559-2.313-0.96l-2.214,1.328l-3.932-3.932     l1.328-2.214c-0.401-0.737-0.723-1.512-0.96-2.313L18,51.781v-5.562l2.503-0.625c0.237-0.802,0.559-1.576,0.96-2.313     l-1.328-2.214l3.932-3.932l2.214,1.328c0.737-0.401,1.512-0.723,2.313-0.96L29.219,35h5.562l0.625,2.503     c0.802,0.237,1.576,0.559,2.313,0.96l2.214-1.328l3.932,3.932l-1.328,2.214c0.401,0.737,0.723,1.512,0.96,2.313L46,46.219v5.562     l-2.503,0.625c-0.237,0.802-0.559,1.576-0.96,2.313l1.328,2.214l-3.932,3.932l-2.214-1.328c-0.737,0.401-1.512,0.723-2.313,0.96     L34.781,63z" data-original="#F0BC5E" class="hovered-path active-path" data-old_color="#F0BC5E"/>
		</g>
	</g>
	<g>
		<path style="fill:#1A94D0" d="M46.341,36C46.12,36.625,46,37.299,46,38c0,3.314,2.686,6,6,6c0.701,0,1.375-0.12,2-0.341    l0.622-0.171l-0.378-1.511c-0.758-3.033-3.214-5.347-6.287-5.923l-1.538-0.288L46.341,36z" data-original="#F0BC5E" class="hovered-path active-path" data-old_color="#F0BC5E"/>
	</g>
	<g>
		<path style="fill:#1A94D0" d="M10,43.659C10.625,43.88,11.299,44,12,44c3.314,0,6-2.686,6-6c0-0.701-0.12-1.375-0.341-2    l-0.083-0.233l-1.533,0.287c-3.073,0.576-5.529,2.89-6.287,5.923L9.38,43.482L10,43.659z" data-original="#F0BC5E" class="hovered-path active-path" data-old_color="#F0BC5E"/>
	</g>
	<g>
		<path style="fill:#1A94D0" d="M46,16c0-1.426-0.216-2.801-0.612-4.097C45.255,11.937,45.134,11.966,45,12c0,0-4,2-13,2    s-13-2-13-2c-0.134-0.027-0.26-0.051-0.393-0.077C18.215,13.213,18,14.581,18,16v0.003c0,1.708,0.321,3.385,0.917,4.958    C18.946,20.974,18.971,20.987,19,21c0,0,4,2,13,2s13-2,13-2c0.029-0.016,0.057-0.031,0.086-0.047    C45.681,19.382,46,17.708,46,16.003V16z" data-original="#F0BC5E" class="hovered-path active-path" data-old_color="#F0BC5E"/>
	</g>
	<g>
		<path d="M32,45c-2.206,0-4,1.794-4,4s1.794,4,4,4s4-1.794,4-4S34.206,45,32,45z M32,51c-1.103,0-2-0.897-2-2s0.897-2,2-2    s2,0.897,2,2S33.103,51,32,51z" data-original="#000000" class="" style="fill:#000000"/>
		<path d="M32,41c-1.328,0-2.645,0.333-3.807,0.962l0.953,1.759C30.017,43.25,31.003,43,32,43c3.309,0,6,2.691,6,6    c0,0.997-0.25,1.983-0.721,2.854l1.759,0.953C39.667,51.645,40,50.328,40,49C40,44.589,36.411,41,32,41z" data-original="#000000" class="" style="fill:#000000"/>
		<path d="M32,55c-3.309,0-6-2.691-6-6c0-0.997,0.25-1.983,0.721-2.854l-1.759-0.953C24.333,46.355,24,47.672,24,49    c0,4.411,3.589,8,8,8c1.328,0,2.645-0.333,3.807-0.962l-0.953-1.759C33.983,54.75,32.997,55,32,55z" data-original="#000000" class="" style="fill:#000000"/>
		<path d="M46,50h11.281l-2.066-8.266c-0.851-3.401-3.626-6.017-7.073-6.663L38,33.17v-0.904c0.132-0.113,0.262-0.229,0.374-0.366    l5.235-6.399C45.796,22.829,47,19.456,47,16c0-8.271-6.729-15-15-15S17,7.729,17,16.002c0,3.453,1.204,6.826,3.391,9.499    l5.235,6.399c0.112,0.137,0.242,0.253,0.374,0.366v0.904l-10.142,1.902c-3.446,0.646-6.222,3.261-7.073,6.663L6.719,50H18v-2    H9.281l1.445-5.78c0.662-2.646,2.821-4.68,5.5-5.182L28,34.83V33h8v1.83l11.773,2.208c2.68,0.502,4.839,2.537,5.5,5.182L54.719,48    H46V50z M19,16c0-0.959,0.112-1.891,0.309-2.791C20.878,13.797,24.945,15,32,15c7.054,0,11.121-1.202,12.69-1.79    C44.888,14.11,45,15.043,45,16.002c0,1.442-0.248,2.866-0.711,4.216C43.289,20.625,39.362,22,32,22    c-7.362,0-11.289-1.375-12.289-1.782C19.248,18.868,19,17.443,19,16z M32,24c2.557,0,4.71-0.161,6.507-0.391    c-0.149,0.859-0.322,1.665-0.507,2.413V26H26v0.025c-0.185-0.748-0.358-1.555-0.507-2.416C27.29,23.839,29.443,24,32,24z     M27.61,30.924c-0.256-0.597-0.654-1.604-1.063-2.924h10.904c-0.409,1.319-0.807,2.326-1.063,2.925    C36.281,30.964,36.17,31,36.052,31h-8.104C27.829,31,27.719,30.964,27.61,30.924z M39.829,26.963    c0.285-1.097,0.55-2.331,0.758-3.675c1.007-0.186,1.849-0.385,2.535-0.576c-0.318,0.529-0.666,1.041-1.06,1.523L39.829,26.963z     M44.104,11.292c-0.604,0.231-1.831,0.635-3.711,0.993c-0.649-3.199-1.681-6.001-2.461-7.839    C40.738,5.893,42.946,8.327,44.104,11.292z M35.271,3.433c0.518,1.052,2.235,4.75,3.145,9.168C36.67,12.833,34.545,13,32,13    s-4.67-0.167-6.416-0.399c0.91-4.418,2.627-8.116,3.145-9.168C29.776,3.16,30.868,3,32,3C33.132,3,34.224,3.16,35.271,3.433z     M26.068,4.446c-0.78,1.838-1.812,4.64-2.461,7.839c-1.88-0.358-3.108-0.762-3.711-0.993C21.053,8.328,23.262,5.893,26.068,4.446z     M20.879,22.712c0.685,0.191,1.528,0.39,2.535,0.576c0.207,1.344,0.473,2.578,0.758,3.675l-2.233-2.729    C21.545,23.753,21.197,23.241,20.879,22.712z" data-original="#000000" class="" style="fill:#000000"/>
	</g>
</g></g> </svg>
