<svg xmlns="http://www.w3.org/2000/svg" xmlns:xlink="http://www.w3.org/1999/xlink" width="453.63" height="655.19" viewBox="0 0 453.63 655.19">
  <defs>
    <clipPath id="clip-path">
      <path id="Rectangle_13_copy" data-name="Rectangle 13 copy" d="M57.19,5337.6a20,20,0,0,1-20-20V4702.41a20,20,0,0,1,20-20H470.82a20,20,0,0,1,20,20V5317.6a20,20,0,0,1-20,20Z" fill="#f6f6f7"/>
    </clipPath>
  </defs>
  <g id="Rectangle_13_copy-2" data-name="Rectangle 13 copy" transform="translate(-37.19 -4682.41)">
    <path id="Rectangle_13_copy-3" data-name="Rectangle 13 copy" d="M57.19,5337.6a20,20,0,0,1-20-20V4702.41a20,20,0,0,1,20-20H470.82a20,20,0,0,1,20,20V5317.6a20,20,0,0,1-20,20Z" fill="#f6f6f7"/>
    <g id="Clip" clip-path="url(#clip-path)">
      <circle id="Ellipse_6" data-name="Ellipse 6" cx="119" cy="119" r="119" transform="translate(285 5173)" fill="#121e3c" opacity="0.051"/>
    </g>
  </g>
</svg>
