<svg xmlns="http://www.w3.org/2000/svg" width="50" height="50" viewBox="0 0 50 50">
  <g id="Group_8" data-name="Group 8" transform="translate(-524 -4711)">
    <g id="Ellipse_5" data-name="Ellipse 5" transform="translate(524 4711)" fill="none" stroke="#232323" stroke-width="1" opacity="0.2">
      <circle cx="25" cy="25" r="25" stroke="none"/>
      <circle cx="25" cy="25" r="24.5" fill="none"/>
    </g>
    <path id="Shape_26" data-name="Shape 26" d="M538.582,4742.5l3.527-3.471.763.721,2.847-2.839-1.322-1.18c.478-.6.876-1.051,1.216-1.545a.746.746,0,0,0,.026-.6.622.622,0,0,0-.431-.274c-.577-.091-1.161-.142-1.759-.211v-3.249c.549-.06,1.107-.131,1.667-.179a.563.563,0,0,0,.573-.349.556.556,0,0,0-.124-.658c-.356-.427-.7-.862-1.024-1.26l2.329-2.319c.38.305.831.649,1.26,1.019.206.176.412.308.64.109a.981.981,0,0,0,.33-.5c.1-.559.145-1.127.215-1.711h3.255c.056.5.116,1,.168,1.5.03.285-.014.561.342.734.386.186.573-.06.806-.241.4-.311.785-.632,1.143-.92l2.316,2.318c-.319.4-.671.867-1.051,1.308a.513.513,0,0,0-.113.606.551.551,0,0,0,.559.371c.552.04,1.1.109,1.673.167v3.263c-.576.066-1.158.108-1.729.211a.757.757,0,0,0-.477.359.723.723,0,0,0,.075.546,3.238,3.238,0,0,0,.431.535c.21-.191.392-.379.6-.54a2.231,2.231,0,0,1,3.022.187,2.187,2.187,0,0,1-.012,3.057q-2.315,2.369-4.69,4.678a4.392,4.392,0,0,1-3.138,1.165c-1.1.009-2.2.058-3.288-.017a1.8,1.8,0,0,0-1.868.934l1.334,1.2c-1.274,1.266-2.454,2.44-3.6,3.579Zm2.046,0,4.43,4.429c.448-.461.924-.95,1.355-1.4l-4.386-4.415Zm8.963-5.845a3.289,3.289,0,0,0-2.419,1.007q-1.141,1.151-2.292,2.292c-.3.3-.609.582-.88.839l2.323,2.322c.275-.292.591-.6.875-.934a1,1,0,0,1,.855-.36c1.472.021,2.945.011,4.418.007a2.939,2.939,0,0,0,2.126-.741c1.574-1.526,3.12-3.081,4.66-4.641a.729.729,0,0,0-.224-1.19.823.823,0,0,0-1,.283c-1.13,1.137-2.242,2.293-3.4,3.405a1.958,1.958,0,0,1-1.079.61c-1.363.073-2.732.028-4.123.028V4738.2h.547c.95,0,1.9.006,2.847,0,.6,0,1-.34.983-.795s-.387-.74-.978-.744q-.753,0-1.506,0Q550.458,4736.656,549.591,4736.659Zm-3.149-9.247c.341.424.659.78.922,1.172a.7.7,0,0,1,.052.541c-.176.5-.434.982-.6,1.49a.5.5,0,0,1-.5.419c-.466.036-.932.093-1.385.14-.06.625-.06.62.492.665a6.064,6.064,0,0,1,.971.113.67.67,0,0,1,.377.333c.242.514.462,1.039.654,1.573a.638.638,0,0,1-.049.506c-.277.4-.6.764-.9,1.135.145.17.268.317.4.471.379-.306.728-.554,1.034-.846a.546.546,0,0,1,.81-.065.9.9,0,0,0,.5.132c1.113.007,2.226.006,3.338-.016a1.447,1.447,0,0,0,.688-.18.459.459,0,0,1,.642.079c.337.3.706.574,1.106.894.143-.147.275-.286.422-.438-.331-.414-.654-.784-.932-1.186a.62.62,0,0,1-.039-.5c.19-.517.454-1.008.623-1.533.087-.268.194-.368.465-.385.468-.03.934-.093,1.391-.142v-.625c-.486-.048-.939-.094-1.394-.135a.465.465,0,0,1-.464-.4,8.373,8.373,0,0,0-.62-1.481.447.447,0,0,1,.057-.6c.306-.357.595-.73.9-1.114-.143-.15-.265-.278-.424-.443-.393.318-.759.595-1.1.9a.471.471,0,0,1-.64.064,6.785,6.785,0,0,0-1.435-.6.493.493,0,0,1-.423-.495c-.046-.465-.1-.931-.144-1.391h-.614c-.051.47-.119.92-.144,1.373a.459.459,0,0,1-.394.5,8.111,8.111,0,0,0-1.48.621.451.451,0,0,1-.6-.061c-.358-.309-.732-.6-1.064-.863Zm4.45,7.074a3,3,0,0,1,.069-6.006,3,3,0,1,1-.048,6.006Zm-1.492-3.037a1.545,1.545,0,0,0,1.543,1.564,1.511,1.511,0,0,0,1.522-1.525,1.491,1.491,0,0,0-1.508-1.532h-.014A1.522,1.522,0,0,0,549.4,4731.449Z" fill="#1a4ec0"/>
  </g>
</svg>
