<svg xmlns="http://www.w3.org/2000/svg" width="50" height="50" viewBox="0 0 50 50">
  <g id="Group_4" data-name="Group 4" transform="translate(-125 -4711)">
    <g id="Ellipse_5" data-name="Ellipse 5" transform="translate(125 4711)" fill="none" stroke="#232323" stroke-width="1" opacity="0.2">
      <circle cx="25" cy="25" r="25" stroke="none"/>
      <circle cx="25" cy="25" r="24.5" fill="none"/>
    </g>
    <path id="Inbox_Icon" data-name="Inbox Icon" d="M158.988,4747H141.01a3,3,0,0,1-3.01-2.986V4736.5a1.542,1.542,0,0,1,.075-.474l2.766-8.295a2.615,2.615,0,0,1,2.424-1.731h13.47a2.613,2.613,0,0,1,2.424,1.732l2.765,8.3a1.524,1.524,0,0,1,.075.473v7.514A3,3,0,0,1,158.988,4747Zm-2.568-18H143.58l-2,6h4.173a1.52,1.52,0,0,1,.529.105c.051.023.1.048.15.075a1.5,1.5,0,0,1,.3.2,1.207,1.207,0,0,1,.128.123,1.508,1.508,0,0,1,.21.311c.027.044.051.09.075.138,0,.015.018.03.024.044a3,3,0,0,0,5.658,0c0-.015.018-.029.025-.044a1.184,1.184,0,0,1,.075-.138,1.4,1.4,0,0,1,.21-.311,1.026,1.026,0,0,1,.126-.123,1.361,1.361,0,0,1,.3-.2l.15-.075a1.515,1.515,0,0,1,.528-.1h4.174Zm2.58,9h-3.815a5.982,5.982,0,0,1-10.371,0H141v6.014c0-.015,0-.015.011-.015h17.979c.011,0,.011,0,.011.015Z" fill="#1a4ec0"/>
  </g>
</svg>
