<svg xmlns="http://www.w3.org/2000/svg" width="50" height="50" viewBox="0 0 50 50">
  <g id="Group_7" data-name="Group 7" transform="translate(-525 -4566)">
    <g id="Ellipse_5" data-name="Ellipse 5" transform="translate(525 4566)" fill="none" stroke="#232323" stroke-width="1" opacity="0.2">
      <circle cx="25" cy="25" r="25" stroke="none"/>
      <circle cx="25" cy="25" r="24.5" fill="none"/>
    </g>
    <path id="Shape_24" data-name="Shape 24" d="M546.065,4601.927v-3.13h-8.35c-.805,0-1.052-.247-1.052-1.056q0-9.117,0-18.234c0-.77.257-1.025,1.03-1.025h24.592c.805,0,1.051.247,1.051,1.056q0,9.092,0,18.183c0,.838-.24,1.076-1.084,1.077h-8.309v3.129h1.476c.278,0,.556-.013.833,0a.766.766,0,0,1,.768.759.776.776,0,0,1-.784.8c-.052,0-.1,0-.156,0H543.94c-.052,0-.1,0-.156,0a.781.781,0,0,1-.806-.777.764.764,0,0,1,.8-.778C544.523,4601.917,545.267,4601.927,546.065,4601.927Zm-5.442-7.838v-.611c0-2.032,0-4.064,0-6.1a2.535,2.535,0,0,1,.109-.763c.466-1.431.958-2.854,1.425-4.285.137-.42.349-.73.825-.72.448.01.651.31.781.709.468,1.431.959,2.854,1.426,4.285a2.535,2.535,0,0,1,.111.763c.009,2.049,0,4.1,0,6.147v.554h1.566v-.6q0-5.418,0-10.836c0-.77.256-1.023,1.03-1.024q2.084,0,4.168,0c.8,0,1.05.247,1.05,1.057q0,5.418,0,10.836v.579h1.565c0-1.868.005-3.706-.009-5.542a.961.961,0,0,0-.208-.452,2.668,2.668,0,0,1-.267-2.9,34.263,34.263,0,0,1,2.25-3.293.683.683,0,0,1,1.164.007,34.184,34.184,0,0,1,2.227,3.248,2.72,2.72,0,0,1-.252,2.954,1.313,1.313,0,0,0-.208.659c-.017,1.632-.01,3.265-.008,4.9,0,.148.02.3.029.427h2.333v-14h-23.49v14.006Zm21.131,1.62H538.265v1.5h23.488Zm-13.291-4.744c.622.071,1.484-.179,1.509.769.027,1.024-.906.74-1.495.846v1.5h3.056v-10.878H548.46v1.515c.632.056,1.516-.187,1.511.8s-.9.716-1.5.8v1.514c1.213.1,1.558.26,1.517.8-.075.995-.894.744-1.526.814Zm3.839,10.945v-3.08h-4.6v3.08Zm-10.086-14.043v6.208h1.493v-6.208Zm14.818-4.4c-.53.87-1.013,1.581-1.41,2.336a1.374,1.374,0,0,0,.482,1.746,1.532,1.532,0,0,0,1.88-.017,1.373,1.373,0,0,0,.45-1.755C558.039,4585.031,557.565,4584.332,557.033,4583.463Zm.747,10.625v-4.7h-1.5v4.7Zm-14.814-9.216-.462,1.391h.928Z" fill="#1a4ec0"/>
  </g>
</svg>
