<svg xmlns="http://www.w3.org/2000/svg" width="50" height="50" viewBox="0 0 50 50">
  <g id="Group_12" data-name="Group 12" transform="translate(-925 -4849)">
    <g id="Ellipse_5" data-name="Ellipse 5" transform="translate(925 4849)" fill="none" stroke="#232323" stroke-width="1" opacity="0.2">
      <circle cx="25" cy="25" r="25" stroke="none"/>
      <circle cx="25" cy="25" r="24.5" fill="none"/>
    </g>
    <path id="Shape_29" data-name="Shape 29" d="M938.118,4886.343a2.247,2.247,0,0,1-.365-3.14,6.527,6.527,0,0,1,.494-.539q3.606-3.61,7.219-7.209a.551.551,0,0,0,.128-.779,8.815,8.815,0,1,1,8.4,4.783l-.292.022a8.373,8.373,0,0,1-4.271-.959.519.519,0,0,0-.74.124q-3.663,3.688-7.346,7.358a2.619,2.619,0,0,1-1.83.862A2.238,2.238,0,0,1,938.118,4886.343Zm.872-1.176c.442.423.889.287,1.624-.54-.347-.331-.675-.646-1-.959a1.733,1.733,0,0,0-.145-.114C938.67,4884.25,938.531,4884.728,938.99,4885.167Zm1.634-2.762,1.011,1.142c.276-.249.535-.482.8-.721l-1.054-1.051C941.084,4882.021,940.815,4882.246,940.624,4882.4Zm1.775-1.706.2.211.807.853,4.274-4.273-1.007-1.073Zm3.684-10.016a7.354,7.354,0,1,0,7.354-7.355A7.4,7.4,0,0,0,946.083,4870.683Zm6.334,3.87a.745.745,0,0,1-.7-.827c-.007-.779,0-1.559,0-2.339s0-1.559,0-2.339a.735.735,0,1,1,1.458,0q.011,2.339,0,4.678a.749.749,0,0,1-.729.828Zm-3.26-.894c-.006-1.023,0-2.046,0-3.069s0-2.047,0-3.07c0-.573.235-.858.687-.876.473-.018.77.286.773.856q.015,3.092,0,6.187a.764.764,0,0,1-.73.866h-.019C949.437,4874.553,949.16,4874.216,949.157,4873.658Zm7.44.011c-.006-.5,0-1,0-1.508,0-.485,0-.972,0-1.458.006-.521.291-.838.735-.834a.728.728,0,0,1,.724.8q.015,1.509,0,3.015a.731.731,0,0,1-.715.811h-.021C956.879,4874.5,956.6,4874.188,956.6,4873.669Zm-2.436-.049q-.007-3.069,0-6.139c0-.556.3-.9.743-.9s.716.336.717.911c0,1.022,0,2.045,0,3.069s0,2.046,0,3.069c0,.552-.253.851-.7.862H954.9C954.449,4874.494,954.162,4874.166,954.161,4873.62Z" fill="#1a4ec0"/>
  </g>
</svg>
