<svg xmlns="http://www.w3.org/2000/svg" width="50" height="50" viewBox="0 0 50 50">
  <g id="Group_5" data-name="Group 5" transform="translate(-125 -4849)">
    <g id="Ellipse_5" data-name="Ellipse 5" transform="translate(125 4849)" fill="none" stroke="#232323" stroke-width="1" opacity="0.2">
      <circle cx="25" cy="25" r="25" stroke="none"/>
      <circle cx="25" cy="25" r="24.5" fill="none"/>
    </g>
    <path id="Shape_28" data-name="Shape 28" d="M137.22,4886.314a25.139,25.139,0,0,1,.086-3.942,3.806,3.806,0,0,1,3.857-3.187c.276,0,.553,0,.829,0a3.262,3.262,0,0,1-2.4-3.669,3.191,3.191,0,0,1,3.042-2.576,3.132,3.132,0,0,1,3.172,2.657c.271,1.516-.659,2.9-2.408,3.543a15.607,15.607,0,0,1,1.643.143,3.752,3.752,0,0,1,3.1,3.492c.065,1.107.042,2.219.032,3.329a.788.788,0,0,1-.906.886H142.99q-2.439,0-4.881,0h0C137.624,4886.99,137.229,4886.792,137.22,4886.314Zm3.719-5.556a2.373,2.373,0,0,0-2.166,2.163c-.048.81-.009,1.625-.009,2.468h7.827c0-.838.048-1.638-.01-2.429a2.378,2.378,0,0,0-3.1-2.13c0,.75.02,1.512-.007,2.273a.737.737,0,0,1-.76.756.721.721,0,0,1-.752-.648,4.029,4.029,0,0,1-.031-.622c0-.6,0-1.2,0-1.833-.24,0-.452-.01-.654-.01C141.162,4880.744,141.05,4880.748,140.939,4880.758Zm1.742-6.26a1.577,1.577,0,1,0,.028,0Zm4.8,4.666c-.277-.065-.655-.216-.743-.429a1.24,1.24,0,0,1,.137-.9c.335-.655.754-1.268,1.105-1.917a.823.823,0,0,0-.1-.867,8.568,8.568,0,0,1,6.186-12.953c.377-.05.757-.081,1.134-.12a8.593,8.593,0,0,1,1.165,17.113,8.777,8.777,0,0,1-4.575-.613.709.709,0,0,0-.561-.016,4.382,4.382,0,0,1-2.763.719c-.123-.006-.248,0-.372.006-.089,0-.178.008-.266.008A1.577,1.577,0,0,1,147.483,4879.164Zm4.515-2.323a6.788,6.788,0,0,0,7.274-.535,6.661,6.661,0,0,0,2.913-6.728,7.034,7.034,0,1,0-12.774,4.975,1.31,1.31,0,0,1,.217,1.173c-.184.624-.38,1.243-.569,1.858a2.179,2.179,0,0,0,1.477-.577c.349-.3.517-.437.723-.437A2,2,0,0,1,152,4876.841Zm2.476-1.426c.1-.862-.361-1.185-1.073-1.364a1.631,1.631,0,0,1-.341-.186c-.213.2-.413.418-.638.6a.737.737,0,0,1-1.074-.015.716.716,0,0,1-.007-1.067c.554-.446.5-.86.237-1.447-.191-.431-.363-.611-.843-.578-.641.043-.995-.281-.98-.792.015-.484.361-.786.979-.742.477.033.753-.1.821-.586a.392.392,0,0,1,.074-.192c.359-.448.215-.771-.185-1.125a.774.774,0,0,1-.1-1.187c.348-.347.758-.324,1.188.087a6.5,6.5,0,0,1,.428.494c.448-.181.836-.317,1.2-.5a.577.577,0,0,0,.247-.367c.048-.217.009-.451.045-.672a.705.705,0,0,1,.759-.638c.388,0,.751.233.711.607-.088.872.373,1.215,1.1,1.4a2.4,2.4,0,0,1,.406.217,5.713,5.713,0,0,1,.493-.594.773.773,0,1,1,1.09,1.09c-.449.39-.457.7-.24,1.266a.9.9,0,0,0,1.077.7.738.738,0,0,1,.8.767.775.775,0,0,1-.8.777,2.57,2.57,0,0,1-.416,0c-.277-.027-.484.027-.5.359a.218.218,0,0,1-.034.1c-.356.6-.45,1.116.207,1.624a.649.649,0,0,1-.037.979.7.7,0,0,1-1.024.083c-.244-.189-.459-.418-.71-.651a1.611,1.611,0,0,1-.31.176c-.725.188-1.192.526-1.1,1.4.038.375-.324.6-.711.609H155.2C154.8,4876.048,154.431,4875.81,154.474,4875.415Zm-1.594-4.9a2.324,2.324,0,1,0,2.411-2.264l-.09,0A2.33,2.33,0,0,0,152.88,4870.518Zm1.556.05a.764.764,0,1,1,.765.8A.774.774,0,0,1,154.436,4870.568Z" fill="#1a4ec0"/>
  </g>
</svg>
