<?xml version="1.0"?>
<svg xmlns="http://www.w3.org/2000/svg" id="Layer_5" enable-background="new 0 0 64 64" height="512px" viewBox="0 0 64 64" width="512px" class="hovered-paths"><g><g fill="#f0bc5e"><path d="m32 22c-3.309 0-6-2.691-6-6s2.691-6 6-6 6 2.691 6 6-2.691 6-6 6zm0-8c-1.103 0-2 .897-2 2s.897 2 2 2 2-.897 2-2-.897-2-2-2z" data-original="#F0BC5E" class="hovered-path active-path" style="fill:#529FF1" data-old_color="#F0BC5E"/><path d="m39.87 27.577c.683.516 1.13 1.329 1.13 2.252v3.685c0 4.531-2.323 8.65-6 11.036v.328c0 1.272.802 2.406 2.002 2.829l7.998 2.822v-20.529c0-2.132-.513-4.144-1.423-5.919h-.158c-.967 1.364-2.165 2.553-3.549 3.496z" data-original="#F0BC5E" class="hovered-path active-path" style="fill:#529FF1" data-old_color="#F0BC5E"/><path d="m19 30v20.529l7.998-2.823c1.2-.423 2.002-1.557 2.002-2.829v-.328c-3.677-2.387-6-6.506-6-11.036 0-1.94 1.573-3.513 3.513-3.513h5.356l.018-.006c-4.691-.037-8.826-2.383-11.339-5.956h-.104c-.923 1.786-1.444 3.813-1.444 5.962z" data-original="#F0BC5E" class="hovered-path active-path" style="fill:#529FF1" data-old_color="#F0BC5E"/><path d="m51 2h12v5.041h-12z" data-original="#F0BC5E" class="hovered-path active-path" style="fill:#529FF1" data-old_color="#F0BC5E"/><path d="m1 22h12v5.041h-12z" data-original="#F0BC5E" class="hovered-path active-path" style="fill:#529FF1" data-old_color="#F0BC5E"/></g><path d="m32 19c1.654 0 3-1.346 3-3s-1.346-3-3-3-3 1.346-3 3 1.346 3 3 3zm0-4c.551 0 1 .448 1 1s-.449 1-1 1-1-.448-1-1 .449-1 1-1z" data-original="#000000" class="" style="fill:#000000"/><path d="m32.873 7.041.189-1.99c-.696-.066-1.419-.066-2.114-.002l.185 1.992c.572-.054 1.166-.055 1.74 0z" data-original="#000000" class="" style="fill:#000000"/><path d="m37.107 6.259c-.628-.331-1.289-.6-1.964-.801l-.571 1.916c.551.164 1.091.385 1.604.654z" data-original="#000000" class="" style="fill:#000000"/><path d="m29.435 7.371-.571-1.916c-.676.201-1.337.47-1.963.798l.928 1.771c.512-.268 1.052-.488 1.606-.653z" data-original="#000000" class="" style="fill:#000000"/><path d="m50.586 1-6.351 6.351c-2.72-3.835-7.185-6.351-12.235-6.351-8.271 0-15 6.729-15 15 0 1.676.288 3.282.797 4.788l-5.211 5.212h-11.586v2h12.414l5.222-5.222c1.41 2.769 3.647 5.045 6.393 6.493-1.757.617-3.029 2.276-3.029 4.243 0 4.681 2.293 8.94 5.971 11.546-.072.769-.567 1.443-1.306 1.703l-8.327 2.939c-4.389 1.55-7.338 5.718-7.338 10.373v2.925h42v-2.925c0-4.655-2.949-8.823-7.339-10.373l-8.327-2.939c-.739-.26-1.233-.934-1.305-1.703 3.678-2.606 5.971-6.866 5.971-11.546v-3.686c0-.763-.252-1.486-.665-2.107 3.446-2.751 5.665-6.978 5.665-11.721 0-2.486-.617-4.827-1.692-6.894l6.106-6.106h11.586v-2zm-31.586 15c0-7.168 5.832-13 13-13 4.499 0 8.47 2.299 10.804 5.782l-2.896 2.896c-2.264-1.729-5.01-2.678-7.908-2.678-3.492 0-6.774 1.359-9.243 3.828l-.757.758c-.645.646-1 1.503-1 2.414 0 .461.092.908.265 1.32l-1.856 1.856c-.257-1.018-.409-2.078-.409-3.176zm4.415 1c-.268-.268-.415-.622-.415-1s.147-.732.415-1l.757-.758c2.091-2.091 4.87-3.242 7.828-3.242s5.738 1.151 7.828 3.242l.757.758c.268.268.415.622.415 1s-.147.732-.415 1l-.757.758c-2.09 2.091-4.87 3.242-7.828 3.242s-5.738-1.151-7.828-3.242zm10.759 39.02-1.867 4.98h-.613l-1.867-4.98 2.173-1.739zm2.291 4.98h-2.021l1.403-3.74 1.867 1.867zm.293-6.171 2.036-5.429 2.126.75-.774 4.001zm.111-6.109.038.013-1.994 5.316-1.492-1.193zm-10.582 10.407 1.867-1.867 1.403 3.74h-2.021zm-2.433-4.976-.774-4.001 2.126-.75 2.036 5.429zm5.233-.101-1.994-5.316.038-.013 3.448 4.136zm-16.087 6.025c0-3.809 2.413-7.219 6.005-8.486l2.169-.766.972 5.025 3.826.766-2.258 2.259 1.417 2.127h-4.131v-4h-2v4h-6zm38 0v.925h-6v-4h-2v4h-4.131l1.418-2.127-2.258-2.259 3.826-.766.972-5.025 2.169.766c3.591 1.267 6.004 4.678 6.004 8.486zm-15.86-12.405-3.14 3.768-3.14-3.768c.417-.428.734-.947.927-1.517.607.305 1.238.576 1.897.795l.316.106.316-.105c.659-.22 1.29-.49 1.897-.795.193.569.51 1.088.927 1.516zm4.86-17.842v3.686c0 5.131-3.201 9.681-8 11.428-4.799-1.747-8-6.298-8-11.429 0-1.386 1.127-2.513 2.513-2.513h5.356v-.007c.044.001.087.007.131.007 2.817 0 5.446-.795 7.7-2.151.187.291.3.626.3.979zm5-13.828c0 7.168-5.832 13-13 13-5.287 0-9.838-3.177-11.868-7.718l2.367-2.367.258.258c2.469 2.468 5.751 3.827 9.243 3.827s6.774-1.359 9.243-3.828l.757-.758c.645-.646 1-1.503 1-2.414s-.355-1.769-1-2.414l-.586-.586 2.397-2.397c.756 1.646 1.189 3.47 1.189 5.397z" data-original="#000000" class="" style="fill:#000000"/><path d="m61 5h2v2h-2z" data-original="#000000" class="" style="fill:#000000"/><path d="m51 5h8v2h-8z" data-original="#000000" class="" style="fill:#000000"/><path d="m1 22h8v2h-8z" data-original="#000000" class="" style="fill:#000000"/><path d="m11 22h2v2h-2z" data-original="#000000" class="" style="fill:#000000"/></g> </svg>
