<svg xmlns="http://www.w3.org/2000/svg" xmlns:xlink="http://www.w3.org/1999/xlink" width="620.84" height="705.44" viewBox="0 0 620.84 705.44">
  <defs>
    <filter id="Ellipse_4" x="13.22" y="6.25" width="261.22" height="261.22" filterUnits="userSpaceOnUse">
      <feOffset dy="9" input="SourceAlpha"/>
      <feGaussianBlur stdDeviation="24.5" result="blur"/>
      <feFlood flood-color="#06061a" flood-opacity="0.078"/>
      <feComposite operator="in" in2="blur"/>
      <feComposite in="SourceGraphic"/>
    </filter>
    <filter id="Ellipse_4_copy" x="302.72" y="0" width="229.22" height="229.22" filterUnits="userSpaceOnUse">
      <feOffset dy="9" input="SourceAlpha"/>
      <feGaussianBlur stdDeviation="24.5" result="blur-2"/>
      <feFlood flood-color="#06061a" flood-opacity="0.078"/>
      <feComposite operator="in" in2="blur-2"/>
      <feComposite in="SourceGraphic"/>
    </filter>
    <filter id="Ellipse_4_copy_2" x="399.44" y="258" width="221.4" height="221.4" filterUnits="userSpaceOnUse">
      <feOffset dy="9" input="SourceAlpha"/>
      <feGaussianBlur stdDeviation="24.5" result="blur-3"/>
      <feFlood flood-color="#06061a" flood-opacity="0.078"/>
      <feComposite operator="in" in2="blur-3"/>
      <feComposite in="SourceGraphic"/>
    </filter>
    <filter id="Ellipse_4_copy_3" x="171.87" y="351.34" width="222.04" height="222.04" filterUnits="userSpaceOnUse">
      <feOffset dy="9" input="SourceAlpha"/>
      <feGaussianBlur stdDeviation="24.5" result="blur-4"/>
      <feFlood flood-color="#06061a" flood-opacity="0.078"/>
      <feComposite operator="in" in2="blur-4"/>
      <feComposite in="SourceGraphic"/>
    </filter>
    <filter id="Ellipse_4_copy_4" x="202.13" y="153.47" width="230.12" height="230.16" filterUnits="userSpaceOnUse">
      <feOffset dy="9" input="SourceAlpha"/>
      <feGaussianBlur stdDeviation="24.5" result="blur-5"/>
      <feFlood flood-color="#06061a" flood-opacity="0.078"/>
      <feComposite operator="in" in2="blur-5"/>
      <feComposite in="SourceGraphic"/>
    </filter>
    <filter id="Ellipse_4_copy_5" x="377.72" y="471.9" width="222" height="222.04" filterUnits="userSpaceOnUse">
      <feOffset dy="9" input="SourceAlpha"/>
      <feGaussianBlur stdDeviation="24.5" result="blur-6"/>
      <feFlood flood-color="#06061a" flood-opacity="0.078"/>
      <feComposite operator="in" in2="blur-6"/>
      <feComposite in="SourceGraphic"/>
    </filter>
    <filter id="Ellipse_4_copy_6" x="33.38" y="475.28" width="230.12" height="230.16" filterUnits="userSpaceOnUse">
      <feOffset dy="9" input="SourceAlpha"/>
      <feGaussianBlur stdDeviation="24.5" result="blur-7"/>
      <feFlood flood-color="#06061a" flood-opacity="0.078"/>
      <feComposite operator="in" in2="blur-7"/>
      <feComposite in="SourceGraphic"/>
    </filter>
    <filter id="Ellipse_4_copy_7" x="0" y="243.44" width="230.12" height="230.12" filterUnits="userSpaceOnUse">
      <feOffset dy="9" input="SourceAlpha"/>
      <feGaussianBlur stdDeviation="24.5" result="blur-8"/>
      <feFlood flood-color="#06061a" flood-opacity="0.078"/>
      <feComposite operator="in" in2="blur-8"/>
      <feComposite in="SourceGraphic"/>
    </filter>
  </defs>
  <g id="Industries" transform="translate(-75 -3197.47)">
    <g id="Group_3" data-name="Group 3">
      <g id="Ellipse_3" data-name="Ellipse 3" transform="translate(275.84 3446.34)" fill="none" stroke="#232323" stroke-width="2" opacity="0.102">
        <circle cx="111.3" cy="111.3" r="111.3" stroke="none"/>
        <circle cx="111.3" cy="111.3" r="110.3" fill="none"/>
      </g>
      <g id="Ellipse_3_copy" data-name="Ellipse 3 copy" transform="translate(188.5 3359)" fill="none" stroke="#232323" stroke-width="2" opacity="0.102">
        <circle cx="198.64" cy="198.64" r="198.64" stroke="none"/>
        <circle cx="198.64" cy="198.64" r="197.64" fill="none"/>
      </g>
      <g id="Ellipse_3_copy_2" data-name="Ellipse 3 copy 2" transform="translate(109.03 3279.53)" fill="none" stroke="#232323" stroke-width="2" opacity="0.102">
        <circle cx="278.11" cy="278.11" r="278.11" stroke="none"/>
        <circle cx="278.11" cy="278.11" r="277.11" fill="none"/>
      </g>
    </g>
    <g transform="matrix(1, 0, 0, 1, 75, 3197.47)" filter="url(#Ellipse_4)">
      <g id="Ellipse_4-2" data-name="Ellipse 4" transform="translate(87.72 71.75)" fill="#1e59cc" stroke="rgba(16,31,71,0.05)" stroke-linejoin="round" stroke-width="1">
        <circle cx="56.11" cy="56.11" r="56.11" stroke="none"/>
        <circle cx="56.11" cy="56.11" r="56.61" fill="none"/>
      </g>
    </g>
    <path id="Shape_17" data-name="Shape 17" d="M212.792,3341.682c-.923,0-1.484-.474-1.5-1.236s.551-1.251,1.463-1.254c1.578-.005,3.156,0,4.787,0v-2.484c-1.108,0-2.175.01-3.242,0-.656-.009-1.314,0-1.971,0a43.494,43.494,0,0,1-4.664-.137,8.562,8.562,0,0,1-7.532-8.35c-.044-3.507-.05-7.016,0-10.523a8.645,8.645,0,0,1,8.355-8.424q10.33-.108,20.662,0a8.645,8.645,0,0,1,8.345,8.509c.04,3.362.02,6.724.008,10.085a8.735,8.735,0,0,1-8.58,8.82c-1.606.047-3.213.021-4.819.008a1.265,1.265,0,0,1-1.409-1.249,1.248,1.248,0,0,1,1.4-1.243c.592-.011,1.187-.007,1.781,0a36.884,36.884,0,0,0,3.76-.108,6.047,6.047,0,0,0,5.366-5.891q.081-5.223,0-10.45a6.153,6.153,0,0,0-6.083-5.988q-10.112-.065-20.224,0a6.182,6.182,0,0,0-6.072,6.231c-.023,3.289-.016,6.577,0,9.865a6.242,6.242,0,0,0,6.34,6.349c2.094.015,4.189.013,6.284.009q1.6,0,3.208,0c1.219,0,1.63.4,1.637,1.61.006,1.092,0,2.183,0,3.366,1.657,0,3.187,0,4.718,0,.972,0,1.544.479,1.527,1.262-.016.762-.575,1.227-1.5,1.229l-6.024,0Zm-5.167-11.226a1.248,1.248,0,0,1,1.263-1.243,1.222,1.222,0,0,1,1.224,1.268,1.247,1.247,0,0,1-1.212,1.22h-.022A1.282,1.282,0,0,1,207.625,3330.456Z" fill="#fff"/>
    <text id="Technology" transform="translate(219.534 3403.393)" fill="#232323" font-size="18.548" font-family="Montserrat-SemiBold, Montserrat" font-weight="600" letter-spacing="0.045em" opacity="0.8"><tspan x="-59" y="0">Technology</tspan></text>
    <g transform="matrix(1, 0, 0, 1, 75, 3197.47)" filter="url(#Ellipse_4_copy)">
      <g id="Ellipse_4_copy-2" data-name="Ellipse 4 copy" transform="translate(377.22 65.5)" fill="#fff" stroke="rgba(16,31,71,0.05)" stroke-linejoin="round" stroke-width="1">
        <circle cx="40.11" cy="40.11" r="40.11" stroke="none"/>
        <circle cx="40.11" cy="40.11" r="40.61" fill="none"/>
      </g>
    </g>
    <path id="Shape_19" data-name="Shape 19" d="M486.028,3318.692c-.86-1.479-1.661-2.994-2.582-4.434a5.22,5.22,0,0,0-1.538-1.539c-1.423-.909-2.921-1.7-4.386-2.545a1.138,1.138,0,0,1-.543-1.738c.215-.435.425-.876.676-1.29a2.864,2.864,0,0,1,3.638-1.189c1.063.466,2.094,1.006,3.124,1.544a1.053,1.053,0,0,1,.491,1.455,1.066,1.066,0,0,1-1.459.491c-.881-.408-1.739-.867-2.611-1.295-.757-.373-1.131-.216-1.468.636,1.26.709,2.58,1.344,3.775,2.163a8.309,8.309,0,0,1,2.083,2.063c.842,1.206,1.5,2.538,2.237,3.811.852-.349,1-.714.622-1.466-.429-.848-.878-1.685-1.3-2.534a1.1,1.1,0,0,1,.439-1.625q4.863-3.332,9.726-6.666a1.1,1.1,0,0,1,1.832.636q1.839,5.258,3.661,10.522c.082.235.175.466.26.694a4.07,4.07,0,0,0,2.724-5.344c-1.1-3.215-2.232-6.418-3.337-9.629a1.72,1.72,0,0,1-.112-.857.979.979,0,0,1,.993-.819,1.076,1.076,0,0,1,1.117.846c1.024,2.972,2.069,5.938,3.074,8.917a11.268,11.268,0,0,1,.624,2.5,6.227,6.227,0,0,1-3.98,6.359c-.392.155-.795.286-1.194.421-.914.308-1.387.081-1.707-.833q-1.773-5.047-3.538-10.1c-.076-.217-.157-.432-.253-.695l-8.036,5.475c.328.677.656,1.336.967,2a2.916,2.916,0,0,1-1.363,4.027c-.337.177-.678.346-1.019.513a1.7,1.7,0,0,1-.719.206C486.579,3319.386,486.3,3319.166,486.028,3318.692Zm-.642-13.007a1.042,1.042,0,0,1-.014-1.3q1.2-1.754,2.406-3.5c.407-.589.825-1.17,1.3-1.842l-7.859-2.719c-1-.345-2-.683-3-1.031-.9-.315-1.177-.818-.8-1.713a12.71,12.71,0,0,1,1.46-2.917,6.174,6.174,0,0,1,7.042-1.916q4.285,1.471,8.556,2.98a1.01,1.01,0,0,0,1.094-.16c.846-.668,1.721-1.3,2.6-1.929a14.069,14.069,0,0,1,7.921-2.7,3.124,3.124,0,0,1,3.2,3.162,13.818,13.818,0,0,1-2.738,8.022,1.115,1.115,0,0,1-1.606.337,1.073,1.073,0,0,1-.152-1.62,12.541,12.541,0,0,0,2.306-6.285,1.167,1.167,0,0,0-1.382-1.408,12.682,12.682,0,0,0-6.912,2.731c-.881.692-1.807,1.325-2.7,2.008a1.431,1.431,0,0,1-1.478.217q-4.717-1.675-9.448-3.307a4.156,4.156,0,0,0-5.281,2.374,3.274,3.274,0,0,0-.092.348c1.6.555,3.167,1.1,4.739,1.648q3.174,1.1,6.347,2.2c1.138.4,1.332,1.088.626,2.08-1.409,1.979-2.8,3.974-4.211,5.95a1.865,1.865,0,0,1-.737.649,1.027,1.027,0,0,1-.383.077A.992.992,0,0,1,485.386,3305.686Z" fill="#232323" opacity="0.502"/>
    <text id="Travel" transform="translate(493.117 3363.514)" fill="#232323" font-size="18.548" font-family="Montserrat-SemiBold, Montserrat" font-weight="600" letter-spacing="0.045em" opacity="0.8"><tspan x="-30" y="0">Travel</tspan></text>
    <text id="E_Commerce" data-name="E Commerce" transform="translate(392.031 3520.245)" fill="#232323" font-size="18.548" font-family="Montserrat-SemiBold, Montserrat" font-weight="600" letter-spacing="0.045em" opacity="0.8"><tspan x="-65" y="0">E Commerce</tspan></text>
    <g transform="matrix(1, 0, 0, 1, 75, 3197.47)" filter="url(#Ellipse_4_copy_2)">
      <g id="Ellipse_4_copy_2-2" data-name="Ellipse 4 copy 2" transform="translate(473.94 323.5)" fill="#fff" stroke="rgba(16,31,71,0.05)" stroke-linejoin="round" stroke-width="1">
        <circle cx="36.2" cy="36.2" r="36.2" stroke="none"/>
        <circle cx="36.2" cy="36.2" r="36.7" fill="none"/>
      </g>
    </g>
    <path id="Shape_20" data-name="Shape 20" d="M584.051,3571.8a.744.744,0,0,0-.841-.472,2.334,2.334,0,0,1-.538,0,1.922,1.922,0,0,0-2.132.975,3.023,3.023,0,0,1-3.4,1.212,3.158,3.158,0,0,1-2.61-2.587,1.086,1.086,0,0,0-.65-.835,11.244,11.244,0,0,1-3.514-17.654,1.145,1.145,0,0,1,1.892.043,1.218,1.218,0,0,1-.249,1.585,8.711,8.711,0,0,0-2.2,5.8,9.118,9.118,0,0,0,5.7,8.481,1.554,1.554,0,0,1,1.2,1.689,1.088,1.088,0,0,0,1.067,1.289c.688.039,1.077-.328,1.214-1.141a1.161,1.161,0,0,1,1.266-1.132q2.19-.035,4.38,0a1.155,1.155,0,0,1,1.28,1.183c.112.848.521,1.256,1.219,1.218.662-.037,1.058-.478,1.076-1.3a1.255,1.255,0,0,1,1.06-1.342,9.229,9.229,0,0,0,4.822-3.038,1.138,1.138,0,0,1,1.711-.259,1.17,1.17,0,0,1,.01,1.783,11.135,11.135,0,0,1-4.818,3.335,1.044,1.044,0,0,0-.7.708,3.234,3.234,0,0,1-2.908,2.26q-.2.018-.385.018A3.215,3.215,0,0,1,584.051,3571.8Zm14.487-7.379a1.147,1.147,0,0,1-1.23-1.074,1.173,1.173,0,0,1,1.094-1.223c1.037-.136,1.318-.446,1.323-1.47,0-.584.005-1.168,0-1.753-.011-.943-.423-1.364-1.349-1.376q-.707-.011-1.415,0a1.2,1.2,0,0,1-1.245-.84,9.272,9.272,0,0,0-2.011-3.237,1.312,1.312,0,0,1-.24-1.441c.38-1.138.746-2.283,1.145-3.508a3.056,3.056,0,0,0-2.382,1.888c-.421.983-.819,1.109-1.841.817a12.617,12.617,0,0,0-3.017-.593c-2.738-.082-5.479-.064-8.218-.011a13.663,13.663,0,0,0-2.58.417c-.809.175-1.436-.094-1.616-.777a1.136,1.136,0,0,1,.982-1.42,19.228,19.228,0,0,1,3.317-.473c2.6-.067,5.21-.05,7.815-.006a17.186,17.186,0,0,1,2.8.337.7.7,0,0,0,.837-.3,5.418,5.418,0,0,1,3.4-2.134,2.288,2.288,0,0,1,2.72,2.876c-.237.842-.508,1.677-.817,2.495a1.086,1.086,0,0,0,.185,1.215,8.629,8.629,0,0,1,1.106,1.761.985.985,0,0,0,1.077.635,3.206,3.206,0,0,1,3.507,2.6,13.536,13.536,0,0,1-.023,4.075,3.2,3.2,0,0,1-3.258,2.514Zm-6.884-7.942a1.154,1.154,0,0,1,1.131-1.167,1.12,1.12,0,0,1,1.164,1.119,1.15,1.15,0,0,1-1.116,1.179h-.022A1.182,1.182,0,0,1,591.655,3556.48Zm-12.69-9.212a1.151,1.151,0,0,1-1.1-1.277,4.6,4.6,0,1,1,9.193-.2c-.005.824-.4,1.323-1.084,1.357-.7.036-1.138-.408-1.217-1.228a2.3,2.3,0,0,0-4.589.1,1.183,1.183,0,0,1-1.155,1.251Z" fill="#232323" opacity="0.502"/>
    <text id="Banking" transform="translate(585.857 3614.84)" fill="#232323" font-size="18.548" font-family="Montserrat-SemiBold, Montserrat" font-weight="600" letter-spacing="0.045em" opacity="0.8"><tspan x="-42" y="0">Banking</tspan></text>
    <g transform="matrix(1, 0, 0, 1, 75, 3197.47)" filter="url(#Ellipse_4_copy_3)">
      <g id="Ellipse_4_copy_3-2" data-name="Ellipse 4 copy 3" transform="translate(246.37 416.84)" fill="#fff" stroke="rgba(16,31,71,0.05)" stroke-linejoin="round" stroke-width="1">
        <circle cx="36.52" cy="36.52" r="36.52" stroke="none"/>
        <circle cx="36.52" cy="36.52" r="37.02" fill="none"/>
      </g>
    </g>
    <path id="Shape_21" data-name="Shape 21" d="M370.223,3645.232c-4-1.355-7.81-2.65-11.628-3.933a.9.9,0,0,0-.54,0q-5.634,1.908-11.261,3.838a2.066,2.066,0,0,0-.289.172l3.013,1.12c2.767,1.031,5.531,2.072,8.308,3.078a1.617,1.617,0,0,0,1.013-.005c1.806-.649,3.6-1.344,5.392-2.022.835-.315,1.469-.113,1.69.531s-.088,1.176-.9,1.479c-2,.745-3.986,1.509-6,2.2a2.242,2.242,0,0,1-1.391,0c-4.839-1.754-9.662-3.552-14.492-5.331-.554-.2-1.018-.488-1.016-1.137,0-.68.483-.949,1.072-1.148q7.193-2.437,14.372-4.912a2.229,2.229,0,0,1,1.534,0q7.181,2.47,14.371,4.913c.9.308,1.089.574,1.089,1.526,0,4.894.013,9.788-.024,14.681a1.589,1.589,0,0,1-.56,1.09,1.269,1.269,0,0,1-1.047-.008c-.483-.2-.536-.69-.535-1.184q.014-6.3.005-12.593v-.812c-.7.262-1.343.477-1.958.762-.13.06-.2.38-.2.58-.015,1.877-.007,3.755-.009,5.632a5.439,5.439,0,0,1-5.762,5.755q-6.151.011-12.3,0a5.441,5.441,0,0,1-5.763-5.755c0-.95-.008-1.9,0-2.847a1.107,1.107,0,0,1,1.086-1.221,1.079,1.079,0,0,1,1.073,1.219c.008,1.012-.008,2.025,0,3.037a3.218,3.218,0,0,0,3.352,3.354q6.4.017,12.809,0a3.206,3.206,0,0,0,3.332-3.307c.021-2.214.005-4.429.006-6.645,0-1.18.1-1.316,1.233-1.744C369.557,3645.51,369.8,3645.4,370.223,3645.232Z" fill="#232323" opacity="0.502"/>
    <text id="Education" transform="translate(357.717 3706.652)" fill="#232323" font-size="18.548" font-family="Montserrat-SemiBold, Montserrat" font-weight="600" letter-spacing="0.045em" opacity="0.8"><tspan x="-52" y="0">Education</tspan></text>
    <g transform="matrix(1, 0, 0, 1, 75, 3197.47)" filter="url(#Ellipse_4_copy_4)">
      <g id="Ellipse_4_copy_4-2" data-name="Ellipse 4 copy 4" transform="translate(276.63 218.97)" fill="#fff" stroke="rgba(16,31,71,0.05)" stroke-linejoin="round" stroke-width="1">
        <ellipse cx="40.56" cy="40.58" rx="40.56" ry="40.58" stroke="none"/>
        <ellipse cx="40.56" cy="40.58" rx="41.06" ry="41.08" fill="none"/>
      </g>
    </g>
    <path id="Shape_18" data-name="Shape 18" d="M400.389,3473.246a3.786,3.786,0,1,1,.023,0Zm-1.59-3.767a1.642,1.642,0,0,0,1.621,1.608,1.618,1.618,0,0,0,1.606-1.61,1.635,1.635,0,0,0-1.582-1.644h-.038A1.638,1.638,0,0,0,398.8,3469.479Zm-15.136,0a3.784,3.784,0,1,1,3.8,3.768h-.018A3.794,3.794,0,0,1,383.663,3469.478Zm3.748-1.645a1.624,1.624,0,1,0,.037,0Zm.18-3.226a7.576,7.576,0,0,1-7.715-7.762c-.008-4.14,0-8.282,0-12.423,0-1.138-.333-1.472-1.462-1.474q-.319,0-.635,0c-.4,0-.8,0-1.2-.005-.7-.019-1.02-.363-1.021-1.069s.311-1.067,1.006-1.083c.8-.019,1.6-.028,2.406.005a3.191,3.191,0,0,1,3.056,3.121c.027,1.092.005,2.185.005,3.351h22.207c2.465,0,3.746,1.28,3.747,3.741q0,3.992,0,7.986a5.411,5.411,0,0,1-5.579,5.612q-3.825.008-7.651.009Q391.171,3464.618,387.59,3464.607Zm-4.873-15.174c-.205,0-.41.02-.652.032-.012.244-.03.45-.03.655,0,2.24-.007,4.479,0,6.718a5.42,5.42,0,0,0,5.589,5.607q7.343.02,14.684,0a3.28,3.28,0,0,0,3.509-3.534q.009-4.026.005-8.049c0-1.069-.366-1.429-1.459-1.429H382.718Zm11.193,10.938c-.658-.007-1.068-.487-1.071-1.287q-.008-3.066,0-6.132c0-.845.425-1.35,1.091-1.342s1.065.51,1.071,1.364c.007,1.032,0,2.064,0,3.1,0,1.011.008,2.023,0,3.034-.007.788-.425,1.266-1.078,1.267Zm5.428-1.217c-.008-1.054,0-2.107,0-3.161s-.007-2.108,0-3.162a1.094,1.094,0,0,1,1.072-1.221,1.113,1.113,0,0,1,1.081,1.23q.019,3.16,0,6.322a1.088,1.088,0,0,1-1.091,1.209A1.076,1.076,0,0,1,399.339,3459.155Zm-12.99.006q-.016-3.162,0-6.323a1.111,1.111,0,0,1,1.083-1.228,1.1,1.1,0,0,1,1.071,1.224c.011,1.075,0,2.149,0,3.225,0,1.032.006,2.064,0,3.1a1.075,1.075,0,0,1-1.069,1.215A1.087,1.087,0,0,1,386.349,3459.161Z" fill="#232323" opacity="0.502"/>
    <g transform="matrix(1, 0, 0, 1, 75, 3197.47)" filter="url(#Ellipse_4_copy_5)">
      <g id="Ellipse_4_copy_5-2" data-name="Ellipse 4 copy 5" transform="translate(452.22 537.4)" fill="#fff" stroke="rgba(16,31,71,0.05)" stroke-linejoin="round" stroke-width="1">
        <ellipse cx="36.5" cy="36.52" rx="36.5" ry="36.52" stroke="none"/>
        <ellipse cx="36.5" cy="36.52" rx="37" ry="37.02" fill="none"/>
      </g>
    </g>
    <path id="Shape_23" data-name="Shape 23" d="M550.473,3787.169a3.224,3.224,0,0,1-3.365-3.348q-.011-10.714,0-21.429a3.249,3.249,0,0,1,3.353-3.368h.127c.571,0,1.034,0,1.418,0,2.28-.017,1.8-.035,4.768,1.509,4.1,2.128,8.189,4.284,12.284,6.427.218.113.442.213.762.368v-.765q0-4.122,0-8.242a3.3,3.3,0,0,1,3.618-3.618h2.408c2.442,0,3.723,1.271,3.723,3.7q0,10.587,0,21.175c0,1.415.008,2.833,0,4.248a3.23,3.23,0,0,1-3.362,3.352q-6.433.005-12.866.005T550.473,3787.169Zm.24-26c-1.081.091-1.446.375-1.446,1.459q0,10.46,0,20.922c0,1.092.355,1.452,1.434,1.452q5.45,0,10.9,0c.2,0,.4-.017.642-.028v-.77c0-1.479-.015-2.959,0-4.438a3.235,3.235,0,0,1,3.427-3.415c.528-.007,1.056,0,1.584,0,2.393.006,3.666,1.284,3.668,3.688,0,1.623,0,3.248,0,4.958,1.745,0,3.389,0,5.034,0,1.086,0,1.448-.362,1.448-1.444,0-2.873-.029-5.748.01-8.622a1.664,1.664,0,0,0-1.038-1.685c-6.945-3.614-13.9-7.216-20.8-10.91a8.812,8.812,0,0,0-4.235-1.193Q551.035,3761.142,550.712,3761.169Zm14.956,17.349c-.855.015-1.227.382-1.233,1.25-.011,1.585,0,3.171,0,4.756a3.5,3.5,0,0,0,.058.447h4.268c0-1.83.016-3.582-.008-5.334a1.061,1.061,0,0,0-1.183-1.117q-.466-.011-.932-.01Q566.154,3778.51,565.669,3778.518Zm6.343-10.315c0,.163.227.378.4.474.9.5,1.824.968,2.74,1.444.722.376,1.448.749,2.207,1.141v-8.96h-5.366C571.994,3764.325,571.983,3766.264,572.012,3768.2Zm1.1-11.33a.962.962,0,0,0-1.055.821,23.833,23.833,0,0,0-.02,2.392h5.375c0-.745.016-1.421,0-2.1a1.067,1.067,0,0,0-1.125-1.117q-.762-.015-1.524-.014Q573.931,3756.859,573.109,3756.872Zm-20,21.088c-.767-.009-1.218-.406-1.227-1.058a1.075,1.075,0,0,1,1.192-1.1q2.687-.02,5.376,0a1.094,1.094,0,0,1,1.2,1.1c-.008.642-.473,1.052-1.232,1.06-.907.01-1.813,0-2.719,0l-1.579,0Q553.619,3777.964,553.112,3777.96Zm2.622-6.5c-.885,0-1.771.007-2.656,0a1.083,1.083,0,1,1-.032-2.158q2.72-.02,5.44,0a1.1,1.1,0,0,1,1.172,1.07,1.08,1.08,0,0,1-1.2,1.087q-.532,0-1.064,0Z" fill="#232323" opacity="0.502"/>
    <text id="Manufacturing" transform="translate(564.527 3827.214)" fill="#232323" font-size="18.548" font-family="Montserrat-SemiBold, Montserrat" font-weight="600" letter-spacing="0.045em" opacity="0.8"><tspan x="-76" y="0">Manufacturing</tspan></text>
    <g transform="matrix(1, 0, 0, 1, 75, 3197.47)" filter="url(#Ellipse_4_copy_6)">
      <g id="Ellipse_4_copy_6-2" data-name="Ellipse 4 copy 6" transform="translate(107.88 540.78)" fill="#fff" stroke="rgba(16,31,71,0.05)" stroke-linejoin="round" stroke-width="1">
        <ellipse cx="40.56" cy="40.58" rx="40.56" ry="40.58" stroke="none"/>
        <ellipse cx="40.56" cy="40.58" rx="41.06" ry="41.08" fill="none"/>
      </g>
    </g>
    <path id="Shape_24" data-name="Shape 24" d="M211.424,3795.055a5.739,5.739,0,0,1-5.821-5.739q-.063-7,0-13.993a5.8,5.8,0,0,1,6.031-5.783c5.369-.016,10.738,0,16.107,0h1.028c0-1.241.036-2.384-.014-3.523a1.073,1.073,0,0,0-1.149-1.092q-4.617-.025-9.236,0a1.14,1.14,0,0,0-1.184,1.224c-.016.327,0,.654,0,1.027h-2.218c-.467-2.73,1.06-4.568,3.78-4.571q4.313-.005,8.626,0a3.453,3.453,0,0,1,3.714,3.719c0,1.018,0,2.036,0,3.152.292.013.559.029.825.037.385.011.771.01,1.158.009a16.208,16.208,0,0,1,2.494.121,5.6,5.6,0,0,1,4.788,5.518q.08,7.11,0,14.222a5.715,5.715,0,0,1-5.8,5.677q-5.694.012-11.389.012Q217.293,3795.067,211.424,3795.055Zm-3.513-19.416q-.017,6.575,0,13.149c0,2.591,1.375,3.962,3.957,3.962q11.106,0,22.211,0c2.591,0,3.973-1.37,3.973-3.946q0-6.5-.016-13a6.709,6.709,0,0,0-.087-1.141,3.181,3.181,0,0,0-3.4-2.655v18.4h-2.29v-1c0-5.556-.014-11.112.016-16.667,0-.716-.208-.891-.9-.888q-8.395.04-16.791,0c-.7,0-.9.184-.891.892.03,5.58.016,11.162.016,16.743v.9h-2.339v-18.448H211.3A3.394,3.394,0,0,0,207.911,3775.639Zm13.923,11.25v-3.407H218.4v-2.34h3.4c0-.579.008-1.135.008-1.679,0-.373,0-.741-.018-1.109,0-.024,0-.047,0-.07,0-.461.15-.642.679-.643h.324c1.359,0,1.359.09,1.359,1.685v1.8h3.394v2.314h-3.386v3.447Z" fill="#232323" opacity="0.502"/>
    <text id="Hospital" transform="translate(224.171 3839.271)" fill="#232323" font-size="18.548" font-family="Montserrat-SemiBold, Montserrat" font-weight="600" letter-spacing="0.045em" opacity="0.8"><tspan x="-42" y="0">Hospital</tspan></text>
    <g transform="matrix(1, 0, 0, 1, 75, 3197.47)" filter="url(#Ellipse_4_copy_7)">
      <g id="Ellipse_4_copy_7-2" data-name="Ellipse 4 copy 7" transform="translate(74.5 308.94)" fill="#fff" stroke="rgba(16,31,71,0.05)" stroke-linejoin="round" stroke-width="1">
        <circle cx="40.56" cy="40.56" r="40.56" stroke="none"/>
        <circle cx="40.56" cy="40.56" r="41.06" fill="none"/>
      </g>
    </g>
    <path id="Shape_22" data-name="Shape 22" d="M193.108,3539.9c1.923,0,3.693-.016,5.462,0a7.487,7.487,0,0,1,7.081,5,8.863,8.863,0,0,1,.458,2.6c.065,2.09.025,4.184.02,6.276a3.228,3.228,0,0,1-2.948,3.431.652.652,0,0,0-.609.49,4.29,4.29,0,0,1-8.018-.017.608.608,0,0,0-.7-.445c-2.28.011-4.559.015-6.839,0a.61.61,0,0,0-.671.477,4.289,4.289,0,0,1-7.994.019.636.636,0,0,0-.728-.5,5.75,5.75,0,0,1-1.321-.081,3.149,3.149,0,0,1-2.6-3.079q-.028-8.209,0-16.42a3.1,3.1,0,0,1,3.043-3.12q6.68-.064,13.36,0a3.04,3.04,0,0,1,2.987,2.752A24.8,24.8,0,0,1,193.108,3539.9Zm-2.142,15.155c.011-.251.031-.477.031-.7q0-8.084,0-16.168c0-1.194-.313-1.508-1.5-1.508q-6.08,0-12.159,0c-1.178,0-1.491.32-1.491,1.508q0,7.672,0,15.344c0,.148-.006.3,0,.444a1.08,1.08,0,0,0,.955,1.092c.956.184,1.283.037,1.578-.6a4.3,4.3,0,0,1,7.865-.108c.111.226.2.464.3.7Zm11.8.019c.874-.134,1.2-.461,1.2-1.239.01-2.176.037-4.352,0-6.526a5.233,5.233,0,0,0-4.687-5.138c-1.97-.159-3.961-.06-5.942-.072-.035,0-.071.042-.107.065v12.874c1.039.1,1.025.09,1.454-.755a4.3,4.3,0,0,1,7.808.123C202.582,3554.609,202.661,3554.826,202.762,3555.069Zm-18.282,1.1a2.158,2.158,0,0,0-2.155-2.185,2.2,2.2,0,0,0-2.152,2.143,2.153,2.153,0,0,0,2.107,2.168A2.125,2.125,0,0,0,184.48,3556.172Zm16.218-.047a2.157,2.157,0,0,0-2.139-2.138,2.2,2.2,0,0,0-2.167,2.19,2.152,2.152,0,0,0,2.155,2.121A2.123,2.123,0,0,0,200.7,3556.125Z" fill="#232323" opacity="0.502"/>
    <text id="Logistics_Shipping" data-name="Logistics &amp; Shipping" transform="translate(190.785 3607.421)" fill="#232323" font-size="18.548" font-family="Montserrat-SemiBold, Montserrat" font-weight="600" letter-spacing="0.045em" opacity="0.8"><tspan x="-104" y="0">Logistics &amp; Shipping</tspan></text>
  </g>
</svg>
