<svg xmlns="http://www.w3.org/2000/svg" width="512" height="512" viewBox="0 0 64 64">
    <path fill="#FFF" d="M11 4v56h37.7l-.908-.6A12.973 12.973 0 0 1 42 48.578V43a1 1 0 0 1 .594-.914l8.471-3.765A.981.981 0 0 1 51 38V12h-8a1 1 0 0 1-1-1V4zm11 7a3 3 0 0 1 3-3h12a3 3 0 0 1 3 3v12a3 3 0 0 1-3 3H25a3 3 0 0 1-3-3zm-4 19h1a1 1 0 0 1 0 2h-1a1 1 0 0 1 0-2zm0 4h5a1 1 0 0 1 0 2h-5a1 1 0 0 1 0-2zm18 22H18a1 1 0 0 1 0-2h18a1 1 0 0 1 0 2zm3-4H18a1 1 0 0 1 0-2h21a1 1 0 0 1 0 2zm0-4H18a1 1 0 0 1 0-2h21a1 1 0 0 1 0 2zm-22-5a1 1 0 0 1 1-1h2a1 1 0 0 1 0 2h-2a1 1 0 0 1-1-1zm22 1H24a1 1 0 0 1 0-2h15a1 1 0 0 1 0 2zm1-4H18a1 1 0 0 1 0-2h22a1 1 0 0 1 0 2zm4-4H27a1 1 0 0 1 0-2h17a1 1 0 0 1 0 2zm0-6a1 1 0 0 1 0 2H23a1 1 0 0 1 0-2z" class="active-path" data-old_color="#000000" data-original="#000000"/>
    <path fill="#FFF" d="M60 48.578V43.65l-8-3.556-8 3.556v4.928a10.976 10.976 0 0 0 4.9 9.152L52 59.8l3.1-2.068a10.976 10.976 0 0 0 4.9-9.154zm-9.293 5.129a1 1 0 0 1-1.414 0l-3-3a1 1 0 0 1 1.414-1.414L50 51.586l6.293-6.293a1 1 0 0 1 1.414 1.414zM25 24h12a1 1 0 0 0 1-1V11a1 1 0 0 0-1-1h-3v7a1 1 0 0 1-1.447.895L31 17.118l-1.553.777A1 1 0 0 1 28 17v-7h-3a1 1 0 0 0-1 1v12a1 1 0 0 0 1 1zM44 4.414V10h5.586L44 4.414z" class="active-path" data-old_color="#000000" data-original="#000000"/>
    <path fill="#FFF" d="M31 15a1 1 0 0 1 .447.105l.553.277V10h-2v5.382l.553-.277A1 1 0 0 1 31 15z" class="active-path" data-old_color="#000000" data-original="#000000"/>
</svg>
