<svg xmlns="http://www.w3.org/2000/svg" width="34.227" height="35.017" viewBox="0 0 34.227 35.017">
  <path id="Shape_12" data-name="Shape 12" d="M966.037,3058.2a1.4,1.4,0,0,1-1.112-1.372c-.13-1.629-.421-1.957-2.058-1.882a5.3,5.3,0,0,1-5.613-4.189,26.934,26.934,0,0,1-.328-3.26c-.028-.4-.113-.569-.557-.661a3.554,3.554,0,0,1-2.468-5.144c.772-1.437,1.773-2.75,2.642-4.135a2.452,2.452,0,0,0,.386-1.046c.571-6.979,4.658-11.587,11.554-12.993a8.013,8.013,0,0,1,.878-.132,1.382,1.382,0,0,1,1.49,1.126,1.337,1.337,0,0,1-1.021,1.55c-.924.235-1.88.374-2.776.685a10.279,10.279,0,0,0-7.285,9.224,9.759,9.759,0,0,1-.122,1.222,5.127,5.127,0,0,1-.533,1.489c-.848,1.346-1.8,2.631-2.643,3.978-.519.826-.208,1.393.745,1.546a2.529,2.529,0,0,1,2.419,2.7c.076,1.021.153,2.044.271,3.062a2.458,2.458,0,0,0,2.5,2.233c.182,0,.365,0,.548,0a6.5,6.5,0,0,1,1.292.07,4.16,4.16,0,0,1,3.456,4.178,5.513,5.513,0,0,1-.2.991,1.314,1.314,0,0,1-1.218.783A1.284,1.284,0,0,1,966.037,3058.2Zm14.557-1.639q0-2.19,0-4.378h.129c0-1.8-.078-3.6.024-5.392a9.246,9.246,0,0,1,1.564-4.18,1.31,1.31,0,0,1,1.844-.468,1.419,1.419,0,0,1,.514,1.848c-.45,1.109-.872,2.23-1.257,3.363a3.491,3.491,0,0,0-.081,1.084c-.005,2.714,0,5.427,0,8.14,0,1.008-.508,1.623-1.341,1.638h-.033C981.111,3058.219,980.6,3057.6,980.594,3056.564Zm2.192-16.888a3.048,3.048,0,0,1-3.151-3.277c0-.5,0-1,0-1.5,0-.637-.017-1.276.005-1.913a1.361,1.361,0,0,1,2.722.016c.023,1.093.028,2.187,0,3.28-.014.519.194.682.682.673,1.025-.018,2.051-.016,3.076,0,1,.015,1.6.556,1.589,1.389-.014.8-.609,1.325-1.57,1.338-.614.008-1.228.016-1.842.016C983.792,3039.7,983.289,3039.691,982.786,3039.676Zm-7.528-1.66a7.762,7.762,0,0,1-3.76-5.051,7.971,7.971,0,1,1,15.735-1.949,7.164,7.164,0,0,1-.72,3.293c-.444.9-1.167,1.219-1.931.849a1.383,1.383,0,0,1-.557-1.986,5.2,5.2,0,1,0-7.835,2.188c.166.12.344.222.516.332a1.4,1.4,0,0,1,.591,1.975,1.272,1.272,0,0,1-1.106.632A1.834,1.834,0,0,1,975.259,3038.016Z" transform="translate(-953.48 -3023.209)" fill="#232323" opacity="0.6"/>
</svg>
