<svg xmlns="http://www.w3.org/2000/svg" width="39.151" height="35.021" viewBox="0 0 39.151 35.021">
  <path id="Shape_19" data-name="Shape 19" d="M198.308,3466.237a4.581,4.581,0,0,1-1.009-9.1,8.088,8.088,0,0,1,.989-.069q14.7-.005,29.4,0a4.579,4.579,0,0,1,1.01,9.093,10.9,10.9,0,0,1-1.372.072q-7.179.008-14.358,0-4.359,0-8.72,0Q201.28,3466.244,198.308,3466.237Zm29.041-3.053c1.438,0,2.181-.539,2.159-1.56-.022-.994-.739-1.5-2.144-1.5H198.65c-1.44,0-2.18.537-2.158,1.559.022.995.736,1.5,2.144,1.5h28.714Zm-30.07-9.028a1.886,1.886,0,0,1-.751-1.3c-.054-4.356-.125-8.716,0-13.068.137-4.8,4.241-8.49,9.306-8.553,2.394-.03,4.789,0,7.184,0v.058c2.725,0,5.455-.108,8.174.025a9.028,9.028,0,0,1,8.3,8.662c.057,4.253.018,8.51.011,12.764a1.528,1.528,0,1,1-3.046,0c-.008-4.025,0-8.051,0-12.076a6.077,6.077,0,0,0-6.249-6.365q-7.221-.054-14.443,0a6.068,6.068,0,0,0-6.214,6.322c0,4.026.005,8.051,0,12.077a1.608,1.608,0,0,1-1.484,1.712A1.353,1.353,0,0,1,197.279,3454.155Zm19.179-1.041a3.728,3.728,0,0,0-6.77.011c-.393,1.053-1.164,1.495-2.028,1.165a1.573,1.573,0,0,1-.832-2.215c.892-2.655,3.23-4.2,6.329-4.179a6.167,6.167,0,0,1,6.169,4.188,1.57,1.57,0,0,1-.843,2.209,1.539,1.539,0,0,1-.542.1C217.308,3454.4,216.773,3453.945,216.458,3453.114Zm-7.958-11.761a4.806,4.806,0,1,1,4.819,4.852H213.3A4.8,4.8,0,0,1,208.5,3441.353Zm3.063.008a1.742,1.742,0,1,0,1.76-1.705H213.3A1.712,1.712,0,0,0,211.563,3441.361Z" transform="translate(-193.425 -3431.223)" fill="#232323" opacity="0.6"/>
</svg>
