<svg xmlns="http://www.w3.org/2000/svg" width="35.014" height="35.017" viewBox="0 0 35.014 35.017">
  <path id="Shape_22" data-name="Shape 22" d="M953.477,3448.957a17.507,17.507,0,1,1,17.53,17.536A17.5,17.5,0,0,1,953.477,3448.957Zm2.732.04a14.775,14.775,0,1,0,14.763-14.788A14.809,14.809,0,0,0,956.209,3449Zm7.849,4.937a1.329,1.329,0,0,1,.323-1.878,1.434,1.434,0,0,1,1.895.3,12.365,12.365,0,0,0,1.956,1.876c2.246,1.509,5.027.952,6.876-1.281.16-.193.3-.4.461-.593a1.386,1.386,0,0,1,1.887-.292,1.331,1.331,0,0,1,.314,1.88,7.993,7.993,0,0,1-13.712-.006Zm11.17-9.441a1.707,1.707,0,1,1,1.712,1.676h-.005A1.7,1.7,0,0,1,975.227,3444.492Zm-10.29,1.673a1.693,1.693,0,1,1,.029,0Z" transform="translate(-953.477 -3431.476)" fill="#232323" opacity="0.6"/>
</svg>
