<svg xmlns="http://www.w3.org/2000/svg" width="35.075" height="35.023" viewBox="0 0 35.075 35.023">
  <path id="Shape_14" data-name="Shape 14" d="M214.56,3258.854a1.7,1.7,0,0,1,.17-2.3c.341-.367.71-.708,1.074-1.053a1.729,1.729,0,0,1,3.017.612,2.048,2.048,0,0,0,2.308,1.471,2.5,2.5,0,0,0,1.166-.515c1.139-1.071,2.228-2.2,3.316-3.321a2.035,2.035,0,0,0,.351-.658,1.867,1.867,0,0,0-1.085-2.611c-1.733-.725-2.005-2-.711-3.332.254-.262.5-.527.762-.785a1.781,1.781,0,0,1,2.618-.157,6.387,6.387,0,0,1,2.382,5.279,9.444,9.444,0,0,1-2.332,5.415,11.343,11.343,0,0,1-7.2,4.445,7.09,7.09,0,0,1-1.024.077A5.794,5.794,0,0,1,214.56,3258.854Zm-3.946,2.473a16.835,16.835,0,0,1-10.1-4.639,17.155,17.155,0,0,1-5.392-9.951c-.156-.94-.181-1.9-.266-2.851a17.558,17.558,0,0,1,34.751-3.5,16.645,16.645,0,0,1,.267,1.96,1.343,1.343,0,0,1-1.178,1.5,1.362,1.362,0,0,1-1.523-1.14,31.7,31.7,0,0,0-1.31-4.777,13.644,13.644,0,0,0-11.344-8.5,14.6,14.6,0,0,0-12.049,3.547,14.24,14.24,0,0,0-4.658,9.018,14.655,14.655,0,0,0,7.5,14.9,14.079,14.079,0,0,0,5.294,1.68,3.673,3.673,0,0,1,.4.079,1.3,1.3,0,0,1,1.167,1.606,1.245,1.245,0,0,1-1.344,1.08Q210.723,3261.338,210.614,3261.327Zm-4.222-10.794a1.242,1.242,0,0,1-.667-1.5,2,2,0,0,1,.526-.843c1.209-1.238,2.452-2.443,3.655-3.687a3.347,3.347,0,0,0,.488-.912c.077-.163.068-.39.183-.508.614-.636.48-1.424.481-2.184,0-2.094,0-4.188,0-6.283,0-1,.522-1.614,1.354-1.625s1.373.594,1.376,1.594c.005,1.206,0,2.412,0,3.619q0,1.366,0,2.732a3.733,3.733,0,0,0,.453,2.127,2,2,0,0,1-1.493,2.909,1.657,1.657,0,0,0-.8.4c-1.307,1.269-2.585,2.568-3.877,3.85a1.455,1.455,0,0,1-1.025.479A1.4,1.4,0,0,1,206.393,3250.534Z" transform="translate(-194.854 -3226.395)" fill="#232323" opacity="0.6"/>
</svg>
