<svg xmlns="http://www.w3.org/2000/svg" width="35.041" height="35.009" viewBox="0 0 35.041 35.009">
  <path id="Shape_9" data-name="Shape 9" d="M200.092,3055.507a11.129,11.129,0,0,1-4.05-2.591,4.2,4.2,0,0,1,.041-6.307,13.6,13.6,0,0,1,6.46-3.353,1.352,1.352,0,0,1,1.508,1,1.369,1.369,0,0,1-.893,1.64,19.832,19.832,0,0,0-2.118.748,15.346,15.346,0,0,0-2.79,1.677c-1.183.96-1.146,1.9-.025,2.926a11.7,11.7,0,0,0,5.113,2.464,34.514,34.514,0,0,0,11.241,1.012,26.6,26.6,0,0,0,8.391-1.683,12.96,12.96,0,0,0,2.953-1.663c1.377-1.05,1.343-2.054.024-3.2a11.77,11.77,0,0,0-4.178-2.1c-.216-.071-.441-.116-.651-.2a1.348,1.348,0,0,1-.826-1.662,1.335,1.335,0,0,1,1.668-.909,14.017,14.017,0,0,1,5.932,2.948c2.446,2.239,2.366,5.095-.183,7.225a15.624,15.624,0,0,1-7.434,3.215c-2.68.482-5.407.7-6.923.89C208.025,3057.443,203.957,3057.079,200.092,3055.507Zm10.426-4.4a2.8,2.8,0,0,1-2.327-2.875,5.454,5.454,0,0,0-1.81-3.981,1.9,1.9,0,0,1-.661-1.561c.059-1.748-.058-3.515.165-5.241a5.872,5.872,0,0,1,5.244-4.8c2.22-.206,4.274.1,5.9,1.81a5.754,5.754,0,0,1,1.691,4.113c0,.682,0,1.365,0,2.048a21.893,21.893,0,0,1-.023,2.319,2.055,2.055,0,0,1-.518,1.185,5.924,5.924,0,0,0-1.928,4.291,2.751,2.751,0,0,1-2.219,2.677,12.346,12.346,0,0,1-1.826.136A11.689,11.689,0,0,1,210.518,3051.106Zm.993-15.726a3.234,3.234,0,0,0-3.045,3.258q-.03,1.708.007,3.417a1.118,1.118,0,0,0,.256.654,8.617,8.617,0,0,1,2.211,5.314.705.705,0,0,0,.473.48,5.078,5.078,0,0,0,.852.029c.194,0,.388-.009.581,0,.482.026.674-.128.7-.651a6.745,6.745,0,0,1,1.393-4.065,3.829,3.829,0,0,0,1.049-3.274c0-.846.008-1.417,0-1.985a3.234,3.234,0,0,0-2.5-3.112,6.1,6.1,0,0,0-1.16-.1C212.051,3035.346,211.779,3035.36,211.511,3035.381Zm.637-3.94a4.41,4.41,0,0,1-4.408-4.369,4.355,4.355,0,0,1,4.406-4.5,4.434,4.434,0,1,1,.008,8.867Zm.008-6.148a1.692,1.692,0,0,0-1.678,1.635,1.656,1.656,0,0,0,1.661,1.778,1.7,1.7,0,0,0,1.732-1.729,1.727,1.727,0,0,0-1.709-1.685Z" transform="translate(-194.636 -3022.573)" fill="#fff" opacity="0.902"/>
</svg>
