<svg xmlns="http://www.w3.org/2000/svg" width="35.018" height="35.016" viewBox="0 0 35.018 35.016">
  <path id="Shape_20" data-name="Shape 20" d="M464.973,3465.537q-5.233,0-10.463,0a6.829,6.829,0,0,1-7-6.99q0-5.06,0-10.12a3.962,3.962,0,0,1,2.194-3.738,3.908,3.908,0,0,1,4.316.3q4.956,3.461,9.9,6.945a1.5,1.5,0,0,0,2.213-.008c3.28-2.3,6.548-4.621,9.841-6.906a4.085,4.085,0,0,1,6.5,2.6,4.514,4.514,0,0,1,.054.884q.005,5.026,0,10.052a6.832,6.832,0,0,1-6.949,6.974l-4.543,0ZM475.5,3462.8a4.116,4.116,0,0,0,4.288-4.3c0-3.283-.006-6.565.007-9.849a1.546,1.546,0,0,0-.756-1.557,1.506,1.506,0,0,0-1.7.3q-4.8,3.388-9.61,6.76a4.165,4.165,0,0,1-5.464-.028q-4.8-3.383-9.611-6.759a1.477,1.477,0,0,0-1.645-.279,1.526,1.526,0,0,0-.777,1.544c.014,3.282,0,6.565.007,9.848a4.121,4.121,0,0,0,4.333,4.329q5.233,0,10.465,0T475.5,3462.8Zm-8.638-15.326c-.63-.315-1.238-.679-1.885-.954a1.2,1.2,0,0,0-.848-.005c-.647.274-1.246.662-1.888.949a1.358,1.358,0,0,1-1.92-1.48c.088-.517.182-1.17.318-1.815a1.019,1.019,0,0,0-.366-1.13c-.476-.386-.888-.85-1.325-1.283a1.371,1.371,0,0,1,.808-2.36,12.655,12.655,0,0,1,1.55-.229,1.257,1.257,0,0,0,1.3-.95,11.131,11.131,0,0,1,.727-1.464,1.339,1.339,0,0,1,2.419-.015c.337.591.575,1.241.932,1.82a1.342,1.342,0,0,0,.753.543c.638.157,1.3.206,1.953.305a1.128,1.128,0,0,1,1.091.963,2.277,2.277,0,0,1-.352,1.353,6.2,6.2,0,0,1-1.3,1.3,1.091,1.091,0,0,0-.372,1.205,7.847,7.847,0,0,1,.281,1.744,2.346,2.346,0,0,1-.492,1.317.941.941,0,0,1-.75.345A1.433,1.433,0,0,1,466.864,3447.478Zm-3.718-5.654.5,1.678h1.766c.191-.57.4-1.179.56-1.666l-1.428-1.077Zm12.8.085a1.33,1.33,0,0,1-1.35-1.471c-.01-1,0-2.005,0-3.007a4.1,4.1,0,0,0-4.14-4.172q-5.432-.018-10.867,0a4.1,4.1,0,0,0-4.146,4.165c-.006,1,.005,2,0,3.007a1.332,1.332,0,0,1-1.343,1.478,1.3,1.3,0,0,1-1.378-1.435,26.637,26.637,0,0,1,.283-4.883,6.6,6.6,0,0,1,6.548-5.065c1.822,0,3.645,0,5.467,0,1.845,0,3.69-.006,5.536,0a6.842,6.842,0,0,1,6.776,6.8c0,1.048.01,2.1,0,3.144a1.327,1.327,0,0,1-1.361,1.444Z" transform="translate(-447.506 -3430.522)" fill="#232323" opacity="0.6"/>
</svg>
