<?xml version="1.0" encoding="utf-8"?>
<!-- Generator: Adobe Illustrator 25.3.1, SVG Export Plug-In . SVG Version: 6.00 Build 0)  -->
<svg version="1.1" id="Layer_1" xmlns="http://www.w3.org/2000/svg" xmlns:xlink="http://www.w3.org/1999/xlink" x="0px" y="0px"
	 viewBox="0 0 60 60" style="enable-background:new 0 0 60 60;" xml:space="preserve">
<style type="text/css">
	.st0{fill:#1053A5;}
</style>
<g>
	<g>
		<path class="st0" d="M29.9,57.8c-15.3,0-27.7-12.5-27.7-27.9c0-15.3,12.5-27.7,27.8-27.7c15.3,0,27.8,12.5,27.7,28
			C57.8,45.4,45.2,57.8,29.9,57.8z M26.1,30c0.6-0.5,1-0.7,1.2-1c2.9-2.9,5.8-5.8,8.7-8.7c1.2-1.2,1.3-2.4,0.4-3.5
			c-1-1.1-2.4-1.1-3.7,0.2c-3.6,3.6-7.2,7.2-10.8,10.8c-1.5,1.5-1.5,2.7,0,4.3c3.5,3.5,7.1,7.1,10.6,10.6c0.3,0.3,0.6,0.6,0.9,0.8
			c1,0.6,2.1,0.5,2.9-0.3c0.8-0.8,0.9-1.9,0.3-2.9c-0.2-0.4-0.5-0.7-0.9-1c-2.6-2.6-5.1-5.1-7.7-7.7C27.5,31.2,26.9,30.7,26.1,30z"
			/>
	</g>
</g>
</svg>
