<?xml version="1.0" encoding="utf-8"?>
<!-- Generator: Adobe Illustrator 25.3.1, SVG Export Plug-In . SVG Version: 6.00 Build 0)  -->
<svg version="1.1" id="Layer_1" xmlns="http://www.w3.org/2000/svg" xmlns:xlink="http://www.w3.org/1999/xlink" x="0px" y="0px"
	 viewBox="0 0 60 60" style="enable-background:new 0 0 60 60;" xml:space="preserve">
<style type="text/css">
	.st0{fill:#1053A5;}
</style>
<g>
	<g>
		<path class="st0" d="M2.2,30.2c0-15.4,12.4-28,27.7-28c15.3,0,27.8,12.4,27.8,27.7c0,15.3-12.4,27.8-27.7,27.9
			C14.8,57.8,2.2,45.4,2.2,30.2z M32,31.7c-2.6,2.5-5.1,5.1-7.7,7.7c-0.3,0.3-0.6,0.6-0.9,1c-0.6,1-0.5,2.1,0.3,2.9
			c0.8,0.8,1.9,0.9,2.9,0.3c0.3-0.2,0.6-0.5,0.9-0.8c3.5-3.5,7.1-7.1,10.6-10.6c1.6-1.6,1.6-2.7,0-4.3c-3.6-3.6-7.2-7.2-10.8-10.8
			c-1.3-1.3-2.7-1.3-3.7-0.2c-0.9,1-0.8,2.3,0.4,3.5c2.9,2.9,5.8,5.8,8.7,8.7c0.3,0.3,0.6,0.5,1.2,1C33.1,30.7,32.5,31.2,32,31.7z"
			/>
	</g>
</g>
</svg>
