<?xml version="1.0"?>
<svg xmlns="http://www.w3.org/2000/svg" id="Layer_35" enable-background="new 0 0 64 64" height="512px" viewBox="0 0 64 64" width="512px" class="hovered-paths"><g><g fill="#f0bc5e"><path d="m33.125 14 .875 11-2 2-2-2 .875-11z" data-original="#F0BC5E" class="hovered-path active-path" style="fill:#529FF1" data-old_color="#F0BC5E"/><path d="m16.556 20h-7.556c-.381 0-.742-.078-1.077-.208-4.051 1.624-6.923 5.584-6.923 10.208 0 6.065 4.935 11 11 11s11-4.935 11-11c0-4.439-2.649-8.264-6.444-10z" data-original="#F0BC5E" class="hovered-path active-path" style="fill:#529FF1" data-old_color="#F0BC5E"/><path d="m56.077 19.792c-.335.13-.696.208-1.077.208h-7.556c-3.795 1.736-6.444 5.561-6.444 10 0 6.065 4.935 11 11 11s11-4.935 11-11c0-4.624-2.872-8.584-6.923-10.208z" data-original="#F0BC5E" class="hovered-path active-path" style="fill:#529FF1" data-old_color="#F0BC5E"/></g><path d="m57.591 39.456c-.685.406-1.413.745-2.183.997 1.555.882 2.825 2.111 3.772 3.547h-4.638c-.432-1.102-.937-2.125-1.449-3.055-.36.035-.724.055-1.093.055-.414 0-.821-.027-1.223-.072.493.82 1.067 1.872 1.588 3.072h-4.736c.563-1.294 1.199-2.435 1.75-3.329-.672-.165-1.319-.389-1.936-.672-.648 1.085-1.377 2.462-1.98 4h-4.653c1.344-2.046 3.354-3.646 5.772-4.438-.694-.395-1.337-.865-1.926-1.396-2.358 1.068-4.311 2.813-5.656 4.952v-20.117c0-1.103.897-2 2-2h14c2.206 0 4-1.794 4-4s-1.794-4-4-4h-18.111c1.301-1.272 2.111-3.042 2.111-5 0-3.86-3.141-7-7-7s-7 3.14-7 7c0 1.958.81 3.728 2.111 5h-18.111c-2.206 0-4 1.794-4 4s1.794 4 4 4h14c1.103 0 2 .897 2 2v20.118c-1.345-2.138-3.298-3.884-5.656-4.952-.59.531-1.232 1.001-1.926 1.396 4.482 1.467 7.582 5.696 7.582 10.438 0 6.065-4.935 11-11 11s-11-4.935-11-11c0-3.979 2.14-7.59 5.592-9.547-.77-.252-1.498-.59-2.183-.997-3.375 2.423-5.409 6.314-5.409 10.544 0 7.168 5.832 13 13 13 4.633 0 8.697-2.445 11-6.104v2.104c0 2.206 1.794 4 4 4 1.193 0 2.267-.525 3-1.357.733.832 1.807 1.357 3 1.357 2.206 0 4-1.794 4-4v-2.104c2.303 3.659 6.367 6.104 11 6.104 7.168 0 13-5.832 13-13 0-4.23-2.034-8.121-5.409-10.544zm2.638 6.544c.374.95.609 1.958.704 3h-5.191c-.079-1.02-.266-2.025-.536-3zm.72 5c-.095 1.05-.343 2.055-.713 3h-5.028c.27-.971.466-1.977.546-3zm-14.068-5h6.24c.304.968.52 1.98.614 3h-7.468c.093-1.02.309-2.03.614-3zm6.87 5c-.093 1.018-.321 2.029-.626 3h-6.252c-.304-.97-.532-1.981-.624-3zm-3.752 9.289c-.651-.96-1.593-2.485-2.378-4.289h4.754c-.784 1.803-1.725 3.328-2.376 4.289zm-10.948-9.289h5.196c.08 1.023.276 2.029.546 3h-5.028c-.372-.945-.619-1.95-.714-3zm5.738-5c-.271.971-.464 1.98-.545 3h-5.194c.097-1.043.345-2.05.72-3zm-17.789-38c0-2.757 2.243-5 5-5s5 2.243 5 5-2.243 5-5 5-5-2.243-5-5zm10 51c0 1.103-.897 2-2 2s-2-.897-2-2v-24h-2v24c0 1.103-.897 2-2 2s-2-.897-2-2v-36c0-2.206-1.794-4-4-4h-14c-1.103 0-2-.897-2-2s.897-2 2-2h46c1.103 0 2 .897 2 2s-.897 2-2 2h-14c-2.206 0-4 1.794-4 4zm3.792-3h4.667c.757 1.935 1.716 3.613 2.478 4.799-2.982-.568-5.539-2.343-7.145-4.799zm11.27 4.799c.762-1.186 1.721-2.864 2.478-4.799h4.667c-1.605 2.456-4.162 4.231-7.145 4.799z" data-original="#000000" class="" style="fill:#000000"/><path d="m12 33c-.552 0-1-.449-1-1h-2c0 1.302.839 2.402 2 2.816v2.184h2v-2h2v-3c0-1.654-1.346-3-3-3-.552 0-1-.449-1-1v-1h1c.552 0 1 .449 1 1h2c0-1.302-.839-2.402-2-2.816v-2.184h-2v2h-2v3c0 1.654 1.346 3 3 3 .552 0 1 .449 1 1v1z" data-original="#000000" class="" style="fill:#000000"/><path d="m5 29h2v2h-2z" data-original="#000000" class="" style="fill:#000000"/><path d="m17 29h2v2h-2z" data-original="#000000" class="" style="fill:#000000"/><path d="m15 47v6h-2v-4h-2v4h-2v-2h-2v2h-2v2h16v-12h-2v10h-2v-6z" data-original="#000000" class="" style="fill:#000000"/><path d="m52 27c.552 0 1 .449 1 1h2c0-1.302-.839-2.402-2-2.816v-2.184h-2v2h-2v3c0 1.654 1.346 3 3 3 .552 0 1 .449 1 1v1h-1c-.552 0-1-.449-1-1h-2c0 1.302.839 2.402 2 2.816v2.184h2v-2h2v-3c0-1.654-1.346-3-3-3-.552 0-1-.449-1-1v-1z" data-original="#000000" class="" style="fill:#000000"/><path d="m45 29h2v2h-2z" data-original="#000000" class="" style="fill:#000000"/><path d="m57 29h2v2h-2z" data-original="#000000" class="" style="fill:#000000"/><path d="m7.351 47.807-1.9-.625c-.18.547-.308 1.116-.381 1.693l1.984.25c.056-.449.156-.893.297-1.318z" data-original="#000000" class="" style="fill:#000000"/><path d="m6.414 45.154 1.686 1.078c.313-.491.689-.943 1.116-1.342l-1.367-1.46c-.548.512-1.031 1.093-1.435 1.724z" data-original="#000000" class="" style="fill:#000000"/><path d="m11.751 41.283c-.729.188-1.432.467-2.089.83l.969 1.75c.509-.281 1.053-.498 1.618-.643z" data-original="#000000" class="" style="fill:#000000"/></g> </svg>
