<?xml version="1.0"?>
<svg xmlns="http://www.w3.org/2000/svg" id="Layer_5" enable-background="new 0 0 64 64" height="512px" viewBox="0 0 64 64" width="512px" class="hovered-paths"><g><g><g><g><path d="m10 19c-2.757 0-5-2.243-5-5s2.243-5 5-5 5 2.243 5 5-2.243 5-5 5z" fill="#f0bc5e" data-original="#F0BC5E" class="hovered-path active-path" style="fill:#529FF1" data-old_color="#f0bc5e"/></g></g><g><g><path d="m51 33c-4.411 0-8-3.589-8-8s3.589-8 8-8 8 3.589 8 8-3.589 8-8 8z" fill="#f0bc5e" data-original="#F0BC5E" class="hovered-path active-path" style="fill:#529FF1" data-old_color="#f0bc5e"/></g></g><g><path d="m31 5h6v2h-6z" data-original="#000000" class=""/><path d="m27 5h2v2h-2z" data-original="#000000" class=""/><path d="m21.586 47h-.586c-1.103 0-2 .897-2 2v2c0 1.103.897 2 2 2h.586c.534 0 1.036-.208 1.414-.586l2.414-2.414-2.414-2.414c-.378-.378-.88-.586-1.414-.586zm0 4h-.586v-2h.586l1 1z" data-original="#000000" class=""/><path d="m33 47h-2c-1.103 0-2 .897-2 2v2c0 1.103.897 2 2 2h2c1.103 0 2-.897 2-2v-2c0-1.103-.897-2-2-2zm-2 4v-2h2l.001 2z" data-original="#000000" class=""/><path d="m43 47h-.586c-.534 0-1.036.208-1.414.586l-2.414 2.414 2.414 2.414c.378.378.88.586 1.414.586h.586c1.103 0 2-.897 2-2v-2c0-1.103-.897-2-2-2zm-.586 4-1-1 1-1h.586l.001 2z" data-original="#000000" class=""/><path d="m51.12 13h-.12v-7c0-2.757-2.243-5-5-5h-28c-2.56 0-4.653 1.942-4.942 4.426-.839-.274-1.732-.426-2.661-.426h-.794c-4.744 0-8.603 3.859-8.603 8.604 0 1.773.538 3.479 1.555 4.934l5.052 7.217c.546.779 1.441 1.245 2.393 1.245s1.847-.466 2.393-1.246l.607-.868v33.114c0 2.757 2.243 5 5 5h28c2.757 0 5-2.243 5-5v-13c.973 0 1.862-.492 2.378-1.317l7.816-12.507c1.181-1.89 1.806-4.068 1.806-6.296 0-6.551-5.329-11.88-11.88-11.88zm-10.314 18.176 3.64 5.824h-12.446c-.551 0-1-.448-1-1v-10c0-3.859-3.14-7-7-7h-6.879l.324-.463c1.017-1.454 1.555-3.16 1.555-4.933 0-.907-.143-1.782-.405-2.604h30.405v2.164c-5.658.906-10 5.807-10 11.716 0 2.228.625 4.406 1.806 6.296zm-25.806-25.176c0-1.654 1.346-3 3-3h28c1.654 0 3 1.346 3 3v3h-31.348c-.679-1.067-1.585-1.973-2.652-2.653zm-4.246 18.607c-.344.492-1.164.492-1.508 0l-5.052-7.217c-.781-1.116-1.194-2.425-1.194-3.786 0-3.642 2.962-6.604 6.603-6.604h.794c3.641 0 6.603 2.962 6.603 6.604 0 1.361-.413 2.671-1.194 3.787zm4.967-3.607h8.279c2.757 0 5 2.243 5 5v10c0 1.654 1.346 3 3 3h13.696l2.5 4h-18.196c-2.757 0-5-2.243-5-5v-10c0-1.654-1.346-3-3-3h-7v-2.971zm30.279 40h-28c-1.654 0-3-1.346-3-3v-2.026c.838.635 1.87 1.026 3 1.026h28c1.13 0 2.162-.391 3-1.026v2.026c0 1.654-1.346 3-3 3zm0-6h-28c-1.654 0-3-1.346-3-3v-25h7c.551 0 1 .448 1 1v10c0 3.859 3.14 7 7 7h19v7c0 1.654-1.346 3-3 3zm13.498-24.885-7.816 12.507c-.295.473-1.068.473-1.363 0l-7.816-12.507c-.983-1.571-1.503-3.382-1.503-5.235 0-5.448 4.432-9.88 9.88-9.88h.24c5.448 0 9.88 4.432 9.88 9.88 0 1.853-.52 3.664-1.502 5.235z" data-original="#000000" class=""/><path d="m25 13h2v2h-2z" data-original="#000000" class=""/><path d="m21 13h2v2h-2z" data-original="#000000" class=""/><path d="m29 13h2v2h-2z" data-original="#000000" class=""/></g></g></g> </svg>
