<?xml version="1.0"?>
<svg xmlns="http://www.w3.org/2000/svg" height="512px" viewBox="0 0 496 496" width="512px" class="hovered-paths"><g><g fill="#f0bc5e"><path d="m160 88c0 39.765625-32.234375 72-72 72s-72-32.234375-72-72 32.234375-72 72-72 72 32.234375 72 72zm0 0" data-original="#F0BC5E" class="" style="fill:#529FF1" data-old_color="#F0BC5E"/><path d="m8 425.007812h160v62.992188h-160zm0 0" data-original="#F0BC5E" class="" style="fill:#529FF1" data-old_color="#F0BC5E"/><path d="m424 296.648438h64v70.847656h-64zm0 0" data-original="#F0BC5E" class="" style="fill:#529FF1" data-old_color="#F0BC5E"/><path d="m432 392v80l24 24 24-24v-80zm0 0" data-original="#F0BC5E" class="" style="fill:#529FF1" data-old_color="#F0BC5E"/></g><path d="m476.945312 256h-12.945312v-216c0-22.054688-17.945312-40-40-40h-144c-22.054688 0-40 17.945312-40 40v88h32v-16h-16v-72c0-13.230469 10.769531-24 24-24h144c13.230469 0 24 10.769531 24 24v216h-12.945312l-19.054688 38.113281v105.886719h80v-105.886719zm-9.890624 16 8 16h-38.109376l8-16zm-35.054688 112v-80h48v80zm0 0" data-original="#000000" class="active-path" data-old_color="#000000" style="fill:#000000"/><path d="m88 32c-30.871094 0-56 25.128906-56 56h16c0-22.054688 17.945312-40 40-40s40 17.945312 40 40h16c0-30.871094-25.128906-56-56-56zm0 0" data-original="#000000" class="active-path" data-old_color="#000000" style="fill:#000000"/><path d="m88 16c39.703125 0 72 32.296875 72 72h16c0-48.519531-39.480469-88-88-88s-88 39.480469-88 88h16c0-39.703125 32.296875-72 72-72zm0 0" data-original="#000000" class="active-path" data-old_color="#000000" style="fill:#000000"/><path d="m224 256h24v168c0 13.230469-10.769531 24-24 24h-16c0-8.824219-7.175781-16-16-16h-16v-10.167969l-56-96v-85.832031h-24v-129.472656c9.289062-3.3125 16-12.113282 16-22.527344 0-13.230469-10.769531-24-24-24s-24 10.769531-24 24c0 10.414062 6.710938 19.214844 16 22.527344v129.472656h-24v85.839844l-56 96v74.160156h176v-16h16c8.824219 0 16-7.175781 16-16h16c22.054688 0 40-17.945312 40-40v-184h-40zm-136-176c4.414062 0 8 3.585938 8 8s-3.585938 8-8 8-8-3.585938-8-8 3.585938-8 8-8zm16 176v64h-32v-64zm56 224h-144v-16h128v-16h-128v-21.832031l52.59375-90.167969h38.8125l52.59375 90.167969zm32-16h-16v-16h16zm0 0" data-original="#000000" class="active-path" data-old_color="#000000" style="fill:#000000"/><path d="m224 208h48v16h-48zm0 0" data-original="#000000" class="active-path" data-old_color="#000000" style="fill:#000000"/><path d="m224 176h48v16h-48zm0 0" data-original="#000000" class="active-path" data-old_color="#000000" style="fill:#000000"/><path d="m224 144h48v16h-48zm0 0" data-original="#000000" class="active-path" data-old_color="#000000" style="fill:#000000"/></g> </svg>
