<svg xmlns="http://www.w3.org/2000/svg" width="512" height="512" viewBox="0 0 417.915 417.915">
    <path fill="#597bf9" d="M310.495 299.42c21.832-21.832 57.24-21.832 79.072 0l8.464 8.464c26.512 26.512 26.512 69.488 0 96-10.784 10.784-26.016 15.824-41.08 13.456-43.584-6.856-137.608-32.144-230.92-125.456S7.431 104.548.575 60.964C-1.793 45.9 3.247 30.668 14.031 19.884c26.512-26.512 69.488-26.512 96 0l8.464 8.464c21.832 21.832 21.832 57.24 0 79.072-14.608 14.608-18.232 36.928-8.992 55.408a325.536 325.536 0 0 0 145.584 145.584c18.48 9.24 40.8 5.616 55.408-8.992z" data-old_color="#FFE67D" data-original="#FFE67D"/>
    <circle cx="222.031" cy="195.884" r="32" fill="#0e2450" class="active-path" data-old_color="#597BF9" data-original="#597BF9"/>
    <path fill="#b9c8ff" d="M286.031 203.884c-4.424 0-8-3.576-8-8 0-30.872-25.128-56-56-56-4.424 0-8-3.576-8-8s3.576-8 8-8c39.704 0 72 32.296 72 72 0 4.424-3.576 8-8 8z" data-old_color="#B9C8FF" data-original="#B9C8FF"/>
    <path fill="#b9c8ff" d="M318.031 203.884c-4.424 0-8-3.576-8-8 0-48.52-39.48-88-88-88-4.424 0-8-3.576-8-8s3.576-8 8-8c57.344 0 104 46.656 104 104 0 4.424-3.576 8-8 8z" data-old_color="#B9C8FF" data-original="#B9C8FF"/>
    <path fill="#b9c8ff" d="M350.031 203.884c-4.424 0-8-3.576-8-8 0-66.168-53.832-120-120-120-4.424 0-8-3.576-8-8s3.576-8 8-8c74.992 0 136 61.008 136 136 0 4.424-3.576 8-8 8z" data-old_color="#B9C8FF" data-original="#B9C8FF"/>
    <path fill="#b9c8ff" d="M382.031 203.884c-4.424 0-8-3.576-8-8 0-83.816-68.184-152-152-152-4.424 0-8-3.576-8-8s3.576-8 8-8c92.632 0 168 75.368 168 168 0 4.424-3.576 8-8 8z" data-old_color="#B9C8FF" data-original="#B9C8FF"/>
</svg>
