<?xml version="1.0"?>
<svg xmlns="http://www.w3.org/2000/svg" id="Layer_5" enable-background="new 0 0 64 64" height="512px" viewBox="0 0 64 64" width="512px"><g><g><g><path d="m60.394 38.411c-.411-1.561-1.032-3.057-1.852-4.46l1.231-2.461-5.263-5.262-2.461 1.23c-1.403-.819-2.899-1.44-4.46-1.851l-.868-2.607h-7.441l-.869 2.606c-1.561.411-3.057 1.032-4.46 1.851l-2.461-1.23-5.764 5.764c2.28 1.26 4.216 3.061 5.643 5.229 2.128-4.275 6.53-7.22 11.631-7.22 7.18 0 13 5.82 13 13s-5.82 13-13 13c-3.991 0-7.558-1.802-9.942-4.633-.828 2.321-2.165 4.396-3.893 6.082l2.324 2.324 2.461-1.23c1.403.819 2.899 1.44 4.46 1.851l.869 2.606h7.441l.869-2.606c1.561-.411 3.057-1.032 4.46-1.851l2.461 1.23 5.263-5.262-1.231-2.461c.819-1.403 1.44-2.899 1.852-4.46l2.606-.869v-7.441z" fill="#f0bc5e" data-original="#F0BC5E" class="active-path" style="fill:#52C6F1" data-old_color="#f0bc5e"/></g><g><path d="m42 5.414v15.586h2v-15.586l2.293 2.293 1.414-1.414-4.707-4.707-4.707 4.707 1.414 1.414z" data-original="#000000" class="" style="fill:#000000"/><path d="m46.707 14.707 2.293-2.293v10.586h2v-10.586l2.293 2.293 1.414-1.414-4.707-4.707-4.707 4.707z" data-original="#000000" class="" style="fill:#000000"/><path d="m35 12.414v10.586h2v-10.586l2.293 2.293 1.414-1.414-4.707-4.707-4.707 4.707 1.414 1.414z" data-original="#000000" class="" style="fill:#000000"/><path d="m43 29c-4.805 0-9.167 2.418-11.734 6.397-2.922-3.648-7.311-6.056-12.266-6.346v-2.051-1h3c3.859 0 7-3.14 7-7v-1h-5c-1.958 0-3.728.81-5 2.111v-1.517c1.578-.899 6-3.759 6-7.594 0-4.343-5.709-9.226-6.359-9.768l-.641-.534-.641.534c-.65.542-6.359 5.425-6.359 9.768 0 3.834 4.422 6.694 6 7.594v2.517c-1.272-1.301-3.042-2.111-5-2.111h-5v1c0 3.86 3.141 7 7 7h3v2.051c-8.908.522-16 7.913-16 16.949 0 9.374 7.626 17 17 17 6.81 0 12.68-4.033 15.392-9.829 2.588 2.449 6.009 3.829 9.608 3.829 7.72 0 14-6.28 14-14s-6.28-14-14-14zm-19-9h2.899c-.465 2.279-2.484 4-4.899 4h-2.899c.464-2.279 2.484-4 4.899-4zm-10 5c-2.415 0-4.435-1.721-4.899-4h2.899c2.415 0 4.435 1.721 4.899 4zm-1-14c0-2.553 3.178-5.998 5-7.669 1.822 1.671 5 5.116 5 7.669 0 2.091-2.248 4.074-4 5.247v-3.833l2.707-2.707-1.414-1.414-1.293 1.293v-3.586h-2v5l-1.2-1.6-1.6 1.2 2.8 3.733v1.916c-1.752-1.169-4-3.15-4-5.249zm5 50c-2.232 0-4.254-2.387-5.546-6h11.092c-1.292 3.613-3.314 6-5.546 6zm-6.159-8c-.462-1.821-.746-3.858-.816-6h13.951c-.07 2.142-.354 4.179-.816 6zm-8.79-6h5.975c.063 2.139.322 4.16.752 6h-5.034c-.961-1.812-1.55-3.845-1.693-6zm20.495-10h-4.546v-5.821c1.829.591 3.451 2.758 4.546 5.821zm-6.546-5.821v5.821h-4.546c1.095-3.063 2.717-5.23 4.546-5.821zm7.159 7.821c.462 1.821.746 3.858.816 6h-13.951c.07-2.142.354-4.179.816-6zm-15.133 6h-5.975c.143-2.155.732-4.188 1.693-6h5.034c-.43 1.84-.689 3.861-.752 6zm17.948 2h5.975c-.143 2.155-.732 4.188-1.693 6h-5.034c.43-1.84.689-3.861.752-6zm0-2c-.063-2.139-.322-4.16-.752-6h5.034c.961 1.812 1.55 3.845 1.693 6zm2.998-8h-4.308c-.658-2.023-1.528-3.762-2.566-5.089 2.759 1.002 5.137 2.785 6.874 5.089zm-17.07-5.089c-1.038 1.327-1.908 3.066-2.566 5.089h-4.308c1.737-2.304 4.115-4.087 6.874-5.089zm-6.874 23.089h4.308c.658 2.023 1.528 3.762 2.566 5.089-2.759-1.002-5.137-2.785-6.874-5.089zm17.07 5.089c1.038-1.327 1.908-3.066 2.566-5.089h4.308c-1.737 2.304-4.115 4.087-6.874 5.089zm19.902-5.089c-3.355 0-6.523-1.412-8.795-3.87.253-.796.431-1.622.565-2.463 1.805 2.614 4.819 4.333 8.23 4.333 5.514 0 10-4.486 10-10s-4.486-10-10-10c-4.251 0-7.882 2.672-9.326 6.421-.326-.775-.724-1.51-1.157-2.222 2.119-3.835 6.085-6.199 10.483-6.199 6.617 0 12 5.383 12 12s-5.383 12-12 12zm-8-12c0-4.411 3.589-8 8-8s8 3.589 8 8-3.589 8-8 8-8-3.589-8-8z" data-original="#000000" class="" style="fill:#000000"/></g></g></g> </svg>
