<?xml version="1.0"?>
<svg xmlns="http://www.w3.org/2000/svg" id="Layer_5" enable-background="new 0 0 64 64" height="512px" viewBox="0 0 64 64" width="512px"><g><g><g><path d="m46.236 28 10-5-11.236-5.618v10.618z" fill="#f0bc5e" data-original="#F0BC5E" class="active-path" style="fill:#52C6F1" data-old_color="#f0bc5e"/></g><g><path d="m51 36h8v8h-8z" fill="#f0bc5e" data-original="#F0BC5E" class="active-path" style="fill:#52C6F1" data-old_color="#f0bc5e"/></g><g><g><path d="m37 25h-22v-12h22z" fill="#f0bc5e" data-original="#F0BC5E" class="active-path" style="fill:#52C6F1" data-old_color="#f0bc5e"/></g></g><g><path d="m28.88 36.716.24 1.986c2.787-.338 5.547-.969 8.202-1.874l-.645-1.893c-2.525.861-5.148 1.461-7.797 1.781z" data-original="#000000" class="" style="fill:#000000"/><path d="m38.626 34.211.748 1.855c.69-.278 1.374-.576 2.05-.893l-.848-1.811c-.642.302-1.293.584-1.95.849z" data-original="#000000" class="" style="fill:#000000"/><path d="m58 5h-26.586l-2.535-2.535c-.944-.944-2.2-1.465-3.536-1.465h-9.343c-2.757 0-5 2.243-5 5v37.75l-.333.25h-1.667v-3h-8v22h8v-3h1.586l.949.949c1.322 1.322 3.08 2.051 4.95 2.051h14.515c1.654 0 3-1.346 3-3 0-.537-.153-1.034-.401-1.471.839-.532 1.401-1.464 1.401-2.529 0-.537-.153-1.034-.401-1.471.839-.532 1.401-1.464 1.401-2.529 0-.537-.153-1.035-.402-1.472.562-.356 1.002-.887 1.229-1.523 1.406.598 2.821 1.491 4.199 2.361.817.516 1.663 1.05 2.488 1.508l.227.126h5.259v-4h9c2.757 0 5-2.243 5-5v-34c0-2.757-2.243-5-5-5zm-42-2h9.343c.802 0 1.556.313 2.122.879l3.121 3.121h27.414c1.302 0 2.402.839 2.816 2h-47.816v-3c0-1.654 1.346-3 3-3zm-9 58h-4v-18h4zm24 0h-14.515c-1.336 0-2.592-.521-3.536-1.465l-1.535-1.535h-2.414v-12h2.333l2.668-2c.858-.645 1.924-1 2.999-1h.685c1.126 2.361 3.53 4 6.315 4h10c.552 0 1 .448 1 1s-.448 1-1 1h-1-7v2h7c.552 0 1 .448 1 1s-.448 1-1 1h-1-6v2h6c.552 0 1 .448 1 1s-.448 1-1 1h-1-5v2h5c.552 0 1 .448 1 1s-.448 1-1 1zm-7-16c-2.757 0-5-2.243-5-5s2.243-5 5-5h.184c.273 0 .544-.023.816-.03v10.03zm12.766 1.837c-.455-1.078-1.524-1.837-2.766-1.837h-7v-10.112c5.663-.432 11.114-2.182 16-5.102v20.456c-.298-.185-.597-.372-.905-.567-1.711-1.08-3.475-2.194-5.329-2.838zm4.234-23.837c0-4.411 3.589-8 8-8s8 3.589 8 8-3.589 8-8 8v-4h-5.303l-.252.168c-.294.196-.601.367-.9.554-.999-1.365-1.545-3.012-1.545-4.722zm6 28h-2v-22h2zm11-4h-9v-14c5.514 0 10-4.486 10-10s-4.486-10-10-10-10 4.486-10 10c0 2.07.645 4.066 1.821 5.74-5.094 2.786-10.784 4.26-16.637 4.26h-.184c-3.859 0-7 3.141-7 7 0 .34.033.672.08 1h-.08c-1.427 0-2.833.459-4 1.275v-31.275h48v33c0 1.654-1.346 3-3 3z" data-original="#000000" class="" style="fill:#000000"/><path d="m15 5h2v2h-2z" data-original="#000000" class="" style="fill:#000000"/><path d="m19 5h2v2h-2z" data-original="#000000" class="" style="fill:#000000"/><path d="m23 5h2v2h-2z" data-original="#000000" class="" style="fill:#000000"/><path d="m51 43h8v2h-8z" data-original="#000000" class="" style="fill:#000000"/><path d="m51 39h8v2h-8z" data-original="#000000" class="" style="fill:#000000"/><path d="m51 35h8v2h-8z" data-original="#000000" class="" style="fill:#000000"/><path d="m15 27h2v2h-2z" data-original="#000000" class="" style="fill:#000000"/><path d="m19 27h18v2h-18z" data-original="#000000" class="" style="fill:#000000"/></g></g></g> </svg>
