<?xml version="1.0"?>
<svg xmlns="http://www.w3.org/2000/svg" id="Layer_3" enable-background="new 0 0 64 64" height="512px" viewBox="0 0 64 64" width="512px" class="hovered-paths"><g><path d="m31 13v14.197c.274-.125.572-.197.879-.197 1.171 0 2.121.95 2.121 2.121 0 .563-.224 1.102-.621 1.5l-2.379 2.379 8.379-8.379c.398-.398.937-.621 1.5-.621 1.171 0 2.121.95 2.121 2.121 0 .563-.224 1.102-.621 1.5l-11.379 11.379v2.818l8-5.818h.333c1.473 0 2.667 1.194 2.667 2.667 0 .839-.395 1.63-1.067 2.133l-9.704 7.278c-.074.055-.154.099-.23.151v2.771h28v-38z" fill="#f0bc5e" data-original="#F0BC5E" class="hovered-path active-path" style="fill:#52C6F1" data-old_color="#f0bc5e"/><path d="m58 1h-26c-2.757 0-5 2.243-5 5v7h-7v-6h-13.184c-.414-1.161-1.514-2-2.816-2-1.654 0-3 1.346-3 3s1.346 3 3 3c1.302 0 2.402-.839 2.816-2h11.184v6h9v4h-12.184c-.414-1.161-1.514-2-2.816-2-1.654 0-3 1.346-3 3s1.346 3 3 3c1.302 0 2.402-.839 2.816-2h12.184v3.143c-.472.14-.909.381-1.268.722-.485-1.096-1.58-1.865-2.853-1.865-.822 0-1.626.333-2.207.914l-7.02 7.02c-1.037 1.037-1.713 2.351-1.955 3.798l-.631 3.788-3.066 3.066-1-1-6.414 6.414 14.414 14.414 6.414-6.414-1-1 3.058-3.057 3.528-.504v7.561c0 2.757 2.243 5 5 5h26c2.757 0 5-2.243 5-5v-52c0-2.757-2.243-5-5-5zm-54 8c-.552 0-1-.449-1-1s.448-1 1-1 1 .449 1 1-.448 1-1 1zm8 12c-.552 0-1-.449-1-1s.448-1 1-1 1 .449 1 1-.448 1-1 1zm20-18h26c1.654 0 3 1.346 3 3v3h-32v-3c0-1.654 1.346-3 3-3zm-.171 45.877 5.171-3.877h18v-2h-2v-10h2v-2.414l-10-10-2.747 2.747c-.416-.206-.879-.333-1.374-.333-.822 0-1.626.333-2.207.914l-3.944 3.944c-.487-1.092-1.578-1.858-2.849-1.858-.356 0-.704.073-1.036.191-.285-.906-.963-1.633-1.843-1.974v-13.217h32v42h-32v-2.872c1.021-.205 1.994-.624 2.829-1.251zm12.171-22.756c0-.495-.127-.958-.333-1.374l1.333-1.333 7.586 7.586h-12.172l2.672-2.672c.59-.589.914-1.373.914-2.207zm5 16.879v-10h2v10zm-6-10h4v10h-4zm-6 3.218-6.614 4.81 6.614-6.614zm2-3.218h2v2.419c-.502-.259-1.064-.419-1.667-.419h-.333zm2 10h-1.333l1.333-1zm-26 15.586-11.586-11.586 3.586-3.586 11.586 11.586zm7.528-9.529-3.528 3.529-9.586-9.586 3.52-3.52.736-4.419c.173-1.034.655-1.973 1.396-2.713l7.02-7.02c.209-.208.498-.328.793-.328.618 0 1.121.503 1.121 1.121 0 .3-.116.581-.328.793l-4.379 4.379 1.414 1.414 4.379-4.379 2-2c.209-.208.498-.328.793-.328.618 0 1.121.503 1.121 1.121 0 .3-.116.581-.328.793l-6.379 6.379 1.414 1.414 6.379-6.379 1-1c.209-.208.498-.328.793-.328.618 0 1.121.503 1.121 1.121 0 .3-.116.581-.328.793l-7.379 7.379 1.414 1.414 7.379-7.379 6-6c.209-.208.498-.328.793-.328.618 0 1.121.503 1.121 1.121 0 .3-.116.581-.328.793l-15.672 15.672v2.414h2.325l11-8h.008c.919 0 1.667.748 1.667 1.667 0 .522-.249 1.02-.666 1.333l-9.704 7.278c-.671.502-1.464.831-2.293.95zm35.472 11.943h-26c-1.654 0-3-1.346-3-3v-3h32v3c0 1.654-1.346 3-3 3z" data-original="#000000" class="" style="fill:#000000"/><path d="m49 5h2v2h-2z" data-original="#000000" class="" style="fill:#000000"/><path d="m39 5h8v2h-8z" data-original="#000000" class="" style="fill:#000000"/><path d="m41 57h8v2h-8z" data-original="#000000" class="" style="fill:#000000"/><path d="m55 57h2v2h-2z" data-original="#000000" class="" style="fill:#000000"/><path d="m33 57h2v2h-2z" data-original="#000000" class="" style="fill:#000000"/><path d="m35 17h2v2h-2z" data-original="#000000" class="" style="fill:#000000"/><path d="m39 17h2v2h-2z" data-original="#000000" class="" style="fill:#000000"/><path d="m43 17h2v2h-2z" data-original="#000000" class="" style="fill:#000000"/></g> </svg>
