<?xml version="1.0" encoding="utf-8"?>
<!-- Generator: Adobe Illustrator 24.0.1, SVG Export Plug-In . SVG Version: 6.00 Build 0)  -->
<svg version="1.1" id="Layer_1" xmlns="http://www.w3.org/2000/svg" xmlns:xlink="http://www.w3.org/1999/xlink" x="0px" y="0px"
	 viewBox="0 0 512 512" style="enable-background:new 0 0 512 512;" xml:space="preserve">
<style type="text/css">
	.st0{fill:#FFFFFF;}
</style>
<g>
	<path class="st0" d="M409.1,493.8H273v-51.1h-34v51.1H102.8c-4.7,0-8.5,3.8-8.5,8.5s3.8,8.5,8.5,8.5h306.5c4.7,0,8.5-3.8,8.5-8.5
		S413.8,493.8,409.1,493.8z"/>
	<path class="st0" d="M213.4,230c0,9.4-7.6,17.1-17.1,17.1c-9.4,0-17.1-7.6-17.1-17.1s7.6-17.1,17.1-17.1
		C205.7,212.9,213.4,220.6,213.4,230z"/>
	<path class="st0" d="M332.5,230c0,9.4-7.6,17.1-17.1,17.1c-9.4,0-17.1-7.6-17.1-17.1s7.6-17.1,17.1-17.1S332.5,220.6,332.5,230z"/>
	<path class="st0" d="M17.6,400.3c0,14.1,11.5,25.5,25.5,25.5h425.7c14.1,0,25.5-11.5,25.5-25.5v-8.5H17.6V400.3z"/>
	<path class="st0" d="M468.8,102.3h-87.6l-6.9,36.5c-5.3,28.1-29.9,48.6-58.6,48.6H162.3c-4.2,0-7.8-3-8.4-7.2l-12.7-78H43.2
		c-14.1,0-25.5,11.5-25.5,25.5v246.9h476.8V127.8C494.3,113.7,482.9,102.3,468.8,102.3z M34.6,127.8c0-4.7,3.8-8.5,8.5-8.5h51.1
		c4.7,0,8.5,3.8,8.5,8.5s-3.8,8.5-8.5,8.5H51.6v42.6c0,4.7-3.8,8.5-8.5,8.5s-8.5-3.8-8.5-8.5V127.8z M43.1,315.1h102.2
		c4.7,0,8.5,3.8,8.5,8.5c0,4.7-3.8,8.5-8.5,8.5H43.1c-4.7,0-8.5-3.8-8.5-8.5C34.6,319,38.4,315.1,43.1,315.1z M196.3,357.7H43.1
		c-4.7,0-8.5-3.8-8.5-8.5s3.8-8.5,8.5-8.5h153.2c4.7,0,8.5,3.8,8.5,8.5S201,357.7,196.3,357.7z M315.6,264
		c-15.5-0.1-28.9-10.6-32.8-25.5h-53.5c-4.3,16.6-20.3,27.4-37.2,25.2c-17-2.2-29.7-16.7-29.7-33.8s12.8-31.6,29.7-33.8
		c17-2.2,33,8.7,37.2,25.2h53.5c4.5-17.1,21.3-27.9,38.7-24.9c17.5,3,29.6,18.9,28.1,36.4C347.9,250.5,333.2,264.1,315.6,264z
		 M477.3,349.2c0,4.7-3.8,8.5-8.5,8.5h-51.1c-4.7,0-8.5-3.8-8.5-8.5s3.8-8.5,8.5-8.5h42.6v-42.6c0-4.7,3.8-8.5,8.5-8.5
		s8.5,3.8,8.5,8.5V349.2z"/>
	<path class="st0" d="M111.2,17.5L111.2,17.5l32-0.3l10.5,59.6l15.8,93.7h146.2c20.5,0,38.1-14.6,41.9-34.7l15.9-84.5H166.5
		l-7.9-44.1c-0.1-0.3-0.2-0.6-0.4-0.9c-0.2-0.5-0.4-1.1-0.6-1.6c-0.3-0.5-0.6-1-0.9-1.4c-0.3-0.4-0.7-0.8-1-1.1
		c-0.4-0.4-0.9-0.7-1.4-1c-0.9-0.5-2-0.9-3.1-0.9c-0.3-0.1-0.6-0.1-0.9-0.2h-0.1l-39.1,0.4c-4.7,0-8.5,3.9-8.5,8.6
		C102.7,13.8,106.6,17.6,111.2,17.5z"/>
</g>
</svg>
