<?xml version="1.0" encoding="utf-8"?>
<!-- Generator: Adobe Illustrator 24.1.1, SVG Export Plug-In . SVG Version: 6.00 Build 0)  -->
<svg version="1.1" id="Layer_1" xmlns="http://www.w3.org/2000/svg" xmlns:xlink="http://www.w3.org/1999/xlink" x="0px" y="0px"
	 viewBox="0 0 490 173.3" style="enable-background:new 0 0 490 173.3;" xml:space="preserve">
<style type="text/css">
	.st0{fill:url(#SVGID_1_);}
	.st1{fill:url(#SVGID_2_);}
	.st2{fill:url(#SVGID_3_);}
	.st3{fill:url(#SVGID_4_);}
	.st4{fill:#283045;}
</style>
<g>
	<g>
		<g>
			<g>
				<linearGradient id="SVGID_1_" gradientUnits="userSpaceOnUse" x1="241.815" y1="63.0378" x2="294.469" y2="63.0378">
					<stop  offset="0" style="stop-color:#FF0663"/>
					<stop  offset="9.132420e-02" style="stop-color:#FF0061"/>
					<stop  offset="1" style="stop-color:#FEC194"/>
				</linearGradient>
				<path class="st0" d="M268,36.1l-26.2-5.6v11.1c0,0,0,0,0,0c0.2,0,0.3,0.2,0.3,0.3c17.6,3.3,27,8.7,32,13.5
					c3.2,2.8,5.5,6.6,6.9,11.4c0.4,1.4,0.5,2.9,0.8,4.3v3.7c-0.2,1.2-0.3,2.3-0.6,3.5c0,0.1-0.1,0.2-0.1,0.3
					c-0.3,1.3-0.7,2.6-1.3,3.7c-2.6,6-7.1,10.2-13.8,12.4c-1.2,0.4-2.4,0.5-3.7,0.8c29.2,0.7,31.1-18.5,31.1-18.5
					C300.4,46.1,268,36.1,268,36.1z"/>
			</g>
			<linearGradient id="SVGID_2_" gradientUnits="userSpaceOnUse" x1="241.7977" y1="21.0087" x2="301.6074" y2="21.0087">
				<stop  offset="0" style="stop-color:#FEC194"/>
				<stop  offset="0.1559" style="stop-color:#FEA98E"/>
				<stop  offset="0.4859" style="stop-color:#FE6B7D"/>
				<stop  offset="0.9599" style="stop-color:#FF0963"/>
				<stop  offset="1" style="stop-color:#FF0061"/>
			</linearGradient>
			<path class="st1" d="M281.9,0.6c0.3,3.7,0.5,26.4-39.7,29.6c-0.2,0-0.4,0.2-0.4,0.5v10.9c0,0.3,0.2,0.5,0.5,0.5
				c4.3,0,36.8-1,47.3-21.4c0,0,3.2-7.1,11.6-7.4c0.3,0,0.5-0.2,0.5-0.5l0-12.2c0-0.3-0.2-0.5-0.5-0.5l-18.7,0.1
				C282.1,0.1,281.9,0.3,281.9,0.6z"/>
		</g>
		<g>
			<g>
				<linearGradient id="SVGID_3_" gradientUnits="userSpaceOnUse" x1="194.9284" y1="44.863" x2="247.5824" y2="44.863">
					<stop  offset="0" style="stop-color:#00FFA9"/>
					<stop  offset="1" style="stop-color:#0D4DFF"/>
				</linearGradient>
				<path class="st2" d="M221.4,71.8l26.2,5.6V66.3c0,0,0,0,0,0c-0.2,0-0.3-0.2-0.3-0.3c-17.6-3.3-27-8.7-32-13.5
					c-3.2-2.8-5.5-6.6-6.9-11.4c-0.4-1.4-0.5-2.9-0.8-4.3v-3.7c0.2-1.2,0.3-2.3,0.6-3.5c0-0.1,0.1-0.2,0.1-0.3
					c0.3-1.3,0.7-2.6,1.3-3.7c2.6-6,7.1-10.2,13.8-12.4c1.2-0.4,2.4-0.5,3.7-0.8c-29.2-0.7-31.1,18.5-31.1,18.5
					C189,61.8,221.4,71.8,221.4,71.8z"/>
			</g>
			<linearGradient id="SVGID_4_" gradientUnits="userSpaceOnUse" x1="187.7901" y1="86.8921" x2="247.5997" y2="86.8921">
				<stop  offset="0" style="stop-color:#0D4DFF"/>
				<stop  offset="1" style="stop-color:#00FFA9"/>
			</linearGradient>
			<path class="st3" d="M207.5,107.3c-0.3-3.7-0.5-26.4,39.7-29.6c0.2,0,0.4-0.2,0.4-0.5V66.4c0-0.3-0.2-0.5-0.5-0.5
				c-4.3,0-36.8,1-47.3,21.4c0,0-3.2,7.1-11.6,7.4c-0.3,0-0.5,0.2-0.5,0.5l0,12.2c0,0.3,0.2,0.5,0.5,0.5l18.7-0.1
				C207.3,107.8,207.5,107.6,207.5,107.3z"/>
		</g>
	</g>
	<g>
		<path class="st4" d="M15.6,171.5H1.3V171h0.6c1.1,0,1.9-0.5,2.5-1.4c0.2-0.4,0.4-0.9,0.4-1.4v-25.1c0-0.8-0.3-1.4-0.9-2
			s-1.2-0.8-2-0.8H1.3v-0.5h13.1c3.5,0,6.3,0.6,8.3,1.9c2.1,1.3,3.1,3.2,3.1,5.8c0,1.3-0.3,2.5-0.9,3.5c-1,1.9-2.6,2.9-4.7,3.2
			c2.3,0.2,4.2,1.1,5.7,2.6c1.5,1.5,2.3,3.5,2.3,5.8c0,2.8-1.1,5-3.4,6.5C22.6,170.7,19.5,171.5,15.6,171.5z M18.6,148.1
			c0-4.3-2-6.4-5.8-6.4h-1.3v27.6h2.1c0,0,0.1,0,0.1,0c2.1,0,3.7-0.6,5-1.8c1.2-1.2,1.9-3,1.9-5.5c0-2.5-0.7-4.3-2.1-5.5
			c-1.4-1.2-3.2-1.8-5.4-1.8v-0.4c1.6,0,2.9-0.5,3.9-1.5C18.1,151.8,18.6,150.2,18.6,148.1z"/>
		<path class="st4" d="M32.4,171c0.8,0,1.5-0.3,2-0.8c0.6-0.6,0.9-1.2,0.9-2V143c-0.1-0.8-0.3-1.4-0.7-1.7c-0.7-0.7-1.5-1-2.2-1
			h-0.6v-0.5h17.3c1.5,0,2.7-0.1,3.7-0.3c1-0.2,1.6-0.4,1.8-0.5v7.9l-0.5,0v-0.5c0-1.9-0.7-3.2-2.1-4c-0.7-0.4-1.4-0.6-2.4-0.6h-7.6
			v13.2h6c1.1,0,2-0.4,2.8-1.2c0.7-0.7,1.1-1.7,1.1-2.7v-0.4h0.5v10.4h-0.5v-0.4c0-1.1-0.4-2-1.1-2.8c-0.7-0.7-1.6-1.1-2.7-1.1h-6.1
			v12.7H48c2.2,0,4-0.6,5.5-1.9c1.5-1.3,2.6-3.1,3.3-5.4h0.5l-2.1,9.2H31.8V171H32.4z"/>
		<path class="st4" d="M61,171c0.8,0,1.5-0.3,2-0.8c0.6-0.6,0.9-1.2,0.9-2V143c-0.1-0.8-0.3-1.4-0.7-1.7c-0.7-0.7-1.5-1-2.2-1h-0.6
			v-0.5h17.3c1.5,0,2.7-0.1,3.7-0.3c1-0.2,1.6-0.4,1.8-0.5v7.9l-0.5,0v-0.5c0-1.9-0.7-3.2-2.1-4c-0.7-0.4-1.4-0.6-2.4-0.6h-7.6v13.2
			h6c1.1,0,2-0.4,2.8-1.2c0.7-0.7,1.1-1.7,1.1-2.7v-0.4h0.5v10.4h-0.5v-0.4c0-1.1-0.4-2-1.1-2.8c-0.7-0.7-1.6-1.1-2.7-1.1h-6.1v12.7
			h5.9c2.2,0,4-0.6,5.5-1.9c1.5-1.3,2.6-3.1,3.3-5.4h0.5l-2.1,9.2H60.4V171H61z"/>
		<path class="st4" d="M89.5,167.3c0-2.2,0.5-4,1.4-5.6h0.4c0,0.2,0,0.5,0,0.7c0,2.1,0.7,3.9,2.2,5.5c1.5,1.6,3.5,2.3,6.1,2.3
			c2,0,3.6-0.5,4.7-1.4c1.1-1,1.7-2.2,1.7-3.7c0-0.9-0.3-1.7-0.8-2.4c-0.6-0.7-1.5-1.5-2.8-2.3l-7.9-5.2c-2.9-2-4.4-4.4-4.4-7.2
			c0-0.3,0-0.6,0.1-0.9c0.2-2.4,1.1-4.3,2.8-5.7c1.7-1.4,3.9-2.2,6.7-2.2c1.7,0,3.7,0.2,6.2,0.5h2.8l-0.6,6.6h-0.5
			c0-1.6-0.6-2.8-1.7-3.8c-1.2-0.9-2.7-1.4-4.6-1.4c-2.4,0-4.1,0.7-5.1,2.2c-0.5,0.7-0.8,1.4-0.8,2.1c0,0.7,0.1,1.3,0.4,1.8
			c0.4,0.8,1.3,1.6,2.8,2.5l8.6,5.6c2.7,1.8,4.1,4.1,4.1,7c0,3.2-1.1,5.6-3.3,7.3c-2.2,1.7-5.1,2.6-8.7,2.6c-2.1,0-3.9-0.2-5.7-0.7
			c-1.7-0.5-3-1.2-3.8-2C89.6,168.8,89.5,168.1,89.5,167.3z"/>
		<path class="st4" d="M137.3,171c0.8,0,1.4-0.2,1.8-0.6c0.7-0.7,1.1-1.4,1.1-2.2v-11.5h-14.7v11.5c0,0.8,0.3,1.5,0.9,2
			c0.6,0.6,1.3,0.8,2,0.8h0.5l0,0.5h-13.7V171h0.6c0.8,0,1.5-0.3,2-0.8c0.6-0.6,0.9-1.2,0.9-2v-25.1c0-0.8-0.3-1.5-0.9-2
			c-0.6-0.6-1.2-0.8-2-0.8h-0.6v-0.5H129l0,0.5h-0.5c-0.8,0-1.5,0.3-2,0.8c-0.6,0.6-0.9,1.2-0.9,2v11.6h14.7v-11.6
			c0-0.8-0.3-1.5-0.9-2c-0.6-0.6-1.2-0.8-2-0.8h-0.6v-0.5h13.7v0.5h-0.6c-0.8,0-1.5,0.3-2,0.8c-0.6,0.6-0.9,1.2-0.9,2v25.1
			c0,0.8,0.3,1.5,0.9,2c0.6,0.6,1.3,0.8,2,0.8h0.6v0.5h-13.7V171H137.3z"/>
		<path class="st4" d="M195.3,171h0.7v0.5h-13.6v-0.4h0.7c0.5,0,1-0.2,1.3-0.6c0.4-0.4,0.5-0.8,0.5-1.3l-1.8-16.4l-8.5,14.7
			c-1.1,1.9-1.7,3.5-1.7,5h-0.5l-11.6-19.5l-1.8,16.3c-0.1,0.5,0.1,0.9,0.5,1.3c0.4,0.4,0.8,0.6,1.3,0.6h0.7v0.4h-9.5V171h0.7
			c0.8,0,1.6-0.3,2.2-0.8c0.6-0.5,1-1.2,1.1-2.1l3.8-29h0.4l14,23.1l13.5-23.1h0.4l3.8,29c0.2,0.9,0.5,1.6,1.2,2.1
			C193.8,170.7,194.5,171,195.3,171z"/>
		<path class="st4" d="M229.2,171h0.4v0.5h-14.4V171h0.4c0.7,0,1.2-0.2,1.5-0.6c0.3-0.4,0.5-0.8,0.5-1.2c0-0.4-0.1-0.7-0.2-1.1
			l-2.2-5.6h-10.6l-2.4,5.6c-0.2,0.4-0.2,0.8-0.2,1.1c0,0.3,0.2,0.7,0.5,1.1c0.3,0.4,0.8,0.6,1.5,0.6h0.4v0.5h-9.7V171h0.4
			c0.7,0,1.4-0.2,2.1-0.6c0.7-0.4,1.3-1.1,1.7-1.9l10.4-23.7c1.4-3,2.2-5,2.3-5.9h0.4l13.4,29.5c0.5,0.9,1,1.5,1.7,2
			C227.8,170.8,228.5,171,229.2,171z M205.3,160.7h9l-4.4-11.1L205.3,160.7z"/>
		<path class="st4" d="M273.4,171h0.4v0.5h-14.4V171h0.4c0.7,0,1.2-0.2,1.5-0.6c0.3-0.4,0.5-0.8,0.5-1.2c0-0.4-0.1-0.7-0.2-1.1
			l-2.2-5.6h-10.6l-2.4,5.6c-0.2,0.4-0.2,0.8-0.2,1.1c0,0.3,0.2,0.7,0.5,1.1c0.3,0.4,0.8,0.6,1.5,0.6h0.4v0.5h-9.7V171h0.4
			c0.7,0,1.4-0.2,2.1-0.6c0.7-0.4,1.3-1.1,1.7-1.9l10.4-23.7c1.4-3,2.2-5,2.3-5.9h0.4l13.4,29.5c0.5,0.9,1,1.5,1.7,2
			C271.9,170.8,272.6,171,273.4,171z M249.4,160.7h9l-4.4-11.1L249.4,160.7z"/>
		<path class="st4" d="M303.6,144.1c3.1,2.8,4.7,6.7,4.7,11.6s-1.6,8.7-4.7,11.6c-3.1,2.8-7.3,4.3-12.7,4.3h-16.4V171h0.6
			c0.8,0,1.5-0.3,2-0.8c0.6-0.6,0.9-1.2,0.9-2v-25.3c0-0.7-0.3-1.3-0.9-1.8c-0.6-0.5-1.3-0.7-2-0.7h-0.6v-0.5h16.4
			C296.2,139.8,300.5,141.2,303.6,144.1z M290.3,169.5c2.2,0,4-0.6,5.6-1.7c1.6-1.1,2.8-2.7,3.6-4.8c0.8-2.1,1.3-4.4,1.3-6.9
			c0-2.5-0.2-4.6-0.7-6.3c-0.5-1.7-1.2-3.2-2.1-4.4c-1.9-2.5-4.4-3.8-7.7-3.8h-5.6v27.8H290.3z"/>
		<path class="st4" d="M333.4,139.8h9.7v0.5h-0.4c-0.7,0-1.4,0.2-2.1,0.6c-0.7,0.4-1.3,1.1-1.7,1.9l-10.7,23.7c-1.4,3-2.1,5-2.2,5.9
			h-0.4l-13.7-29.5c-0.5-0.8-1-1.5-1.7-1.9c-0.7-0.4-1.4-0.7-2.1-0.7h-0.4v-0.5H322v0.5h-0.4c-0.7,0-1.2,0.2-1.5,0.6
			c-0.3,0.4-0.5,0.8-0.5,1.2c0,0.4,0.1,0.7,0.2,1.1l7.7,18.7l8-18.7c0.2-0.4,0.2-0.8,0.2-1.1c0-0.3-0.2-0.7-0.5-1.1
			c-0.3-0.4-0.8-0.6-1.5-0.6h-0.4V139.8z"/>
		<path class="st4" d="M344.4,171c0.8,0,1.5-0.3,2-0.8c0.6-0.6,0.9-1.2,0.9-2v-25.1c0-0.8-0.3-1.4-0.9-2c-0.6-0.5-1.2-0.8-2-0.8
			h-0.6v-0.5h13.7l0,0.5H357c-0.8,0-1.5,0.3-2,0.8c-0.6,0.5-0.9,1.2-0.9,2v25.1c0,0.8,0.3,1.5,0.9,2c0.6,0.6,1.3,0.8,2,0.8h0.5
			l0,0.5h-13.7V171H344.4z"/>
		<path class="st4" d="M361.9,167.3c0-2.2,0.5-4,1.4-5.6h0.4c0,0.2,0,0.5,0,0.7c0,2.1,0.7,3.9,2.2,5.5c1.5,1.6,3.5,2.3,6.1,2.3
			c2,0,3.6-0.5,4.7-1.4c1.1-1,1.7-2.2,1.7-3.7c0-0.9-0.3-1.7-0.8-2.4c-0.6-0.7-1.5-1.5-2.8-2.3l-7.9-5.2c-2.9-2-4.4-4.4-4.4-7.2
			c0-0.3,0-0.6,0.1-0.9c0.2-2.4,1.1-4.3,2.8-5.7c1.7-1.4,3.9-2.2,6.7-2.2c1.7,0,3.7,0.2,6.2,0.5h2.8l-0.6,6.6h-0.5
			c0-1.6-0.6-2.8-1.7-3.8s-2.7-1.4-4.6-1.4c-2.4,0-4.1,0.7-5.1,2.2c-0.5,0.7-0.8,1.4-0.8,2.1c0,0.7,0.1,1.3,0.4,1.8
			c0.4,0.8,1.3,1.6,2.8,2.5l8.6,5.6c2.7,1.8,4.1,4.1,4.1,7c0,3.2-1.1,5.6-3.3,7.3s-5.1,2.6-8.7,2.6c-2.1,0-3.9-0.2-5.7-0.7
			s-3-1.2-3.8-2C362,168.8,361.9,168.1,361.9,167.3z"/>
		<path class="st4" d="M393,143.6c3.2-3,7.5-4.4,13-4.4s9.8,1.5,13,4.4c3.2,3,4.8,7,4.8,12s-1.6,9.1-4.8,12c-3.2,3-7.5,4.4-13,4.4
			s-9.8-1.5-13-4.4c-3.2-3-4.8-7-4.8-12S389.8,146.6,393,143.6z M398.4,166.3c1.9,2.6,4.4,3.9,7.6,3.9c3.2,0,5.7-1.3,7.6-3.9
			c1.9-2.6,2.8-6.2,2.8-10.7c0-4.5-0.9-8-2.8-10.7c-1.9-2.6-4.4-3.9-7.6-3.9c-3.2,0-5.7,1.3-7.6,3.9c-1.9,2.6-2.8,6.2-2.8,10.7
			C395.6,160.1,396.5,163.7,398.4,166.3z"/>
		<path class="st4" d="M439.4,141.8h-1.9c-0.1,0-0.1,0-0.1,0v26.4c0,0.8,0.3,1.5,0.9,2c0.6,0.6,1.2,0.8,2,0.8h0.6v0.5H427V171h0.6
			c1.1,0,1.9-0.5,2.5-1.4c0.2-0.4,0.4-0.9,0.4-1.4v-25.1c0-0.8-0.3-1.5-0.9-2c-0.6-0.6-1.2-0.8-2-0.8H427v-0.5h15.5
			c2.9,0,5.4,0.6,7.4,1.9c1,0.6,1.8,1.5,2.4,2.6c0.6,1.1,0.9,2.6,0.9,4.4c0,1.8-0.6,3.6-1.9,5.3c-1.3,1.7-3.1,2.7-5.5,2.9
			c1.7,0.6,3.3,1.9,4.6,4c3.3,5.2,5.7,8.3,7.2,9.3c0.8,0.5,1.8,0.7,2.9,0.8v0.5h-4.4c-2.6,0-4.8-0.3-6.5-1c-1.7-0.7-3.1-1.9-4.1-3.7
			c-0.6-1-1.8-3.6-3.8-7.7c-0.8-1.8-1.9-2.8-3.1-3v-0.5h1.4c1.4,0,2.6-0.4,3.6-1.2c1-0.8,1.7-2.1,2.1-4c0.1-0.6,0.2-1.1,0.2-1.5
			c0-2.5-0.5-4.3-1.5-5.4c-1-1.1-2.3-1.7-3.8-1.7C440.4,141.8,440,141.8,439.4,141.8z"/>
		<path class="st4" d="M490,140.3h-0.6c-0.9,0-1.8,0.3-2.6,0.8c-0.8,0.5-1.5,1.1-1.9,1.9l-8.9,14.2v11.1c0,0.8,0.3,1.5,0.9,2
			c0.6,0.6,1.3,0.8,2,0.8h0.5l0,0.5h-13.7V171h0.6c0.8,0,1.5-0.3,2-0.8c0.6-0.5,0.9-1.2,0.9-2V157l-8.6-14.2
			c-0.5-0.7-1.1-1.3-1.9-1.8c-0.8-0.5-1.7-0.7-2.6-0.7h-0.6v-0.5h15v0.5h-0.6c-0.7,0-1.2,0.3-1.5,0.9c-0.2,0.3-0.3,0.7-0.3,1
			c0,0.3,0.1,0.6,0.2,0.9l6.5,11.8l6.7-11.8c0.2-0.3,0.2-0.6,0.2-0.9c0-0.3-0.1-0.6-0.3-0.9c-0.4-0.6-0.9-0.9-1.5-0.9h-0.5v-0.5H490
			V140.3z"/>
	</g>
</g>
</svg>
