<?xml version="1.0" encoding="utf-8"?>
<!-- Generator: Adobe Illustrator 26.5.0, SVG Export Plug-In . SVG Version: 6.00 Build 0)  -->
<svg version="1.1" id="Layer_1" xmlns="http://www.w3.org/2000/svg" xmlns:xlink="http://www.w3.org/1999/xlink" x="0px" y="0px"
	 viewBox="0 0 432 120.4" style="enable-background:new 0 0 432 120.4;" xml:space="preserve">
<style type="text/css">
	.st0{fill:#02428D;}
	.st1{fill:#1A1A1A;}
	.st2{fill:#FFFFFF;}
</style>
<path class="st0" d="M240.8,65.1c1.5-7.8,3-15.5,4.5-23.4c-0.4,0-0.7,0-1,0c-7,0-13.9,0-20.9,0c-0.7,0-0.9,0.1-1.1,0.9
	c-1.4,7.3-2.8,14.6-4.2,21.8c-0.1,0.3-0.1,0.5-0.2,0.8c-3.6,0-7.2,0-11,0c0.3-1.7,0.6-3.4,1-5c2.8-14.1,5.5-28.2,8.3-42.3
	c1.1-5.6,6.4-10.2,12.1-10.3c8.2-0.1,16.3-0.1,24.5,0c5.7,0.1,9.3,4.6,8.2,10.2c-3,15.6-6.1,31.2-9.1,46.8c-0.1,0.4-0.2,0.7-0.7,0.7
	c-3.4,0-6.8,0-10.2,0C241,65.2,240.9,65.2,240.8,65.1z M227.2,17.9c-0.9,4.5-1.8,9-2.7,13.5c7.7,0,15.2,0,22.8,0
	c0.9-4.5,1.7-9,2.6-13.5C242.3,17.9,234.8,17.9,227.2,17.9z"/>
<path class="st0" d="M163.2,7.7c3.8,0,7.4,0,11.2,0c-1.6,8.2-3.2,16.3-4.8,24.5c7.7,0,15.4,0,23.2,0c0.7-3.4,1.3-6.8,2-10.2
	c0.9-4.5,1.8-9.1,2.6-13.6c0.1-0.4,0.2-0.7,0.7-0.7c3.4,0,6.7,0,10.1,0c0.1,0,0.2,0,0.4,0.1c-3.7,19.2-7.5,38.3-11.2,57.5
	c-3.6,0-7.3,0-11,0c1.6-8.1,3.1-16.2,4.7-24.3c-7.7,0-15.3,0-23.1,0c-1.6,8.1-3.1,16.2-4.7,24.3c-3.7,0-7.4,0-11.2,0
	C155.7,46,159.5,26.8,163.2,7.7z"/>
<path class="st0" d="M70.2,55.1c9.4,0,18.7,0,28.1,0c-0.7,3.4-1.3,6.7-1.9,10c-0.3,0-0.5,0-0.7,0c-9.2,0-18.3,0-27.5,0
	c-1.6,0-3.1-0.2-4.6-0.9c-3.3-1.5-5.1-5-4.4-8.8c1.7-9.2,3.5-18.4,5.3-27.6c0.7-3.4,1.3-6.8,2-10.2c1.2-5.5,6.5-9.9,12.3-10
	c7.2-0.1,14.4,0,21.6,0c2.4,0,4.7,0,7.2,0c-0.7,3.4-1.3,6.8-2,10.2c-9.4,0-18.7,0-28.1,0c-0.9,4.5-1.7,8.9-2.6,13.4
	c8.6,0,17.2,0,25.9,0c-0.4,2.3-0.9,4.4-1.3,6.6c-0.2,1-0.4,1.9-0.6,2.9c-0.1,0.7-0.4,0.9-1,0.9c-4.2,0-8.4,0-12.6,0
	c-3.8,0-7.5,0-11.3,0c-0.3,0-0.6,0-1,0C72,46,71.1,50.5,70.2,55.1z"/>
<path class="st0" d="M117.6,55.1c9.4,0,18.7,0,28.1,0c-0.7,3.4-1.3,6.7-2,10.1c-0.3,0-0.6,0-0.9,0c-9,0-18.1,0-27.1,0
	c-1.2,0-2.4-0.1-3.5-0.4c-4.1-1.1-6.5-5-5.7-9.2c1.7-9.2,3.5-18.3,5.3-27.5c0.7-3.4,1.3-6.9,2-10.3c1-5.1,5.5-9.4,10.7-10
	c0.7-0.1,1.5-0.2,2.2-0.2c9.1,0,18.2,0,27.3,0c0.3,0,0.5,0,0.9,0c-0.7,3.4-1.3,6.8-2,10.2c-9.4,0-18.7,0-28.1,0
	C122.4,30.2,120,42.6,117.6,55.1z"/>
<path class="st1" d="M373.4,7.6c2.9,0,5.7,0.1,8.5,0c1.1,0,1.6,0.3,2,1.3c3.4,8,6.9,16,10.4,24c0.1,0.3,0.3,0.6,0.4,1
	c0.2-0.3,0.5-0.5,0.7-0.8c6.8-8.3,13.6-16.5,20.3-24.8c0.4-0.5,0.7-0.6,1.3-0.6c3,0,6,0,9.2,0c-3.8,19.3-7.5,38.4-11.2,57.6
	c-3.7,0-7.3,0-11,0c2.3-11.7,4.5-23.3,6.8-35c-0.1,0-0.1-0.1-0.2-0.1c-6.6,8-13.1,16-19.8,24.2c-3.5-8.1-7-16.1-10.5-24.1
	c-0.1,0-0.1,0-0.2,0c-2.3,11.7-4.5,23.3-6.8,35c-3.7,0-7.3,0-11,0C366,46,369.7,26.8,373.4,7.6z"/>
<path class="st1" d="M339.5,65.2c-1.8-8-3.7-16-5.5-24c-3.1,0-6.1,0-9.2,0c-1.6,8-3.1,16-4.7,24c-3.7,0-7.3,0-11,0
	c3.7-19.2,7.4-38.4,11.2-57.6c0.4,0,0.7,0,1,0c11,0,21.9,0,32.9,0c2.1,0,4.2,0.3,6,1.5c3,2.1,3.9,5.1,3.3,8.5
	c-0.8,4.5-1.7,9-2.6,13.4c-1.2,5-5.9,9.4-10.9,10c-1.3,0.2-2.7,0.2-4.2,0.3c1.8,8,3.7,15.9,5.5,23.9
	C347.4,65.2,343.5,65.2,339.5,65.2z M352.1,17.5c-7.7,0-15.2,0-22.8,0c-0.9,4.6-1.8,9.2-2.7,13.9c7.7,0,15.3,0,22.9,0
	C350.4,26.8,351.3,22.2,352.1,17.5z"/>
<path class="st1" d="M311.9,7.6c-0.6,3.3-1.2,6.5-1.9,9.7c0,0.2-0.5,0.5-0.8,0.5c-3.9,0-7.8,0-11.8,0c-4.9,0-9.7,0-14.6,0
	c-0.3,0-0.6,0-1,0c-2.4,12.4-4.8,24.8-7.3,37.3c9.4,0,18.7,0,28.1,0c-0.7,3.4-1.3,6.7-1.9,10.1c-0.3,0-0.5,0-0.8,0
	c-9.2,0-18.3,0-27.5,0c-1.4,0-2.8-0.3-4.1-0.7c-3.6-1.3-5.6-5-4.9-8.9c1.6-8.3,3.2-16.5,4.8-24.8c0.8-4.4,1.7-8.7,2.5-13.1
	c1-5.1,5.5-9.3,10.6-10c0.8-0.1,1.6-0.2,2.4-0.2c9,0,18.1,0,27.1,0C311.3,7.6,311.6,7.6,311.9,7.6z"/>
<path class="st0" d="M61.9,7.7c-0.6,3.2-1.2,6.2-1.7,9.3c-0.1,0.6-0.5,0.6-0.9,0.6c-3.9,0-7.8,0-11.8,0c-1.5,0-2.9,0-4.5,0
	c-3.1,15.9-6.1,31.8-9.2,47.7c-3.7,0-7.4,0-11.1,0c3.1-15.9,6.2-31.7,9.3-47.7c-5.7,0-11.3,0-17,0c0.6-3.3,1.3-6.6,1.9-9.8
	C31.9,7.7,46.8,7.7,61.9,7.7z"/>
<g>
	<path d="M402.7,112.9c-131.5,0-262.9,0-394.4,0c-0.1,0-0.2-0.1-0.3-0.1c-2.2-0.6-2.7-1.5-1.9-3.7c4.1-10,8.2-20,12.3-30
		c0.6-1.5,1.6-2.5,3-3c0.7-0.3,1.5-0.5,2.2-0.7c131.5,0,262.9,0,394.4,0c0.1,0,0.2,0.1,0.3,0.1c2.2,0.6,2.7,1.5,1.9,3.7
		c-4.1,10-8.2,19.9-12.3,29.9c-0.6,1.5-1.6,2.5-3,3.1C404.2,112.5,403.4,112.6,402.7,112.9z M357.5,95.2c-0.4-2.2-0.8-4.1-1.2-6.1
		c-0.2-1.3-0.2-1.3-1.6-1.3c-0.6,0-0.9,0.1-1.2,0.8c-1.2,3.3-2.4,6.7-3.7,10c-0.2,0.6-0.5,1.2-0.7,1.9c0.4,0,0.7,0,0.9,0
		c1.6,0,1.6,0,2.1-1.5c0.8-2.1,1.5-4.2,2.3-6.3h0.1c0.4,2.6,0.8,5.1,1.2,7.7c1.4,0.1,1.4,0.1,1.9-1c0.9-1.9,1.9-3.7,2.8-5.6
		c0.2-0.4,0.4-0.7,0.6-1.1c0.1,0,0.1,0,0.2,0.1c0,2.6,0,5.1,0,7.6c0.9,0,1.7,0,2.5,0c-0.1-4.2-0.2-8.4-0.2-12.5
		c-1.6-0.5-2.6,0-3.1,1.4c0,0.1-0.1,0.1-0.1,0.2C359.5,91.4,358.6,93.2,357.5,95.2z M100.5,100.5c-0.1-4.2-0.2-8.4-0.2-12.6
		c-0.5,0-1,0-1.4,0c-0.6-0.1-0.9,0.2-1.2,0.7c-0.7,1.5-1.6,2.9-2.4,4.4c-0.4,0.7-0.8,1.4-1.2,2.3C94,95,94,94.8,93.9,94.7
		c-0.3-1.8-0.7-3.5-1-5.3C92.6,88,92.6,88,91.2,88c-0.5,0-0.8,0.2-1,0.7c-0.8,2.2-1.6,4.4-2.4,6.6c-0.7,1.8-1.3,3.6-2,5.4
		c0.7,0,1.3,0,1.8,0s0.8-0.1,0.9-0.6c0.8-2.2,1.6-4.4,2.4-6.6c0.1-0.2,0.2-0.3,0.3-0.6c0.4,2.7,0.8,5.3,1.2,7.8
		c1.4,0.1,1.4,0.1,1.9-1c0.9-1.7,1.7-3.4,2.6-5.2c0.3-0.5,0.5-1,0.8-1.5c0.1,0,0.2,0,0.2,0.1c0,2.6,0,5.1,0,7.7
		C98.9,100.5,99.6,100.5,100.5,100.5z M273.9,87.8c-0.5,0-1,0-1.4,0c-0.6-0.1-0.9,0.2-1.1,0.8c-0.7,1.9-1.4,3.8-2.1,5.7
		c-0.8,2-1.5,4.1-2.3,6.2c0.7,0,1.3,0,1.8,0s0.8-0.1,0.9-0.6c0.8-2.2,1.6-4.3,2.3-6.4c0.1-0.2,0.2-0.5,0.4-0.9
		c0.4,2.5,0.7,4.9,1.1,7.2c0,0.3,0.3,0.7,0.4,0.7c0.5,0,1,0.3,1.3-0.5s0.8-1.5,1.2-2.3c0.8-1.6,1.7-3.2,2.5-4.9c0.1,0,0.2,0,0.2,0
		c0,2.5,0,5.1,0,7.6c1,0,1.8,0,2.5,0c0-2.2,0-4.2,0-6.3c0-2.1-0.1-4.1-0.2-6.2c-2-0.3-2.1-0.3-3,1.4c-1,1.9-2.1,3.8-3.2,5.9
		C274.8,92.6,274.4,90.3,273.9,87.8z M333.2,95.7c-0.6,1.3-1.4,2-2.5,2.4c-1.7,0.6-3.4-0.1-3.9-1.7c-0.7-2.2,0.6-5.2,2.7-6.1
		c1.7-0.7,3.2-0.2,4.1,1.4c0,0.1,0.1,0.1,0.2,0.2c0.8-0.5,1.6-0.9,2.4-1.4c-0.7-1.5-1.8-2.3-3.3-2.7c-4-0.9-7.9,1.7-8.8,5.8
		c-0.4,2-0.4,3.9,1,5.4c1.6,1.8,4.8,2.1,7.3,0.7c0.2-0.1,0.4-0.2,0.7-0.4c0,0.4-0.1,0.7-0.1,1.1c0.7,0,1.4,0,2.1,0
		c0.4-2.3,0.8-4.6,1.2-6.9c-2,0-4,0-6,0c-0.1,0.7-0.2,1.4-0.3,2.2C331.1,95.7,332.1,95.7,333.2,95.7z M380.3,87.9
		c-0.8,4.3-1.5,8.4-2.2,12.6c0.9,0,1.6,0,2.5,0c0.5-2.7,1-5.5,1.5-8.2c0.3,0.3,0.4,0.5,0.5,0.8c1,2.3,2,4.6,3,6.9
		c0.1,0.2,0.3,0.5,0.5,0.5c0.7,0.1,1.5,0,2.2,0c0.7-4.2,1.5-8.4,2.2-12.6c-0.9,0-1.7,0-2.5,0c-0.5,2.7-1,5.5-1.5,8.2
		c-0.3-0.2-0.4-0.5-0.5-0.7c-1-2.3-2-4.7-3.1-7c-0.1-0.2-0.4-0.5-0.6-0.5C381.8,87.8,381.1,87.9,380.3,87.9z M221.2,87.9
		c-0.9,0-1.7,0-2.5,0c-0.5,2.8-1,5.5-1.5,8.4c-0.2-0.5-0.3-0.7-0.4-0.9c-1-2.3-2-4.7-3.1-7c-0.1-0.2-0.3-0.5-0.5-0.5
		c-0.7-0.1-1.5,0-2.2,0c-0.7,4.2-1.5,8.4-2.2,12.6c0.9,0,1.6,0,2.5,0c0.5-2.7,1-5.5,1.5-8.2c0.3,0.3,0.4,0.5,0.5,0.8
		c1,2.3,2,4.6,3,6.8c0.1,0.2,0.3,0.5,0.5,0.6c0.8,0.1,1.5,0,2.3,0C219.7,96.3,220.4,92.1,221.2,87.9z M310.2,87.8
		c-0.7,0-1.3,0-1.9,0c-0.5,0-0.6,0.2-0.7,0.6c-0.2,1.4-0.5,2.7-0.7,4.1c-0.2,1.2-0.4,2.4-0.7,3.8c-0.2-0.5-0.4-0.9-0.5-1.2
		c-1-2.2-1.9-4.5-2.9-6.7c-0.1-0.3-0.4-0.6-0.6-0.6c-0.7-0.1-1.4,0-2.1,0c-0.7,4.2-1.5,8.4-2.2,12.6c0.9,0,1.7,0,2.5,0
		c0.5-2.8,1-5.5,1.5-8.4c0.2,0.4,0.3,0.6,0.4,0.8c1,2.3,2,4.7,3.1,7c0.1,0.2,0.4,0.5,0.6,0.6c0.7,0.1,1.4,0,2.2,0
		C308.7,96.3,309.4,92.1,310.2,87.8z M200,100.7c0.4,0,0.8,0,1.2-0.1c3.5-0.6,6-3.4,6.3-7c0.3-3.7-1.8-5.9-5.4-5.9
		c-3.7,0-6.7,2.9-7.3,6.9C194.3,98.2,196.5,100.7,200,100.7z M72.5,95.4c0,0.4,0,0.9,0.1,1.3c0.6,2.9,3.1,4.4,6.3,3.9
		c3.8-0.6,6.5-4,6.4-7.8c-0.1-3.1-2.1-5.1-5.2-5.1C75.9,87.7,72.5,91.1,72.5,95.4z M141.3,100.5c-0.5-1.4-0.9-2.7-1.4-4
		c-0.2-0.5-0.1-0.7,0.4-1c1.1-0.6,1.8-1.4,2.3-2.6c0.9-2.4-0.2-4.6-2.7-4.9c-1.9-0.2-3.8,0-5.9,0c-0.7,4.1-1.5,8.3-2.2,12.5
		c0.9,0,1.7,0,2.5,0c0.3-1.4,0.5-2.7,0.7-4.1c0.6,0,1.2,0.1,1.7,0s0.7,0.1,0.8,0.5c0.4,1.2,0.8,2.4,1.2,3.6
		C139.6,100.5,140.4,100.5,141.3,100.5z M122.6,95.9c0.6-0.4,1.1-0.7,1.6-1.1c1.4-1.2,1.9-3.2,1.3-4.7c-0.7-1.7-2.2-2.1-3.9-2.2
		c-1.3,0-2.7,0-4,0c-0.5,0-0.7,0.1-0.8,0.7c-0.5,2.8-1,5.5-1.5,8.3c-0.2,1.2-0.4,2.4-0.6,3.7c0.7,0,1.3,0,1.9,0
		c0.5,0,0.7-0.1,0.8-0.7c0.2-1.2,0.4-2.3,0.6-3.5c0.6,0,1.2,0.1,1.7,0s0.7,0.1,0.9,0.6c0.4,1.2,0.8,2.4,1.2,3.6c0.9,0,1.7,0,2.5,0
		C123.6,98.9,123.1,97.4,122.6,95.9z M242.6,100.5c0.7-4.2,1.5-8.4,2.2-12.6c-0.7,0-1.2,0-1.8,0s-0.8,0.1-0.9,0.7
		c-0.2,1.4-0.5,2.8-0.7,4.3c-1.5,0-3,0-4.5,0c0.3-1.7,0.6-3.3,0.9-5c-0.7,0-1.3,0-2,0c-0.4,0-0.6,0.1-0.6,0.5
		c-0.4,2.3-0.8,4.6-1.2,6.9c-0.3,1.7-0.6,3.4-0.9,5.2c0.9,0,1.7,0,2.5,0c0.3-1.7,0.6-3.4,0.9-5c1.5,0,3,0,4.5,0
		c-0.3,1.7-0.6,3.4-0.9,5.1C240.9,100.5,241.7,100.5,242.6,100.5z M107.1,90.4c0.3,0,0.6,0,0.8,0c1.7,0,3.5,0,5.2,0
		c0.2,0,0.7-0.2,0.7-0.3c0.2-0.7,0.3-1.4,0.4-2.1c-3.1,0-6.1,0-9.2,0c-0.7,4.2-1.5,8.4-2.2,12.6c3.1,0,6.1,0,9.2,0
		c0.1-0.8,0.3-1.6,0.4-2.4c-2.3,0-4.4,0-6.7,0c0.1-0.7,0.3-1.3,0.3-2c0-0.5,0.3-0.6,0.7-0.6c1,0,2,0,3.1,0c0.1-0.9,0.3-1.7,0.4-2.5
		c-1.3,0-2.4,0-3.6,0C106.8,92,106.9,91.2,107.1,90.4z M370.5,90.4c0.3,0,0.6,0,0.9,0c1.7,0,3.5,0,5.2,0c0.2,0,0.6-0.1,0.7-0.3
		c0.2-0.7,0.3-1.4,0.4-2.2c-3,0-5.9,0-8.8,0c-0.2,0-0.4,0.4-0.5,0.6c-0.3,1.6-0.6,3.2-0.9,4.9c-0.4,2.4-0.8,4.7-1.3,7.2
		c3,0,5.9,0,8.8,0c0.1,0,0.4-0.2,0.4-0.3c0.1-0.7,0.2-1.4,0.4-2.2c-2.3,0-4.4,0-6.7,0c0.2-0.9,0.3-1.7,0.5-2.6c1.1,0,2.1,0,3.1,0
		c0.2,0,0.6-0.1,0.6-0.3c0.2-0.7,0.3-1.4,0.4-2.2c-1.3,0-2.4,0-3.6,0C370.3,92,370.4,91.2,370.5,90.4z M153.4,98.1
		c-2.3,0-4.4,0-6.7,0c0.2-0.9,0.3-1.7,0.5-2.6c1.1,0,2.1,0,3.1,0c0.2,0,0.6-0.2,0.6-0.3c0.2-0.7,0.3-1.4,0.4-2.2c-1.3,0-2.4,0-3.7,0
		c0.2-0.9,0.3-1.7,0.5-2.6c2.1,0,4,0,6,0c0.2,0,0.6-0.1,0.6-0.3c0.2-0.7,0.3-1.4,0.4-2.2c-3,0-5.9,0-8.8,0c-0.2,0-0.4,0.3-0.5,0.5
		c-0.4,2.3-0.8,4.6-1.2,6.9c-0.3,1.7-0.6,3.4-0.9,5.2c3.1,0,6.1,0,9.2,0C153.1,99.7,153.2,98.9,153.4,98.1z M347.4,98.1
		c-2.3,0-4.5,0-6.7,0c0.2-0.9,0.3-1.7,0.5-2.6c1.1,0,2.1,0,3.1,0c0.2,0,0.5-0.2,0.6-0.3c0.2-0.7,0.3-1.4,0.4-2.3c-1.3,0-2.5,0-3.7,0
		c0.2-0.9,0.3-1.7,0.5-2.6c2.3,0,4.5,0,6.7,0c0.1-0.8,0.3-1.6,0.4-2.4c-0.2,0-0.2-0.1-0.3-0.1c-2.8,0-5.6,0-8.4,0
		c-0.4,0-0.5,0.2-0.6,0.5c-0.4,2.2-0.8,4.3-1.2,6.5c-0.3,1.8-0.6,3.7-1,5.6c3.1,0,6.1,0,9.2,0C347.1,99.7,347.3,98.9,347.4,98.1z
		 M322.3,100.5c-1-4.3-1.9-8.5-2.9-12.7c-0.5,0-1,0-1.5,0c-0.6-0.1-1,0.2-1.3,0.7c-2.2,3.8-4.4,7.5-6.5,11.3
		c-0.1,0.2-0.2,0.4-0.3,0.7c0.8,0,1.6,0,2.3,0c0.2,0,0.4-0.2,0.5-0.4c0.4-0.7,0.8-1.5,1.2-2.2c0.1-0.2,0.3-0.4,0.5-0.4
		c1.6,0,3.1,0,4.7,0c0.2,0.9,0.3,1.7,0.5,2.5c0.1,0.2,0.3,0.5,0.5,0.5C320.8,100.5,321.5,100.5,322.3,100.5z M283.1,100.5
		c0.8,0,1.3,0,1.9,0c0.5,0,0.8-0.1,1.1-0.6c0.3-0.7,0.7-1.4,1.1-2c0.1-0.2,0.4-0.4,0.7-0.4c1.3,0,2.7,0,4,0c0.2,0,0.5,0.3,0.6,0.5
		c0.2,0.7,0.3,1.4,0.5,2.1c0,0.2,0.2,0.4,0.4,0.4c0.7,0,1.5,0,2.3,0c-1-4.3-1.9-8.4-2.9-12.7c-0.5,0-0.9,0-1.3,0
		c-0.7-0.1-1.1,0.2-1.5,0.8c-1.7,3.1-3.6,6.1-5.4,9.2C284.1,98.7,283.7,99.5,283.1,100.5z M174.5,87.8c-0.6,0-1.2-0.1-1.8,0
		c-0.3,0-0.7,0.2-0.8,0.5c-2.3,3.8-4.5,7.7-6.7,11.5c-0.1,0.2-0.2,0.4-0.3,0.6c0.8,0,1.4,0.1,2,0c0.3,0,0.6-0.2,0.8-0.5
		c0.4-0.7,0.8-1.4,1.2-2c0.1-0.2,0.5-0.5,0.7-0.5c1.3,0,2.6,0,4,0c0.4,0,0.6,0.2,0.6,0.6c0.1,0.7,0.3,1.3,0.4,2
		c0.1,0.2,0.3,0.4,0.4,0.5c0.7,0,1.5,0,2.3,0C176.5,96.2,175.5,92.1,174.5,87.8z M41.7,87.8c-0.7,0-1.4,0-2,0
		c-0.4,0-0.6,0.2-0.6,0.6c-0.4,2.5-0.9,5-1.3,7.5c-0.4,2.2,0.8,4.1,2.8,4.6c3.3,0.9,6.7-1.1,7.5-4.5c0.4-1.7,0.6-3.4,0.9-5.1
		c0.2-1,0.3-2,0.5-3c-0.9,0-1.7,0-2.5,0c-0.1,0.3-0.1,0.6-0.2,0.9c-0.4,2.3-0.7,4.6-1.2,6.8c-0.2,0.7-0.6,1.5-1.2,2
		c-0.8,0.8-2.3,0.9-3.2,0.4c-0.8-0.5-1.1-1.4-0.9-2.8C40.8,92.8,41.3,90.4,41.7,87.8z M252.7,88c-0.7,4.1-1.5,8.3-2.2,12.5
		c0.9,0,1.7,0,2.5,0c0.2-1.2,0.5-2.3,0.6-3.4c0.1-0.6,0.3-0.7,0.9-0.7c0.8,0,1.6,0,2.4-0.1c2.2-0.2,4-1.7,4.5-3.8
		c0.6-2.2-0.5-4.2-2.8-4.4C256.7,87.8,254.8,88,252.7,88z M36.3,90.5c-0.9-1.9-2.4-2.7-4.4-2.8c-4.9-0.2-8.7,4.1-7.9,8.9
		c0.3,1.9,1.4,3.2,3.3,3.8c1.6,0.5,3.2,0.3,4.7-0.3c1.2-0.5,2.1-1.2,2.9-2.3c-0.7-0.5-1.3-1-1.8-1.3c-0.9,0.6-1.6,1.2-2.4,1.5
		c-1.7,0.7-3.3-0.1-3.9-1.7c-0.7-2.1,0.6-5,2.6-6c1.7-0.8,3.2-0.4,4.2,1.2c0.1,0.1,0.1,0.2,0.2,0.3C34.6,91.5,35.4,91,36.3,90.5z
		 M50,98.4c2.2,2.9,6.2,3,8.3,0.4c1.3-1.6,1.1-3.4-0.6-4.6c-0.5-0.4-1-0.6-1.6-0.9c-0.5-0.3-1.1-0.6-1.6-1c-0.8-0.6-0.7-1.5,0.2-2
		c0.9-0.4,1.8-0.4,2.6,0.2c0.5,0.3,0.9,0.7,1.3,1.1c0.6-0.5,1.3-1.1,1.9-1.6c-1.9-2.7-5.6-3-7.9-0.8c-1.8,1.7-1.6,3.8,0.5,5.2
		c0.6,0.4,1.2,0.6,1.7,1c0.4,0.3,0.9,0.5,1.3,0.8c0.7,0.6,0.7,1.3-0.1,1.8s-1.7,0.6-2.6,0.1c-0.5-0.3-1-0.8-1.5-1.2
		C51.3,97.3,50.7,97.8,50,98.4z M232.5,89.9c-0.4-0.3-0.7-0.5-0.9-0.8c-2.4-2.1-6.1-1.7-7.7,0.8c-1,1.5-0.8,3,0.6,4.1
		c0.5,0.4,1,0.7,1.5,1c0.6,0.4,1.3,0.7,1.9,1.1c0.7,0.6,0.7,1.3-0.1,1.8c-0.9,0.6-1.8,0.6-2.7,0c-0.5-0.3-0.9-0.7-1.4-1.1
		c-0.6,0.5-1.3,1.1-1.9,1.6c2.2,2.9,6.1,3,8.3,0.4c1.3-1.6,1.1-3.5-0.6-4.7c-0.6-0.4-1.3-0.7-1.9-1.1c-0.5-0.3-0.9-0.5-1.4-0.8
		c-0.7-0.6-0.7-1.3,0.1-1.8s1.7-0.6,2.6-0.1c0.5,0.3,1,0.8,1.6,1.2C231.1,91.1,231.7,90.5,232.5,89.9z M182.8,100.5
		c0.1-0.2,0.1-0.4,0.2-0.6c0.5-3,1-5.9,1.5-8.9c0.1-0.4,0.2-0.7,0.7-0.6c0.8,0,1.7,0,2.5,0c0.2,0,0.6-0.2,0.6-0.4
		c0.2-0.6,0.2-1.3,0.4-2c-3.3,0-6.5,0-9.8,0c-0.1,0.8-0.3,1.6-0.4,2.5c1.3,0,2.4,0,3.6,0c-0.6,3.4-1.2,6.8-1.8,10.1
		C181.2,100.5,182,100.5,182.8,100.5z M392.4,90.3c1.2,0,2.4,0,3.6,0c-0.6,3.4-1.2,6.8-1.8,10.2c0.9,0,1.7,0,2.5,0
		c0.1-0.2,0.1-0.3,0.1-0.5c0.5-2.7,0.9-5.4,1.4-8.1c0.3-1.5,0.2-1.5,1.8-1.5c2.3,0,2.3,0,2.5-2.2c0,0,0-0.1,0-0.2
		c-3.2,0-6.5,0-9.8,0C392.7,88.7,392.5,89.5,392.4,90.3z M66.5,100.5c0.6-3.4,1.2-6.7,1.8-10.1c1,0,2.1,0,3.1,0
		c0.2,0,0.6-0.2,0.6-0.3c0.2-0.7,0.3-1.4,0.4-2.2c-3.2,0-6.4,0-9.5,0c-0.1,0-0.3,0.2-0.4,0.3c-0.1,0.7-0.2,1.4-0.4,2.2
		c1.2,0,2.4,0,3.6,0c-0.6,3.4-1.2,6.8-1.8,10.1C64.8,100.5,65.6,100.5,66.5,100.5z M155.6,100.5c2.5,0,4.9,0,7.3,0
		c0.1,0,0.4-0.1,0.4-0.2c0.1-0.7,0.3-1.4,0.4-2.2c-1.7,0-3.4,0-5.1,0c0.6-3.4,1.2-6.8,1.8-10.2c-0.9,0-1.7,0-2.5,0
		C157.1,92.1,156.3,96.2,155.6,100.5z M191.4,100.5c0.7-4.2,1.5-8.4,2.2-12.6c-0.9,0-1.7,0-2.5,0c-0.7,4.2-1.5,8.4-2.2,12.6
		C189.7,100.5,190.5,100.5,191.4,100.5z M247.8,100.5c0.7-4.2,1.5-8.4,2.2-12.6c-0.7,0-1.3,0-1.8,0c-0.6-0.1-0.8,0.2-0.8,0.7
		c-0.2,1.4-0.5,2.7-0.7,4c-0.5,2.6-0.9,5.2-1.4,7.9C246.1,100.5,246.9,100.5,247.8,100.5z"/>
	<path class="st2" d="M357.5,95.2c1.1-2,2.1-3.8,3.1-5.6c0-0.1,0.1-0.1,0.1-0.2c0.5-1.5,1.5-1.9,3.1-1.4c0.1,4.1,0.2,8.2,0.2,12.5
		c-0.8,0-1.6,0-2.5,0c0-2.5,0-5.1,0-7.6c-0.1,0-0.1,0-0.2-0.1c-0.2,0.4-0.4,0.7-0.6,1.1c-0.9,1.9-1.9,3.7-2.8,5.6
		c-0.6,1.1-0.6,1.1-1.9,1c-0.4-2.5-0.8-5.1-1.2-7.7h-0.1c-0.8,2.1-1.5,4.2-2.3,6.3c-0.5,1.5-0.5,1.5-2.1,1.5c-0.3,0-0.6,0-0.9,0
		c0.3-0.7,0.5-1.3,0.7-1.9c1.2-3.3,2.5-6.7,3.7-10c0.2-0.6,0.5-0.8,1.2-0.8c1.4,0,1.4,0,1.6,1.3C356.7,91.1,357.1,93,357.5,95.2z"/>
	<path class="st2" d="M100.5,100.5c-0.9,0-1.6,0-2.5,0c0-2.6,0-5.1,0-7.7c-0.1,0-0.2,0-0.2-0.1c-0.3,0.5-0.5,1-0.8,1.5
		c-0.9,1.7-1.7,3.4-2.6,5.2c-0.6,1.1-0.6,1.1-1.9,1c-0.4-2.5-0.8-5.1-1.2-7.8c-0.2,0.3-0.3,0.5-0.3,0.6c-0.8,2.2-1.6,4.4-2.4,6.6
		c-0.2,0.5-0.4,0.7-0.9,0.6c-0.6,0-1.2,0-1.8,0c0.7-1.9,1.4-3.7,2-5.4c0.8-2.2,1.6-4.4,2.4-6.6c0.2-0.5,0.4-0.7,1-0.7
		c1.5,0,1.5,0,1.7,1.4c0.3,1.8,0.7,3.5,1,5.3c0,0.1,0.1,0.3,0.2,0.6c0.5-0.9,0.9-1.6,1.2-2.3c0.8-1.4,1.6-2.9,2.4-4.4
		c0.3-0.5,0.6-0.8,1.2-0.7c0.4,0.1,0.9,0,1.4,0C100.3,92.1,100.4,96.2,100.5,100.5z"/>
	<path class="st2" d="M273.9,87.8c0.5,2.4,0.9,4.8,1.4,7.4c1.1-2.1,2.2-4,3.2-5.9c0.9-1.7,1-1.7,3-1.4c0.1,2.1,0.1,4.1,0.2,6.2
		c0,2.1,0,4.2,0,6.3c-0.7,0-1.5,0-2.5,0c0-2.5,0-5,0-7.6c-0.1,0-0.2,0-0.2,0c-0.8,1.6-1.7,3.2-2.5,4.9c-0.4,0.8-0.8,1.5-1.2,2.3
		c-0.3,0.7-0.9,0.5-1.3,0.5c-0.2,0-0.4-0.4-0.4-0.7c-0.4-2.3-0.7-4.7-1.1-7.2c-0.2,0.4-0.3,0.6-0.4,0.9c-0.8,2.1-1.6,4.3-2.3,6.4
		c-0.2,0.5-0.4,0.7-0.9,0.6c-0.6-0.1-1.2,0-1.8,0c0.8-2.1,1.6-4.2,2.3-6.2c0.7-1.9,1.4-3.8,2.1-5.7c0.2-0.6,0.5-0.8,1.1-0.8
		C273,87.9,273.4,87.8,273.9,87.8z"/>
	<path class="st2" d="M333.2,95.7c-1.1,0-2.1,0-3.2,0c0.1-0.8,0.2-1.5,0.3-2.2c2,0,3.9,0,6,0c-0.4,2.3-0.8,4.6-1.2,6.9
		c-0.7,0-1.4,0-2.1,0c0-0.3,0.1-0.6,0.1-1.1c-0.3,0.2-0.5,0.3-0.7,0.4c-2.4,1.4-5.6,1.1-7.3-0.7c-1.4-1.6-1.5-3.5-1-5.4
		c0.9-4.1,4.8-6.7,8.8-5.8c1.5,0.3,2.6,1.2,3.3,2.7c-0.8,0.5-1.6,0.9-2.4,1.4c-0.1-0.1-0.2-0.1-0.2-0.2c-0.9-1.6-2.4-2.1-4.1-1.4
		c-2.1,0.9-3.4,3.9-2.7,6.1c0.6,1.6,2.2,2.3,3.9,1.7C331.8,97.7,332.6,97,333.2,95.7z"/>
	<path class="st2" d="M380.3,87.9c0.8,0,1.4,0,2.1,0c0.2,0,0.5,0.3,0.6,0.5c1,2.3,2,4.6,3.1,7c0.1,0.2,0.2,0.5,0.5,0.7
		c0.5-2.7,1-5.4,1.5-8.2c0.8,0,1.6,0,2.5,0c-0.7,4.2-1.5,8.4-2.2,12.6c-0.8,0-1.5,0-2.2,0c-0.2,0-0.4-0.3-0.5-0.5
		c-1-2.3-2-4.6-3-6.9c-0.1-0.3-0.2-0.5-0.5-0.8c-0.5,2.7-1,5.5-1.5,8.2c-0.9,0-1.6,0-2.5,0C378.8,96.3,379.6,92.1,380.3,87.9z"/>
	<path class="st2" d="M221.2,87.9c-0.7,4.2-1.5,8.4-2.2,12.6c-0.8,0-1.5,0-2.3,0c-0.2,0-0.4-0.3-0.5-0.6c-1-2.3-2-4.6-3-6.8
		c-0.1-0.3-0.2-0.5-0.5-0.8c-0.5,2.7-1,5.5-1.5,8.2c-0.9,0-1.6,0-2.5,0c0.7-4.2,1.5-8.4,2.2-12.6c0.8,0,1.5,0,2.2,0
		c0.2,0,0.4,0.3,0.5,0.5c1,2.3,2,4.6,3.1,7c0.1,0.2,0.2,0.5,0.4,0.9c0.5-2.9,1-5.7,1.5-8.4C219.5,87.9,220.3,87.9,221.2,87.9z"/>
	<path class="st2" d="M310.2,87.8c-0.8,4.3-1.5,8.5-2.2,12.7c-0.8,0-1.5,0-2.2,0c-0.2,0-0.5-0.3-0.6-0.6c-1-2.3-2.1-4.7-3.1-7
		c-0.1-0.2-0.2-0.4-0.4-0.8c-0.5,2.9-1,5.6-1.5,8.4c-0.8,0-1.6,0-2.5,0c0.7-4.2,1.5-8.4,2.2-12.6c0.8,0,1.5-0.1,2.1,0
		c0.2,0,0.5,0.3,0.6,0.6c1,2.2,2,4.5,2.9,6.7c0.1,0.3,0.3,0.6,0.5,1.2c0.3-1.4,0.5-2.6,0.7-3.8c0.2-1.4,0.5-2.7,0.7-4.1
		c0.1-0.4,0.2-0.6,0.7-0.6C308.9,87.9,309.5,87.8,310.2,87.8z"/>
	<path class="st2" d="M200,100.7c-3.5,0-5.7-2.5-5.2-6.1c0.6-4.1,3.6-6.9,7.3-6.9s5.8,2.3,5.4,5.9c-0.3,3.5-2.9,6.3-6.3,7
		C200.8,100.7,200.4,100.7,200,100.7z M204.8,93.3c0-2.5-1.9-3.9-4.3-3c-2,0.7-3.4,3.3-3,5.5c0.3,2,1.7,2.9,3.6,2.5
		C203.3,97.9,204.8,95.8,204.8,93.3z"/>
	<path class="st2" d="M72.5,95.4c0-4.4,3.4-7.8,7.6-7.7c3.1,0,5.1,2,5.2,5.1c0.1,3.8-2.7,7.2-6.4,7.8c-3.2,0.5-5.7-1-6.3-3.9
		C72.5,96.3,72.5,95.9,72.5,95.4z M75.2,94.7c0,2.3,0.8,3.4,2.6,3.6c1,0.1,1.9-0.2,2.6-0.8c1.3-0.9,1.8-2.3,2-3.8
		c0.2-1.2,0-2.4-1.1-3.2c-1-0.8-2.2-0.8-3.4-0.2C76.1,91.3,75.4,93,75.2,94.7z"/>
	<path class="st2" d="M141.3,100.5c-0.9,0-1.6,0-2.5,0c-0.4-1.2-0.8-2.4-1.2-3.6c-0.1-0.4-0.3-0.6-0.8-0.5s-1.1,0-1.7,0
		c-0.2,1.4-0.5,2.7-0.7,4.1c-0.8,0-1.6,0-2.5,0c0.7-4.2,1.5-8.4,2.2-12.5c2,0,4-0.2,5.9,0c2.5,0.3,3.6,2.5,2.7,4.9
		c-0.4,1.1-1.2,2-2.3,2.6c-0.5,0.3-0.5,0.5-0.4,1C140.4,97.8,140.8,99.1,141.3,100.5z M135.4,93.9c0.9,0,1.7,0.1,2.4,0
		c0.7-0.2,1.5-0.5,2-1c1-1,0.5-2.4-0.9-2.6c-0.9-0.1-1.9,0-2.8,0C135.8,91.5,135.6,92.7,135.4,93.9z"/>
	<path class="st2" d="M122.6,95.9c0.5,1.5,1,3,1.5,4.6c-0.9,0-1.7,0-2.5,0c-0.4-1.2-0.8-2.4-1.2-3.6c-0.1-0.5-0.3-0.6-0.9-0.6
		c-0.5,0.1-1.1,0-1.7,0c-0.2,1.2-0.5,2.3-0.6,3.5c-0.1,0.5-0.3,0.7-0.8,0.7c-0.6,0-1.2,0-1.9,0c0.2-1.3,0.4-2.5,0.6-3.7
		c0.5-2.8,1-5.5,1.5-8.3c0.1-0.6,0.3-0.7,0.8-0.7c1.3,0,2.7,0,4,0c1.7,0,3.1,0.5,3.9,2.2c0.6,1.5,0.1,3.5-1.3,4.7
		C123.7,95.1,123.2,95.5,122.6,95.9z M118.3,94c0.7,0,1.3,0,1.9,0c0.2,0,0.5,0.1,0.7,0c0.6-0.3,1.4-0.5,1.9-1c0.9-1.1,0.4-2.4-1-2.6
		c-0.9-0.1-1.8,0-2.8,0C118.7,91.4,118.5,92.6,118.3,94z"/>
	<path class="st2" d="M242.6,100.5c-0.9,0-1.6,0-2.5,0c0.3-1.7,0.6-3.4,0.9-5.1c-1.5,0-3,0-4.5,0c-0.3,1.7-0.6,3.3-0.9,5
		c-0.8,0-1.6,0-2.5,0c0.3-1.8,0.6-3.5,0.9-5.2c0.4-2.3,0.8-4.6,1.2-6.9c0.1-0.4,0.2-0.6,0.6-0.5c0.6,0,1.3,0,2,0
		c-0.3,1.7-0.6,3.3-0.9,5c1.5,0,3,0,4.5,0c0.3-1.4,0.5-2.8,0.7-4.3c0.1-0.6,0.3-0.8,0.9-0.7c0.6,0,1.1,0,1.8,0
		C244.1,92.1,243.3,96.3,242.6,100.5z"/>
	<path class="st2" d="M107.1,90.4c-0.1,0.9-0.3,1.7-0.4,2.6c1.2,0,2.4,0,3.6,0c-0.1,0.9-0.3,1.7-0.4,2.5c-1,0-2.1,0-3.1,0
		c-0.5,0-0.7,0.1-0.7,0.6c-0.1,0.6-0.2,1.2-0.3,2c2.2,0,4.4,0,6.7,0c-0.1,0.9-0.3,1.6-0.4,2.4c-3.1,0-6.1,0-9.2,0
		c0.7-4.2,1.5-8.4,2.2-12.6c3.1,0,6.1,0,9.2,0c-0.1,0.7-0.2,1.4-0.4,2.1c0,0.2-0.5,0.3-0.7,0.3c-1.7,0-3.5,0-5.2,0
		C107.6,90.4,107.4,90.4,107.1,90.4z"/>
	<path class="st2" d="M370.5,90.4c-0.1,0.9-0.3,1.7-0.4,2.6c1.2,0,2.4,0,3.6,0c-0.1,0.8-0.2,1.5-0.4,2.2c0,0.1-0.4,0.3-0.6,0.3
		c-1,0-2,0-3.1,0c-0.2,0.9-0.3,1.7-0.5,2.6c2.2,0,4.4,0,6.7,0c-0.1,0.8-0.2,1.5-0.4,2.2c0,0.1-0.3,0.3-0.4,0.3c-2.9,0-5.8,0-8.8,0
		c0.4-2.5,0.8-4.8,1.3-7.2c0.3-1.6,0.6-3.2,0.9-4.9c0-0.2,0.3-0.6,0.5-0.6c2.9,0,5.8,0,8.8,0c-0.1,0.8-0.2,1.5-0.4,2.2
		c0,0.1-0.4,0.3-0.7,0.3c-1.7,0-3.5,0-5.2,0C371.1,90.4,370.9,90.4,370.5,90.4z"/>
	<path class="st2" d="M153.4,98.1c-0.2,0.9-0.3,1.6-0.4,2.4c-3.1,0-6.1,0-9.2,0c0.3-1.8,0.6-3.5,0.9-5.2c0.4-2.3,0.8-4.6,1.2-6.9
		c0-0.2,0.3-0.5,0.5-0.5c2.9,0,5.8,0,8.8,0c-0.1,0.8-0.2,1.5-0.4,2.2c0,0.1-0.4,0.3-0.6,0.3c-2,0-4,0-6,0c-0.2,0.8-0.3,1.6-0.5,2.6
		c1.2,0,2.4,0,3.7,0c-0.1,0.8-0.2,1.5-0.4,2.2c0,0.2-0.4,0.3-0.6,0.3c-1,0-2,0-3.1,0c-0.2,0.9-0.3,1.7-0.5,2.6
		C148.9,98.1,151.1,98.1,153.4,98.1z"/>
	<path class="st2" d="M347.4,98.1c-0.2,0.9-0.3,1.7-0.4,2.4c-3.1,0-6.1,0-9.2,0c0.3-1.9,0.6-3.7,1-5.6c0.4-2.2,0.8-4.3,1.2-6.5
		c0.1-0.4,0.1-0.5,0.6-0.5c2.8,0,5.6,0,8.4,0c0.1,0,0.1,0,0.3,0.1c-0.1,0.8-0.2,1.5-0.4,2.4c-2.2,0-4.4,0-6.7,0
		c-0.2,0.9-0.3,1.7-0.5,2.6c1.2,0,2.4,0,3.7,0c-0.1,0.8-0.2,1.6-0.4,2.3c0,0.1-0.4,0.3-0.6,0.3c-1,0-2,0-3.1,0
		c-0.2,0.9-0.3,1.7-0.5,2.6C343,98.1,345.2,98.1,347.4,98.1z"/>
	<path class="st2" d="M322.3,100.5c-0.8,0-1.5,0-2.3,0c-0.2,0-0.4-0.3-0.5-0.5c-0.2-0.8-0.4-1.6-0.5-2.5c-1.6,0-3.1,0-4.7,0
		c-0.2,0-0.4,0.2-0.5,0.4c-0.4,0.7-0.8,1.5-1.2,2.2c-0.1,0.2-0.4,0.4-0.5,0.4c-0.7,0-1.5,0-2.3,0c0.1-0.3,0.2-0.5,0.3-0.7
		c2.2-3.8,4.4-7.5,6.5-11.3c0.3-0.5,0.6-0.8,1.3-0.7c0.5,0.1,1,0,1.5,0C320.4,92.1,321.3,96.2,322.3,100.5z M317.7,91
		c-0.8,1.5-1.5,2.7-2.2,4c1.1,0,2,0,3,0C318.2,93.7,318,92.4,317.7,91z"/>
	<path class="st2" d="M283.1,100.5c0.6-1,1-1.8,1.5-2.6c1.8-3.1,3.6-6.1,5.4-9.2c0.4-0.6,0.8-0.9,1.5-0.8c0.4,0.1,0.9,0,1.3,0
		c1,4.2,1.9,8.4,2.9,12.7c-0.8,0-1.6,0-2.3,0c-0.1,0-0.3-0.3-0.4-0.4c-0.2-0.7-0.3-1.4-0.5-2.1c-0.1-0.2-0.4-0.5-0.6-0.5
		c-1.3,0-2.7,0-4,0c-0.2,0-0.6,0.2-0.7,0.4c-0.4,0.6-0.8,1.3-1.1,2c-0.2,0.5-0.5,0.7-1.1,0.6C284.5,100.5,283.9,100.5,283.1,100.5z
		 M288.9,95c1.1,0,2,0,3,0c-0.3-1.3-0.5-2.5-0.8-4C290.3,92.4,289.6,93.7,288.9,95z"/>
	<path class="st2" d="M174.5,87.8c1,4.2,1.9,8.4,2.9,12.7c-0.8,0-1.6,0-2.3,0c-0.2,0-0.4-0.3-0.4-0.5c-0.2-0.7-0.3-1.3-0.4-2
		c-0.1-0.4-0.2-0.6-0.6-0.6c-1.3,0-2.6,0-4,0c-0.3,0-0.6,0.2-0.7,0.5c-0.4,0.7-0.8,1.4-1.2,2c-0.2,0.2-0.5,0.5-0.8,0.5
		c-0.6,0.1-1.3,0-2,0c0.1-0.3,0.2-0.5,0.3-0.6c2.2-3.8,4.5-7.7,6.7-11.5c0.1-0.2,0.5-0.4,0.8-0.5C173.3,87.8,173.9,87.8,174.5,87.8z
		 M170.6,95c1.1,0,2.1,0,3.1,0c-0.3-1.3-0.5-2.5-0.8-4C172,92.4,171.3,93.6,170.6,95z"/>
	<path class="st2" d="M41.7,87.8c-0.5,2.6-0.9,5-1.3,7.4c-0.3,1.4,0,2.3,0.9,2.8s2.4,0.4,3.2-0.4c0.5-0.5,1-1.3,1.2-2
		c0.5-2.2,0.8-4.5,1.2-6.8c0.1-0.3,0.1-0.6,0.2-0.9c0.8,0,1.6,0,2.5,0c-0.2,1-0.3,2-0.5,3c-0.3,1.7-0.5,3.4-0.9,5.1
		c-0.7,3.3-4.2,5.4-7.5,4.5c-2-0.5-3.2-2.4-2.8-4.6c0.4-2.5,0.9-5,1.3-7.5c0.1-0.4,0.2-0.6,0.6-0.6C40.4,87.9,41,87.8,41.7,87.8z"/>
	<path class="st2" d="M252.7,88c2.1,0,4.1-0.2,6,0c2.3,0.3,3.4,2.2,2.8,4.4c-0.6,2-2.3,3.5-4.5,3.8c-0.8,0.1-1.6,0.1-2.4,0.1
		c-0.6,0-0.8,0.1-0.9,0.7c-0.1,1.1-0.4,2.2-0.6,3.4c-0.8,0-1.6,0-2.5,0C251.2,96.3,252,92.1,252.7,88z M254.2,93.9
		c0.9,0,1.8,0.1,2.5,0c0.6-0.1,1.2-0.4,1.7-0.8s0.7-1.1,0.5-1.8c-0.2-0.7-0.7-1-1.4-1.1c-0.8-0.1-1.6-0.1-2.4-0.1
		c-0.1,0-0.4,0.2-0.4,0.3C254.6,91.6,254.4,92.7,254.2,93.9z"/>
	<path class="st2" d="M36.3,90.5c-0.9,0.5-1.6,0.9-2.4,1.4c-0.1-0.1-0.2-0.2-0.2-0.3c-1-1.6-2.5-2-4.2-1.2c-2,1-3.3,3.8-2.6,6
		c0.5,1.6,2.1,2.4,3.9,1.7c0.8-0.3,1.5-0.9,2.4-1.5c0.5,0.3,1.1,0.8,1.8,1.3c-0.8,1-1.8,1.8-2.9,2.3c-1.5,0.6-3.1,0.8-4.7,0.3
		c-1.9-0.5-3-1.9-3.3-3.8c-0.8-4.8,3-9.1,7.9-8.9C33.8,87.8,35.3,88.6,36.3,90.5z"/>
	<path class="st2" d="M50,98.4c0.7-0.6,1.3-1.1,1.9-1.6c0.5,0.4,1,0.9,1.5,1.2c0.9,0.5,1.8,0.5,2.6-0.1c0.8-0.5,0.8-1.2,0.1-1.8
		c-0.4-0.3-0.8-0.6-1.3-0.8c-0.6-0.3-1.2-0.6-1.7-1c-2.1-1.4-2.3-3.5-0.5-5.2c2.3-2.2,6-1.9,7.9,0.8c-0.6,0.5-1.3,1.1-1.9,1.6
		c-0.5-0.4-0.9-0.8-1.3-1.1c-0.8-0.5-1.7-0.6-2.6-0.2c-0.9,0.5-1,1.4-0.2,2c0.5,0.4,1.1,0.6,1.6,1c0.5,0.3,1.1,0.6,1.6,0.9
		c1.6,1.2,1.9,3,0.6,4.6C56.2,101.4,52.2,101.3,50,98.4z"/>
	<path class="st2" d="M232.5,89.9c-0.8,0.7-1.4,1.2-2,1.7c-0.6-0.4-1-0.9-1.6-1.2c-0.9-0.5-1.8-0.4-2.6,0.1s-0.8,1.2-0.1,1.8
		c0.4,0.3,0.9,0.6,1.4,0.8c0.6,0.4,1.3,0.7,1.9,1.1c1.7,1.2,1.9,3.1,0.6,4.7c-2.2,2.6-6.1,2.4-8.3-0.4c0.6-0.5,1.3-1.1,1.9-1.6
		c0.5,0.4,0.9,0.8,1.4,1.1c0.9,0.6,1.8,0.6,2.7,0c0.8-0.5,0.8-1.2,0.1-1.8c-0.6-0.4-1.3-0.8-1.9-1.1c-0.5-0.3-1.1-0.6-1.5-1
		c-1.4-1.1-1.6-2.6-0.6-4.1c1.7-2.6,5.3-2.9,7.7-0.8C231.8,89.3,232.1,89.5,232.5,89.9z"/>
	<path class="st2" d="M182.8,100.5c-0.8,0-1.6,0-2.5,0c0.6-3.4,1.2-6.7,1.8-10.1c-1.2,0-2.4,0-3.6,0c0.2-0.9,0.3-1.7,0.4-2.5
		c3.3,0,6.5,0,9.8,0c-0.1,0.7-0.2,1.4-0.4,2c-0.1,0.2-0.4,0.4-0.6,0.4c-0.8,0.1-1.7,0.1-2.5,0c-0.5,0-0.7,0.2-0.7,0.6
		c-0.5,3-1,5.9-1.5,8.9C182.9,100.1,182.9,100.3,182.8,100.5z"/>
	<path class="st2" d="M392.4,90.3c0.2-0.9,0.3-1.6,0.4-2.4c3.3,0,6.5,0,9.8,0c0,0.1,0,0.2,0,0.2c-0.3,2.2-0.3,2.2-2.5,2.2
		c-1.6,0-1.5,0-1.8,1.5c-0.5,2.7-0.9,5.4-1.4,8.1c0,0.2-0.1,0.3-0.1,0.5c-0.8,0-1.6,0-2.5,0c0.6-3.4,1.2-6.7,1.8-10.2
		C394.8,90.3,393.6,90.3,392.4,90.3z"/>
	<path class="st2" d="M66.5,100.5c-0.9,0-1.7,0-2.5,0c0.6-3.4,1.2-6.7,1.8-10.1c-1.2,0-2.4,0-3.6,0c0.1-0.8,0.2-1.5,0.4-2.2
		c0-0.1,0.2-0.3,0.4-0.3c3.1,0,6.3,0,9.5,0c-0.1,0.8-0.2,1.5-0.4,2.2c0,0.2-0.4,0.3-0.6,0.3c-1,0-2,0-3.1,0
		C67.7,93.8,67.1,97.1,66.5,100.5z"/>
	<path class="st2" d="M155.6,100.5c0.8-4.3,1.5-8.5,2.2-12.6c0.8,0,1.6,0,2.5,0c-0.6,3.4-1.2,6.7-1.8,10.2c1.7,0,3.4,0,5.1,0
		c-0.1,0.8-0.2,1.5-0.4,2.2c0,0.1-0.3,0.2-0.4,0.2C160.5,100.5,158.1,100.5,155.6,100.5z"/>
	<path class="st2" d="M191.4,100.5c-0.9,0-1.6,0-2.5,0c0.7-4.2,1.5-8.4,2.2-12.6c0.9,0,1.6,0,2.5,0
		C192.8,92.1,192.1,96.3,191.4,100.5z"/>
	<path class="st2" d="M247.8,100.5c-0.9,0-1.7,0-2.5,0c0.5-2.7,0.9-5.3,1.4-7.9c0.2-1.3,0.5-2.7,0.7-4c0.1-0.5,0.3-0.7,0.8-0.7
		c0.6,0.1,1.1,0,1.8,0C249.3,92.1,248.5,96.3,247.8,100.5z"/>
	<path d="M204.8,93.3c0,2.5-1.6,4.6-3.7,5c-2,0.4-3.3-0.5-3.6-2.5c-0.4-2.1,1-4.7,3-5.5C202.9,89.4,204.9,90.8,204.8,93.3z"/>
	<path d="M75.2,94.7c0.1-1.7,0.8-3.4,2.8-4.3c1.1-0.5,2.3-0.6,3.4,0.2c1,0.8,1.2,1.9,1.1,3.2c-0.2,1.5-0.8,2.8-2,3.8
		c-0.8,0.6-1.7,0.9-2.6,0.8C76.1,98.1,75.2,97,75.2,94.7z"/>
	<path d="M135.4,93.9c0.2-1.3,0.4-2.5,0.6-3.7c1,0,1.9-0.1,2.8,0c1.4,0.2,1.9,1.6,0.9,2.6c-0.5,0.5-1.3,0.8-2,1
		C137.1,94.1,136.3,93.9,135.4,93.9z"/>
	<path d="M118.3,94c0.2-1.3,0.5-2.5,0.7-3.7c1,0,1.9-0.1,2.8,0c1.4,0.2,2,1.5,1,2.6c-0.4,0.5-1.2,0.7-1.9,1c-0.2,0.1-0.5,0-0.7,0
		C119.6,94,119,94,118.3,94z"/>
	<path d="M317.7,91c0.3,1.4,0.5,2.7,0.8,4c-1,0-1.9,0-3,0C316.2,93.7,316.9,92.4,317.7,91z"/>
	<path d="M288.9,95c0.7-1.3,1.4-2.5,2.2-4c0.3,1.4,0.6,2.7,0.8,4C290.9,95,289.9,95,288.9,95z"/>
	<path d="M170.6,95c0.8-1.3,1.5-2.6,2.2-4c0.3,1.5,0.6,2.7,0.8,4C172.6,95,171.7,95,170.6,95z"/>
	<path d="M254.2,93.9c0.2-1.2,0.4-2.3,0.6-3.4c0-0.1,0.3-0.3,0.4-0.3c0.8,0,1.6,0,2.4,0.1c0.7,0.1,1.2,0.4,1.4,1.1
		c0.2,0.7,0,1.4-0.5,1.8s-1.1,0.7-1.7,0.8C255.9,94,255.1,93.9,254.2,93.9z"/>
</g>
<g>
	<path class="st0" d="M285.9,52c-0.4-0.2-0.5-0.6-0.4-1c0.5-2.7,1-5.3,1.5-8c0-0.1,0-0.1,0-0.2c-0.1,0-0.1,0-0.2,0
		c-0.5,0-1.1,0-1.6,0c-0.2,0-0.3,0-0.5-0.1c-0.3-0.1-0.4-0.3-0.4-0.5s0-0.3,0.1-0.5c0.5-1.8,0.9-3.6,1.4-5.4
		c0.6-2.1,1.9-3.7,3.8-4.9c1-0.6,2-1.1,3.1-1.3c0.1,0,0.1,0,0.2,0c-0.1,0.3-0.1,0.5-0.2,0.8c-0.5,1.8-1,3.6-1.4,5.3
		c0,0.1,0,0.2-0.1,0.3c0,0.5,0.4,0.8,0.9,0.7s0.8-0.5,1-1c0.5-1.8,0.9-3.5,1.4-5.3c0.1-0.3,0.2-0.6,0.3-1c0.5,0.2,1.1,0.3,1.5,0.6
		c1.5,0.7,2.3,2,2.4,3.6c0.1,0.9-0.1,1.8-0.3,2.7c-0.4,1.6-0.9,3.2-1.3,4.8c-0.2,0.7-0.6,1.1-1.4,1.1c-0.6,0-1.1,0-1.7,0
		c-0.1,0-0.2,0-0.2,0.1c-0.9,2.7-1.9,5.4-2.8,8.1c-0.2,0.4-0.4,0.8-0.8,1c0,0-0.1,0-0.1,0.1C288.7,52,287.3,52,285.9,52z"/>
	<path class="st0" d="M299.9,24.4c-0.1,0.3-0.1,0.7-0.2,1c-0.5,1.8-1.7,3-3.3,3.9c-0.9,0.5-1.8,0.7-2.9,0.6
		c-1.9-0.1-3.2-1.6-3.1-3.5c0.1-1.4,0.7-2.6,1.6-3.6c1-1.1,2.2-1.8,3.7-2c0.1,0,0.2,0,0.3-0.1c0.2,0,0.5,0,0.7,0
		c0.1,0,0.3,0,0.4,0.1c1.4,0.3,2.3,1,2.7,2.4c0.1,0.2,0.1,0.4,0.1,0.7C299.9,24.1,299.9,24.3,299.9,24.4z"/>
</g>
</svg>
