<svg width="102" height="35" viewBox="0 0 102 35" fill="none" xmlns="http://www.w3.org/2000/svg">
<path d="M101.978 27.5176C101.951 31.6147 98.7835 34.7891 94.7579 34.7524C90.7263 34.7127 87.5742 31.4833 87.6074 27.429C87.6407 23.5397 91.0014 20.1851 94.8426 20.2034C98.7896 20.2248 102.002 23.5184 101.975 27.5176H101.978ZM99.0857 27.5085C99.0918 25.0521 97.2392 23.1334 94.8486 23.1212C92.4913 23.109 90.5087 25.104 90.5057 27.4932C90.4997 29.9588 92.3644 31.8347 94.8214 31.8347C97.2754 31.8347 99.0797 30.0046 99.0857 27.5115V27.5085Z" fill="white"/>
<path d="M72.1036 34.6395C72.1036 29.8367 72.1036 25.1408 72.1036 20.445C72.1248 20.4266 72.1489 20.393 72.1701 20.393C74.2917 20.448 76.4253 20.1669 78.5288 20.6374C81.276 21.2546 83.2736 23.488 83.6031 26.311C83.8267 28.2266 83.6091 30.0658 82.5392 31.7157C81.4936 33.3319 79.9341 34.224 78.0845 34.4073C76.111 34.6028 74.1103 34.5692 72.1006 34.6365L72.1036 34.6395ZM74.9989 31.7034C75.9116 31.6515 76.782 31.6576 77.6342 31.5415C79.2874 31.3154 80.3572 30.3622 80.6625 28.8224C80.7924 28.1655 80.8166 27.4659 80.7622 26.7968C80.6655 25.6236 80.1578 24.6428 79.1272 24.0043C77.8428 23.2099 76.4253 23.2802 74.9958 23.323V31.7034H74.9989Z" fill="white"/>
<path d="M55.6416 20.0753C58.3797 22.7914 61.0453 25.4433 63.8015 28.1778V20.3961H66.6847V34.9542C63.9345 32.2809 61.2629 29.687 58.5218 27.0229V34.5448H55.6416V20.0723V20.0753Z" fill="white"/>
<path d="M44.1905 29.3233V31.6453H50.6247V34.5447H41.3013V20.4143H50.5522V23.2954H44.1965V26.4056H48.9444V29.3233H44.1875H44.1905Z" fill="white"/>
<path d="M6.29221 27.6155C7.0266 25.8771 7.72775 24.2212 8.4289 22.5652C8.69788 21.9267 8.96081 21.2851 9.24187 20.6527C9.29023 20.5427 9.42623 20.393 9.52294 20.3899C10.5021 20.3716 11.4783 20.3777 12.524 20.3777C10.4417 25.2447 8.38055 30.0566 6.27106 34.9878C4.1525 30.0536 2.08834 25.2416 0 20.3777C1.02452 20.3777 1.97652 20.3655 2.92548 20.393C3.05544 20.396 3.23375 20.5824 3.29722 20.726C4.22805 22.8433 5.14378 24.9697 6.06252 27.0931C6.12599 27.2397 6.1955 27.3864 6.29523 27.6155H6.29221Z" fill="white"/>
<path d="M30.5484 34.9938C28.4298 30.0566 26.3687 25.2569 24.2773 20.3807C25.317 20.3807 26.2901 20.3685 27.2633 20.396C27.3751 20.3991 27.5202 20.6007 27.5806 20.7413C28.5084 22.8616 29.4241 24.988 30.3429 27.1114C30.4064 27.258 30.4759 27.4047 30.5696 27.6155C30.9776 26.65 31.3644 25.7426 31.7482 24.8352C32.3345 23.4512 32.9148 22.0642 33.5132 20.6832C33.5676 20.5549 33.7398 20.396 33.8607 20.393C34.8127 20.3685 35.7677 20.3807 36.8013 20.3807C34.7221 25.2385 32.6639 30.0505 30.5484 34.9938Z" fill="white"/>
<path d="M17.0331 20.3962H19.8588V34.548H17.0331V20.3962Z" fill="white"/>
<path d="M61.7616 17.1728C61.1994 16.3785 60.6585 15.6177 60.0994 14.8295C60.2203 14.7317 60.326 14.64 60.4379 14.5606C66.9477 9.85251 73.4605 5.14747 79.9703 0.442437C80.8286 -0.177772 81.4089 -0.150275 82.2218 0.552425C84.5006 2.5261 86.7793 4.49977 89.058 6.47344C89.2333 6.6262 89.4116 6.77285 89.6715 6.99282C89.6715 6.13125 89.6715 5.37356 89.6715 4.61586C89.6715 3.47016 90.2216 2.908 91.3519 2.90494C93.1199 2.90494 94.8909 2.90189 96.6589 2.90494C97.765 2.90494 98.3029 3.46099 98.3029 4.59142C98.3029 6.98671 98.309 9.382 98.2969 11.7773C98.2969 12.1164 98.3815 12.3242 98.6747 12.5136C99.7747 13.2316 100.854 13.9801 101.975 14.7439C101.449 15.5627 100.938 16.3571 100.412 17.1789C100.246 17.0781 100.113 17.0017 99.9833 16.9162C98.7593 16.0943 97.5504 15.2572 96.3143 14.4567C95.7099 14.0657 95.4349 13.5554 95.4409 12.8283C95.4621 10.6896 95.447 8.54793 95.447 6.40928C95.447 6.23513 95.447 6.06098 95.447 5.85017H92.6031C92.594 6.01515 92.5759 6.18319 92.5759 6.35123C92.5759 7.54887 92.5698 8.74652 92.5759 9.94416C92.5759 10.6163 92.3764 11.1754 91.7357 11.4779C91.0769 11.7926 90.5238 11.5757 90.001 11.1204C87.1238 8.59987 84.2407 6.09153 81.3575 3.57709C81.2638 3.4946 81.1641 3.41516 81.0341 3.30212C74.624 7.9155 68.2109 12.5289 61.7616 17.1728Z" fill="#FD4F4E"/>
</svg>
