<svg width="143" height="56" viewBox="0 0 143 56" fill="none" xmlns="http://www.w3.org/2000/svg">
<g clip-path="url(#clip0_59_10)">
<path d="M140.126 14.6838H49.3507V17.5435H140.126V52.0298H58.5121L25.9887 27.6481L24.2581 29.9324L57.5419 54.8852V54.8895H140.126H143V52.0298V17.5435V14.6838H140.126Z" fill="#101C42"/>
<path d="M105.179 27.0685C107.547 27.0685 109.894 26.9273 112.214 27.1085C114.421 27.2834 115.624 29.3655 114.891 31.3232C114.63 32.0186 114.114 32.497 113.495 32.9079C113.836 33.0975 114.167 33.2408 114.457 33.4453C116.153 34.6443 116.137 37.2427 114.433 38.4923C113.815 38.9454 113.11 39.1519 112.355 39.2299C112.167 39.2488 111.976 39.2446 111.786 39.2446C109.595 39.2446 107.403 39.2446 105.179 39.2446V27.0685ZM108.178 34.2503V36.7432C109.248 36.7432 110.284 36.7685 111.315 36.7348C111.985 36.7116 112.415 36.2269 112.442 35.5821C112.474 34.8614 112.103 34.3093 111.407 34.2692C110.337 34.206 109.261 34.2524 108.178 34.2524V34.2503ZM108.172 29.5046V31.9364C109.091 31.9364 109.979 31.9575 110.866 31.9301C111.527 31.909 111.947 31.4307 111.97 30.7584C111.993 30.1157 111.567 29.5488 110.936 29.5172C110.023 29.4708 109.106 29.5046 108.172 29.5046Z" fill="#101C42"/>
<path d="M63.5704 30.0989C62.3672 29.629 61.1556 29.3213 59.8868 29.3192C59.4546 29.3192 59.0141 29.3782 58.5946 29.4815C58.171 29.5869 57.8871 29.8756 57.866 30.3476C57.8448 30.8028 58.027 31.1357 58.5269 31.3085C59.3106 31.5804 60.1198 31.7806 60.9078 32.0377C61.5009 32.2316 62.0961 32.4381 62.6638 32.6973C65.1294 33.8247 64.8328 36.9815 63.3014 38.2353C62.3799 38.9876 61.3102 39.3227 60.1537 39.3943C58.4718 39.4976 56.8386 39.2258 55.2542 38.6505C54.9661 38.5451 54.8411 38.4102 54.8814 38.0815C54.9725 37.3671 55.0191 36.6464 55.0847 35.9046C56.5124 36.5136 57.974 36.8171 59.4928 36.8023C59.8804 36.7981 60.2786 36.7223 60.6514 36.6127C61.0687 36.4926 61.3632 36.2144 61.3844 35.7424C61.4055 35.2619 61.1238 34.9669 60.7108 34.832C59.9778 34.5939 59.2174 34.4358 58.4845 34.1977C57.8363 33.987 57.1881 33.753 56.5781 33.4538C54.0489 32.2063 54.4111 28.9863 56.1629 27.7345C57.0229 27.1213 57.9867 26.8221 59.0204 26.7525C60.5392 26.6493 62.0198 26.8473 63.4433 27.4163C63.7144 27.5238 63.8224 27.6481 63.7801 27.9579C63.6848 28.6575 63.6382 29.3656 63.5704 30.0989Z" fill="#CB001C"/>
<path d="M123.43 31.4181C123.468 31.0978 123.497 30.847 123.531 30.573H126.279V39.2236H123.538C123.504 38.9602 123.47 38.7094 123.438 38.4629C123.385 38.4565 123.349 38.4418 123.336 38.4523C121.341 40.1171 118.526 39.5713 117.35 37.2533C116.575 35.7254 116.583 34.1471 117.323 32.6024C118.507 30.1284 121.678 29.7027 123.43 31.416V31.4181ZM123.413 34.8994C123.411 33.7446 122.64 32.9248 121.544 32.9122C120.451 32.8995 119.634 33.7614 119.642 34.9183C119.651 36.0689 120.43 36.8929 121.521 36.8992C122.637 36.9056 123.417 36.0816 123.413 34.9015V34.8994Z" fill="#101C42"/>
<path d="M128.117 40.4733C128.611 40.5112 129.028 40.5871 129.441 40.5639C129.99 40.5344 130.384 40.2119 130.661 39.7483C130.827 39.4744 130.856 39.2215 130.723 38.897C129.657 36.3113 128.619 33.7172 127.573 31.1252C127.503 30.9524 127.439 30.7775 127.353 30.552C128.382 30.552 129.369 30.5414 130.356 30.5667C130.462 30.5688 130.61 30.7669 130.655 30.8997C131.197 32.5645 131.725 34.2356 132.256 35.9046C132.29 36.0142 132.33 36.1216 132.407 36.3513C133.029 34.3557 133.618 32.4654 134.209 30.5731H137.414C137.152 31.2242 136.902 31.8396 136.654 32.4528C135.573 35.1101 134.502 37.7696 133.409 40.4206C132.652 42.2561 131.267 43.1727 129.412 43.0526C128.939 43.021 128.475 42.8566 128.016 42.7218C127.918 42.6923 127.785 42.5174 127.797 42.4267C127.891 41.7545 128.016 41.0886 128.122 40.4733H128.117Z" fill="#101C42"/>
<path d="M68.2326 35.6074C68.2453 36.0795 68.4699 36.4019 68.8173 36.5578C69.26 36.7559 69.7429 36.9329 70.2216 36.9751C71.3062 37.072 72.3759 36.9161 73.4583 36.5199C73.5854 37.1921 73.7146 37.8349 73.8248 38.4818C73.8375 38.5534 73.7633 38.682 73.6955 38.7157C71.7828 39.6977 68.4254 39.7883 66.6503 38.0709C65.3158 36.7812 64.9832 34.4947 65.8708 32.7035C66.6778 31.0746 68.5758 30.1368 70.4949 30.4086C72.1958 30.651 73.4541 31.437 73.9624 33.1503C74.1976 33.9426 74.1679 34.7497 74.0218 35.6053H68.2326V35.6074ZM68.2474 33.9131H71.446C71.3337 33.0807 70.7406 32.6213 69.8425 32.6445C68.9274 32.6698 68.2983 33.1671 68.2474 33.9131Z" fill="#CB001C"/>
<path d="M103.535 35.6094H97.7989C97.7862 36.0541 98.0044 36.3723 98.3285 36.5261C98.7797 36.739 99.2754 36.9265 99.7668 36.975C100.864 37.0803 101.946 36.9139 103.02 36.5261C103.145 37.1815 103.272 37.8032 103.374 38.4269C103.389 38.5196 103.311 38.6882 103.228 38.7283C101.277 39.7103 98.0447 39.7566 96.2823 38.1445C94.8948 36.8759 94.5284 34.5979 95.4075 32.7603C96.2039 31.0934 98.0934 30.1388 100.036 30.4086C101.756 30.6488 103.018 31.4475 103.531 33.1776C103.738 33.8793 103.741 34.9857 103.535 35.6073V35.6094ZM97.8032 33.9173H101.004C100.909 33.1059 100.33 32.6402 99.4554 32.6444C98.5255 32.6486 97.8731 33.1439 97.8053 33.9173H97.8032Z" fill="#CB001C"/>
<path d="M78.953 30.5478H81.4229V32.8743H79.1055C79.1055 33.9764 79.0737 35.0301 79.1203 36.0795C79.1415 36.5727 79.544 36.8782 80.1032 36.8845C80.637 36.8909 81.1729 36.8171 81.7766 36.7729C81.8338 37.4493 81.9016 38.1616 81.9461 38.8739C81.9503 38.9434 81.8253 39.0635 81.7385 39.0867C80.5735 39.4218 79.3936 39.5756 78.2053 39.211C77.0063 38.8422 76.2671 37.8834 76.2162 36.5832C76.176 35.5274 76.1972 34.4695 76.1908 33.4138C76.1908 33.2578 76.1908 33.0998 76.1908 32.8975H74.8288V30.5605H76.176V27.7957H78.9551V30.5436L78.953 30.5478Z" fill="#CB001C"/>
<path d="M89.0443 32.8763H86.6846C86.6846 33.1081 86.6846 33.302 86.6846 33.4959C86.6909 34.2777 86.6676 35.0595 86.71 35.8392C86.7481 36.5494 87.1167 36.8718 87.839 36.895C88.0996 36.9034 88.3644 36.8802 88.6228 36.8507C88.8664 36.8233 89.1057 36.7707 89.4023 36.7201C89.4658 37.4619 89.5315 38.1783 89.576 38.8948C89.5802 38.9559 89.4658 39.0592 89.3896 39.0824C88.1949 39.4259 86.9896 39.5903 85.7737 39.192C84.6108 38.8084 83.897 37.877 83.8462 36.6126C83.8038 35.5421 83.825 34.4695 83.8186 33.3989C83.8186 33.243 83.8186 33.0892 83.8186 32.8869H82.4481V30.5667H83.8017V27.7935H86.5829V30.5309H89.0422V32.8763H89.0443Z" fill="#CB001C"/>
<path d="M90.7113 26.51H93.5222V39.2151H90.7113V26.51Z" fill="#CB001C"/>
<path d="M47.6224 34.4358C48.834 33.066 50.5964 31.1357 52.846 28.904C49.5119 27.764 47.7177 27.1529 47.7177 27.1529C47.7177 27.1529 47.3767 19.891 46.7433 6.36201C45.2288 7.12275 43.7481 7.86453 42.2463 8.61895C39.9883 5.74035 37.8256 2.87228 35.5739 0C34.3728 3.41386 33.4641 5.91104 33.1972 6.66125C33.1718 6.735 32.9811 7.17754 32.6147 7.6559C32.3012 8.06683 31.8542 8.27546 31.331 8.24806C30.6341 8.21224 30.0961 8.11109 30.077 8.10687C29.342 7.90668 28.1516 7.5969 26.6391 7.17543C26.9887 9.05517 27.336 10.8843 27.6665 12.7177C27.9588 14.3403 28.2003 15.9693 28.1389 17.6278C28.124 17.9986 28.1198 18.3632 27.9503 18.7109C27.7046 19.2104 27.4441 19.3178 26.9357 19.1008C26.1054 18.7446 25.4741 18.1188 24.8831 17.4824C23.6313 16.1379 22.426 14.7492 21.2249 13.3583C19.5388 11.4069 17.876 9.43449 16.2005 7.47467C15.8976 7.12275 15.5735 6.78769 15.2113 6.39362C15.1647 6.54956 15.1308 6.62121 15.1223 6.69918C15.0079 7.73388 14.8935 8.76857 14.7855 9.80537C14.7198 10.4397 14.6626 11.074 14.6012 11.7104C14.5716 12.0138 14.4106 12.3173 14.239 12.5533C13.8217 13.1244 12.8685 13.3583 9.54922 12.9221C8.02197 12.7219 7.04122 12.5154 5.30851 12.2035C3.84904 11.9401 2.66071 11.7483 1.90238 11.6282C2.11844 12.0855 2.43194 12.7367 2.81746 13.5122C3.9719 15.8281 5.2725 18.1019 6.04354 20.5696C6.23841 21.1955 6.40152 21.8319 6.37822 22.4978C6.35915 23.0562 6.12827 23.4566 5.586 23.6695C4.26845 24.19 2.95727 24.721 1.64396 25.2499C1.29445 25.3911 0.951296 25.545 0.493757 25.7409C1.17159 26.0634 1.72657 26.331 2.28578 26.5923C3.90624 27.3488 5.5288 28.099 7.14926 28.8556C8.23379 29.3613 9.32468 29.8523 10.3944 30.3876C11.5425 30.9608 12.699 31.5319 13.7179 32.3179C14.1119 32.6214 14.4678 32.9944 14.7728 33.3905C15.0545 33.7572 14.9719 34.1597 14.616 34.4695C14.4275 34.6339 14.2072 34.7708 13.9806 34.8804C12.9342 35.3798 11.803 35.6159 10.6676 35.7655C10.2122 35.8245 10.0406 35.8456 9.15946 35.9509C6.66418 36.246 4.5057 36.5304 4.5057 36.5304C4.75988 36.9435 5.04797 37.4282 5.35511 37.9761C6.0626 39.2362 6.17063 39.6324 6.27866 39.9338C6.63029 40.92 6.49472 41.8662 5.73639 42.6501C5.41018 42.9873 5.06703 43.3181 4.68786 43.5921C3.51013 44.4413 2.30909 45.2611 1.12287 46.0977C0.758537 46.3548 0.409028 46.6329 -0.00402832 46.9469C0.256515 47.0692 0.432328 47.164 0.616615 47.2378C1.33682 47.5243 2.05913 47.8025 2.77933 48.087C3.82998 48.5 4.88062 48.9194 5.93339 49.3303C7.20433 49.8277 8.47951 50.3144 9.75045 50.816C10.1699 50.9825 10.1847 51.0035 10.1063 51.4503C9.91779 52.525 9.70173 53.5955 9.50262 54.6682C9.42424 55.0854 9.32045 55.5006 9.30986 56.0021C16.1136 54.3226 22.8348 52.662 29.628 50.9825C30.6151 52.4766 31.6149 53.9854 32.6655 55.5764C33.229 54.5797 34.1271 53.0202 35.2879 51.1489C40.6725 42.4499 45.7541 36.5473 47.6182 34.4379L47.6224 34.4358Z" fill="#CB001C"/>
</g>
<defs>
<clipPath id="clip0_59_10">
<rect width="143" height="56" fill="white"/>
</clipPath>
</defs>
</svg>
