<svg width="213" height="41" viewBox="0 0 213 41" fill="none" xmlns="http://www.w3.org/2000/svg">
<g id="Layer_1" clip-path="url(#clip0_67_3758)">
<g id="Rvm89R">
<g id="Group">
<path id="Vector" d="M212.219 29.349C212.164 29.5766 212.002 29.6095 211.78 29.6067C209.894 29.5793 208.012 29.5519 206.127 29.5437C205.201 29.5382 205.204 29.5546 205.21 28.6882C205.213 27.8574 205.21 27.0294 205.21 26.2123C205.198 26.2288 205.152 26.2699 205.126 26.322C203.813 28.8802 201.621 30.0564 198.655 30.0317C196.908 30.0153 195.263 29.6671 193.803 28.7074C192.256 27.6902 191.316 26.2617 190.729 24.6056C190.041 22.6616 189.882 20.6519 190 18.6147C190.093 17.008 190.402 15.4506 191.125 13.981C192.305 11.5818 194.213 10.0409 197.021 9.66528C199.048 9.39658 201.017 9.61319 202.778 10.7154C203.732 11.3131 204.438 12.1329 204.973 13.0871C205.022 13.1776 205.077 13.2653 205.19 13.3366C205.19 13.2873 205.195 13.2379 205.195 13.1886C205.184 9.35545 205.169 5.52509 205.158 1.69199C205.158 0.943467 204.984 0.778956 204.207 0.778956C203.304 0.778956 202.402 0.773472 201.5 0.781698C201.24 0.78444 201.113 0.707668 201.115 0.447192C201.118 0.192201 201.243 0.112687 201.503 0.109945C203.906 0.0797848 206.312 0.0441408 208.714 0.000271212C208.966 -0.00521248 209.087 0.0715593 209.079 0.312842C209.076 0.411548 209.079 0.510255 209.079 0.608961C209.079 9.68722 209.079 18.7627 209.079 27.841C209.079 27.9507 209.079 28.0603 209.079 28.17C209.093 28.6197 209.27 28.8198 209.738 28.8472C210.418 28.8884 211.1 28.9158 211.782 28.9268C212.017 28.9322 212.153 29.0063 212.21 29.2147V29.3463L212.219 29.349ZM205.158 19.7882C205.158 19.7882 205.161 19.7882 205.164 19.7882C205.164 18.6503 205.155 17.5097 205.164 16.3718C205.184 14.2771 204.267 12.6292 202.5 11.3981C199.878 9.57206 196.654 10.3562 195.312 13.1502C194.661 14.5046 194.447 15.9578 194.338 17.422C194.196 19.3029 194.233 21.1838 194.465 23.0592C194.624 24.3451 194.89 25.6064 195.491 26.7826C196.026 27.8273 196.795 28.6553 197.998 29.0063C199.461 29.434 200.896 29.2997 202.203 28.5319C204.134 27.3968 205.048 25.6722 205.149 23.5637C205.21 22.3079 205.161 21.0467 205.161 19.7882H205.158Z" fill="black"/>
<path id="Vector_2" d="M4.30267 40.1899C3.65785 39.9623 2.96098 39.8198 2.37977 39.4935C0.8241 38.6161 0.00867474 37.2753 0.00578316 35.5535C-0.00289158 25.5018 0 15.453 0.00289158 5.40411C0.00289158 2.88435 2.13977 0.81426 4.80292 0.781358C6.93979 0.75394 9.07956 0.773132 11.2193 0.773132C19.657 0.773132 28.0975 0.773132 36.5351 0.773132C38.7963 0.773132 40.6556 1.99874 41.3351 3.98383C41.5057 4.48559 41.5925 5.03396 41.5925 5.56314C41.6069 15.5023 41.6069 25.4443 41.6012 35.3835C41.6012 37.7935 39.9935 39.6333 37.5096 40.1159C37.446 40.1269 37.3881 40.1625 37.3274 40.1872H4.30267V40.1899ZM40.9014 20.4952C40.9014 15.5681 40.9014 10.641 40.9014 5.71394C40.9014 5.06138 40.832 4.41979 40.5313 3.82481C39.7216 2.22083 38.351 1.43392 36.4917 1.43118C26.03 1.42569 15.5654 1.42843 5.10364 1.43118C4.97641 1.43118 4.84918 1.43118 4.72195 1.44214C2.39134 1.58746 0.688196 3.29837 0.688196 5.50556C0.688196 15.4914 0.688196 25.4772 0.691088 35.463C0.691088 35.7783 0.722895 36.0991 0.798076 36.4034C1.2723 38.3063 2.92339 39.5237 5.03424 39.5319C7.18558 39.5401 9.33402 39.5319 11.4854 39.5319C19.7987 39.5319 28.1091 39.5319 36.4223 39.5319C37.258 39.5319 38.059 39.3975 38.7819 38.9835C40.2334 38.15 40.9014 36.9024 40.9014 35.3094C40.9014 30.3714 40.9014 25.4333 40.9014 20.4952Z" fill="black"/>
<path id="Vector_3" d="M50.0938 15.0888C50.4206 14.4307 50.6866 13.844 50.9989 13.2764C52.2047 11.0774 54.1507 9.88748 56.7155 9.56943C58.1006 9.39669 59.477 9.44604 60.8274 9.82716C62.5912 10.3234 63.4934 11.4969 63.7479 13.164C63.8288 13.6904 63.8606 14.2306 63.8606 14.7625C63.8693 19.1412 63.8664 23.5227 63.8664 27.9014C63.8664 28.044 63.8722 28.1866 63.8809 28.3264C63.904 28.6307 64.0631 28.809 64.4014 28.8254C65.1387 28.8611 65.8761 28.9104 66.6134 28.9269C66.9055 28.9324 66.9546 29.0557 66.9546 29.2915C66.9546 29.5685 66.8101 29.6068 66.5614 29.6041C64.3551 29.5767 62.1459 29.5493 59.9397 29.541C59.0751 29.5383 58.2076 29.5739 57.343 29.6041C57.0741 29.6123 56.9266 29.5356 56.9324 29.2559C56.9382 29.0448 56.9989 28.9378 57.2505 28.9296C57.9184 28.9132 58.5893 28.8775 59.2572 28.8419C59.691 28.8172 59.8992 28.6143 59.9339 28.203C59.9426 28.1153 59.9368 28.0275 59.9368 27.9398C59.9368 23.3856 59.9368 18.8286 59.9368 14.2744C59.9368 13.4903 59.8153 12.7198 59.4394 12.0152C58.8524 10.9102 57.8259 10.5181 56.5768 10.5263C55.1714 10.5373 53.9743 11.0116 52.9652 11.9411C51.0423 13.7178 50.2326 15.9223 50.2124 18.4091C50.1835 21.5842 50.2037 24.7593 50.2066 27.9343C50.2066 28.6746 50.3714 28.8364 51.155 28.8638C51.7767 28.8857 52.4013 28.9214 53.0259 28.9214C53.3295 28.9214 53.3613 29.0694 53.3613 29.2915C53.3613 29.5438 53.2196 29.6041 52.9825 29.5959C52.0948 29.5685 51.2042 29.5301 50.3165 29.5328C48.0755 29.541 45.8316 29.5712 43.5907 29.5931C43.235 29.5959 43.1482 29.5136 43.1685 29.201C43.1801 29.0201 43.2466 28.9269 43.4605 28.9214C44.1748 28.9022 44.8919 28.872 45.6061 28.8309C46.0456 28.8062 46.2191 28.639 46.274 28.225C46.2914 28.0851 46.2885 27.9398 46.2885 27.8C46.2885 19.0836 46.2885 10.3673 46.2885 1.65097C46.2885 0.943575 46.1006 0.770838 45.343 0.770838C44.7299 0.770838 44.1169 0.759871 43.5039 0.77358C43.2379 0.779064 43.154 0.666648 43.1627 0.439075C43.1714 0.225211 43.2379 0.0990858 43.5068 0.0963439C45.2273 0.0853765 46.9507 0.0634417 48.6712 0.0387651C49.0297 0.0332814 49.3854 0.0113467 49.7411 -0.0105881C50.0996 -0.0352647 50.2008 0.0469906 50.2008 0.389722C50.2008 3.94864 50.2124 7.50756 50.195 11.0665C50.1892 12.2921 50.1227 13.5149 50.0852 14.7405C50.0852 14.8255 50.0852 14.9105 50.0852 15.0723L50.0938 15.0888Z" fill="black"/>
<path id="Vector_4" d="M109.536 26.253C109.536 26.6642 109.536 27.0728 109.536 27.484C109.539 28.0543 109.539 28.6219 109.553 29.1922C109.559 29.439 109.481 29.5432 109.197 29.5404C108.156 29.5267 107.116 29.5295 106.077 29.5404C105.794 29.5432 105.667 29.4472 105.684 29.1785C105.69 29.1017 105.684 29.025 105.684 28.9482C105.684 19.8617 105.684 10.7725 105.684 1.68601C105.684 1.57633 105.684 1.46666 105.684 1.35698C105.67 0.923772 105.531 0.789421 105.074 0.78668C104.345 0.781196 103.617 0.778454 102.888 0.78668C102.631 0.789421 102.463 0.74281 102.466 0.452174C102.469 0.167022 102.634 0.117669 102.894 0.114927C104.903 0.0929922 106.913 0.0628319 108.923 0.0326716C109.585 0.0217042 109.585 0.0217043 109.585 0.657813C109.585 4.41414 109.585 8.16773 109.585 11.9241V13.3169C109.756 13.0619 109.891 12.8727 110.016 12.6781C111.277 10.7094 113.162 9.73607 115.55 9.57156C116.675 9.49479 117.785 9.56333 118.878 9.843C120.871 10.3585 122.369 11.4799 123.395 13.1716C124.124 14.3698 124.517 15.6777 124.705 17.0376C124.977 18.9925 124.936 20.942 124.514 22.8777C124.147 24.5585 123.473 26.1186 122.282 27.4292C120.79 29.0716 118.861 29.9078 116.58 30.0175C115.319 30.0778 114.087 29.9599 112.922 29.4609C111.462 28.8358 110.452 27.7719 109.706 26.4559C109.669 26.3873 109.631 26.3215 109.594 26.253C109.57 26.253 109.55 26.2557 109.527 26.2584L109.536 26.253ZM120.53 18.6498C120.495 18.6498 120.46 18.6498 120.428 18.6471C120.428 18.3839 120.443 18.1206 120.428 17.8602C120.316 16.1767 120.107 14.5069 119.324 12.9632C118.401 11.1426 116.846 10.1638 114.561 10.4709C113.301 10.6409 112.257 11.2221 111.372 12.0584C110.363 13.0126 109.651 14.1367 109.631 15.5186C109.591 18.2413 109.521 20.9722 109.64 23.6893C109.744 26.0747 110.964 27.92 113.382 28.8221C115.388 29.5733 117.702 29.1812 118.959 27.1989C119.815 25.8526 120.142 24.3419 120.29 22.8037C120.42 21.4246 120.454 20.0344 120.532 18.6498H120.53Z" fill="black"/>
<path id="Vector_5" d="M162.521 25.5274C162.472 25.6288 162.426 25.7358 162.368 25.8317C161.998 26.4624 161.674 27.1231 161.246 27.7126C160.454 28.8012 159.338 29.4729 157.961 29.7389C156.781 29.9664 155.599 30.0131 154.416 29.791C152.539 29.4345 151.293 28.3954 150.744 26.6515C150.319 25.3053 150.284 23.9344 150.588 22.5662C150.972 20.8306 152.155 19.7284 153.878 19.1937C155.046 18.8318 156.275 18.6399 157.481 18.3958C159.086 18.0723 160.694 17.7652 162.2 17.1127C162.437 17.0112 162.515 16.8906 162.512 16.6465C162.492 15.6513 162.533 14.6532 162.475 13.6579C162.443 13.1205 162.319 12.5694 162.128 12.0649C161.642 10.7872 160.558 10.2361 159.202 10.1813C158.519 10.1539 157.805 10.2087 157.151 10.3869C155.729 10.7735 155.168 11.9607 155.639 13.285C155.769 13.647 155.836 14.0528 155.821 14.4366C155.795 15.1522 155.35 15.6622 154.613 15.813C154.17 15.9035 153.687 15.9227 153.242 15.8569C152.38 15.728 151.883 15.1166 151.863 14.2858C151.822 12.5447 152.733 11.3411 154.28 10.5158C155.385 9.92628 156.596 9.64935 157.851 9.55065C159.624 9.41081 161.385 9.43275 163.085 10.0277C165.132 10.7434 166.266 12.1856 166.413 14.1953C166.549 16.0571 166.457 17.9352 166.468 19.8052C166.48 22.1906 166.488 24.576 166.514 26.9614C166.517 27.263 166.595 27.5701 166.688 27.8607C166.98 28.7792 167.726 29.174 168.674 28.8341C169.146 28.6668 169.556 28.3378 169.976 28.0554C170.138 27.9457 170.265 27.8113 170.441 27.9923C170.603 28.1568 170.675 28.3268 170.47 28.5352C169.895 29.122 169.215 29.536 168.388 29.7114C167.269 29.95 166.141 29.9774 165.019 29.7471C163.53 29.4373 162.695 28.4913 162.625 27.0409C162.602 26.5446 162.622 26.0483 162.622 25.5521C162.591 25.5466 162.556 25.5411 162.524 25.5384L162.521 25.5274ZM162.541 17.8283C161.015 18.2231 159.494 18.6125 157.976 19.0155C157.631 19.106 157.299 19.2349 156.969 19.3665C155.844 19.8052 155.072 20.5674 154.76 21.6888C154.269 23.4491 154.245 25.2176 154.858 26.9532C155.2 27.921 155.873 28.6339 156.995 28.8012C158.19 28.9794 159.283 28.6942 160.162 27.8909C161.657 26.5254 162.339 24.7816 162.466 22.8651C162.576 21.2309 162.533 19.5858 162.553 17.9434C162.553 17.8804 162.541 17.8201 162.541 17.8228V17.8283Z" fill="black"/>
<path id="Vector_6" d="M137.275 9.50048C139.724 9.48677 141.954 10.1037 143.819 11.672C145.357 12.9662 146.305 14.5976 146.756 16.4785C147.442 19.3327 147.361 22.1651 146.091 24.8658C144.521 28.2109 141.682 29.8724 137.874 30.089C135.771 30.2097 133.779 29.8231 131.972 28.7483C130.058 27.6104 128.8 25.9762 128.12 23.9692C127.114 20.9916 127.12 18.003 128.291 15.061C129.609 11.7543 132.839 9.60742 136.581 9.50048C136.812 9.495 137.044 9.50048 137.275 9.50048ZM142.989 19.4123C142.948 19.4123 142.911 19.4068 142.87 19.404C142.87 18.8886 142.879 18.3758 142.87 17.8604C142.844 16.569 142.833 15.2748 142.497 14.0136C142.095 12.4973 141.326 11.2251 139.724 10.5753C138.657 10.1393 137.532 10.0763 136.39 10.2106C134.719 10.408 133.525 11.2388 132.787 12.6618C132.177 13.8381 131.894 15.1021 131.821 16.3962C131.741 17.8275 131.729 19.2615 131.723 20.6954C131.714 22.2501 131.801 23.7992 132.154 25.3264C132.68 27.6076 134.23 29.0471 136.526 29.3761C138.857 29.7106 140.936 28.7208 141.896 26.733C142.217 26.0667 142.462 25.3319 142.549 24.6081C142.757 22.8834 142.85 21.1451 142.989 19.4123Z" fill="black"/>
<path id="Vector_7" d="M78.5096 24.9288C78.8305 24.013 79.137 23.1439 79.4377 22.272C80.6985 18.628 81.9592 14.9869 83.2199 11.343C83.4021 10.8138 83.2807 10.6465 82.685 10.6383C81.7019 10.6246 80.7187 10.6081 79.7385 10.6191C79.4059 10.6246 79.3105 10.4985 79.3163 10.2188C79.3221 9.93365 79.4956 9.94187 79.7356 9.94461C82.1847 9.9501 84.631 9.94461 87.0802 9.93091C87.3115 9.93091 87.433 9.98848 87.4301 10.2188C87.4272 10.4299 87.4127 10.6109 87.1062 10.6164C86.3891 10.6301 85.6749 10.663 84.9578 10.6849C84.2869 10.7041 84.2175 10.7507 84.0036 11.3649C82.685 15.1733 81.3693 18.9817 80.0508 22.7902C78.5963 26.9907 77.1418 31.1939 75.6758 35.3917C75.3519 36.3184 74.9153 37.1958 74.2358 37.9498C73.4348 38.8409 72.3823 39.2193 71.1823 39.2742C70.1066 39.3235 69.0656 39.2138 68.1201 38.6627C66.9866 38.0019 66.4401 36.6447 66.8305 35.4438C67.0473 34.7748 67.7847 34.2867 68.5538 34.3059C69.43 34.3251 70.0835 34.794 70.2454 35.5864C70.3466 36.0772 70.3293 36.5871 70.4073 37.0834C70.5924 38.2487 71.5871 38.723 72.7322 38.2131C73.6835 37.7908 74.2502 37.0286 74.5857 36.1457C75.3172 34.2154 75.9765 32.2633 76.656 30.3138C76.6936 30.2014 76.6792 30.0506 76.6329 29.9409C75.1987 26.6452 73.7529 23.355 72.3129 20.062C71.1042 17.2928 69.9042 14.5208 68.6984 11.7487C68.6666 11.6775 68.6146 11.6144 68.5972 11.5404C68.4324 10.8467 67.9553 10.6356 67.2439 10.6712C66.6223 10.7014 65.9977 10.6301 65.376 10.6191C65.0608 10.6136 65.0666 10.4135 65.0695 10.2133C65.0695 10.0132 65.1707 9.92542 65.3962 9.93091C66.3071 9.95832 67.2208 9.99123 68.1317 9.99123C70.6387 9.99123 73.1457 9.96929 75.6527 9.95558C75.7452 9.95558 75.8348 9.93639 75.9274 9.93639C76.1211 9.93639 76.3033 9.95832 76.3062 10.2078C76.3091 10.4436 76.2628 10.6191 75.9534 10.6191C75.2594 10.6191 74.5654 10.6328 73.8743 10.641C73.7124 10.641 73.5505 10.641 73.3886 10.641C72.7004 10.652 72.5298 10.8796 72.7813 11.48C73.6401 13.5255 74.5018 15.5709 75.3693 17.6136C76.3785 19.9935 77.3905 22.3707 78.4054 24.7478C78.4257 24.7945 78.4546 24.8411 78.5067 24.9316L78.5096 24.9288Z" fill="black"/>
<path id="Vector_8" d="M178.37 9.95318V14.7596C178.387 14.7624 178.402 14.7651 178.419 14.7706C178.564 14.373 178.676 13.9645 178.862 13.5861C179.209 12.8842 179.521 12.1549 179.981 11.5243C181.38 9.59948 183.991 9.19369 185.984 9.99705C187.111 10.4522 187.71 11.3378 187.843 12.4647C187.912 13.0515 187.886 13.6711 187.771 14.2524C187.609 15.0777 187.01 15.489 186.154 15.5164C185.203 15.5465 184.532 15.1298 184.249 14.3429C184.02 13.7068 184.121 13.0679 184.205 12.4263C184.208 12.3934 184.22 12.3633 184.225 12.3304C184.451 11.0307 183.604 10.3288 182.265 10.7099C181.583 10.9046 181.082 11.3406 180.654 11.8533C179.619 13.0899 179.076 14.5375 178.726 16.0538C178.578 16.6899 178.491 17.3479 178.489 17.9978C178.465 21.1728 178.477 24.3479 178.48 27.5229C178.48 27.7532 178.483 27.9836 178.506 28.2111C178.555 28.669 178.726 28.839 179.206 28.861C180.047 28.8993 180.891 28.9185 181.736 28.9487C182.031 28.9597 182.167 29.105 182.083 29.3655C182.051 29.4669 181.898 29.5382 181.791 29.6067C181.75 29.6314 181.678 29.6095 181.62 29.6095C178.373 29.6095 175.126 29.6095 171.878 29.6095C171.621 29.6095 171.416 29.6013 171.424 29.2777C171.43 29.0501 171.511 28.9432 171.771 28.9377C172.454 28.924 173.133 28.8966 173.816 28.861C174.299 28.8335 174.443 28.7074 174.524 28.255C174.556 28.074 174.556 27.8849 174.556 27.6984C174.556 22.3025 174.556 16.9038 174.556 11.5078C174.556 10.869 174.365 10.688 173.691 10.6853C173.032 10.6853 172.373 10.6825 171.714 10.6853C171.479 10.6853 171.283 10.699 171.283 10.3782C171.283 10.0793 171.413 10.0162 171.702 10.0135C173.668 10.0025 175.632 9.97511 177.598 9.95592C177.847 9.95592 178.098 9.95592 178.37 9.95592V9.95318Z" fill="black"/>
<path id="Vector_9" d="M96.0527 19.0374C96.0527 21.4667 96.0527 23.8987 96.0527 26.328C96.0527 26.986 96.1077 27.6331 96.4894 28.2171C96.8479 28.7682 97.3887 29.0095 98.0393 29.0808C99.1583 29.2069 100.133 28.8614 101.018 28.2418C101.295 28.0471 101.564 27.8387 101.819 27.6166C102.018 27.4439 102.194 27.4741 102.362 27.6276C102.55 27.7976 102.472 27.9402 102.31 28.0992C100.934 29.4564 99.2219 30.0377 97.2672 30.0624C96.232 30.0761 95.2142 30.0048 94.2426 29.6292C93.0137 29.1521 92.3573 28.2719 92.1983 27.0436C92.1578 26.742 92.1578 26.4322 92.1578 26.1278C92.1578 21.1459 92.1578 16.1667 92.1578 11.1848C92.1578 10.7159 92.126 10.6857 91.6228 10.6857C90.605 10.6857 89.5872 10.6803 88.5722 10.6857C88.3178 10.6857 88.1558 10.6501 88.1587 10.3512C88.1616 10.0579 88.3091 10.0112 88.5722 10.0112C89.5438 10.0195 90.5154 10.014 91.484 10.014C91.9332 10.014 92.1587 9.80561 92.1607 9.38885C92.1607 8.20711 92.1694 7.02538 92.1549 5.8409C92.152 5.553 92.2445 5.46252 92.551 5.46801C93.6036 5.48446 94.6561 5.48172 95.7058 5.46801C96.0065 5.46526 96.1019 5.55849 96.099 5.84638C96.0846 7.08295 96.0932 8.31953 96.0932 9.5561C96.0932 10.0003 96.1048 10.0112 96.5848 10.0112C98.0306 10.0112 99.4735 10.0167 100.919 10.0058C101.197 10.0058 101.284 10.1045 101.287 10.3512C101.287 10.6145 101.171 10.6857 100.908 10.683C99.4619 10.6748 98.019 10.6775 96.5732 10.6775C96.0643 10.6775 96.0556 10.6885 96.0556 11.1793C96.0556 13.795 96.0556 16.4107 96.0556 19.0292L96.0527 19.0374Z" fill="black"/>
<path id="Vector_10" d="M15.6174 24.8911C16.164 23.3502 16.6758 21.9053 17.1905 20.4603C18.2401 17.5128 19.2898 14.5653 20.3365 11.6178C20.6372 10.7734 20.5707 10.6938 19.6483 10.6774C18.7577 10.6637 17.8671 10.628 16.9794 10.6198C16.7076 10.6171 16.5977 10.5101 16.5948 10.2689C16.5919 10.0166 16.7249 9.93161 16.9881 9.93161C20.5476 9.9371 24.11 9.9371 27.6696 9.93161C27.8922 9.93161 28.031 9.97274 28.0223 10.214C28.0137 10.4416 27.9818 10.6143 27.6638 10.6171C26.8773 10.6226 26.0908 10.6527 25.3071 10.6801C25.1597 10.6856 25.0064 10.7048 24.8647 10.7432C24.6189 10.8145 24.5033 10.9708 24.59 11.2203C24.8069 11.8427 25.0209 12.4651 25.2464 13.0847C26.6228 16.8685 28.0021 20.6522 29.3814 24.4332C29.419 24.5347 29.4594 24.6361 29.526 24.8116C29.7804 24.0878 30.0117 23.4325 30.2373 22.7772C31.5443 18.9687 32.8455 15.1576 34.1496 11.3491C34.3289 10.8255 34.2219 10.6884 33.6291 10.6719C32.7732 10.65 31.9173 10.6198 31.0643 10.6088C30.7751 10.6061 30.6681 10.4855 30.6739 10.2305C30.6768 9.95629 30.8503 9.92613 31.0932 9.92887C33.2301 9.9371 35.3698 9.9371 37.5067 9.92887C37.7323 9.92887 37.8682 9.95903 37.8624 10.2031C37.8566 10.4251 37.8392 10.6088 37.5125 10.6116C36.9342 10.6116 36.3559 10.6472 35.7804 10.6719C35.2715 10.6938 35.1819 10.7624 35.02 11.223C32.8542 17.3812 30.6855 23.5421 28.5139 29.7003C28.4561 29.8648 28.352 30.0595 28.2074 30.1473C27.95 30.3035 27.6898 30.15 27.5626 29.8127C26.7934 27.7865 26.0271 25.763 25.2638 23.7341C23.8382 19.9558 22.4156 16.1748 20.99 12.3938C20.9698 12.3417 20.9466 12.2923 20.909 12.2019C20.8628 12.2841 20.8252 12.3307 20.8078 12.3828C18.7779 18.1352 16.7509 23.8849 14.7153 29.6345C14.6517 29.8127 14.5678 30.0266 14.4203 30.1281C14.1427 30.32 13.8247 30.1555 13.6859 29.7936C12.0637 25.5821 10.4444 21.3733 8.82223 17.1619C8.04439 15.1411 7.25788 13.1204 6.48872 11.0969C6.38173 10.8172 6.19667 10.6801 5.90751 10.6692C5.30606 10.6418 4.70751 10.6116 4.10606 10.6143C3.79088 10.6143 3.69835 10.4855 3.70124 10.2222C3.70124 9.96726 3.84871 9.92887 4.08293 9.93161C7.21451 9.9371 10.349 9.9371 13.4806 9.93161C13.8478 9.93161 13.949 10.0303 13.8941 10.3511C13.8594 10.5568 13.7321 10.6116 13.5268 10.6116C12.8213 10.6116 12.1157 10.6253 11.4102 10.6363C11.283 10.6363 11.1557 10.6418 11.0314 10.6664C10.6902 10.7267 10.5659 10.883 10.6584 11.2011C10.7856 11.6425 10.9475 12.0757 11.1037 12.5117C12.5582 16.5038 14.0155 20.496 15.47 24.4853C15.5076 24.5868 15.548 24.6855 15.6232 24.8856L15.6174 24.8911Z" fill="black"/>
<path id="Vector_11" d="M21.1895 37.9259C18.9225 37.9149 17.0834 36.1574 17.1037 34.0215C17.1239 31.8856 18.9543 30.1582 21.1982 30.1582C23.4536 30.1582 25.31 31.913 25.3071 34.0461C25.3071 36.1793 23.442 37.9341 21.1866 37.9231L21.1895 37.9259Z" fill="#BFFBC5"/>
<path id="Vector_12" d="M33.6293 37.9261C31.3797 37.937 29.5117 36.1822 29.5117 34.0491C29.5117 31.9159 31.3652 30.1584 33.6178 30.1611C35.8616 30.1611 37.692 31.8885 37.718 34.0244C37.7412 36.1493 35.8934 37.9151 33.6293 37.9288V37.9261Z" fill="#89E4F7"/>
<path id="Vector_13" d="M4.63232 34.0601C4.63232 31.9022 6.44824 30.1666 8.71524 30.1611C10.9678 30.1557 12.8242 31.9104 12.8242 34.0463C12.8242 36.1795 10.9678 37.9343 8.71235 37.9261C6.45691 37.9206 4.63522 36.1932 4.63232 34.0601Z" fill="#FFB5E6"/>
</g>
</g>
</g>
<defs>
<clipPath id="clip0_67_3758">
<rect width="212.219" height="40.19" fill="white"/>
</clipPath>
</defs>
</svg>
