<svg width="127" height="20" viewBox="0 0 127 20" fill="none" xmlns="http://www.w3.org/2000/svg">
<g clip-path="url(#clip0_213_477)">
<path d="M67.2957 13.2457C67.916 13.9944 68.5899 14.624 69.3854 15.1148C70.81 15.9934 72.3509 16.3295 74.0133 16.0734C74.2797 16.0325 74.5442 15.9578 74.7998 15.8706C75.7919 15.5363 76.0601 14.3288 75.7437 13.6565C75.5971 13.3453 75.3665 13.1337 75.0608 12.9825C74.024 12.4685 72.939 12.0755 71.8379 11.7234C70.9423 11.4353 70.0396 11.1685 69.1512 10.8644C68.227 10.5479 67.3708 10.0944 66.6254 9.45592C65.6172 8.59339 65.1024 7.48366 65.0506 6.17298C64.9916 4.69867 65.4867 3.41288 66.5003 2.33339C67.0061 1.79631 67.6246 1.41395 68.3003 1.1294C69.9502 0.434046 71.6645 0.211744 73.4485 0.412705C74.6247 0.544307 75.7419 0.839523 76.8073 1.34459C77.9388 1.88167 78.8754 2.64817 79.5833 3.68498C79.7335 3.9055 79.8943 4.11713 80.0802 4.37678C79.0488 5.04013 78.046 5.68391 77.0378 6.33125C76.75 6.07161 76.4944 5.82618 76.2227 5.59855C75.0876 4.64176 73.7631 4.19716 72.283 4.18471C71.711 4.17938 71.1336 4.15448 70.5955 4.38567C70.3506 4.4906 70.1057 4.62042 69.9002 4.78937C69.2281 5.34246 69.2924 6.38105 70.0128 6.88256C70.5205 7.23646 71.0764 7.49078 71.6555 7.69174C72.9354 8.13456 74.2207 8.5596 75.5041 8.99176C76.65 9.37767 77.7135 9.91297 78.6252 10.7186C79.376 11.3837 79.8854 12.2053 80.0409 13.187C80.3913 15.3905 79.6995 17.2276 77.912 18.5969C77.0629 19.2478 76.0529 19.6071 75.0054 19.7885C72.2365 20.2704 69.582 19.9574 67.1116 18.5311C66.0909 17.9425 65.2883 17.1226 64.6144 16.1748C64.2909 15.7195 64.2783 15.4545 64.8235 15.0117C65.3527 14.5813 65.93 14.2078 66.4878 13.8112C66.7416 13.6298 66.999 13.4502 67.2939 13.2439L67.2957 13.2457Z" fill="#6BC1B5"/>
<path d="M106.559 7.39123C106.607 6.97508 106.645 6.63718 106.682 6.30462C106.999 6.21748 109.762 6.1997 110.225 6.27972C110.308 6.58739 110.329 19.022 110.243 19.552H106.682C106.645 19.2034 106.607 18.8602 106.563 18.4583C106.425 18.5454 106.32 18.6041 106.221 18.6735C105.117 19.4453 103.892 19.9059 102.543 19.8846C100.535 19.8525 98.912 19.006 97.7179 17.3877C96.9046 16.2833 96.481 15.0348 96.3576 13.6726C96.1824 11.7288 96.6168 9.94503 97.7734 8.3658C98.8244 6.92884 100.292 6.18902 102.051 5.98273C103.275 5.83868 104.437 6.02363 105.51 6.64785C105.78 6.80436 106.018 7.01065 106.271 7.19383C106.346 7.24896 106.425 7.30053 106.559 7.39301V7.39123ZM106.607 12.9079C106.598 12.8012 106.588 12.6589 106.577 12.5184C106.459 10.8307 105.231 9.44174 103.404 9.40261C102.09 9.37416 101.046 9.881 100.392 11.0565C99.8898 11.96 99.8451 12.931 100.069 13.9073C100.342 15.1078 101.082 15.9472 102.282 16.2815C103.479 16.6158 104.6 16.4256 105.542 15.547C106.298 14.841 106.582 13.9447 106.607 12.9079Z" fill="#6BC1B5"/>
<path d="M0.0304075 3.45724C0.0304075 2.43999 0.0214698 1.49032 0.0357701 0.540646C0.0393452 0.266771 0.243125 0.076481 0.521983 0.0320208C0.677499 0.00890144 0.834803 0.0017878 0.992107 0.0017878C3.75029 9.38577e-06 6.51026 0.00356621 9.26844 9.38572e-06C10.8433 -0.00176902 12.3591 0.248987 13.7981 0.919447C16.1022 1.99183 17.652 3.74534 18.553 6.09106C18.9337 7.07986 19.1053 8.11312 19.1643 9.16593C19.3127 11.7749 18.5565 14.0992 16.878 16.1C15.759 17.432 14.0609 17.8552 12.436 17.039C11.7925 16.7153 11.2294 16.2902 10.7342 15.7549C10.8308 15.7941 10.9273 15.8368 11.0256 15.8741C11.5583 16.0733 12.0052 15.8972 12.3984 15.5415C12.84 15.1432 13.1331 14.6345 13.3977 14.1152C14.3433 12.2675 15.0047 10.3272 15.2621 8.2625C15.3854 7.27548 15.4444 6.28313 15.2013 5.30145C15.1566 5.12361 15.0994 4.94577 15.0279 4.77682C14.5918 3.74712 13.4924 3.55327 12.7095 4.00143C12.2912 4.24152 11.8961 4.52784 11.519 4.82839C10.9827 5.25343 10.4625 5.69626 9.85118 6.01459C9.73142 6.07684 9.63846 6.18888 9.50082 6.30447C10.1157 7.17056 10.8325 7.89081 11.5869 8.60396C11.51 8.56661 11.4296 8.53816 11.3581 8.49192C10.0335 7.63117 8.89127 6.56234 7.84734 5.38681C7.14126 4.59009 6.29039 3.97298 5.40019 3.40389C4.86751 3.06243 4.30622 2.78856 3.68415 2.65695C2.50258 2.40975 1.38715 2.55203 0.370041 3.24027C0.278876 3.30252 0.182349 3.35765 0.0304075 3.45012V3.45724Z" fill="#3086DD"/>
<path d="M35.6436 13.859H25.9659C25.9391 14.1738 26.0624 14.4139 26.1518 14.6629C26.6219 15.9647 27.6229 16.5658 28.9368 16.7312C30.2131 16.8912 31.2928 16.4591 32.2151 15.593C32.2866 15.5254 32.3635 15.4632 32.4797 15.3636C33.2823 15.9469 34.0831 16.5267 34.9018 17.1206C34.5085 17.7698 34.0045 18.2428 33.4271 18.6376C32.4189 19.3277 31.2963 19.7011 30.0844 19.8469C28.7777 20.0034 27.5246 19.8469 26.3269 19.3116C24.4393 18.4687 23.2148 17.0406 22.65 15.0701C22.0726 13.057 22.2656 11.1025 23.2595 9.25296C24.0407 7.79822 25.2365 6.80053 26.8185 6.29724C28.4309 5.78506 30.0433 5.7815 31.6342 6.40928C33.4628 7.12954 34.5943 8.47935 35.1878 10.3093C35.4113 11.0011 35.5292 11.7143 35.556 12.4416C35.5739 12.8934 35.6115 13.3433 35.6454 13.8608L35.6436 13.859ZM26.0767 11.4991H32.0006C31.9381 10.2987 30.9978 8.86348 29.0708 8.84037C27.3333 8.81902 26.1947 10.1119 26.0749 11.4991H26.0767Z" fill="#3086DD"/>
<path d="M126.101 19.6124H122.558C122.549 19.4381 122.534 19.2727 122.534 19.1091C122.534 16.7189 122.538 14.3287 122.531 11.9385C122.531 11.3961 122.425 10.8733 122.154 10.386C121.798 9.74753 121.256 9.34383 120.563 9.19444C119.787 9.02727 119.027 9.12864 118.337 9.56079C117.871 9.85423 117.576 10.2775 117.408 10.795C117.242 11.3019 117.215 11.8247 117.215 12.3511C117.215 14.5706 117.215 16.79 117.215 19.0095C117.215 19.1091 117.218 19.2087 117.215 19.3083C117.2 19.5875 117.166 19.6337 116.886 19.6355C115.885 19.6408 114.884 19.6408 113.883 19.6355C113.604 19.6355 113.572 19.5875 113.556 19.3065C113.55 19.2211 113.556 19.1358 113.556 19.0504C113.556 14.9672 113.556 10.8839 113.556 6.8007V6.35076C113.885 6.24406 116.627 6.22094 117.141 6.30986C117.175 6.62642 117.209 6.94831 117.25 7.336C117.392 7.25242 117.513 7.19373 117.619 7.1137C118.42 6.50015 119.324 6.12668 120.321 6.02176C121.346 5.91328 122.334 6.11779 123.298 6.47703C124.15 6.79537 124.867 7.28265 125.398 8.02425C125.832 8.63069 126.076 9.30826 126.081 10.0516C126.106 13.066 126.122 16.0804 126.14 19.0931C126.14 19.2585 126.118 19.4239 126.106 19.6106L126.101 19.6124Z" fill="#6BC1B5"/>
<path d="M38.3857 6.28675H41.9179C41.9465 6.61932 41.9733 6.94832 42.0073 7.3538C42.2004 7.22931 42.3416 7.14395 42.4774 7.05147C43.1889 6.55707 43.9575 6.20317 44.8173 6.05023C47.9116 5.50425 50.5589 7.55654 50.9129 10.3629C50.9611 10.7417 50.9897 11.124 50.9969 11.5064C51.0237 13.0821 51.0505 14.6595 51.0523 16.2352C51.0541 17.272 51.0183 18.307 50.9969 19.3438C50.9969 19.399 50.9808 19.4541 50.9718 19.5039C50.6662 19.5964 48.0385 19.6248 47.327 19.5412C47.3217 19.3865 47.311 19.2229 47.311 19.0593C47.311 16.7989 47.3163 14.5368 47.3056 12.2764C47.3038 11.8674 47.2877 11.4495 47.1948 11.0529C46.9141 9.85247 45.9721 9.09486 44.7208 9.09664C43.4105 9.1002 42.2504 9.73687 42.0502 11.3232C42.0002 11.7162 41.9662 12.1146 41.9662 12.5094C41.959 14.7129 41.9626 16.9181 41.9626 19.1215V19.6053H38.3893V6.28675H38.3857Z" fill="#3086DD"/>
<path d="M94.6684 17.1029C93.9945 18.1823 93.0882 18.9097 91.9746 19.3437C89.6204 20.2613 87.3288 20.1155 85.1873 18.7301C83.6893 17.7609 82.8009 16.3399 82.447 14.6131C82.1056 12.9467 82.2289 11.3035 82.9421 9.73846C83.8609 7.72352 85.4786 6.57467 87.6094 6.09627C89.1145 5.75838 90.5839 5.89531 92.0032 6.50887C93.0882 6.98014 93.9713 7.69507 94.6899 8.6892C93.8426 9.34543 93.0132 9.98744 92.1712 10.6383C91.8942 10.4712 91.6439 10.3111 91.3865 10.1671C90.6697 9.76513 89.9279 9.47881 89.0806 9.4717C87.9473 9.4628 87.1071 9.95187 86.4976 10.8695C85.6288 12.1767 85.7075 14.0689 86.7121 15.2533C87.6362 16.3435 89.1145 16.7223 90.6518 16.0732C91.1577 15.8597 91.6224 15.545 92.1694 15.2409C92.9577 15.8277 93.7979 16.4555 94.6666 17.1029H94.6684Z" fill="#6BC1B5"/>
<path d="M54.8597 8.99521H53.1723V6.26001H54.8329C54.8866 5.57177 54.8508 4.90842 54.858 4.24685C54.8651 3.57817 54.858 2.91127 54.858 2.2497C55.1672 2.14477 57.8932 2.11632 58.5367 2.21057V6.20133C59.4966 6.27602 60.4208 6.19599 61.3682 6.24934V8.91518C61.0947 9.01655 60.7944 8.95075 60.503 8.96142C60.1884 8.97387 59.8738 8.9632 59.5592 8.9632H58.6368C58.6243 9.12148 58.6064 9.24418 58.6064 9.3669C58.6064 11.3018 58.6064 13.2367 58.6064 15.1716C58.6064 15.3139 58.6333 15.4562 58.6297 15.5967C58.6136 16.2636 59.0819 16.7117 59.8506 16.7295C60.3046 16.7402 60.7569 16.7313 61.2377 16.7313V19.5252C60.8909 19.5394 60.5674 19.5625 60.2438 19.5643C59.3733 19.5679 58.5028 19.6265 57.6376 19.4754C56.0592 19.2015 55.0742 18.1576 54.9366 16.5659C54.8919 16.043 54.8651 15.5184 54.8633 14.9938C54.8544 13.1585 54.8597 11.3231 54.8597 9.48783C54.8597 9.33666 54.8597 9.18372 54.8597 8.98987V8.99521Z" fill="#3086DD"/>
<path d="M6.79264 11.7143C7.07328 12.07 7.36823 12.415 7.62921 12.7831C8.21553 13.6065 8.78575 14.4406 9.35955 15.2729C9.93693 16.1123 10.6001 16.8681 11.4724 17.4212C12.3412 17.9725 13.2975 18.1948 14.3808 18.1842C14.3003 18.2606 14.2628 18.314 14.2127 18.3407C12.8774 19.0574 11.4689 19.5251 9.93872 19.5802C9.39709 19.5998 8.85547 19.6336 8.31384 19.6336C5.96858 19.6389 3.62332 19.6371 1.27806 19.6336C1.07964 19.6336 0.879439 19.614 0.684597 19.5749C0.198384 19.4806 0.0267801 19.2761 0.00354205 18.7995C-3.30363e-05 18.7141 0.00354205 18.6288 0.00354205 18.5434C0.00354205 14.8443 -3.30363e-05 11.1452 0.00711714 7.44612C0.00711714 6.77922 0.0142673 6.11053 0.20911 5.46319C0.452216 4.65935 0.849051 3.97289 1.68205 3.64032C2.24512 3.41624 2.82786 3.46426 3.40882 3.54429C3.65192 3.57808 3.88967 3.66344 4.1435 3.72746C4.10775 3.78615 4.1006 3.80927 4.09345 3.80927C3.33195 3.80394 2.94048 4.26099 2.7081 4.91011C2.54186 5.37072 2.50611 5.84911 2.49181 6.33284C2.43997 8.12547 2.79569 9.86298 3.23185 11.5845C3.57148 12.9236 4.02731 14.2219 4.72802 15.4223C5.00152 15.8936 5.33043 16.3186 5.73262 16.6885C6.41547 17.3181 6.93386 17.2878 7.46476 16.5356C7.73289 16.155 7.94561 15.7317 8.15475 15.3138C8.34423 14.935 8.32099 14.5384 8.11721 14.1667C7.78115 13.5567 7.43437 12.9521 7.0858 12.3492C6.97318 12.1554 6.84269 11.9722 6.72114 11.7837C6.74616 11.7605 6.77119 11.7356 6.79621 11.7125L6.79264 11.7143Z" fill="#3086DD"/>
</g>
<defs>
<clipPath id="clip0_213_477">
<rect width="126.136" height="20" fill="white"/>
</clipPath>
</defs>
</svg>
