<svg xmlns="http://www.w3.org/2000/svg" id="svg4525" viewBox="0 0 10188.5 2500">
    <style>
        .st0{fill:#d4b830}.st1,.st2{opacity:.986;fill:#ebebeb;fill-opacity:0;enable-background:new}.st2{fill-opacity:.9216}.st3{fill:#fdd83c}
    </style>
    <g id="g5193" transform="translate(4.988 -113.385)">
        <path id="path5113" d="M232.1 2360.5L28 113.5l2199 .9-202.4 2244.4-898.8 253.9-893.7-252.2zM1859 2237.9l170.7-1924.5h-900.5L1136 2436l723-198.1zM1045.1 595.5H826.4l-2.6 1151.8-424.5-115.8.9 263.3 644.9 174.1V595.5z" class="st0"/>
        <path id="path5159" d="M973.1 2047.5c-28.3-8.6-168.1-46.3-310.5-84.9l-258.1-69.5v-129.5c0-126.9 0-129.5 12.9-125.2 6.9 2.6 101.2 28.3 209.3 58.3l196.4 54 1.7-574.6 1.7-574.6h214.4v730.7c0 580.6-1.7 730.7-7.7 730.7-4.4-.8-31.8-7.7-60.1-15.4z" class="st1"/>
        <path id="path5157" d="M400.2 1894.8l-.9-263.3s271 76.3 424.5 115.8l2.6-1150.9h218.7V2069l-644.9-174.2z" class="st2"/>
        <path id="path5117" d="M1129.2 312.5h900.5L1859 2237l-729.8 198.1V312.5zm683.5 1602l59.2-719.6-437.4 48.9V859.7l466.6-1.7 18.9-262.4-704.1 3.4 9.4 955.4 425.4-72.9-6 212.7-428.8 114.1 4.3 260.7 592.5-154.5z" class="st3"/>
    </g>
    <path d="M8891.8 1495.8V1954h-215.1V758.4c129.2-33.9 164.7-19 217.9 97.9 70.3-93.8 161.9-134.8 276.4-123.9 143.2 13.5 251.6 116.3 270.9 293.6 12.3 112.9 8.3 234.2-20.3 343.4-63.6 242.8-318.8 307.9-507.5 140.2-4.8-4.3-11.2-7-22.3-13.8zm341.1-330.5c-10.2-55.7-14.7-106.7-29.4-154.6-20.5-66.9-68.3-101.1-141.3-100.9-74.6.2-138.3 31.4-145.6 102.8-10.6 103.1-5.5 209.7 8.2 312.7 9 67.6 72.5 92 137.7 94.2 65.1 2.2 114.1-29.3 134.7-89.6 18.5-54.1 24.8-112.3 35.7-164.6zM5821.8 1338.2c103.1 24.9 198 48.9 293.5 70.1 22.9 5.1 47.9 2 71.8.3 56.6-4 106.4-21.8 121.6-83.5 16.4-66.5-17.2-112.6-72.4-143.2-78.1-43.3-159.9-80.1-236.4-125.8-152.8-91.3-206.7-261.9-134.5-412.8 51.1-106.9 144.8-153 254.9-167.1 139.4-17.9 273.8 5.1 409.3 71.6-22.8 56.3-45.6 112.5-69.4 171.2-59-17.8-110.8-37.5-164.3-48.4-42-8.6-90.6-18.8-128.2-5.5-40 14.1-88.8 49.6-99.7 86-9.5 31.8 17.7 91.4 47.4 114.5 56.2 43.7 126.5 68.7 189.7 103.8 97.7 54.2 194.3 109.5 223.5 231.4 42.2 176.7-49 333.8-225.5 378.2-144.2 36.3-286.9 26.1-428.2-20.9-42.5-14.1-56.8-36.3-53.9-79.2 3.3-47.3.8-94.9.8-140.7zM5040.8 951.5c-25.4-51.1-47.8-96.1-73.8-148.5 177.8-80.9 353.6-107 533.4-30.3 72.7 31 123.8 93.8 125.7 173.9 5.2 209.5 1.8 419.2 1.8 629.4-121.1 28.3-134.8 21.7-199.2-106.6-67.1 87.5-154.7 127.6-261.2 131.7-213.3 8.2-342-173.9-259.7-371.6 40.4-97.1 127.3-129.3 219.7-143.7 90.2-14.1 182.3-16.6 273.2-24.1 24.4-111-20.8-170-130.6-166.9-38.2 1.1-76.8 8.8-114 18.1-37.1 9.1-72.8 24-115.3 38.6zm360.2 238.1c-69.9 10.9-142.6 14.1-209.7 35.2-64.2 20.1-82.2 79.7-68 142.9 13.3 58.6 60.8 67.6 113.1 67.3 131.2-.8 191.1-83.6 164.6-245.4zM3603.7 1064.1c15.3-127.9-31.9-181.7-153.1-168.1-70.7 8-139.6 31.7-213.8 49.4-22-44.8-45.2-91.9-70.2-142.9 162.4-75.8 323.9-98.6 490.8-47.8 98.6 30 166.1 99.4 169.4 203.8 6.5 204.8 1.9 409.9 1.9 625.4-44.1 0-95.3 13.4-131.9-4.1-31.6-15.1-46.5-65.3-72.6-105.8-87.4 113.4-206.9 141.2-341.9 119.3-110.7-18-181.6-96.6-194.7-212.5-14.5-128.6 32.2-229.3 140.4-264.7 81.3-26.6 169.3-33.5 254.8-46 40.2-5.7 81.3-4.2 120.9-6zm-.7 122c-77.4 14.4-152.6 19.9-221.4 43.8-60.7 21-73.2 81.4-58.5 140.5 13.4 54 57.8 64.6 108 64.8 132.6.4 189.5-73.5 171.9-249.1zM2394.8 1892.2v-179.4c12.6 0 22.2-.9 31.5.1 167.1 19.3 221.6-26.7 222.5-196.2 1.6-309.7.5-619.5.5-929.2v-96.2h219.9c3.3 10.8 7.1 17.6 7.1 24.4-.1 346 8.4 692.3-3.8 1037.9-10.1 289.1-190 409.3-477.7 338.6zM3956.4 756.2c12.2-5.1 14.4-6.8 16.7-6.9 214.4-14.6 214.2-14.5 280.1 190.8 46.3 144 93.5 287.8 135.3 416.6 55.5-168.3 118.7-352.7 176.3-538.9 16.2-52.4 38-77.1 95-71.6 50 4.8 100.7 1 164.8 1-28.9 75.4-54.4 141.6-79.6 208-71.9 189.4-144.8 378.5-214.7 568.7-16.2 44-36.3 63.7-87.5 63.2-170.4-1.7-169.7.6-230.5-159.9-84.3-223.2-169.8-445.7-255.9-671zM7270.5 955.1c-120-31.6-234.8-97.1-330.1 22.3-67.9 85.1-68.8 300.9 2.4 378.8 114 124.8 239.2 44.6 367 3.1 0 53.4 7.6 105-3.1 152.4-5.6 24.9-39.6 52-66.8 62.3-296.3 112.3-542.3-34.6-571.9-347.5-8-84.3 5.6-174.8 28.8-256.9 32.1-113.5 114.2-189.3 231.1-219.3 137.4-35.3 271.3-26.5 407.8 36.9-22.3 57.8-43 110.9-65.2 167.9zM10131.1 742.7v166.5H9902c0 152.1-3.6 295.9 1.9 439.5 2 53.6 49.5 75.4 100.5 72.8 45-2.3 89.6-11.1 133.4-16.9 2.4 4.8 4.4 7 4.4 9.1 3.1 172 36.1 161.2-151.6 182.8-217.1 25.1-312.7-61.8-315-279.2-1.4-132.3-.3-264.7-.3-401.4-39.6-2.5-70.3-4.5-104-6.7-20.7-57.2-10.1-100.5 51.7-125.4 53-21.3 78.6-63.8 97.2-117 40.1-114.5 42.6-113.7 176.4-96.8v172.5c79.4.2 152.8.2 234.5.2zM7513 1581.7V758.2c137.4-32.7 149.6-25.5 205 117.6 48.6-39.5 92.7-90.2 148.4-116.3 53.2-24.9 118.4-24.3 188.9-36.7-4.6 52-7.2 84.8-10.4 117.7-3 30.9-6.7 61.7-10.9 99.9-30.9 0-59.2-1.3-87.4.2-131.4 6.9-210.1 86.8-211.6 218-1.6 139.8-.4 279.6-.4 423-75.2.1-144.4.1-221.6.1zM8427.5 1583.5h-214V753.2h214v830.3zM8318.8 633.8c-81.1 0-120.8-36.3-120.5-110.2.3-73.4 39-107.8 121.6-108 82.2-.2 121.6 35.2 121.3 108.9-.3 72.4-41.7 109.3-122.4 109.3z"/>
</svg>
