<svg xmlns="http://www.w3.org/2000/svg" id="Layer_1" viewBox="0 0 695 185">
    <style>
        .st0{fill:#ccc}.st1{fill:#a6120d}.st2{fill:#b3b3b3}.st3{fill:#dd1b16}.st4{fill:#f2f2f2}
    </style>
    <g id="g12">
        <path id="polygon14" d="M189.9 61.2l43.3 57.1V61.2h8.7V132h-9.2l-43.3-57.5V132h-8.7V61.2z" class="st0"/>
        <path id="path16" d="M312.2 129.2c-5.7 2.2-11.9 3.3-18.5 3.3-25.6 0-38.5-12.3-38.5-36.9 0-23.3 12.4-34.9 37.1-34.9 7.1 0 13.7 1 19.8 3v7.9c-6.1-2.3-12.4-3.5-18.8-3.5-19.3 0-29 9.2-29 27.5 0 19.6 9.5 29.5 28.5 29.5 3 0 6.4-.4 10.1-1.2V99.8h9.2l.1 29.4z" class="st0"/>
        <path id="path18" d="M326.8 104.7V61.2h9.2v43.5c0 13.6 6.8 20.4 20.3 20.4s20.3-6.8 20.3-20.4V61.2h9.2v43.5c0 18.6-9.8 27.8-29.5 27.8s-29.5-9.3-29.5-27.8z" class="st0"/>
        <path id="polygon20" d="M448.3 124.6v7.4h-46.2V61.2h9.1v63.4z" class="st0"/>
        <path id="polygon22" d="M487.2 51.9l35.2 80.1h-10.2l-9.1-22.3h-23.5l2.6-7.4H500l-13.2-32.1-25.3 61.8H452z" class="st0"/>
        <path id="path24" d="M532 132V61.2h30.2c13.5 0 20.2 5.7 20.2 17 0 9.2-6.6 16-19.8 20.4L587 132h-12.1l-22.5-31.8v-6c13.5-2.2 20.3-7.3 20.3-15.6 0-6.5-3.8-9.8-11.3-9.8h-20.2V132H532z" class="st0"/>
        <path id="path26" d="M621.3 61.2v50.4c0 13.6-8 20.4-24 20.4v-7.4c9.9 0 14.9-4.3 14.9-13V61.2h9.1z" class="st0"/>
        <path id="path28" d="M637.6 129.5v-8.4c7.4 2.6 15.4 4 24.1 4 12.2 0 18.3-4.5 18.3-13.4 0-7.6-4.5-11.4-13.5-11.4h-9.1c-14.8 0-22.2-6.4-22.2-19.3 0-13.5 9.5-20.3 28.5-20.3 8.2 0 15.9 1 23 3v8.4c-7.1-2.6-14.8-4-23-4-12.9 0-19.3 4.3-19.3 12.9 0 7.6 4.4 11.4 13.1 11.4h9.1c15.1 0 22.6 6.4 22.6 19.3 0 13.9-9.1 20.8-27.4 20.8-8.7 0-16.7-1-24.2-3z" class="st0"/>
        <path id="polygon30" d="M192.2 58.9l43.3 57v-57h8.7v70.8h-9.1l-43.4-57.5v57.5h-8.6V58.9z"/>
        <path id="path32" d="M314.5 126.9c-5.7 2.2-11.9 3.3-18.5 3.3-25.6 0-38.5-12.3-38.5-36.9 0-23.3 12.4-34.9 37.1-34.9 7.1 0 13.7 1 19.8 3v7.9c-6.1-2.3-12.4-3.5-18.8-3.5-19.3 0-29 9.2-29 27.5 0 19.6 9.5 29.5 28.5 29.5 3 0 6.4-.4 10.1-1.2V97.5h9.2l.1 29.4z"/>
        <path id="path34" d="M329.1 102.4V58.9h9.2v43.5c0 13.6 6.8 20.4 20.3 20.4s20.3-6.8 20.3-20.4V58.9h9.2v43.5c0 18.6-9.8 27.8-29.5 27.8s-29.5-9.3-29.5-27.8z"/>
        <path id="polygon36" d="M450.6 122.3v7.4h-46.2V58.9h9.1v63.4z"/>
        <path id="polygon38" d="M489.5 49.6l35.2 80.1h-10.2l-9.1-22.3H482l2.5-7.4h17.8l-13.2-32.1-25.3 61.8h-9.5z"/>
        <path id="path40" d="M534.3 129.7V58.9h30.2c13.5 0 20.2 5.7 20.2 17 0 9.2-6.6 16-19.7 20.4l24.3 33.4h-12.1l-22.5-31.8v-6c13.5-2.2 20.3-7.3 20.3-15.6 0-6.5-3.8-9.8-11.3-9.8h-20.2v63.2h-9.2z"/>
        <path id="path42" d="M623.6 58.9v50.4c0 13.6-8 20.4-24 20.4v-7.4c9.9 0 14.9-4.3 14.9-13V58.9h9.1z" class="st1"/>
        <path id="path44" d="M640 127.2v-8.4c7.4 2.6 15.4 4 24.1 4 12.2 0 18.3-4.5 18.3-13.4 0-7.6-4.5-11.4-13.5-11.4h-9.1c-14.8 0-22.2-6.4-22.2-19.3 0-13.5 9.5-20.3 28.5-20.3 8.2 0 15.9 1 23 3v8.4c-7.1-2.6-14.8-4-23-4-12.9 0-19.3 4.3-19.3 12.9 0 7.6 4.4 11.4 13.1 11.4h9.1c15.1 0 22.6 6.4 22.6 19.3 0 13.9-9.1 20.8-27.4 20.8-8.8 0-16.8-1-24.2-3z" class="st1"/>
    </g>
    <g id="g48">
        <path id="polygon50" d="M17.1 141.8l69.7 38.3 70.1-38.8L170 33 86.7 4.4 4.1 33.5z" class="st2"/>
        <path id="polygon52" d="M86.6 171l62.9-34.9 12.2-96.9-75.1-25.6z" class="st1"/>
        <path id="polygon54" d="M86.5 171V13.6L13.3 39.7l11.2 96.9z" class="st3"/>
        <path id="path56" d="M107.2 97.4L86.5 107H64.7l-10.3 25.6-19 .4L86.6 19.3l20.6 78.1zm-2-4.9L86.7 55.8 71.5 91.9h15.1l18.6.6z" class="st4"/>
        <path id="polygon58" d="M104 91.9H86.6l-.1 15.1h24.1l11.2 26 18.2.4L86.5 19.3l.2 36.5z" class="st2"/>
    </g>
</svg>
