<svg xmlns="http://www.w3.org/2000/svg" id="Layer_1" viewBox="0 0 905.9 336.7">
    <style>
        .st0{fill:none}.st1{fill:#2c3e50;enable-background:new}.st2{fill:#41b883}.st3{fill:#34495e}
    </style>
    <path d="M78.9 1.2c24.1 0 46.9-.1 69.8.2 1.7 0 3.9 2.2 4.9 3.9 13.3 22.7 26.3 45.5 39.5 68.3 1 1.8 2.2 3.6 3.7 6.1 1.4-2.3 2.5-3.9 3.4-5.6 13.2-22.9 26.5-45.8 39.6-68.8 1.7-3 3.5-4.1 7-4.1 22.1.2 44.3.1 67.8.1-39.4 68.2-78.3 135.7-117.8 204.2-39.5-68.6-78.4-136-117.9-204.3z"/>
    <path d="M472.7 199.6c5.1-17.4 10.2-34.7 15.4-52.1 7.3-24.7 14.6-49.5 21.8-74.2 1-3.4 2.4-7 6.2-6.7 3.5.3 7.1 2.1 10.2 4.1 1.1.7 1.4 4.1.9 5.8-14.4 47.6-29 95.2-43.5 142.7-1.8 5.7-5.6 8.2-12.2 8.1-6.3-.1-9.3-2.4-11.2-8.5-13.6-44.2-27.3-88.4-40.9-132.6-.9-3-1.9-6-2.8-9.1-1.5-5.3.2-8.1 6-9.9 5.9-1.8 9.3-.3 11 5 4.9 16.3 9.7 32.5 14.5 48.8 7.4 25 14.8 50.1 22.3 75.1.4 1.2.9 2.3 1.4 3.5h.9zM690.8 179c-8.2 0-16.3.1-24.5-.1-3-.1-4 1-4.1 4-.5 15.4 7.9 26.3 23 29.2 10.2 2 19.9.9 28.8-4.8 1.3-.8 2.7-2.1 4-1.9 2.5.3 5.6.7 7.4 2.2 2.5 2.2 3.4 5.8.4 8.4-3.2 2.8-6.6 5.8-10.5 7.3-17 6.7-34 6.3-50.1-2.6-12.6-6.9-19.6-17.9-20.1-32.4-.4-10.1-.7-20.4.1-30.4 1.7-20.7 22.8-37.6 44.3-36.4 23.7 1.4 40.8 18.8 40.4 41.1-.2 11.4-5.1 16.4-16.5 16.6-7.5.1-15 0-22.5 0-.1-.1-.1-.2-.1-.2zm-28.3-11.7c15.3 0 30.2.1 45.1 0 3.9 0 5.4-2.6 5.5-6.3.3-10.4-6.4-20.3-16.1-24.2-15.7-6.3-38.8 4.4-34.5 30.5zM536.9 159.9v-29c0-5.2 3.1-8 8.6-8.1 5.3 0 8.6 3 8.7 8.1.1 17.8 0 35.7 0 53.5 0 10.9 4.5 19.5 14.2 24.6 16.7 8.9 36.5-3.7 36.8-23.4.2-17.8 0-35.7.1-53.5 0-6.7 3.2-9.7 9.8-9.3 5.3.3 7.8 2.9 7.8 8.3 0 18.2.2 36.3 0 54.5-.3 22.9-20.1 42.1-42.9 42.2-23.4 0-42.8-19.1-43-42.4-.2-8.5-.1-17-.1-25.5zM862.5 228.2c-10.5-.6-21.4-1.9-30.4-9.2-3-2.5-5.6-5.3-4.3-9.8 1.8-5.9 5.6-7.5 10.4-3.8 8.5 6.6 18.1 8.7 28.6 7.9 9.3-.7 15.3-4.7 16.5-11.1 1.4-7.6-2.4-14-11.5-17.6-8-3.2-16.5-5.3-24.5-8.5-12.8-5.1-18.5-14.2-17.2-27.2 1.1-10.9 6.3-19.4 16.5-23.8 15.1-6.5 30.2-5.2 44.9 1.8 5.1 2.5 6.2 5.4 4.4 9.5-2.2 5.3-5.4 6.7-10.6 4.3-7.1-3.3-14.3-5.4-22.2-4.7-4 .3-7.9 1.3-11.2 3.8-8.5 6.4-7.7 17.4 1.7 22.3 7.6 4 16.1 5.2 24.1 8 14.5 5.1 22.2 14.8 22.2 28.5.1 12.4-6.9 22.4-18.8 26.6-5.8 2.1-11.9 3-18.6 3zM807 186.3c0 18.2.2 36.3-.1 54.5-.1 8.4-2.1 16.5-6.8 23.7-5.2 8-13 11.2-22 11.8-5.5.4-9.4-2.8-9.7-7.2-.3-4.6 2.5-7.5 8.6-8.2 6.1-.7 10-4 11.1-9.8 1-5.7 1.6-11.5 1.6-17.3.1-33.8.1-67.6.1-101.4 0-7.4 3.3-10.4 10.5-9.4 5.1.7 7 2.9 7 8.5v55c-.2-.2-.3-.2-.3-.2zM757 227.1c-6.2 0-11.1-4.9-11-11.1 0-6.1 5.1-11 11.2-11 5.9.1 10.7 4.9 10.8 10.9.1 6.3-4.7 11.1-11 11.2zM798.4 73.5c6 .1 10.8 4.7 10.6 10.3-.2 5.2-5 9.6-10.8 9.6-5.9 0-10.9-4.6-10.9-10 0-5.5 5.2-10 11.1-9.9z" class="st1"/>
    <g>
        <path d="M58.6 0L25-58.3-8.7 0h-112.1L25-252.5 170.8 0H58.6z" class="st2" transform="matrix(1.3333 0 0 -1.3333 161.096 .001)"/>
        <path d="M58.6 0L25-58.3-8.7 0h-53.8L25-151.5 112.4 0H58.6z" class="st3" transform="matrix(1.3333 0 0 -1.3333 161.096 .001)"/>
    </g>
</svg>
