<svg xmlns="http://www.w3.org/2000/svg" id="Layer_1" viewBox="0 0 1172 382.4">
    <style>
        .st0{fill:none}.st1{fill:#0a0c0c}.st2{fill:#6ad8e6}.st3{fill:#6ad6e4}.st4{fill:#f6d3a3}.st5{fill:#fefefe}
    </style>
    <path d="M258.9 214.5c.4 5.2.7 10.4 1.1 15.5 1.2 16 2.7 32 2.4 48.1-.3 15.5-1.9 30.8-7.8 45.3-3.8 9.5-9.3 18-16.8 25-1.4 1.3-.9 1.7.3 2.5 3.6 2.4 7.1 4.9 10.2 7.9 2.4 2.4 4.5 5.1 5.2 8.5.7 3.4.2 6.8-2.2 9-1.9 1.8-3.9 3.7-6.2 5.1-2.7 1.7-5.5 1.1-8.1-.2-3.2-1.6-5.9-3.8-8.6-6.1-3.1-2.6-6.1-5.4-9.7-7.3-3.7-1.9-7.3-2.5-11.6-.8-22 8.5-45 10.5-68.3 9.1-18.2-1.1-35.9-4.5-52.5-12.2-.6-.3-1.2-.6-1.9-.9-3.8-1.9-3.9-1.9-7.1 1-2.7 2.3-4.8 5.1-7.2 7.8-1.8 2.1-3.7 4.1-6 5.7-3.9 2.7-7.5 2.7-11.3-.1-.9-.7-1.9-1.4-2.8-2.1-3.3-2.6-4.4-6-3.5-10 .9-4 3.2-7.3 5.8-10.3 2.3-2.7 4.9-5.1 7.8-7.2.8-.6 1.2-.9.3-1.9-11.8-11.9-18-26.7-22-42.6-4.5-17.9-5.3-36.1-5-54.4.2-10.9.9-21.8 1.5-32.7v-1.8c-1 0-1.6.7-2.3 1.1-2.9 1.8-5.9 3.3-9.3 3.7-1.3.2-2.5.1-3.6-.4-1.8-.7-3.1-2-3.6-3.9-1-3.7-5.1-6.6-1.8-11.2 3.9-5.5 9.3-8 15.4-9.5 1.3-.3 2.7-.6 4.1-.6 2.1.1 2.5-.8 2.5-2.7.1-15 .4-30.1.5-45.1.3-21.9 1.5-43.7 6.9-65.1.3-1 .1-1.5-1-1.9-1.1-.4-2.2-1-3.3-1.6-12.2-6.7-16.2-19.6-10.1-32.1 7.4-15 24.3-19.8 38.8-11 1.3.8 2 .8 3.3-.2C83.7 24 98.2 19 113.5 16.3c12.7-2.2 25.5-3.4 38.3-2.7 22.2 1.2 44.1 4.6 64.4 14.6 5.4 2.7 10.4 5.8 15 9.7 1.1.9 1.9.9 3.2.2 17.2-9.4 37.3-.4 41.4 18.5 2.2 9.9-2.2 18.9-11.6 24.3-1.8 1.1-4.8 1.2-5.4 3-.6 1.8.7 4.1 1.1 6.2 2.9 14.6 3.2 29.4 2.5 44.3-.8 18-3 35.8-3.9 53.7-.1 1.6 0 3.2-.2 4.8-.1 1.4.2 1.8 1.7 1.8 5.5 0 10.8 1.3 15.6 4 3.2 1.8 5.8 4.2 7.4 7.6 1.3 2.8 1 4.6-1.2 6.8-.6.6-.7 1.1-.8 1.8-1 4.4-3.6 6.1-8.1 5.5-3.4-.5-6.4-2.1-9.2-3.9-1.2-.7-2.7-1.7-4.8-2zM38.5 194.3c-1 17.3-1.9 30.5-2.5 43.7-.8 17.7-.7 35.3 2.1 52.8 2.3 13.8 6.1 27.1 13.1 39.3 9.5 16.6 24 27.2 41.5 34.1 19.9 7.9 40.8 10.3 62.1 10 20.1-.3 39.6-3.6 58-11.9 15.4-7 28.2-17.1 36.3-32.2 6.7-12.4 9.4-25.9 10.6-39.8 1.5-19.1 0-38.1-1.6-57-1.5-18-2.2-36-.8-54.1 1.3-17.5 3.3-34.9 3.6-52.4.3-14.7-.8-29.3-4.4-43.6-6.4-25.6-20.9-44.6-45.5-55.2-19.9-8.5-41-11.8-62.4-12.2-14.8-.3-29.6 1-44.1 4.7C83.3 26 66.4 37.2 55.2 56.4c-5.6 9.7-8.3 20.4-10.7 31.2-4.4 19.9-5.2 40.2-5.4 60.4-.2 16.9 0 33.7-.6 46.3zM53.7 31.9C42.4 31.8 32 40.4 29.4 52 27.1 62.6 32.2 71.8 43 76.7c1.3.6 1.9.6 2.3-1 1.2-4.5 2.7-9 4.5-13.3.5-1.1.4-1.9-.5-2.8-1.6-1.6-2.4-3.5-2.2-5.8.5-5.6 5-9 10.7-7.9.9.2 1.6.5 2.4-.5 2.1-2.8 4.6-5.4 7.2-7.7.9-.8.8-1.2-.2-1.8-4.2-2.3-8.6-3.9-13.5-4zm181.1 8.9c2.7 2.6 5.5 5.2 7.6 8.3 1.9 2.9 3.6 4.3 7.5 2.7 4.4-1.9 8.1.2 10.1 4.2 2.1 4.2 1.2 7.6-2.7 10.7-.7.6-1.5 1.1-2.3 1.5-.9.4-.9.9-.6 1.8 1.2 3.4 2.4 6.8 3.4 10.3.4 1.2.8 1.1 1.8.8 14.5-5.5 19.2-20.1 10.5-33-8.1-11.9-24-15.2-35.3-7.3zM214.7 364c4.4 1.2 7.8 3.5 11 6.1 2.6 2.1 5.2 4.4 7.8 6.4 2.1 1.6 4.2 3.1 6.9 3.6 2.3.5 4-.4 5.4-2.2 1.4-1.6.4-3.1-.4-4.4-1.1-2.1-2.5-4-3.7-6.1-.4-.7-1-1.6.1-2.2 1.1-.7 1.4.3 1.8 1.1 1.7 3.1 4.2 5.8 5.2 9.6 1.6-1.4 2.2-2.9 2.5-4.6.8-4.1-1.1-7.1-3.7-9.9-3.5-3.8-7.8-6.5-11.9-9.5-.9-.7-1.5-.2-2.2.3-2.6 2.2-5.4 4.1-8.2 5.9-3.2 2.1-6.7 3.9-10.6 5.9zm-135.9-3.9c-4.3-2.5-8.3-5.2-11.9-8.2-4.3-3.5-4.3-3.6-8.4.2-4 3.6-7.7 7.5-9.4 12.8-1.2 3.8-.4 6.5 2.7 8.7.3-.7.6-1.4.8-2.1 1-2.7 2-5.5 4.2-7.6.5-.5 1.1-.9 1.8-.2.5.6.4 1.1-.1 1.6-2.3 2.4-3.1 5.6-4.4 8.5-.5 1.1-.3 1.6.7 2.2 2.5 1.6 5.2 1.6 8-.2 3-2 5.1-4.8 7.5-7.5 2.4-2.9 4.9-5.9 8.5-8.2zM258.6 204c.1 1.5.3 3.4.3 5.3.1 2 .8 3.3 2.9 3.8 1.4.3 2.6 1.3 3.8 2.1 2.7 1.7 5.5 3.1 8.7 3.5 2.5.2 4.1-.8 4.8-3 .3-1.1.4-1.9-1-2.2-1-.2-1.8-.9-2.4-1.7-.5-.6-.8-1.2-.1-1.8.6-.6 1.1-.3 1.6.2.3.3.5.6.9.7 1 .4 1.9 1.6 3.1.6 1.3-1 1-2.3.5-3.6-1.1-2.6-2.9-4.7-5.3-6.2-4.5-3-9.6-4.2-15-4.6-2.4-.2-3.1.5-2.8 2.8.1 1.2 0 2.5 0 4.1zm-222.8-.3c.1-2.1.2-4.3.4-6.4.1-1.1 0-1.7-1.4-1.5-5.2.5-10.1 1.9-14.4 5-2 1.4-3.7 3.3-4.6 5.6-.6 1.3-.9 2.7.4 3.8 1.3 1 2.3-.2 3.3-.7.8-.4 1.4-1.9 2.4-.6.9 1.2-.5 1.8-1.2 2.5-.3.3-.6.5-1 .6-2.2.5-1.8 1.8-1.1 3.2.8 1.5 2 2.3 3.7 2.2 4.9-.1 8.8-2.8 12.4-5.5 1.7-1.3.7-4.3 1-6.5.1-.6.1-1.2.1-1.7z" class="st1"/>
    <path d="M38.5 194.3c.6-12.6.4-29.5.6-46.3.3-20.3 1-40.5 5.4-60.4 2.4-10.8 5-21.6 10.7-31.2C66.4 37.2 83.3 26 104.5 20.6c14.5-3.7 29.2-5 44.1-4.7 21.5.4 42.5 3.7 62.4 12.2 24.6 10.5 39.1 29.5 45.5 55.2 3.6 14.3 4.6 28.9 4.4 43.6-.3 17.5-2.3 34.9-3.6 52.4-1.4 18.1-.7 36.1.8 54.1 1.6 19 3.1 38 1.6 57-1.1 13.9-3.9 27.4-10.6 39.8-8.2 15.2-20.9 25.3-36.3 32.2-18.4 8.3-37.9 11.6-58 11.9-21.3.3-42.2-2.1-62.1-10-17.5-6.9-32-17.5-41.5-34.1-7-12.2-10.8-25.5-13.1-39.3-2.9-17.5-2.9-35.2-2.1-52.8.6-13.2 1.5-26.4 2.5-43.8zm97.3-69.2c-.1 1.2-.2 2.2-.2 3.2-.3 3.7-.5 7.3-.2 11 .1 1.4.4 2.8 1.6 3.7 4.9 3.6 8.2 4.4 12.5-.1 1.9-2 2.6-1.9 4.4-.1 4.6 4.4 9.6 3.4 12.4-2.4 1.9-4.1 2.9-8.3 1.8-12.9-.2-1-.3-2.2 1.6-2.4 3.1-.3 5.2-2.1 6.6-4.8 4-7.3-.6-17.1-9.2-19.5-.9-.3-1.3-.5-1.4-1.5-.3-2.6-1.5-4.8-3.5-6.5-5.5-4.8-16.6-5.5-22.7-1.3-2.4 1.6-4.1 3.8-4.1 6.8 0 1.5-.5 2.1-1.7 2.7-3.9 2-7.5 4.5-10.2 8-3.2 4.3-3.1 8.7.2 12.6 3.1 4.1 7 5.3 12.1 3.5zm-23.8-26c2.8 0 6-.3 9.2-1.1 13.5-3.5 22.4-12 24.8-25.8 2.2-12.5-2.8-22.9-12.8-30.7-8.9-6.9-19.1-9.4-30.1-7.8-11.7 1.7-20.4 7.9-25.1 19-7.2 17-1.2 33.9 14.6 41.9 5.9 3 12.2 4.5 19.4 4.5zm83.9-62.2c-1.6.1-3 .1-4.4.3-1.1.1-2.3.2-3.4.5-12.1 2.5-21.1 8.9-24.9 21-3.9 12.1-2.3 23.6 6.9 32.9 9.6 9.7 21.7 12.9 34.9 10.6 27.4-4.8 33.3-34.1 21.5-50.3-7.5-10.6-18.4-14.5-30.6-15z" class="st2"/>
    <path d="M53.7 31.9c4.9 0 9.3 1.6 13.5 4 1 .6 1.2.9.2 1.8-2.6 2.4-5.1 4.9-7.2 7.7-.8 1-1.5.7-2.4.5-5.6-1.1-10.1 2.2-10.7 7.9-.2 2.3.5 4.3 2.2 5.8.9.9 1 1.7.5 2.8-1.8 4.3-3.3 8.8-4.5 13.3-.4 1.6-1 1.6-2.3 1C32.2 71.8 27.1 62.6 29.4 52c2.6-11.6 13-20.2 24.3-20.1zM234.8 40.8c11.3-7.9 27.2-4.6 35.3 7.3 8.7 12.8 4 27.5-10.5 33-1 .4-1.4.5-1.8-.8-1-3.5-2.2-6.9-3.4-10.3-.3-.9-.3-1.4.6-1.8.8-.4 1.6-1 2.3-1.5 3.9-3.1 4.8-6.5 2.7-10.7-2-4.1-5.8-6.1-10.1-4.2-3.9 1.7-5.6.3-7.5-2.7-2.1-3.1-4.9-5.7-7.6-8.3z" class="st3"/>
    <path d="M214.7 364c3.9-1.9 7.4-3.8 10.7-5.9 2.8-1.8 5.6-3.8 8.2-5.9.7-.6 1.2-1 2.2-.3 4.1 3 8.4 5.7 11.9 9.5 2.6 2.8 4.5 5.9 3.7 9.9-.3 1.7-.9 3.2-2.5 4.6-1-3.8-3.4-6.5-5.2-9.6-.4-.7-.7-1.7-1.8-1.1-1.1.6-.5 1.5-.1 2.2 1.2 2 2.6 4 3.7 6.1.7 1.4 1.7 2.8.4 4.4-1.4 1.7-3.1 2.7-5.4 2.2-2.6-.6-4.8-2-6.9-3.6-2.7-2-5.2-4.3-7.8-6.4-3.2-2.7-6.6-5-11.1-6.1zM78.8 360.1c-3.6 2.3-6.1 5.3-8.7 8.3-2.3 2.7-4.5 5.5-7.5 7.5-2.8 1.9-5.4 1.9-8 .2-.9-.6-1.2-1.1-.7-2.2 1.3-2.9 2-6.1 4.4-8.5.5-.5.6-1.1.1-1.6-.7-.7-1.2-.3-1.8.2-2.1 2.1-3.1 4.9-4.2 7.6-.3.7-.5 1.4-.8 2.1-3.1-2.2-4-4.9-2.7-8.7 1.7-5.3 5.4-9.2 9.4-12.8 4.1-3.7 4.2-3.7 8.4-.2 3.8 2.9 7.8 5.6 12.1 8.1zM258.6 204c0-1.7.1-2.9 0-4.1-.3-2.3.4-3 2.8-2.8 5.4.4 10.4 1.7 15 4.6 2.4 1.5 4.2 3.6 5.3 6.2.5 1.2.7 2.6-.5 3.6-1.2.9-2.1-.2-3.1-.6-.3-.1-.6-.5-.9-.7-.5-.5-1-.7-1.6-.2-.6.6-.4 1.2.1 1.8.7.8 1.5 1.4 2.4 1.7 1.4.4 1.3 1.2 1 2.2-.7 2.2-2.2 3.2-4.8 3-3.2-.3-6-1.8-8.7-3.5-1.2-.8-2.4-1.7-3.8-2.1-2.1-.5-2.8-1.8-2.9-3.8 0-1.9-.2-3.8-.3-5.3zM35.8 203.7c0 .5 0 1.1-.1 1.6-.3 2.2.7 5.2-1 6.5-3.6 2.7-7.5 5.3-12.4 5.5-1.7 0-3-.7-3.7-2.2-.7-1.4-1.1-2.8 1.1-3.2.4-.1.7-.3 1-.6.7-.7 2.1-1.3 1.2-2.5-1-1.3-1.6.2-2.4.6-1 .5-2 1.7-3.3.7-1.3-1-1-2.5-.4-3.8 1-2.3 2.6-4.1 4.6-5.6 4.3-3 9.2-4.4 14.4-5 1.4-.1 1.5.4 1.4 1.5-.2 2.2-.3 4.4-.4 6.5z" class="st4"/>
    <path d="M135.8 125.1c-5 1.8-9 .6-12.2-3.3-3.3-4-3.4-8.4-.2-12.6 2.7-3.6 6.3-6.1 10.2-8 1.2-.6 1.8-1.2 1.7-2.7-.1-3 1.7-5.2 4.1-6.8 6.1-4.2 17.2-3.5 22.7 1.3 2 1.7 3.3 3.9 3.5 6.5.1 1.1.5 1.3 1.4 1.5 8.6 2.4 13.2 12.2 9.2 19.5-1.4 2.6-3.6 4.5-6.6 4.8-1.8.1-1.8 1.3-1.6 2.4 1.1 4.6.1 8.8-1.8 12.9-2.8 5.8-7.8 6.9-12.4 2.4-1.9-1.8-2.5-1.9-4.4.1-4.3 4.5-7.6 3.7-12.5.1-1.2-.9-1.5-2.3-1.6-3.7-.3-3.7-.1-7.4.2-11 .1-1.2.2-2.2.3-3.4zm-4.2-1.3c3.2-.1 6-1.6 8.9-2.8 5.7-2.5 11.3-2.8 17.2-.5 2.9 1.2 5.9 2.2 9 2.6 3.9.5 6.7-1.1 8.2-4.7 2.3-5.5-1-12.5-7.1-15.1-1.4-.6-2.6-1-3.6.8-.5.9-1.6 1.4-2.6 1.9-6.9 3.4-18.7 1.9-24.6-3.1-.5-.4-.8-.8-1.5-.4-4.3 2.3-8.4 4.8-11.1 9-1.6 2.4-1.8 5.1-.2 7.6 1.7 2.6 3.9 4.7 7.4 4.7zm5.8 8.2c-.2 2.5-.2 5 .1 7.6.1.9.4 1.7 1.1 2.1 2 1.2 4 2.9 6.5 1.8 2.8-1.2 4.9-3.1 5-6.5.2-4.8-.3-9.5-.5-14.2-.1-1.7-.8-1.8-2.1-1.6-2.8.4-5.4 1.6-8.1 2.6-1.2.4-1.7 1-1.7 2.3 0 1.9-.2 3.9-.3 5.9zm14.8-10.8c.2 4.8 1.1 9.5.5 14.1-.4 3.1 1 4.9 3.2 6.5 3.2 2.5 5.9 2 8-1.5 2-3.3 2.5-7 2.5-10.8 0-4.1-.1-4.1-4-5.2-3.3-.9-6.5-2.5-10.2-3.1zM112 99.1c-7.2 0-13.5-1.4-19.4-4.4-15.9-8-21.8-25-14.6-41.9 4.7-11.1 13.4-17.4 25.2-19.1 11-1.6 21.3.9 30.1 7.8 10 7.7 14.9 18.2 12.8 30.7-2.4 13.8-11.3 22.2-24.8 25.8-3.2.8-6.5 1.1-9.3 1.1zm-3.1-63.8c-2.9-.1-5.8.3-8.7 1-12.6 3-21.3 13-22.9 26.5-1.6 12.8 4 23.6 15.5 29.7 8.7 4.6 17.9 5.8 27.4 3.6 12.6-3 21.1-10.7 23.6-23.5 2.4-12.1-2.4-22.1-12.1-29.6-6.6-5.3-14.3-7.6-22.8-7.7zM195.9 36.9c12.2.5 23.1 4.4 30.7 14.9 11.8 16.2 5.8 45.5-21.5 50.3-13.2 2.3-25.3-.9-34.9-10.6-9.3-9.3-10.8-20.8-6.9-32.9 3.8-12 12.8-18.5 24.9-21 1.1-.2 2.3-.4 3.4-.5 1.3-.1 2.6-.1 4.3-.2zm-1.5 2c-1.8-.1-4.9.3-7.8 1.1-12 3.1-20 10.5-22.5 22.9-2.5 12.3.9 22.9 11.2 30.5 9.3 6.9 19.9 8.8 31.2 6.4 12.7-2.7 21.5-12.2 23.5-25.2 1.9-12.6-3.7-24.2-15-30.6-6-3.4-12.5-5-20.6-5.1z" class="st1"/>
    <path d="M131.6 123.8c-3.5-.1-5.7-2.1-7.4-4.8-1.6-2.5-1.3-5.2.2-7.6 2.7-4.2 6.8-6.7 11.1-9 .8-.4 1 0 1.5.4 5.8 5.1 17.6 6.5 24.6 3.1 1-.5 2.1-1 2.6-1.9 1-1.8 2.2-1.4 3.6-.8 6.1 2.6 9.4 9.6 7.1 15.1-1.5 3.7-4.3 5.3-8.2 4.7-3.1-.4-6.1-1.5-9-2.6-5.8-2.3-11.5-2-17.2.5-2.9 1.4-5.7 2.8-8.9 2.9z" class="st4"/>
    <path d="M137.4 132c.1-2 .3-4 .3-6 0-1.3.6-1.9 1.7-2.3 2.6-1 5.2-2.2 8.1-2.6 1.3-.2 2-.1 2.1 1.6.2 4.7.7 9.5.5 14.2-.1 3.4-2.2 5.3-5 6.5-2.5 1.1-4.5-.6-6.5-1.8-.8-.4-1-1.2-1.1-2.1-.3-2.5-.3-5-.1-7.5zM152.2 121.2c3.7.6 6.9 2.2 10.3 3.1 3.9 1.1 3.9 1.1 4 5.2 0 3.8-.5 7.5-2.5 10.8-2.1 3.5-4.8 4-8 1.5-2.2-1.6-3.5-3.4-3.2-6.5.5-4.6-.4-9.3-.6-14.1zM108.9 35.3c8.4.1 16.2 2.4 22.9 7.6 9.7 7.5 14.4 17.5 12.1 29.6-2.5 12.8-11 20.5-23.6 23.5-9.5 2.3-18.7 1-27.4-3.6-11.5-6.1-17.1-16.9-15.5-29.7 1.7-13.5 10.3-23.6 22.9-26.5 2.8-.6 5.7-1 8.6-.9zm8.9 33.4c0 6.2 4.5 11.2 10.1 11.2 5.5 0 10.2-5.1 10.1-11.2 0-6-4.5-11-10-11.1-5.5-.1-10.2 4.9-10.2 11.1zM194.4 38.9c8.2.1 14.6 1.6 20.6 5 11.3 6.4 16.9 18 15 30.6-2 13-10.8 22.5-23.5 25.2-11.3 2.4-21.9.5-31.2-6.4-10.3-7.6-13.7-18.2-11.2-30.5 2.5-12.4 10.4-19.7 22.5-22.9 2.9-.7 6-1 7.8-1zm9.1 32.6c0 6.1 4.5 11.1 10.1 11.2 5.6.1 10.3-4.8 10.4-11 .1-6.2-4.5-11.3-10.2-11.4-5.7.1-10.3 5.1-10.3 11.2z" class="st5"/>
    <path d="M117.8 68.7c0-6.2 4.6-11.2 10.2-11.1 5.5.1 10 5.1 10 11.1 0 6.1-4.6 11.2-10.1 11.2-5.6 0-10.1-5-10.1-11.2zm3.2 2.5c.1 1.6.7 2.8 2.4 2.8 1.6 0 2.3-1.2 2.3-2.6.1-1.5-.5-2.8-2.2-2.9-1.8-.1-2.4 1.2-2.5 2.7zM203.5 71.5c0-6.1 4.7-11.1 10.3-11.1 5.7 0 10.3 5.1 10.2 11.4-.1 6.1-4.8 11.1-10.4 11-5.6-.2-10.2-5.2-10.1-11.3zm8 2.5c-.1-1.5-.7-2.8-2.4-2.8s-2.4 1.2-2.4 2.8c0 1.5.7 2.7 2.4 2.8 1.7 0 2.2-1.3 2.4-2.8z" class="st1"/>
    <path d="M121 71.2c.2-1.5.8-2.8 2.5-2.7 1.7.1 2.3 1.4 2.2 2.9-.1 1.4-.7 2.6-2.3 2.6-1.8 0-2.3-1.3-2.4-2.8zM211.5 74c-.1 1.5-.7 2.8-2.4 2.8s-2.4-1.2-2.4-2.8c0-1.5.7-2.8 2.4-2.8s2.2 1.3 2.4 2.8z" class="st5"/>
    <g>
        <path d="M415.9 188.1h69.2v11.8c0 22.2-.1 44.3.1 66.5 0 3.1-1.3 4.8-3.7 6.3-14.5 9.3-30.1 15.1-47.3 16.8-17.3 1.7-34.5 2.7-51.4-2.1-34.6-9.8-57.7-31.7-68.2-66.2-6.8-22.5-5.8-45.2 2-67.4 10.5-30.2 32.3-48.9 62.3-57.3 28.9-8 57.9-7.1 85.4 6.4 7.8 3.8 14.7 9.3 22.4 14.2-5.4 8-9.8 15.1-14.8 21.7-4.1 5.5-10.1 6.2-16.5 2.6-12-6.8-24.4-11.9-38.4-12.7-21.5-1.2-44.9 8.1-54.2 31-10.8 26.4-9.5 52.1 7.2 75.7 12.7 18 31.6 22.6 52.6 20.3 6-.7 11.9-2.8 17.8-4.6 1.4-.4 3.2-2.2 3.3-3.5.3-9.6.1-19.2.1-29.4-6.1 0-11.7.1-17.3 0-8.3-.1-10.5-2.3-10.6-10.7-.1-6.2 0-12.5 0-19.4zM1049.4 273.6c-14.8-12.5-13.1-31.2 8.2-43.9-7.9-4.5-14.5-10-18.6-18.2-8.6-16.8-3.6-40.1 11.2-52 20.7-16.5 51.3-19.1 74.5-6.6 1.9 1 4.4 1.2 6.6 1.3 12.3.1 24.6.1 37.5.1 0 5.7.7 11.2-.3 16.5-.5 2.5-3.9 5.2-6.5 6.5-3.5 1.6-7.6 1.9-10.3 2.5-.5 8.6.4 16.9-1.6 24.5-4.2 16.3-16.4 25.1-31.8 30.1-10.5 3.4-21.3 3.5-32.1 2.9-4.2-.2-6.4 1.6-7.2 5.1-.8 3.7 1.4 6.2 5 6.8 4.9.9 9.8 1.4 14.8 1.9 14.2 1.5 28.6 1.5 42.4 4.5 29.4 6.4 33.2 33.1 18.5 54.2-10.8 15.6-27.3 22.6-45.3 25.3-17.5 2.6-35.3 2.7-52.3-3.1-7.7-2.6-15.7-6-22.1-11-15.1-11.9-17.3-35.2 5.2-45.6 1.5-.4 2.6-1 4.2-1.8zm48.4 33.3c6.1-.9 12.7-1.6 19.1-3 5.7-1.2 9.8-5.8 9.7-10.1-.2-6-4.9-7.9-9.5-8.5-13-1.6-26-3-39-3.9-6.6-.5-12.5 5.1-13 11.1-.6 6 2.9 10.3 10.4 11.6 7.1 1.3 14.4 1.8 22.3 2.8zm-1.9-94.7c12.6-.1 19.6-6.8 19.5-18.7-.1-12.2-7-18.1-21.1-18-11.3.1-18.4 7.2-18.3 18.5.1 11 8.1 18.3 19.9 18.2zM928.7 288.4h-40.6v-138c9.7 0 19.3-.4 28.8.3 2.4.2 5 3.9 6.8 6.4 1.4 1.9 1.7 4.6 2.5 7 5.6-3.8 10.8-8 16.6-11.1 15.9-8.5 46.7-7.8 60 11 7.4 10.4 11 22 11.1 34.5.4 29.5.1 58.9.1 88.4 0 .3-.2.6-.4 1.4h-41.1v-33c0-18.1.1-36.3.1-54.4 0-3.1-.5-6.3-1.2-9.3-2.8-11.4-13.7-16.1-26.8-11.5-2.2.8-4.3 1.8-6.4 2.8-6.3 3.2-9.6 7.4-9.4 15.5.7 28.6.3 57.3.3 85.9 0 1.3-.2 2.5-.4 4.1zM572.5 290.8c-32.5.8-59-17.9-66.8-48.7-5.8-22.6-4.5-44.9 8.7-65.2 10.6-16.2 26-25.1 45.1-27.8 16.7-2.4 32.9-1 48 6.9 20.7 10.8 30.7 28.8 33.7 51.5 2 15.3.7 30.1-5.3 44.4-10.4 24.6-30 36.1-55.8 38.6-2.6.1-5.1.2-7.6.3zm-29.1-72.4c1 7.7 1.5 14.5 2.8 21.1 2.2 11.5 11.4 19.8 21.3 20.7 19.8 1.8 26.7-7.3 29.8-17.3 4.9-15.6 4.8-31.4 0-47-3.7-11.9-13.1-17.8-25.9-17.5-12.7.4-21.3 6.6-24.4 18.8-1.8 7.2-2.5 14.6-3.6 21.2zM820.9 207.5c-1.3-6.5-1.9-13.2-3.9-19.3-2.5-7.4-9.7-9.5-18.1-9.4-9.1.1-16.5 4.6-24 8.8-8 4.6-20 3.7-24.6-6.7-1.7-3.9-4.2-7.4-6.5-11.3 11.9-10.2 25.3-16.5 40.2-19.2 14.9-2.7 30-3.6 44.6 1.8 17.8 6.6 28.4 19.6 31.1 38.1 1.6 10.8 1.2 21.9 1.3 32.8.2 21 0 42 0 63 0 .6-.2 1.3-.3 2-8.5 0-16.8.6-24.9-.3-2.9-.3-5.7-4-7.8-6.7-1.7-2.1-2.3-5.1-3.4-7.6-6.4 4.1-12.2 8.8-18.9 11.9-16.2 7.6-32.9 7.3-49.2.7-22.5-9.1-27.1-44.7-6-60.1 12.7-9.3 27.1-13.7 42.3-15.9 8.8-1.1 17.6-1.6 28.1-2.6zm-1 24.6c-5.2.5-9.9.4-14.3 1.4-6.7 1.4-13.5 3.1-19.9 5.6-5.2 2-8.2 8.8-7.3 14 1.1 6.1 4.1 8.9 10.6 10.1 9.2 1.7 17.2-1 24.8-6.1 4.1-2.8 6.8-5.9 6.3-11.4-.5-4.1-.2-8.3-.2-13.6zM669 88.4h40.7v200H669v-200z"/>
    </g>
</svg>
