<svg xmlns="http://www.w3.org/2000/svg" id="Layer_1" viewBox="0 0 2007 632">
    <style>
        .st0{fill:#f3503c}.st1{fill:#fff}
    </style>
    <path d="M805.1 407.6h23c9.8 0 19.7-.1 29.5.1 1.4 0 3.9 1.6 4.1 2.7 5 28.9 22.7 47.5 48.8 58 35 14.1 70.5 14.6 105.5-.4 18.8-8 33.1-21.2 38.9-41.6 6.8-24-1.9-46.8-22.9-61.1-17-11.5-36.3-17.1-55.8-22.2-25.1-6.6-50.3-12.7-75.1-20.2-22-6.7-42.3-17.1-58.7-33.8-16.3-16.6-24.3-36.9-25.3-59.8-2.2-51.2 23.6-91.6 73.1-111.2 51.4-20.4 103.3-20.4 153.5 4.3 36.1 17.7 57.9 47.1 63.7 87.5.5 3.8.6 7.6 1 11.8h-55.2c-.5-2.8-.9-5.8-1.6-8.8-5.7-25-20.9-42.3-44.5-51.4-30.4-11.8-61.3-11.6-91.6.8-7.6 3.1-14.7 7.9-21.1 13.1-23.7 19.4-32.9 65.9 10.2 88 17.2 8.8 35.6 13.8 54 18.9 27.7 7.7 55.4 15.5 82.8 24.2 14.1 4.5 26.9 12.3 38.7 21.5 27.3 21.6 36.4 50.8 34.3 84.3-3.3 51.6-31.2 85.5-78.7 102.7-49.4 18-99.7 18.6-149.2 0-40.4-15.1-67.7-43.3-78-86.2-1.5-6.7-2.2-13.7-3.4-21.2zM1999.3 223.9v43.7h-57.2v169.3c0 4.3.3 8.7.9 12.9 2.2 16.6 12.4 26.4 29.2 27.3 8.8.5 17.6.1 26.9.1v26.2c0 4.7.2 9.3-.1 14-.1 1.3-1.7 3.4-2.8 3.5-20.3 2.3-40.6 3.3-60.7-1.3-26.8-6.1-41.5-22.5-45.4-50.4-1.3-9.5-2-19.2-2-28.9-.2-55.3-.1-110.7-.1-166v-6.2h-103.3v252.6h-53.9V267.9h-41.5v-43.8h41.3c0-2.5-.1-4.6 0-6.7.7-15.3 0-30.8 2.4-45.8 5-30.9 23.9-48 55.2-52.5 16.6-2.4 33.2-2.3 49.8.1 1.4.2 3.6 2.1 3.6 3.2.3 13 .2 26 .2 39.5-4.8-.5-9.1-1.1-13.5-1.2-5.6-.2-11.4-.5-16.9.2-15.6 1.8-24.2 9.5-25.8 25-1.3 12.3-.3 24.9-.3 37.7H1888v-70.4h54v70.6c19.2.1 38 .1 57.3.1zM1438.2 462.1c2.6-10.6 5.2-21.2 7.8-31.9 16.1-67 32.2-133.9 48.2-200.9.9-3.8 2.1-5.4 6.5-5.3 15.8.3 31.6.1 48.3.1-27.4 99.2-54.8 198-82.1 297-17.9 0-35.6.1-53.2-.2-1.2 0-3.1-2.5-3.6-4.1-8.8-30-17.4-60.1-26-90.2-12.3-42.7-24.5-85.4-36.8-128.1-.4-1.4-.9-2.8-2.4-4.3-21.6 75.5-43.2 151.1-64.8 226.6h-55.8c-27.4-98.7-54.8-197.4-82.3-296.5h54c19 79.1 38.1 158.3 57.2 237.5.5.1.9.2 1.4.2 21.5-79.2 43.1-158.5 64.7-237.8h52.4c21.7 79.3 43.4 158.4 65.2 237.6.4.2.8.2 1.3.3zM1644.7 520.9h-53.6V224.4h53.6v296.5zM1618.4 111.8c18.1.4 32.6 15 32.3 32.6-.3 17.9-15.4 32.6-33.2 32.4-18.2-.2-32.8-15.3-32.4-33.6.2-17.6 15.3-31.7 33.3-31.4z"/>
    <path d="M485.4 625.5H147.7C70.3 625.5 7 562.2 7 484.8V147.1C7 69.7 70.3 6.4 147.7 6.4h337.7c77.4 0 140.7 63.3 140.7 140.7v337.7c0 77.4-63.3 140.7-140.7 140.7z" class="st0"/>
    <path d="M421.5 435.2c-54.7 31.6-130 34.9-205.7 2.4-61.3-26.1-112.2-71.7-144.8-123.9 15.7 13 33.9 23.5 53.5 32.6 78.2 36.7 156.4 34.1 211.4.1l-.1-.1C257.6 286.3 191 208 141.5 144.1c-10.4-10.4-18.3-23.5-26.1-35.2 60 54.8 155.2 123.9 189.1 143.5-71.7-75.7-135.7-169.6-133.1-167 113.5 114.8 219.2 180 219.2 180 3.5 2 6.2 3.6 8.4 5.1 2.3-5.8 4.3-11.9 6-18.1 18.3-66.5-2.6-142.2-48.3-204.8C462.4 111.5 525 231.5 498.9 331.9c-.7 2.7-1.4 5.4-2.2 8 .3.4.6.7.9 1.1 52.2 65.2 37.8 134.4 31.3 121.3-28.3-55.3-80.7-38.4-107.4-27.1z" class="st1"/>
</svg>
