<svg xmlns="http://www.w3.org/2000/svg" id="Layer_1" viewBox="0 0 3850.2 1753.1">
    <style>
        .st0{fill:#2062af}.st1{fill:#3c9cd7}.st2{fill:#fff}.st3{fill:url(#SVGID_1_)}.st4{fill:url(#SVGID_2_)}.st5{fill:url(#SVGID_3_)}.st6{opacity:5e-2;enable-background:new}.st7{fill:url(#SVGID_4_)}.st8{enable-background:new}
    </style>
    <path d="M1410.4 1580.6l-632.3 170.2-632.3-170.2L0 0h1556.3l-145.9 1580.6z" class="st0"/>
    <path d="M778.2 128v1487.1l1.4.4 511.7-137.8L1409.4 128H778.2z" class="st1"/>
    <path d="M777.6 523.3L325.1 711.7l15 186.6 437.5-187.1 465.4-199 19.3-190.9-484.7 202z" class="st2"/>
    <linearGradient id="SVGID_1_" x1="605.248" x2="605.248" y1="1725.326" y2="1806.136" gradientTransform="matrix(4.6418 0 0 -4.6418 -2258.09 8906.92)" gradientUnits="userSpaceOnUse">
        <stop offset=".387" stop-color="#d1d3d4" stop-opacity="0"/>
        <stop offset="1" stop-color="#d1d3d4"/>
    </linearGradient>
    <path d="M325.1 711.7l15 186.6 437.5-187.1v-188L325.1 711.7z" class="st3"/>
    <linearGradient id="SVGID_2_" x1="706.2" x2="706.2" y1="1765.612" y2="1849.61" gradientTransform="matrix(4.6418 0 0 -4.6418 -2258.09 8906.92)" gradientUnits="userSpaceOnUse">
        <stop offset=".387" stop-color="#d1d3d4" stop-opacity="0"/>
        <stop offset="1" stop-color="#d1d3d4"/>
    </linearGradient>
    <path d="M1262.3 321.4L777.6 523.3v188l465.4-199 19.3-190.9z" class="st4"/>
    <linearGradient id="SVGID_3_" x1="556.657" x2="750.698" y1="1689.284" y2="1689.284" gradientTransform="matrix(4.6418 0 0 -4.6418 -2258.09 8906.92)" gradientUnits="userSpaceOnUse">
        <stop offset="0" stop-color="#e8e7e5"/>
        <stop offset="1" stop-color="#fff"/>
    </linearGradient>
    <path d="M325.8 711.7l15 186.6 671.3 2.1-15 248.8-220.9 62.2-212.4-53.6-12.8-154.4H353.6l25.7 298.1 398.9 118 396.8-115.8 51.5-591.9-900.7-.1z" class="st5"/>
    <path d="M777.6 711.7H325.1l15 186.6 437.5 1.4v-188zm0 499.1l-2.1.6-212.3-53.6-12.9-154.4H353l25.7 298.1 398.9 118v-208.7z" class="st6"/>
    <linearGradient id="SVGID_4_" x1="547.716" x2="758.41" y1="1829.047" y2="1829.047" gradientTransform="matrix(4.6418 0 0 -4.6418 -2258.09 8906.92)" gradientUnits="userSpaceOnUse">
        <stop offset="0" stop-color="#e8e7e5"/>
        <stop offset="1" stop-color="#fff"/>
    </linearGradient>
    <path d="M284.3 321.4h978L1243 512.3H307.9l-23.6-190.9z" class="st7"/>
    <path d="M777.6 321.4H284.3l23.6 190.9h469.7V321.4z" class="st6"/>
    <g class="st8">
        <path d="M2118.2 1218.2c-114.9 0-211.4-37.8-289.5-113.3s-117.1-173.3-117.1-293.4c0-119.3 39.4-217.5 118.2-294.5 78.8-77 174.2-115.5 286.2-115.5 56 0 106.6 8.3 151.9 24.9 45.3 16.6 82 38.5 110 65.8 28 27.3 50.5 55.3 67.4 84 16.9 28.7 28.7 58.6 35.4 89.5L2316 717.6c-3.7-15.5-9.6-30.8-17.7-45.9-8.1-15.1-19.5-30.6-34.3-46.4-14.7-15.8-35-28.7-60.8-38.7s-54.9-14.9-87.3-14.9c-58.9 0-110.9 20.8-155.8 62.4s-67.4 100.7-67.4 177.3c0 70.7 22.1 127.1 66.3 169.1 44.2 42 97.2 63 159.1 63 60.4 0 107.2-15.1 140.3-45.3s54.9-64.1 65.2-101.7l166.9 47.5c-7.4 30.2-19.4 60-35.9 89.5-16.6 29.5-39 58.6-67.4 87.3-28.4 28.7-65.9 52.1-112.7 70.2-46.7 18.1-98.8 27.2-156.3 27.2zM3149.2 610.4l-156.9 44.2c-3.7-24.3-15.8-46.8-36.5-67.4s-51.9-30.9-93.9-30.9c-31.7 0-57.5 8.3-77.4 24.9-19.9 16.6-29.8 36.3-29.8 59.1 0 40.5 25.8 65.6 77.3 75.1l105 19.9c72.2 13.3 128 41.4 167.4 84.5s59.1 93.4 59.1 150.8c0 65.6-26.2 123.2-78.5 172.9s-122.7 74.6-211 74.6c-98.7 0-175.2-25.6-229.3-76.8-54.2-51.2-84.5-109.2-91.2-174l160.2-38.7c3.7 39 19 71.3 45.9 96.7 26.9 25.4 65.7 38.1 116.6 38.1 33.9 0 60.8-7.5 80.7-22.7 19.9-15.1 29.8-34.8 29.8-59.1 0-19.9-7.4-36.7-22.1-50.3s-35.4-23-61.9-28.2l-107.2-19.9c-66.3-12.5-118.4-39.4-156.4-80.7s-56.9-91-56.9-149.2c0-72.2 27.6-132.2 82.9-180.1s121.2-71.8 197.8-71.8c46.4 0 87.8 6.5 124.3 19.3s65.4 30 86.8 51.4c21.4 21.4 38.1 43.5 50.3 66.3 12.2 23 20.4 47 24.9 72zM3822.1 610.4l-156.9 44.2c-3.7-24.3-15.8-46.8-36.5-67.4s-51.9-30.9-93.9-30.9c-31.7 0-57.5 8.3-77.4 24.9-19.9 16.6-29.8 36.3-29.8 59.1 0 40.5 25.8 65.6 77.3 75.1l105 19.9c72.2 13.3 128 41.4 167.4 84.5s59.1 93.4 59.1 150.8c0 65.6-26.2 123.2-78.5 172.9s-122.7 74.6-211 74.6c-98.7 0-175.2-25.6-229.3-76.8-54.2-51.2-84.5-109.2-91.2-174l160.2-38.7c3.7 39 19 71.3 45.9 96.7 26.9 25.4 65.7 38.1 116.6 38.1 33.9 0 60.8-7.5 80.7-22.7 19.9-15.1 29.8-34.8 29.8-59.1 0-19.9-7.4-36.7-22.1-50.3s-35.4-23-61.9-28.2l-107.2-19.9c-66.3-12.5-118.4-39.4-156.4-80.7s-56.9-91-56.9-149.2c0-72.2 27.6-132.2 82.9-180.1s121.2-71.8 197.8-71.8c46.4 0 87.8 6.5 124.3 19.3s65.4 30 86.8 51.4c21.4 21.4 38.1 43.5 50.3 66.3 12.2 23 20.5 47 24.9 72z"/>
    </g>
</svg>
