<svg xmlns="http://www.w3.org/2000/svg" id="Layer_1" viewBox="0 0 6164 2009.9">
    <style>
        .st0{fill:#e44d26}.st1{fill:#f16529}.st2{fill:#ebebeb}.st3{fill:#fff}
    </style>
    <path d="M1769.8 0l-160.9 1803-723.5 200.6-721.5-200.3L3.1 0h1766.7z" class="st0"/>
    <path d="M886.4 1850.3l584.6-162.1 137.5-1540.8H886.4v1702.9z" class="st1"/>
    <path d="M573.5 589.8h312.9V368.6H331.8l5.3 59.3 54.4 609.5h494.9V816.3H593.8l-20.3-226.5zm49.9 558.2h-222l31 347.3 453.1 125.8 1-.3v-230.1l-1 .3-246.3-66.5-15.8-176.5z" class="st2"/>
    <path d="M885.7 1037.4H1158l-25.7 286.8-246.7 66.6V1621l453.4-125.7 3.3-37.4 52-582.3 5.4-59.4h-514v221.2zm0-448.1v.5h534.2l4.4-49.7 10.1-112.1 5.3-59.3h-554v220.6z" class="st3"/>
    <path d="M3233.4 774.5h306.5v55l.1 641.3h238.3V774.5H4085V539h-851.6zM2873.8 828v55h-428.6V539H2207v931.8h238.2v-348.9h428.6v348.9H3112V539h-238.2zM4784.4 878.7l-47 77-46.9-77L4483.2 539H4206v931.9h230.7V823.3l101.2 156.4 196.5 303.6 196.4-303.7L5032 823.1v647.7h236.8V539h-277.4zM5682.2 1236.4h-55V539h-238.3l-.1 931.8h728.1v-234.4z"/>
</svg>
