<svg xmlns="http://www.w3.org/2000/svg" width="75" height="75" viewBox="0 0 75 75">
  <g id="Group_15" data-name="Group 15" transform="translate(-751 -1703)">
    <circle id="Ellipse_1" data-name="Ellipse 1" cx="37.5" cy="37.5" r="37.5" transform="translate(751 1703)" fill="#e1f2ff"/>
    <path id="Shape_5" data-name="Shape 5" d="M785.669,1758.017a1.366,1.366,0,1,1,0-2.729q2.661-.022,5.323,0a1.366,1.366,0,1,1,0,2.728c-.91.017-1.82,0-2.73,0-.526,0-1.053,0-1.579,0C786.345,1758.025,786.007,1758.023,785.669,1758.017Zm-8-5.469a6.829,6.829,0,0,1-1.656-13.459,7.4,7.4,0,0,1,1.757-.206q10.558-.02,21.117-.006a6.838,6.838,0,1,1-.032,13.674c-3.508.007-7.016,0-10.524,0q-1.739,0-3.477,0l-3.146,0Q779.686,1752.555,777.668,1752.547Zm.215-10.933a4.852,4.852,0,0,0-1.016.089,4.091,4.091,0,0,0,.823,8.105c3.553.014,7.107,0,10.661,0q5.227,0,10.456,0a4.1,4.1,0,1,0-.012-8.2l-8.365,0Q784.156,1741.609,777.883,1741.614Zm18.308,5.454a1.359,1.359,0,0,1,0-2.716c.475-.029.954-.005,1.431-.005s.957-.023,1.432.005a1.359,1.359,0,0,1,0,2.716q-.715.026-1.432.026T796.19,1747.068Zm-19.891-1.359a1.365,1.365,0,1,1,1.4,1.368h-.034A1.375,1.375,0,0,1,776.3,1745.709Zm5.468-.007a1.365,1.365,0,1,1,1.391,1.375h-.026A1.374,1.374,0,0,1,781.768,1745.7Zm-4.037-9.018a6.836,6.836,0,1,1-.025-13.671c3.553-.014,7.107,0,10.661,0l3.426,0c2.411,0,4.823-.006,7.234.007a6.831,6.831,0,0,1,1.579,13.471,7.31,7.31,0,0,1-1.69.194q-6.226.01-12.453.011Q782.1,1736.691,777.731,1736.684Zm.164-10.928a5.129,5.129,0,0,0-1.477.2,4.087,4.087,0,0,0,1.192,7.985q10.728.023,21.459,0a3.291,3.291,0,0,0,.677-.075,4.094,4.094,0,0,0-.8-8.12c-3.531-.013-7.061,0-10.593,0l-5.086,0Q780.579,1725.745,777.894,1725.756Zm18.35,5.455a1.363,1.363,0,1,1,.029-2.725c.909-.023,1.819-.024,2.728,0a1.347,1.347,0,0,1,1.354,1.341,1.365,1.365,0,0,1-1.382,1.385c-.454.018-.909,0-1.363,0-.28,0-.56.007-.84.007C796.594,1731.223,796.419,1731.22,796.244,1731.211Zm-18.612,0a1.366,1.366,0,1,1,.032,0Zm4.135-1.385a1.365,1.365,0,1,1,1.381,1.385h-.016A1.374,1.374,0,0,1,781.768,1729.83Z" fill="#1f5ce1"/>
  </g>
</svg>
