<svg xmlns="http://www.w3.org/2000/svg" width="75" height="75" viewBox="0 0 75 75">
  <g id="Group_13" data-name="Group 13" transform="translate(-150 -1704)">
    <circle id="Ellipse_1" data-name="Ellipse 1" cx="37.5" cy="37.5" r="37.5" transform="translate(150 1704)" fill="#e1f2ff"/>
    <path id="Shape_4" data-name="Shape 4" d="M198.58,1757.007a9.415,9.415,0,0,0-5.945-8.734,11.2,11.2,0,0,0-3.636-.766,13.492,13.492,0,0,0-4.876.354,9.7,9.7,0,0,0-6.949,8.641c-.014.2-.019.409-.037.614a1.368,1.368,0,1,1-2.725-.106,11.434,11.434,0,0,1,1.252-5.265,12.272,12.272,0,0,1,11.125-7.006c.364-.013.728,0,1.093,0a12.444,12.444,0,0,1,9.25,3.15,12.139,12.139,0,0,1,4.175,9.027,1.394,1.394,0,0,1-1.273,1.625l-.1,0C199.163,1758.543,198.63,1757.963,198.58,1757.007Zm-11.594,1.282c-1.767-1.034-3.546-2.047-5.31-3.086a1.342,1.342,0,0,1-.527-2.032q.954-1.616,1.958-3.2a1.351,1.351,0,0,1,1.883-.535,1.366,1.366,0,0,1,.441,1.956c-.2.357-.423.7-.635,1.052l-.632,1.042c1.163.676,2.3,1.342,3.44,1.987a.526.526,0,0,0,.436-.019c1.151-.635,2.292-1.29,3.488-1.967-.433-.695-.843-1.341-1.241-2a1.375,1.375,0,1,1,2.315-1.445c.652,1.014,1.3,2.031,1.931,3.059a1.366,1.366,0,0,1-.538,2.13c-1.795,1.03-3.6,2.035-5.4,3.063a1.605,1.605,0,0,1-.8.235A1.582,1.582,0,0,1,186.986,1758.29Zm.721-16.285a9.146,9.146,0,1,1,.013,0Zm-6.464-9.279a6.481,6.481,0,1,0,6.517-6.438h-.025A6.487,6.487,0,0,0,181.243,1732.726Z" fill="#1f5ce1"/>
  </g>
</svg>
