<?xml version="1.0"?>
<svg xmlns="http://www.w3.org/2000/svg" id="Layer_35" enable-background="new 0 0 64 64" height="512px" viewBox="0 0 64 64" width="512px" class="hovered-paths"><g><path d="m34 50h5v10h-5z" fill="#f0bc5e" data-original="#F0BC5E" class="hovered-path active-path" style="fill:#1A94D0" data-old_color="#f0bc5e"/><path d="m14.875 18-.875 9 2 2 2-2-.875-9z" fill="#f0bc5e" data-original="#F0BC5E" class="hovered-path active-path" style="fill:#1A94D0" data-old_color="#f0bc5e"/><path d="m43.523 15.009c.482-.018.964-.009 1.438.026l.145-1.995c-.547-.039-1.104-.05-1.655-.03-4.071.145-7.978 2.073-10.716 5.291l1.523 1.296c2.376-2.791 5.753-4.464 9.265-4.588z" data-original="#000000" class="" style="fill:#000000"/><path d="m47.219 13.343-.426 1.954c.649.141 1.291.334 1.907.573l.723-1.865c-.713-.276-1.455-.499-2.204-.662z" data-original="#000000" class="" style="fill:#000000"/><path d="m57.192 14.327c-3.743-3.612-8.688-5.507-13.884-5.314-3.339.119-6.462 1.166-9.16 2.869.557-1.786.852-3.651.852-5.531v-1.851c0-1.93-1.57-3.5-3.5-3.5s-3.5 1.57-3.5 3.5v1.048c0 4.495-2.479 8.512-6.343 10.557.841-1.155 1.343-2.571 1.343-4.105 0-3.86-3.141-7-7-7s-7 3.14-7 7c0 2.038.881 3.87 2.276 5.151-3.778.854-6.701 3.765-7.508 7.595l-2.688 12.77c-.053.251-.08.509-.08.767 0 2.05 1.667 3.717 3.717 3.717h.103c1.756 0 3.247-1.197 3.629-2.911l.551-2.478v22.389c0 2.206 1.794 4 4 4 1.201 0 2.266-.542 3-1.382.734.84 1.799 1.382 3 1.382 2.206 0 4-1.794 4-4v-35.294c1.065-.401 2.076-.903 3.038-1.485-.66 1.961-1.038 4.046-1.038 6.211v3.568c0 6.171 2.98 11.921 8 15.49v15.51h2v-16.569l-.443-.297c-4.732-3.168-7.557-8.452-7.557-14.134v-3.568c0-9.285 7.348-17.1 16.379-17.42 4.663-.167 9.076 1.522 12.425 4.754.895.863 1.673 1.811 2.347 2.818l-2.104-.841c-1.231-.493-2.526-.743-3.852-.743-3.6 0-6.888 1.823-8.796 4.875l-1.929 3.085-1.67-2.227c-.815-1.085-2.111-1.733-3.467-1.733-2.39 0-4.333 1.944-4.333 4.333v3.133c0 1.267.552 2.466 1.514 3.29l5.32 4.561c.514.441 1.169.683 1.845.683 1.221 0 2.301-.778 2.688-1.938l.582-1.746-1.896-.633-.583 1.747c-.177.53-.909.732-1.334.37l-5.321-4.561c-.518-.445-.815-1.09-.815-1.772v-3.133c0-1.287 1.047-2.334 2.333-2.334.73 0 1.429.349 1.867.934l2.3 3.066h2.055l2.54-4.064c1.541-2.465 4.195-3.936 7.1-3.936 1.069 0 2.115.202 3.109.599l4.348 1.739c.884 2.076 1.348 4.33 1.348 6.662v9.279l-2.937.979-.976 10.742h-9.087c-3.859 0-7-3.14-7-7v-1h-2v1c0 4.962 4.037 9 9 9h1v12h2v-12h7.913l1.023-11.258 3.064-1.021v-10.721c0-5.203-2.062-10.059-5.808-13.673zm-46.192-2.327c0-2.757 2.243-5 5-5s5 2.243 5 5c0 2.532-1.9 4.609-4.345 4.934l-1.149.016c-2.522-.252-4.506-2.362-4.506-4.95zm16.797 6.409-.005-.005c-1.757 1.655-3.812 2.882-6.108 3.647l-.684.228v36.721c0 1.103-.897 2-2 2s-2-.897-2-2v-24h-2v24c0 1.103-.897 2-2 2s-2-.897-2-2v-31.389l.977-4.394-1.953-.434-3.528 15.873c-.176.791-.865 1.344-1.676 1.344h-.103c-.946 0-1.717-.771-1.717-1.717 0-.119.013-.237.037-.354l2.688-12.771c.671-3.186 3.166-5.596 6.366-6.159l3.132-.045c.256.029.514.046.777.046.318 0 .628-.029.935-.07l3.08-.044.291-.048c5.798-1.859 9.694-7.2 9.694-13.29v-1.048c0-.827.673-1.5 1.5-1.5s1.5.673 1.5 1.5v1.851c0 2.835-.733 5.637-2.12 8.104l.017.01c-1.192 1.172-2.234 2.496-3.1 3.944z" data-original="#000000" class="" style="fill:#000000"/><path d="m59 28h-2c0 .249-1.064 1-3 1s-3-.751-3-1h-2c0 1.71 2.149 3 5 3s5-1.29 5-3z" data-original="#000000" class="" style="fill:#000000"/><path d="m37 58h2v2h-2z" data-original="#000000" class="" style="fill:#000000"/><path d="m37 54h2v2h-2z" data-original="#000000" class="" style="fill:#000000"/><path d="m37 50h2v2h-2z" data-original="#000000" class="" style="fill:#000000"/></g> </svg>
