<?xml version="1.0"?>
<svg xmlns="http://www.w3.org/2000/svg" height="512px" viewBox="0 0 56 56" width="512px" class=""><g><g id="Page-1" fill="none" fill-rule="evenodd"><g id="009---Call-For-First-Aid" fill="rgb(0,0,0)" fill-rule="nonzero"><path id="Shape" d="m2 53c-.7044065-.0040116-1.39492534-.1963211-2-.557v1.557c0 1.1045695.8954305 2 2 2h28c1.1045695 0 2-.8954305 2-2v-1.558c-.6049756.3610293-1.2955009.5536858-2 .558z" data-original="#000000" class="active-path" data-old_color="#000000" fill="#FFFFFF"/><path id="Shape" d="m16 41h-6c-.55228475 0-1-.4477153-1-1s.44771525-1 1-1h6v-4h-8c-.55228475 0-1-.4477153-1-1s.44771525-1 1-1h8v-4h-11c-.55228475 0-1-.4477153-1-1s.44771525-1 1-1h11v-4h-9c-.55228475 0-1-.4477153-1-1s.44771525-1 1-1h9v-3h-6c-.55228475 0-1-.4477153-1-1s.44771525-1 1-1h6c0-1.6568542 1.3431458-3 3-3h9v-2c0-1.65685425 1.3431458-3 3-3h1v-6c0-1.1045695-.8954305-2-2-2h-3.568l-2.564 2.736c-.7569664.80538104-1.812724 1.26270713-2.918 1.264h-9.9c-1.1051278-.00200533-2.16061525-.45921443-2.918-1.264l-2.564-2.736h-3.568c-1.1045695 0-2 .8954305-2 2v47c0 1.1045695.8954305 2 2 2h28c1.1045695 0 2-.8954305 2-2v-5h-13c-1.6568542 0-3-1.3431458-3-3z" data-original="#000000" class="active-path" data-old_color="#000000" fill="#FFFFFF"/><path id="Shape" d="m11.05 2h9.9c.5524266-.00026633 1.0801402-.22901463 1.458-.632l1.282-1.368h-15.38l1.281 1.367c.37834531.40300979.9062242.63203467 1.459.633z" data-original="#000000" class="active-path" data-old_color="#000000" fill="#FFFFFF"/><path id="Shape" d="m30 11v2h14v-2c0-.5522847-.4477153-1-1-1h-12c-.5522847 0-1 .4477153-1 1z" data-original="#000000" class="active-path" data-old_color="#000000" fill="#FFFFFF"/><path id="Shape" d="m38 30v-4h-2v4c0 .5522847-.4477153 1-1 1h-4v2h4c.5522847 0 1 .4477153 1 1v4h2v-4c0-.5522847.4477153-1 1-1h4v-2h-4c-.5522847 0-1-.4477153-1-1z" data-original="#000000" class="active-path" data-old_color="#000000" fill="#FFFFFF"/><path id="Rectangle-path" d="m46 19h5v2h-5z" data-original="#000000" class="active-path" data-old_color="#000000" fill="#FFFFFF"/><path id="Rectangle-path" d="m23 19h5v2h-5z" data-original="#000000" class="active-path" data-old_color="#000000" fill="#FFFFFF"/><path id="Shape" d="m55 15h-36c-.5522847 0-1 .4477153-1 1v3h3c0-1.1045695.8954305-2 2-2h5c1.1045695 0 2 .8954305 2 2h14c0-1.1045695.8954305-2 2-2h5c1.1045695 0 2 .8954305 2 2h3v-3c0-.5522847-.4477153-1-1-1z" data-original="#000000" class="active-path" data-old_color="#000000" fill="#FFFFFF"/><path id="Shape" d="m51 23h-5c-1.1045695 0-2-.8954305-2-2h-14c0 1.1045695-.8954305 2-2 2h-5c-1.1045695 0-2-.8954305-2-2h-3v20c0 .5522847.4477153 1 1 1h36c.5522847 0 1-.4477153 1-1v-20h-3c0 1.1045695-.8954305 2-2 2zm-6 10c0 1.1045695-.8954305 2-2 2h-3v3c0 1.1045695-.8954305 2-2 2h-2c-1.1045695 0-2-.8954305-2-2v-3h-3c-1.1045695 0-2-.8954305-2-2v-2c0-1.1045695.8954305-2 2-2h3v-3c0-1.1045695.8954305-2 2-2h2c1.1045695 0 2 .8954305 2 2v3h3c1.1045695 0 2 .8954305 2 2z" data-original="#000000" class="active-path" data-old_color="#000000" fill="#FFFFFF"/></g></g></g> </svg>
