<?xml version="1.0"?>
<svg xmlns="http://www.w3.org/2000/svg" id="Layer_35" enable-background="new 0 0 64 64" height="512px" viewBox="0 0 64 64" width="512px"><g><path d="m14 31c1.682 0 3-1.757 3-4 0-.42-.047-.834-.14-1.229l-1.947.457c.058.246.087.505.087.772 0 1.221-.592 2-1 2s-1-.779-1-2c0-.267.029-.525.087-.771l-1.946-.461c-.094.396-.141.81-.141 1.232 0 2.243 1.318 4 3 4z" data-original="#000000" class=""/><path d="m29 16h2v2h-2z" data-original="#000000" class=""/><path d="m33 16h2v2h-2z" data-original="#000000" class=""/><path d="m37 16h2v2h-2z" data-original="#000000" class=""/><path d="m26 12v2h35v6h-37.029v2h37.029v32h-41v-9c2.206 0 4-1.794 4-4v-8c0-4.114-2.468-7.76-6.289-9.289l-.743 1.857c3.057 1.223 5.032 4.14 5.032 7.432v8c0 1.103-.897 2-2 2v-12h-2v28.5c0 .827-.673 1.5-1.5 1.5s-1.5-.673-1.5-1.5v-19.5h-2v19.5c0 .827-.673 1.5-1.5 1.5s-1.5-.673-1.5-1.5v-28.5h-2v12c-1.103 0-2-.897-2-2v-8c0-3.292 1.975-6.209 5.032-7.432l-.743-1.857c-3.821 1.529-6.289 5.175-6.289 9.289v8c0 2.206 1.794 4 4 4v14.5c0 1.93 1.57 3.5 3.5 3.5.98 0 1.864-.407 2.5-1.058.636.651 1.52 1.058 2.5 1.058 1.93 0 3.5-1.57 3.5-3.5v-3.5h43v-44z" data-original="#000000" class=""/><path d="m27 10.219-2.416-.603 1.281-2.136-5.347-5.346-2.134 1.281-.603-2.415h-7.562l-.603 2.416-2.135-1.281-5.347 5.345 1.281 2.136-2.415.603v7.562l2.416.603-1.282 2.136 4.6 4.6 2.821-.778.664 2.658h7.562l.664-2.659 2.821.778 4.6-4.6-1.281-2.136 2.415-.602zm-13 9.781c-3.314 0-6-2.686-6-6s2.686-6 6-6 6 2.686 6 6-2.686 6-6 6z" fill="#f0bc5e" data-original="#F0BC5E" class="active-path" data-old_color="#f0bc5e" style="fill:#529FF1"/><path d="m14 21c-3.86 0-7-3.141-7-7s3.14-7 7-7 7 3.141 7 7-3.14 7-7 7zm0-12c-2.757 0-5 2.243-5 5s2.243 5 5 5 5-2.243 5-5-2.243-5-5-5z" data-original="#000000" class=""/><path d="m14 17c-1.654 0-3-1.346-3-3s1.346-3 3-3 3 1.346 3 3-1.346 3-3 3zm0-4c-.551 0-1 .448-1 1s.449 1 1 1 1-.448 1-1-.449-1-1-1z" data-original="#000000" class=""/><path d="m40.707 25.707-1.414-1.414-1.707 1.707h-11.586v10h12v-7.586zm-12.707 2.293h7.586l-3.586 3.586-1.293-1.293-1.414 1.414 2.293 2.293h-3.586zm8 6h-3.586l3.586-3.586z" data-original="#000000" class=""/><path d="m59 35h-17-2v-4h2v-5h17z" fill="#f0bc5e" data-original="#F0BC5E" class="active-path" data-old_color="#f0bc5e" style="fill:#529FF1"/><path d="m40 34h19v2h-19z" data-original="#000000" class=""/><path d="m40 30h19v2h-19z" data-original="#000000" class=""/><path d="m57 26h2v2h-2z" data-original="#000000" class=""/><path d="m53 26h2v2h-2z" data-original="#000000" class=""/><path d="m42 26h9v2h-9z" data-original="#000000" class=""/><path d="m38 50h-12v-10h12zm-10-2h8v-6h-8z" data-original="#000000" class=""/><path d="m40 41h19v9h-19z" fill="#f0bc5e" data-original="#F0BC5E" class="active-path" data-old_color="#f0bc5e" style="fill:#529FF1"/><path d="m57 48h2v2h-2z" data-original="#000000" class=""/><path d="m53 48h2v2h-2z" data-original="#000000" class=""/><path d="m40 48h11v2h-11z" data-original="#000000" class=""/><path d="m40 44h19v2h-19z" data-original="#000000" class=""/><path d="m40 40h19v2h-19z" data-original="#000000" class=""/></g> </svg>
