<svg xmlns="http://www.w3.org/2000/svg" width="50" height="50" viewBox="0 0 50 50">
  <g id="Group_10" data-name="Group 10" transform="translate(-924 -4566)">
    <g id="Ellipse_5" data-name="Ellipse 5" transform="translate(924 4566)" fill="none" stroke="#232323" stroke-width="1" opacity="0.2">
      <circle cx="25" cy="25" r="25" stroke="none"/>
      <circle cx="25" cy="25" r="24.5" fill="none"/>
    </g>
    <path id="Shape_25" data-name="Shape 25" d="M951.755,4603.12c-2.859-.1-5.72-.188-8.578-.318a1.084,1.084,0,0,1-.712-.47c-.207-.306-.01-.613.237-.861q2.227-2.223,4.452-4.449a4.969,4.969,0,0,1,.393-.321l-1.53-1.518c-.08.074-.208.186-.328.306q-2.227,2.223-4.451,4.449c-.4.4-.777.454-1.114.172-.369-.31-.352-.766.064-1.183q2.22-2.229,4.451-4.448a3.115,3.115,0,0,1,.414-.306c-.558-.561-1.037-1.042-1.575-1.584-.325.341-.652.7-.991,1.039q-1.894,1.9-3.792,3.8a.766.766,0,0,1-.91.265.789.789,0,0,1-.462-.789c-.095-2.762-.179-5.525-.3-8.287a1.141,1.141,0,0,1,.766-1.243c1.7-.771,3.373-1.591,5.058-2.389.767-.364.906-.341,1.495.253.171.172.325.36.472.525.611-.8,1.138-1.585,1.755-2.289a14.862,14.862,0,0,1,7.15-4.334,24.306,24.306,0,0,1,7.352-1.006c.607.008.931.27.935.814A22.221,22.221,0,0,1,959.4,4590.2a13.081,13.081,0,0,1-4.612,4.8c-.124.076-.244.158-.457.3.273.25.521.473.765.7a.836.836,0,0,1,.181,1.062q-1.308,2.747-2.6,5.5a.881.881,0,0,1-.866.573Zm.872-7.031c-1.07.412-2.176.727-3.266,1.087a1.353,1.353,0,0,0-.519.233c-1.309,1.285-2.6,2.583-3.98,3.957a3.2,3.2,0,0,0,.336.063c2,.072,3.992.149,5.99.2a.621.621,0,0,0,.445-.322c.676-1.383,1.322-2.781,1.988-4.167.12-.25.171-.453-.089-.631-.224-.153-.333-.469-.653-.469A.707.707,0,0,0,952.628,4596.089Zm-3.119-5.647a.674.674,0,0,1,.27.855,1.264,1.264,0,0,1-.321.419c-.777.783-1.56,1.561-2.376,2.375.553.545,1.065,1.065,1.6,1.561a.536.536,0,0,0,.425.068c.52-.124,1.04-.256,1.546-.425a12.723,12.723,0,0,0,7.612-6.062,19.228,19.228,0,0,0,2.083-6.795c.117-.927.159-1.865.24-2.839-.25,0-.408-.007-.567,0a23.482,23.482,0,0,0-6.033.987,13.17,13.17,0,0,0-9.585,10.508.43.43,0,0,0,.064.343c.515.537,1.048,1.058,1.679,1.686a3.332,3.332,0,0,1,.327-.474q1.041-1.062,2.1-2.1a.73.73,0,0,1,.515-.236A.774.774,0,0,1,949.509,4590.442Zm-6.536-3.906q-2.033.987-4.084,1.937a.555.555,0,0,0-.384.623c.082,1.866.136,3.733.2,5.6,0,.157.028.314.053.6,1.33-1.333,2.574-2.567,3.8-3.822a1.98,1.98,0,0,0,.416-.736c.363-1.056.65-2.14,1.064-3.173.206-.511-.141-.647-.351-.921a.452.452,0,0,0-.365-.214A.826.826,0,0,0,942.972,4586.537Zm8.415-.663a2.884,2.884,0,0,1,2.885-2.873,2.835,2.835,0,0,1,2.873,2.864,2.885,2.885,0,0,1-2.864,2.9A2.927,2.927,0,0,1,951.387,4585.874Zm2.883-1.407a1.415,1.415,0,0,0-1.417,1.42,1.468,1.468,0,0,0,1.4,1.406,1.416,1.416,0,0,0,1.423-1.414,1.377,1.377,0,0,0-1.4-1.412Z" fill="#1a4ec0"/>
  </g>
</svg>
