<svg xmlns="http://www.w3.org/2000/svg" width="50" height="50" viewBox="0 0 50 50">
  <g id="Group_6" data-name="Group 6" transform="translate(-125 -4986)">
    <g id="Ellipse_5" data-name="Ellipse 5" transform="translate(125 4986)" fill="none" stroke="#232323" stroke-width="1" opacity="0.2">
      <circle cx="25" cy="25" r="25" stroke="none"/>
      <circle cx="25" cy="25" r="24.5" fill="none"/>
    </g>
    <path id="Shape_31" data-name="Shape 31" d="M159.847,5023.742a2.089,2.089,0,0,1-1.687-2.108q-.008-4.564,0-9.13c0-2.989-.006-5.98.01-8.969a2.325,2.325,0,0,1,.221-.962c.506-1.057,1.058-2.09,1.58-3.138a.882.882,0,0,1,.8-.6.849.849,0,0,1,.8.6c.021.049.05.093.074.141a17.065,17.065,0,0,1,1.657,3.439,16.75,16.75,0,0,1,.086,3.828q0,7.287,0,14.576a2.143,2.143,0,0,1-2.373,2.37c-.181,0-.364.007-.546.007A3.307,3.307,0,0,1,159.847,5023.742Zm1.043-1.556c.392.039.791.078.878-.508a14.148,14.148,0,0,0,.019-2.019h-2.027c0,.687-.015,1.34.006,1.992.014.435.32.58.7.524a.921.921,0,0,1,.14-.01A2.76,2.76,0,0,1,160.89,5022.187Zm-1.1-4.19h1.966v-13.965h-1.966Zm.5-15.628h.981c-.173-.333-.318-.614-.5-.958C160.588,5001.769,160.447,5002.046,160.284,5002.369Zm-20.724,21.415a3.41,3.41,0,0,1-3.519-3.544q0-8.974,0-17.948a3.428,3.428,0,0,1,3.5-3.518q6.65-.006,13.3,0a3.425,3.425,0,0,1,3.649,3.632c.011,2.956,0,5.912,0,8.868,0,2.974.009,5.947,0,8.921a3.417,3.417,0,0,1-2.781,3.535,3.552,3.552,0,0,1-.743.054l-7.738,0Zm.146-23.411a1.87,1.87,0,0,0-2.066,2.089q0,4.406,0,8.814,0,4.46,0,8.92a1.836,1.836,0,0,0,2,1.986h13.242a1.808,1.808,0,0,0,2-1.972q.015-8.921,0-17.842a1.832,1.832,0,0,0-2.043-2H139.707Zm7.825,18.142a.757.757,0,0,1-.7-.848.777.777,0,0,1,.823-.729c.373-.011.746,0,1.12,0s.748-.01,1.121,0a.792.792,0,0,1,.092,1.58q-.607.026-1.216.026T147.531,5018.515Zm-5.027.021c-.712,0-1.423,0-2.135,0-.664,0-1.025-.3-1.02-.823.006-.5.354-.778.994-.778q2.188,0,4.376,0c.635,0,1,.284,1.006.775s-.393.821-1.034.826l-.729,0Zm-2.263-3.287c-.557-.008-.884-.3-.891-.772a.788.788,0,0,1,.857-.821q2.319-.026,4.641,0a.832.832,0,0,1,.878.815.8.8,0,0,1-.9.777c-.782.011-1.565,0-2.348,0l-1.344,0C140.839,5015.254,140.54,5015.253,140.241,5015.25Zm2.3-3.2h-.8c-.5,0-1,0-1.5,0-.561-.007-.886-.3-.9-.767a.8.8,0,0,1,.9-.828c1.51-.014,3.022-.011,4.534,0a.851.851,0,0,1,.937.812c0,.474-.358.778-.944.784-.308,0-.616,0-.923,0Zm7.439-3.206c-.746,0-1.494.006-2.24,0-.571-.008-.893-.28-.913-.749a.8.8,0,0,1,.884-.846q2.292-.021,4.587,0a.834.834,0,0,1,.9.792c.01.483-.338.8-.923.8q-.458.006-.917.005Zm-9.757,0a.8.8,0,1,1-.049-1.588c1.565-.021,3.129-.019,4.694,0a.826.826,0,0,1,.857.833.793.793,0,0,1-.861.757c-.783.012-1.565,0-2.348,0-.465,0-.931,0-1.4,0Q140.671,5008.841,140.222,5008.835Zm9.789-3.2c-.765,0-1.529.009-2.293,0-.561-.008-.883-.3-.891-.771a.782.782,0,0,1,.852-.821q2.321-.026,4.641,0a.82.82,0,0,1,.875.813.791.791,0,0,1-.89.779q-.449.007-.9.006C150.942,5005.635,150.476,5005.632,150.011,5005.632Zm-9.789,0a.8.8,0,1,1-.049-1.589q2.373-.03,4.747,0a.809.809,0,0,1,.8.828.793.793,0,0,1-.861.758c-.782.013-1.565,0-2.346,0-.466,0-.932,0-1.4,0Q140.671,5005.635,140.222,5005.629Z" fill="#1a4ec0"/>
  </g>
</svg>
