<svg xmlns="http://www.w3.org/2000/svg" width="50" height="50" viewBox="0 0 50 50">
  <g id="Group_11" data-name="Group 11" transform="translate(-925 -4711)">
    <g id="Ellipse_5" data-name="Ellipse 5" transform="translate(925 4711)" fill="none" stroke="#232323" stroke-width="1" opacity="0.2">
      <circle cx="25" cy="25" r="25" stroke="none"/>
      <circle cx="25" cy="25" r="24.5" fill="none"/>
    </g>
    <path id="Shape_27" data-name="Shape 27" d="M949.7,4748.073c-.4-.406-.769-.841-1.185-1.229a1.1,1.1,0,0,1-.318-1.188c.375-1.508.733-3.021,1.12-4.621-.478.1-.9.174-1.317.274a1.589,1.589,0,0,1-1.871-2.357c.2-.381.386-.771.654-1.307-1.206.305-2.289.509-3.321.864a1.777,1.777,0,0,0-1.169,1.663c-.052.875-.038,1.753-.042,2.63,0,1.5,0,2.99,0,4.485,0,.178.044.405-.045.523a1.413,1.413,0,0,1-.647.547.6.6,0,0,1-.719-.5,1.975,1.975,0,0,1-.05-.53q-.005-3.291,0-6.583a3.709,3.709,0,0,1,3.216-3.953q1.519-.327,3.035-.682c.126-.028.309-.149.319-.246a.453.453,0,0,0-.213-.356,3.789,3.789,0,0,1-2.139-3.693c.027-1.544,0-3.089.007-4.632a3.585,3.585,0,0,1,3.767-3.76h6.733c.752,0,.978.244.963,1a4.828,4.828,0,0,1-1.008,2.938,1.1,1.1,0,0,0-.2.613c-.035,1.543,0,3.089-.08,4.627a3.26,3.26,0,0,1-1.559,2.574.683.683,0,0,0-.35.877c1.2.271,2.383.529,3.566.807a3.554,3.554,0,0,1,2.97,3.59c.049,2.356.018,4.713.011,7.07,0,.541-.287.859-.721.866-.452.006-.733-.319-.735-.9-.006-2.211,0-4.421,0-6.632,0-1.621-.529-2.274-2.131-2.637-.754-.17-1.509-.339-2.373-.532.255.523.455.94.661,1.354a1.572,1.572,0,0,1-1.813,2.295c-.427-.084-.849-.19-1.331-.3a3.5,3.5,0,0,0,.047.413c.359,1.4.709,2.794,1.088,4.185a1.074,1.074,0,0,1-.329,1.222c-.45.4-.856.846-1.3,1.255a.735.735,0,0,1-1.188-.035Zm.106-2.875a1.025,1.025,0,0,0,.565,1.368c.2-.325.759-.411.616-.97-.2-.778-.405-1.555-.609-2.332C950.138,4743.9,950.028,4744.571,949.806,4745.2Zm1.693-5.632,1.845.388c-.335-.673-.6-1.215-.92-1.848C952.1,4738.618,951.812,4739.071,951.5,4739.567Zm-4.15.228.057.138,1.71-.374-.926-1.446Zm2.942-1.079c.505-.785.966-1.469,1.384-2.177a1.9,1.9,0,0,0,.107-.672H948.8C948.951,4737.031,949.821,4737.717,950.292,4738.716Zm-3.815-9.236c0,.844-.008,1.688,0,2.531a2.224,2.224,0,0,0,2.286,2.369c.908.03,1.819.03,2.727,0a2.192,2.192,0,0,0,2.275-2.132c.072-1.179.016-2.363.016-3.621-.186.06-.305.1-.425.136s-.246.08-.371.115a13.171,13.171,0,0,1-5.833.046,1.9,1.9,0,0,0-.308-.033C946.552,4728.892,946.48,4729.04,946.477,4729.48Zm2.289-4.6a2.144,2.144,0,0,0-2.267,2.5c.3.036.574.057.843.1a14.026,14.026,0,0,0,4.648.134,3.16,3.16,0,0,0,2.96-2.736h-6.184Zm6.646,23.5c-.434-.012-.709-.34-.71-.868q-.005-2.287,0-4.573c0-.55.3-.9.747-.885s.708.346.711.874c0,.778,0,1.558,0,2.335,0,.746,0,1.492,0,2.238,0,.542-.287.878-.725.878Zm-10.958-.879c0-.762,0-1.524,0-2.287s0-1.524,0-2.286c0-.528.28-.862.711-.874s.746.335.747.885q.005,2.287,0,4.574c0,.529-.276.856-.71.867h-.023C944.742,4748.381,944.457,4748.043,944.455,4747.5Z" fill="#1a4ec0"/>
  </g>
</svg>
