<svg xmlns="http://www.w3.org/2000/svg" width="50" height="50" viewBox="0 0 50 50">
  <g id="Group_3" data-name="Group 3" transform="translate(-125 -4567)">
    <g id="Ellipse_5" data-name="Ellipse 5" transform="translate(125 4567)" fill="none" stroke="#232323" stroke-width="1" opacity="0.2">
      <circle cx="25" cy="25" r="25" stroke="none"/>
      <circle cx="25" cy="25" r="24.5" fill="none"/>
    </g>
    <path id="Shape_23" data-name="Shape 23" d="M142.379,4603.526c-.608,0-.955-.3-.951-.787s.351-.771.965-.773c.78,0,1.56,0,2.365,0,.343-1.035.679-2.046,1.04-3.131h-.627q-2.97,0-5.942,0a2.366,2.366,0,0,1-2.558-2.567q0-7.609,0-15.22a2.359,2.359,0,0,1,2.531-2.542q10.814,0,21.629,0a2.358,2.358,0,0,1,2.529,2.545q0,7.61,0,15.219a2.365,2.365,0,0,1-2.56,2.565c-2.154,0-4.306,0-6.567,0l1.04,3.131c.808,0,1.587,0,2.367,0,.611,0,.96.287.964.775s-.347.784-.954.785h-15.27Zm4.049-1.609h7.178c-.357-1.066-.7-2.075-1.027-3.064h-5.134C147.106,4599.872,146.771,4600.883,146.428,4601.917Zm-8.2-5.564a.813.813,0,0,0,.934.918q10.862,0,21.726,0a.792.792,0,0,0,.892-.688,5.332,5.332,0,0,0,.008-.86H138.23C138.23,4595.972,138.226,4596.162,138.231,4596.353Zm13.657-2.2c.291.009.4-.109.429-.384a2.28,2.28,0,0,0-1.051-2.373,2.193,2.193,0,0,0-2.5,0,2.28,2.28,0,0,0-1.051,2.373c.032.275.137.393.429.384.624-.018,1.249,0,1.874,0,.371,0,.742,0,1.114,0C151.382,4594.141,151.635,4594.143,151.888,4594.15Zm-8.866-1.573v1.552h3.155a3.958,3.958,0,0,1,.731-3.132,3.826,3.826,0,0,1,2.842-1.535,3.73,3.73,0,0,1,2.713.858,3.974,3.974,0,0,1,1.412,3.8h3.137v-1.5c-1.472-.161-1.385-.208-1.994-1.328a1.516,1.516,0,0,1,.432-2.267c.022-.015.022-.06.025-.07l-1.129-1.183a4.683,4.683,0,0,1-.4.531c-.535.545-.73.563-1.416.23a6.025,6.025,0,0,0-1.01-.408.9.9,0,0,1-.728-.99c0-.255,0-.511,0-.774h-1.565c0,.247,0,.455,0,.662-.012.747-.12.883-.818,1.135-.373.134-.737.3-1.1.468a.828.828,0,0,1-1.085-.171,6.609,6.609,0,0,1-.451-.644l-1.308,1.168c.2.185.375.331.534.491.5.5.512.686.2,1.332a11.407,11.407,0,0,0-.443,1.107.874.874,0,0,1-.93.67c-.1,0-.21-.006-.315-.006C143.357,4592.574,143.189,4592.577,143.022,4592.577Zm-4.792-11.4v12.953h3.182v-1.449c0-1.628,0-1.641,1.6-1.653a.5.5,0,0,0,.543-.344.467.467,0,0,0-.168-.622c-.157-.138-.3-.29-.444-.441a.818.818,0,0,1-.006-1.351c.483-.5.981-.984,1.472-1.477,1.136-1.136,1.166-1.13,2.322-.048a.8.8,0,0,0,.566.149c.278-.023.4-.225.37-.52a5.291,5.291,0,0,1,0-.729.8.8,0,0,1,.92-.879c.29,0,.581,0,.872,0,.4,0,.809,0,1.213,0,1.4-.036,1.773-.024,1.7,1.637a.624.624,0,0,0,.332.471.747.747,0,0,0,.564-.106,3.066,3.066,0,0,0,.488-.467.83.83,0,0,1,1.353,0c.5.484.984.982,1.475,1.474,1.15,1.148,1.15,1.158.035,2.312-.013.011-.032.023-.035.037a2.237,2.237,0,0,0-.089.582c.025.263.216.358.484.327a4.98,4.98,0,0,1,.573,0c.8,0,1.051.245,1.058,1.058.006.672,0,1.345,0,2.035H161.8v-.5q0-6.231,0-12.46c0-.837-.246-1.086-1.081-1.086H139.342C138.469,4580.064,138.231,4580.3,138.23,4581.173Zm19.527,5.146a2.338,2.338,0,1,1,.075,0Zm-.69-2.338a.768.768,0,1,0,.79-.785h-.022A.78.78,0,0,0,157.068,4583.98Z" fill="#1a4ec0"/>
  </g>
</svg>
