<svg xmlns="http://www.w3.org/2000/svg" viewBox="0 0 512.086 512.086">
    <path fill="#1565c0" d="M490.411 181.54L287.744 31.802c-18.796-14.176-44.713-14.176-63.509 0L21.568 181.519A52.865 52.865 0 0 0 0 224.25a10.664 10.664 0 0 0 5.419 9.28l242.965 137.344 2.411 3.861c3.074 4.951 9.552 6.518 14.549 3.52l241.493-144.853A10.67 10.67 0 0 0 512 224.25a52.822 52.822 0 0 0-21.589-42.71z"/>
    <path fill="#cfd8dc" d="M444.885 67.3l-21.333-21.333c-4.165-4.164-10.917-4.164-15.083 0L256 198.436l-45.781-45.803c-4.165-4.164-10.917-4.164-15.083 0l-21.333 21.333c-4.164 4.165-4.164 10.917 0 15.083l74.667 74.667c4.165 4.164 10.917 4.164 15.083 0L444.885 82.383c4.165-4.165 4.165-10.917 0-15.083z"/>
    <path fill="#2196f3" d="M268.8 363.471l-3.84-6.187a10.666 10.666 0 0 0-3.819-3.648L15.808 214.969c-5.161-2.84-11.648-.957-14.487 4.204A10.666 10.666 0 0 0 0 224.249v234.667c0 17.673 14.327 32 32 32h42.667a10.664 10.664 0 0 0 5.483-1.515l185.173-111.147c5.047-3.038 6.676-9.593 3.638-14.64l-.075-.123-.086-.02z"/>
    <path fill="#64b5f6" d="M506.603 214.97a10.668 10.668 0 0 0-10.667.128l-426.667 256c-5.055 3.026-6.699 9.576-3.673 14.631a10.668 10.668 0 0 0 9.156 5.188h405.333c17.673 0 32-14.327 32-32V224.25a10.664 10.664 0 0 0-5.482-9.28z"/>
</svg>
