<svg xmlns="http://www.w3.org/2000/svg" width="26.032" height="35.013" viewBox="0 0 26.032 35.013">
  <path id="Shape_17" data-name="Shape 17" d="M965.849,3261.469a8.181,8.181,0,0,1-8.287-8.076q-.092-9.43,0-18.863a8.178,8.178,0,0,1,8.294-8.068q4.656,0,9.312,0a8.227,8.227,0,0,1,8.368,8.279c.023,3.075,0,6.152,0,9.227s.016,6.152,0,9.227a8.242,8.242,0,0,1-8.239,8.266q-2.362.015-4.724.013T965.849,3261.469Zm.067-32.275a5.491,5.491,0,0,0-5.628,5.615q-.018,9.16,0,18.32a5.491,5.491,0,0,0,5.636,5.608q4.52.007,9.041,0a5.518,5.518,0,0,0,5.836-5.822q0-4.478,0-8.955c0-3.054.012-6.107,0-9.16a5.5,5.5,0,0,0-5.638-5.607q-2.311,0-4.622,0T965.915,3229.195Zm3.006,24.785a1.737,1.737,0,0,1,1.745-1.724,1.7,1.7,0,0,1-.01,3.39h-.01A1.739,1.739,0,0,1,968.921,3253.98Zm-3.165-4.64a1.434,1.434,0,0,1-1.208-1.746,5.734,5.734,0,0,1,6.166-5.2,5.657,5.657,0,0,1,5.909,4.531,4.821,4.821,0,0,1,.089,1.15,1.272,1.272,0,0,1-1.122,1.256,1.289,1.289,0,0,1-1.5-.893,2.484,2.484,0,0,1-.112-.6,2.82,2.82,0,0,0-2.622-2.67c-1.154-.11-2.353-.15-3.167.826a4.654,4.654,0,0,0-.888,1.922c-.2.9-.621,1.433-1.363,1.433A1.686,1.686,0,0,1,965.756,3249.339Zm4.852-8.458a4.1,4.1,0,0,1,.006-8.192,4.1,4.1,0,1,1,.044,8.192Zm.032-5.448a1.353,1.353,0,0,0-.051,2.705,1.354,1.354,0,1,0,.055-2.705Z" transform="translate(-957.515 -3226.461)" fill="#343434" opacity="0.6"/>
</svg>
