<svg xmlns="http://www.w3.org/2000/svg" width="35.005" height="35.023" viewBox="0 0 35.005 35.023">
  <path id="Shape_13" data-name="Shape 13" d="M1238.056,3057.915q-.967-.915-1.879-1.887a1.158,1.158,0,0,1-.235-1.5,1.183,1.183,0,0,1,2.2-.381c.641.581,1.248,1.2,1.841,1.829a1.357,1.357,0,0,1,.032,2.007,1.32,1.32,0,0,1-.918.388A1.517,1.517,0,0,1,1238.056,3057.915Zm-24.536.447a8.214,8.214,0,0,1-8.076-8.064q-.02-5.062,0-10.124a8.212,8.212,0,0,1,8.064-8.075c3.166-.012,6.332,0,9.5,0q4.578,0,9.157,0a8.2,8.2,0,0,1,8.269,8.283c0,.5,0,1,0,1.506,0,1.005-.51,1.609-1.351,1.617s-1.357-.6-1.382-1.589a18.346,18.346,0,0,0-.141-2.721,5.364,5.364,0,0,0-5.226-4.36q-9.4-.022-18.793,0a5.448,5.448,0,0,0-5.363,5.373q-.031,5.026,0,10.054a5.453,5.453,0,0,0,5.371,5.365c2.255.013,4.51.01,6.765.008q2.153,0,4.306,0a1.36,1.36,0,0,1,.506,2.655,2.353,2.353,0,0,1-.671.072q-3.37,0-6.739.007Q1215.618,3058.369,1213.52,3058.362Zm16.538-3.694a6.6,6.6,0,1,1,.154,0Zm-3.483-6.591a3.746,3.746,0,1,0,3.875-3.668h-.107A3.746,3.746,0,0,0,1226.575,3048.078Zm-7.218,1.032c-.068,0-.136-.01-.2-.015a7.392,7.392,0,0,1-6.923-7.06c-.057-1,.41-1.656,1.228-1.726a1.356,1.356,0,0,1,1.476,1.493,4.773,4.773,0,0,0,3.591,4.444,9.761,9.761,0,0,0,1.077.146c.943.113,1.49.688,1.417,1.492a1.378,1.378,0,0,1-1.541,1.229C1219.438,3049.113,1219.4,3049.112,1219.357,3049.11Zm3.56-6.345a1.708,1.708,0,0,1,.058-3.415,1.708,1.708,0,1,1-.019,3.415Zm-6.461-14.8a4.447,4.447,0,0,1,3.611-4.441,23.811,23.811,0,0,1,5.761,0,4.437,4.437,0,0,1,3.59,4.388,1.337,1.337,0,0,1-1.19,1.483,1.317,1.317,0,0,1-1.512-1.221c-.282-1.625-.856-2.1-2.524-2.1-.933,0-1.866,0-2.8,0a1.976,1.976,0,0,0-2.2,1.919,1.433,1.433,0,0,1-.958,1.355,1.486,1.486,0,0,1-.453.073A1.364,1.364,0,0,1,1216.456,3027.963Z" transform="translate(-1205.435 -3023.349)" fill="#232323" opacity="0.6"/>
</svg>
