<svg xmlns="http://www.w3.org/2000/svg" width="35.087" height="35.025" viewBox="0 0 35.087 35.025">
  <path id="Shape_15" data-name="Shape 15" d="M462.844,3262.449a1.651,1.651,0,0,1-1.672-1.7,1.625,1.625,0,0,1,1.651-1.711,1.647,1.647,0,0,1,1.715,1.724,1.667,1.667,0,0,1-1.689,1.688Zm4.243-1.4a1.348,1.348,0,0,1,1.04-1.722,14.115,14.115,0,0,0,5.7-2.829,14.527,14.527,0,0,0,5.33-13.352,14.68,14.68,0,0,0-12.367-12.8,13.57,13.57,0,0,0-12.278,4.038c-.8.789-1.435.9-2.086.361a1.354,1.354,0,0,1,0-2.144,15.946,15.946,0,0,1,6.928-4.339,17.312,17.312,0,0,1,22.382,13.762c.157.964.223,1.942.331,2.913A17.391,17.391,0,0,1,468.8,3261.93a1.944,1.944,0,0,1-.446.054A1.237,1.237,0,0,1,467.087,3261.047Zm-9.933-.24a1.707,1.707,0,0,1,.032-3.414,1.679,1.679,0,0,1,1.685,1.685,1.7,1.7,0,0,1-1.7,1.729Zm-4.5-3.515a1.661,1.661,0,0,1-1.7-1.66,1.7,1.7,0,1,1,3.407.007,1.652,1.652,0,0,1-1.7,1.653Zm8.824-3.584a2.8,2.8,0,0,1-2.674-2.248,7.777,7.777,0,0,1,.383-4.629,19,19,0,0,1,1.354-2.078c-1.922-1.634-2.01-3.9-1.8-6.22a3,3,0,0,1,2.988-2.579c1.89-.049,3.784-.057,5.673,0a3.1,3.1,0,0,1,3.06,3.2c.1,2.141-.18,4.151-1.77,5.506a15.209,15.209,0,0,1,1.516,3.106,11.342,11.342,0,0,1,.113,3.65,2.768,2.768,0,0,1-2.629,2.288q-1.584.038-3.169.037Q463,3253.741,461.474,3253.708Zm4.828-4.141c.423.417.85.831,1.389,1.358.073-1.694.222-3.245-1.3-4.208a3.277,3.277,0,0,0-3.615-.026c-1.6.958-1.386,2.542-1.322,4.055l.209.152c.408-.452.8-.924,1.227-1.352a2.417,2.417,0,0,1,1.688-.8A2.483,2.483,0,0,1,466.3,3249.567Zm-4.849-8.775a2.64,2.64,0,0,0,2.014,2.546c2.493.622,4.27-.7,4.257-3.054,0-.319-.011-.638,0-.957.017-.458-.181-.665-.65-.656-.841.015-1.685,0-2.526,0-.387,0-.775-.01-1.161,0s-.689,0-.94,0c-.152,0-.283-.008-.4-.008C461.253,3238.666,461.415,3238.875,461.453,3240.792Zm-13.421,9.77a1.68,1.68,0,1,1,3.36.053,1.663,1.663,0,0,1-1.673,1.706h-.01A1.664,1.664,0,0,1,448.033,3250.562Zm1.959-10.823a3.965,3.965,0,0,1-3.014-3.9q-.012-1.879,0-3.758a1.34,1.34,0,0,1,1.379-1.511c.837.007,1.345.58,1.349,1.541.005,1.16,0,2.322,0,3.484.005,1.08.5,1.57,1.593,1.577.454,0,.911,0,1.366,0,.751,0,1.5-.006,2.253.013a1.309,1.309,0,0,1,1.363,1.02,1.252,1.252,0,0,1-.562,1.48,1.763,1.763,0,0,1-.836.216c-.7.029-1.411.009-2.117.009,0,.022,0,.045,0,.067A17.9,17.9,0,0,1,449.992,3239.738Z" transform="translate(-446.972 -3227.424)" fill="#232323" opacity="0.6"/>
</svg>
