<svg xmlns="http://www.w3.org/2000/svg" width="24.569" height="35" viewBox="0 0 24.569 35">
  <path id="Shape_16" data-name="Shape 16" d="M721.3,3261.236c-1.43-1.43-2.857-2.865-4.321-4.334-.2.184-.37.326-.526.481q-1.909,1.906-3.814,3.816a1.407,1.407,0,0,1-1.648.469,1.456,1.456,0,0,1-.872-1.543c.017-1.959,0-3.918.007-5.877a1.434,1.434,0,0,1,1.365-1.618c.809,0,1.355.654,1.359,1.625,0,.884,0,1.768,0,2.867,1.055-1.062,1.962-1.985,2.878-2.9.895-.892,1.546-.89,2.447.006s1.824,1.828,2.87,2.877c0-1.071,0-1.968,0-2.865a1.434,1.434,0,0,1,1.371-1.614c.808.006,1.353.656,1.354,1.63,0,1.982-.006,3.964.005,5.946a1.411,1.411,0,0,1-.883,1.468,1.316,1.316,0,0,1-.51.109A1.555,1.555,0,0,1,721.3,3261.236Zm-4.411-9.851a12.336,12.336,0,1,1,.018,0Zm-9.5-12.346a9.558,9.558,0,1,0,9.568-9.527h-.007A9.593,9.593,0,0,0,707.4,3239.038Zm6.962,3.487c-.774-.77-1.551-1.539-2.314-2.321a1.382,1.382,0,1,1,1.927-1.946c.263.251.519.51.772.773s.493.533.814.88c1.435-1.438,2.782-2.789,4.13-4.139.909-.911,1.7-1.034,2.344-.366.62.649.487,1.413-.4,2.3q-2.412,2.415-4.825,4.83a1.807,1.807,0,0,1-1.215.664A1.843,1.843,0,0,1,714.358,3242.525Z" transform="translate(-704.669 -3226.781)" fill="#232323" opacity="0.6"/>
</svg>
