<svg xmlns="http://www.w3.org/2000/svg" width="34.985" height="34.98" viewBox="0 0 34.985 34.98">
  <path id="Shape_10" data-name="Shape 10" d="M456.125,3057.936a8.194,8.194,0,0,1-8.06-8.042q-.02-5.046,0-10.092a8.194,8.194,0,0,1,8.055-8.049c3.139-.012,6.278,0,9.417,0h9.077A8.281,8.281,0,0,1,483,3040.9a1.351,1.351,0,0,1-1.414,1.273,1.3,1.3,0,0,1-1.3-1.379,6.169,6.169,0,0,0-1.065-4.062,5.227,5.227,0,0,0-4.308-2.242q-9.384-.04-18.767,0a5.435,5.435,0,0,0-5.358,5.352q-.032,5.011,0,10.023a5.444,5.444,0,0,0,5.359,5.352c1.838.013,3.676.011,5.514.009q1.781,0,3.561,0a1.363,1.363,0,0,1,.445,2.674,2.5,2.5,0,0,1-.608.046q-2.719,0-5.437.005Q457.876,3057.943,456.125,3057.936Zm18.526-.91a8.236,8.236,0,0,1-.143-1.476l-2.892-1.664c-.2.121-.509.314-.825.485a1.388,1.388,0,0,1-1.916-.428,1.281,1.281,0,0,1,.5-1.869,1.313,1.313,0,0,0,.816-1.682,5.459,5.459,0,0,1,.077-1.887c.056-.363-.012-.551-.329-.7a4.139,4.139,0,0,1-.581-.352,1.349,1.349,0,0,1-.478-1.893,1.379,1.379,0,0,1,1.857-.447c.338.177.662.38.969.557.482-.339.906-.685,1.376-.953a15.252,15.252,0,0,1,1.419-.64c.213-2.038.457-2.493,1.378-2.5a1.212,1.212,0,0,1,1.288.909,8.358,8.358,0,0,1,.145,1.487l2.835,1.6c.205-.119.508-.312.828-.473a1.364,1.364,0,0,1,1.843.49,1.282,1.282,0,0,1-.473,1.83,1.193,1.193,0,0,0-.735,1.529,6.294,6.294,0,0,1-.072,2.089.644.644,0,0,0,.349.764c1.107.672,1.388,1.345.929,2.123s-1.261.838-2.377.179l-.287-.167-2.845,1.6c-.205,1.931-.45,2.388-1.367,2.394h-.014A1.211,1.211,0,0,1,474.651,3057.026Zm1.219-10.327a3.059,3.059,0,1,0,.047,0Zm-19.958-1.427a6.981,6.981,0,0,1-1.157-3.852,1.366,1.366,0,1,1,2.723-.03,4.663,4.663,0,0,0,4.484,4.59c.54.034,1.084.031,1.626.026.321,0,.642,0,.963,0,1.01.019,1.594.537,1.582,1.381-.012.821-.579,1.317-1.555,1.341-.522.013-1.045,0-1.709,0q-.24.011-.476.011A7.358,7.358,0,0,1,455.911,3045.271Zm9.591-2.885a1.68,1.68,0,1,1,.032,0ZM459.06,3027.6a4.706,4.706,0,0,1,4.5-4.578c.658-.015,1.318,0,1.975,0,0-.019,0-.039,0-.058a22.909,22.909,0,0,1,2.841.208,4.586,4.586,0,0,1,3.621,4.37,1.344,1.344,0,0,1-1.214,1.524,1.322,1.322,0,0,1-1.486-1.25c-.266-1.57-.862-2.068-2.478-2.069-.954,0-1.908,0-2.862,0a1.966,1.966,0,0,0-2.164,1.873,1.522,1.522,0,0,1-.8,1.331,1.347,1.347,0,0,1-1.941-1.347Z" transform="translate(-448.054 -3022.963)" fill="#232323" opacity="0.6"/>
</svg>
