<svg xmlns="http://www.w3.org/2000/svg" width="26.74" height="34.996" viewBox="0 0 26.74 34.996">
  <path id="Shape_18" data-name="Shape 18" d="M1213.45,3261.7a3.3,3.3,0,0,1-3.035-3.922,12.23,12.23,0,0,1,6.5-8.562,2.973,2.973,0,0,1,3.579.607c.513.518.99,1.07,1.484,1.606s.992,1.068,1.561,1.681c.981-1.041,1.927-2.056,2.886-3.057a3.061,3.061,0,0,1,4.127-.656,12.412,12.412,0,0,1,6.53,10.673,1.43,1.43,0,0,1-.874,1.548,1.157,1.157,0,0,1-1.432-.292,2.184,2.184,0,0,1-.412-1.17,9.95,9.95,0,0,0-4.8-8.2.892.892,0,0,0-1.381.169c-.823.972-1.731,1.874-2.6,2.8a2.573,2.573,0,0,1-4.055.031c-.907-.96-1.809-1.928-2.67-2.929a.756.756,0,0,0-1.157-.156,9.962,9.962,0,0,0-4.514,5.938c-.245.851.025,1.179.92,1.18h3.648q2.28,0,4.56,0a1.356,1.356,0,0,1,1.524,1.075,1.319,1.319,0,0,1-1.291,1.64c-1.694.013-3.388.032-5.081.032C1216.127,3261.747,1214.788,3261.735,1213.45,3261.7Zm15.663.024c-.454,0-.91.02-1.364,0a1.358,1.358,0,0,1-.012-2.714q1.364-.044,2.728,0a1.358,1.358,0,0,1,.011,2.714c-.167.009-.335.012-.5.012C1229.686,3261.732,1229.4,3261.724,1229.113,3261.724Zm-5.561-16.534a9.22,9.22,0,1,1,.036-18.439,9.22,9.22,0,0,1-.014,18.439Zm-.029-15.71a6.49,6.49,0,1,0,.025,12.98,6.49,6.49,0,0,0-.009-12.98Z" transform="translate(-1210.349 -3226.751)" fill="#232323" opacity="0.6"/>
</svg>
