<svg xmlns="http://www.w3.org/2000/svg" width="35.007" height="35.001" viewBox="0 0 35.007 35.001">
  <path id="Shape_21" data-name="Shape 21" d="M708.622,3465.51a8.211,8.211,0,0,1-8.153-8.125c-.009-3.121,0-6.241,0-9.363q0-4.613,0-9.226a8.2,8.2,0,0,1,8.276-8.277c4.24,0,8.481-.016,12.721,0a8.221,8.221,0,0,1,8,7.929c.006.988-.514,1.618-1.347,1.63s-1.349-.586-1.386-1.594a5.476,5.476,0,0,0-5.367-5.234q-6.395-.031-12.79,0a5.442,5.442,0,0,0-5.37,5.362q-.028,9.4,0,18.795a5.455,5.455,0,0,0,5.37,5.366c1.3.012,2.611.009,3.917.006.746,0,1.493,0,2.239,0,.991,0,1.607.534,1.6,1.373s-.622,1.353-1.623,1.354l-3.334,0Q710,3465.514,708.622,3465.51Zm11.792,0a1.378,1.378,0,0,1-1.34-1.5,7.684,7.684,0,0,1,7.29-7.516c.208-.006.417,0,.625,0h.333a7.633,7.633,0,0,1,7.936,5.849,8.863,8.863,0,0,1,.214,1.822,1.354,1.354,0,0,1-2.707.017,5.039,5.039,0,0,0-5.358-4.979c-2.661.1-4.4,1.014-5.208,3.074a6.811,6.811,0,0,0-.381,1.785,1.419,1.419,0,0,1-1.376,1.448Zm-10.444-7.656a1.369,1.369,0,1,1,.02-2.726c1.183-.007,2.366,0,3.55,0s2.366-.005,3.55,0a1.369,1.369,0,1,1-.02,2.725q-1.834.005-3.667.005Q711.687,3457.859,709.97,3457.854Zm17.2-3.416a5.759,5.759,0,1,1,.017,0Zm.023-8.885a3.09,3.09,0,1,0,.013,0Zm-13.714,7.042c-1.069,0-2.137,0-3.207,0-1.182,0-1.8-.485-1.79-1.383.011-.876.615-1.346,1.756-1.348q3.309-.007,6.617,0c1.123,0,1.732.5,1.722,1.381s-.616,1.346-1.756,1.349q-.716,0-1.432,0Zm-3.427-5.2c-1-.005-1.587-.546-1.568-1.4.018-.823.581-1.317,1.566-1.329,1.182-.015,2.364,0,3.547,0,1.137,0,2.273-.012,3.41,0,1.006.013,1.588.544,1.569,1.4-.018.823-.583,1.324-1.566,1.329q-1.739.01-3.479.01T710.052,3447.4Zm-.015-5.261a1.37,1.37,0,0,1-1.553-1.342c-.012-.846.594-1.384,1.579-1.385q4.849,0,9.7,0a1.367,1.367,0,0,1,1.552,1.342c.013.848-.591,1.383-1.579,1.386-1.616,0-3.232,0-4.848,0h-2.77Q711.076,3442.137,710.037,3442.134Z" transform="translate(-700.465 -3430.513)" fill="#232323" opacity="0.6"/>
</svg>
