<svg xmlns="http://www.w3.org/2000/svg" width="512" height="512" viewBox="-108 0 456 456">
    <path fill="#FFF" d="M240 160c0-13.254-10.746-24-24-24H24c-13.254 0-24 10.746-24 24v248c0 13.254 10.746 24 24 24h192c13.254 0 24-10.746 24-24zM64 392a8 8 0 0 1-16 0V176a8 8 0 0 1 16 0zm64 16a8 8 0 0 1-16 0V160a8 8 0 0 1 16 0zm64-16a8 8 0 0 1-16 0V176a8 8 0 0 1 16 0zm0 0M176 440h24v16h-24zm0 0M40 440h24v16H40zm0 0M151.984 40h16v80h-16zm0 0M184 0H56v24h128zm0 0M71.984 40h16v80h-16zm0 0" class="active-path" data-old_color="#000000" data-original="#000000"/>
</svg>
