<?xml version="1.0" encoding="utf-8"?>
<!-- Generator: Adobe Illustrator 26.0.1, SVG Export Plug-In . SVG Version: 6.00 Build 0)  -->
<svg version="1.1" id="Layer_1" xmlns="http://www.w3.org/2000/svg" xmlns:xlink="http://www.w3.org/1999/xlink" x="0px" y="0px"
	 viewBox="0 0 80 80" style="enable-background:new 0 0 80 80;" xml:space="preserve">
<style type="text/css">
	.st0{fill:#1454A3;}
	.st1{fill:#FFFFFF;}
</style>
<rect x="19.4" y="19.1" class="st0" width="43.1" height="43.1"/>
<g>
	<g>
		<path class="st1" d="M40,79C18.5,79,1,61.5,1,40C1,18.5,18.5,1,40,1c21.6,0,39,17.5,39,39.1C79,61.6,61.5,79,40,79z M30.2,40
			c0,3.9,0,7.8,0,11.7c0,2.6,1.9,3.7,4.1,2.3c6.3-3.9,12.6-7.8,18.8-11.8c2.1-1.3,2-3.3-0.1-4.6c-6.2-3.9-12.4-7.8-18.7-11.7
			c-2.3-1.4-4.1-0.3-4.1,2.4C30.2,32.2,30.2,36.1,30.2,40z"/>
	</g>
</g>
</svg>
