<?xml version="1.0"?>
<svg xmlns="http://www.w3.org/2000/svg" id="Layer_5" enable-background="new 0 0 64 64" height="512px" viewBox="0 0 64 64" width="512px"><g><g><g><g><path d="m52 59c-6.065 0-11-4.935-11-11s4.935-11 11-11 11 4.935 11 11-4.935 11-11 11z" fill="#f0bc5e" data-original="#F0BC5E" class="active-path" style="fill:#52C6F1" data-old_color="#f0bc5e"/></g></g><g><path d="m26.939 38c-2.197 2.453-5.386 4-8.939 4-6.627 0-12-5.373-12-12s5.373-12 12-12c3.554 0 6.747 1.545 8.944 4h5.915v-.269l-.135-.232c-3.032-5.242-8.674-8.499-14.724-8.499-9.374 0-17 7.626-17 17s7.626 17 17 17c6.05 0 11.692-3.257 14.725-8.499l.135-.232v-.269z" fill="#f0bc5e" data-original="#F0BC5E" class="active-path" style="fill:#52C6F1" data-old_color="#f0bc5e"/></g><g><path d="m25 27c1.103 0 2 .897 2 2h2c0-2.206-1.794-4-4-4s-4 1.794-4 4v2c0 2.206 1.794 4 4 4s4-1.794 4-4h-2c0 1.103-.897 2-2 2s-2-.897-2-2v-2c0-1.103.897-2 2-2z" data-original="#000000" class="" style="fill:#000000"/><path d="m36 25h-5v10h2v-4h3c.552 0 1 .449 1 1v3h2v-3c0-.771-.301-1.468-.78-2 .48-.532.78-1.229.78-2 0-1.654-1.346-3-3-3zm-3 4v-2h3c.552 0 1 .449 1 1s-.448 1-1 1z" data-original="#000000" class="" style="fill:#000000"/><path d="m21.599 49.471c.248-.437.401-.934.401-1.471v-1.49c-.656.16-1.323.284-2 .364v1.126c0 .552-.448 1-1 1h-2c-.552 0-1-.448-1-1v-1.128c-.681-.08-1.346-.208-2-.367v1.495c0 .537.153 1.034.401 1.471-.839.532-1.401 1.464-1.401 2.529v6c0 2.757 2.243 5 5 5s5-2.243 5-5v-6c0-1.065-.562-1.997-1.401-2.529zm-.599 8.529c0 1.654-1.346 3-3 3s-3-1.346-3-3v-6c0-.552.448-1 1-1h1 2 1c.552 0 1 .448 1 1z" data-original="#000000" class="" style="fill:#000000"/><path d="m53 45c.552 0 1 .448 1 1h2c0-1.654-1.346-3-3-3v-2h-2v2h-3v3c0 1.654 1.346 3 3 3h2c.552 0 1 .448 1 1v1h-3c-.552 0-1-.448-1-1h-2c0 1.654 1.346 3 3 3v2h2v-2h3v-3c0-1.654-1.346-3-3-3h-2c-.552 0-1-.448-1-1v-1z" data-original="#000000" class="" style="fill:#000000"/><path d="m58.001 3.292c-1.904-1.705-4.464-2.521-7.026-2.236-3.948.438-7.256 3.596-7.863 7.509-.548 3.526.97 6.959 3.889 8.908v3.527h-19.643c-2.445-2.54-5.822-4-9.358-4-7.168 0-13 5.832-13 13s5.832 13 13 13c3.54 0 6.911-1.46 9.357-4h24.643c1.654 0 3-1.346 3-3v-11.184c1.161-.414 2-1.514 2-2.816v-4.527c2.481-1.661 4-4.473 4-7.473 0-2.557-1.093-5.001-2.999-6.708zm-40.001 37.708c-6.065 0-11-4.935-11-11s4.935-11 11-11c2.275 0 4.473.716 6.307 2h-4.307c-1.654 0-3 1.346-3 3v12c0 1.654 1.346 3 3 3h4.305c-1.833 1.284-4.028 2-6.305 2zm34-4h-32c-.552 0-1-.448-1-1v-12c0-.551.448-1 1-1h27.184c.414 1.161 1.514 2 2.816 2h-1.721l-2 6h-.559l-2-6h-2.72v10h2v-5.838l1.279 3.838h3.441l1.28-3.838v5.838h2v-10h2v11c0 .552-.448 1-1 1zm2-14h-4c-.552 0-1-.449-1-1v-1h6v1c0 .551-.448 1-1 1zm-3-13c0-.551.448-1 1-1s1 .449 1 1-.448 1-1 1-1-.449-1-1zm4.499 6.053-.499.289v2.658h-2v-6.184c1.161-.414 2-1.514 2-2.816 0-1.654-1.346-3-3-3s-3 1.346-3 3c0 1.302.839 2.402 2 2.816v6.184h-2v-2.659l-.499-.289c-2.524-1.461-3.863-4.28-3.413-7.181.472-3.036 3.04-5.487 6.107-5.827.273-.029.544-.044.814-.044 1.728 0 3.357.619 4.658 1.783 1.482 1.327 2.333 3.229 2.333 5.217 0 2.484-1.342 4.804-3.501 6.053z" data-original="#000000" class="" style="fill:#000000"/></g></g></g> </svg>
