<?xml version="1.0"?>
<svg xmlns="http://www.w3.org/2000/svg" id="Layer_5" enable-background="new 0 0 64 64" height="512px" viewBox="0 0 64 64" width="512px"><g><g><g><path d="m21 13.716v-5.432l-1.617-.551c-.046-.117-.095-.233-.146-.35l.755-1.534-3.84-3.841-1.535.755c-.116-.052-.232-.101-.35-.146l-.551-1.617h-5.432l-.551 1.617c-.117.046-.233.095-.349.147l-1.535-.756-3.84 3.842.755 1.534c-.052.116-.101.233-.147.349l-1.617.551v5.432l1.617.551c.046.117.095.233.146.35l-.754 1.533 3.84 3.841 1.535-.755c.116.052.232.101.35.146l.55 1.618h5.432l.551-1.617c.117-.046.233-.095.35-.146l1.535.755 3.84-3.841-.755-1.534c.052-.116.101-.233.146-.35zm-10 1.284c-2.209 0-4-1.791-4-4s1.791-4 4-4 4 1.791 4 4-1.791 4-4 4z" fill="#f0bc5e" data-original="#F0BC5E" class="active-path" style="fill:#529FF1" data-old_color="#f0bc5e"/></g><g><path d="m35 49h24v9h-24z" fill="#f0bc5e" data-original="#F0BC5E" class="active-path" style="fill:#529FF1" data-old_color="#f0bc5e"/></g><g><path d="m11 16c2.757 0 5-2.243 5-5s-2.243-5-5-5-5 2.243-5 5 2.243 5 5 5zm0-8c1.654 0 3 1.346 3 3s-1.346 3-3 3-3-1.346-3-3 1.346-3 3-3z" data-original="#000000" class="" style="fill:#000000"/><path d="m45.83 26.489h10.426v2h-10.426z" transform="matrix(.501 -.865 .865 .501 1.678 57.887)" data-original="#000000" class="" style="fill:#000000"/><path d="m45.539 34.001h2.308v2h-2.308z" transform="matrix(.501 -.865 .865 .501 -6.994 57.872)" data-original="#000000" class="" style="fill:#000000"/><path d="m61 15h-10v-1c0-.551.448-1 1-1h6c1.654 0 3-1.346 3-3v-1.184c1.161-.414 2-1.514 2-2.816 0-1.654-1.346-3-3-3s-3 1.346-3 3c0 1.302.839 2.402 2 2.816v1.184c0 .551-.448 1-1 1h-6c-1.654 0-3 1.346-3 3v1h-2v-8.184c1.161-.414 2-1.514 2-2.816 0-1.654-1.346-3-3-3s-3 1.346-3 3c0 1.302.839 2.402 2 2.816v8.184h-2v-2c0-1.654-1.346-3-3-3h-19v2h19c.552 0 1 .449 1 1v2h-10c-1.103 0-2 .897-2 2v2c0 1.103.897 2 2 2h.424l1.158 2h-28.582c-1.654 0-3 1.346-3 3v34c0 1.654 1.346 3 3 3h56c1.654 0 3-1.346 3-3v-34c0-1.654-1.346-3-3-3h-.582l1.158-2h.424c1.103 0 2-.897 2-2v-2c0-1.103-.897-2-2-2zm-1-10c.552 0 1 .449 1 1s-.448 1-1 1-1-.449-1-1 .448-1 1-1zm-14-2c.552 0 1 .449 1 1s-.448 1-1 1-1-.449-1-1 .448-1 1-1zm-43 23c0-.551.448-1 1-1h29.739l3.474 6h-34.213zm40.577 12-9.842-17h24.531l-9.842 17zm4.423 2v3.323l-4 1.6v-4.923zm13 20c0 .551-.448 1-1 1h-56c-.552 0-1-.449-1-1v-27h35.371l3.629 6.269v7.731h2.192l5.808-2.323v-5.409l3.629-6.268h7.371zm-1-35c.552 0 1 .449 1 1v5h-6.213l3.474-6zm-29-6v-2h30l.001 2z" data-original="#000000" class="" style="fill:#000000"/><path d="m5 27h2v2h-2z" data-original="#000000" class="" style="fill:#000000"/><path d="m9 27h2v2h-2z" data-original="#000000" class="" style="fill:#000000"/><path d="m13 27h2v2h-2z" data-original="#000000" class="" style="fill:#000000"/><path d="m5 51h28v-16h-28zm2-14h24v12h-24z" data-original="#000000" class="" style="fill:#000000"/><path d="m5 59h8v-6h-8zm2-4h4v2h-4z" data-original="#000000" class="" style="fill:#000000"/><path d="m15 59h8v-6h-8zm2-4h4v2h-4z" data-original="#000000" class="" style="fill:#000000"/><path d="m25 59h8v-6h-8zm2-4h4v2h-4z" data-original="#000000" class="" style="fill:#000000"/><path d="m35 49h2v2h-2z" data-original="#000000" class="" style="fill:#000000"/><path d="m39 49h20v2h-20z" data-original="#000000" class="" style="fill:#000000"/><path d="m35 53h24v2h-24z" data-original="#000000" class="" style="fill:#000000"/><path d="m35 57h24v2h-24z" data-original="#000000" class="" style="fill:#000000"/></g></g></g> </svg>
